<svg xmlns="http://www.w3.org/2000/svg" xmlns:xlink="http://www.w3.org/1999/xlink" width="369" zoomAndPan="magnify" viewBox="0 0 276.75 49.499998" height="66" preserveAspectRatio="xMidYMid meet" version="1.0"><defs><clipPath id="542d4d8c3c"><path d="M 1.261719 0 L 275 0 L 275 49 L 1.261719 49 Z M 1.261719 0 " clip-rule="nonzero"/></clipPath><clipPath id="7a163bc990"><path d="M 1.261719 19 L 270 19 L 270 49 L 1.261719 49 Z M 1.261719 19 " clip-rule="nonzero"/></clipPath><clipPath id="f01147f9b7"><path d="M 1.261719 0 L 275 0 L 275 49 L 1.261719 49 Z M 1.261719 0 " clip-rule="nonzero"/></clipPath><clipPath id="a78d35455e"><path d="M 1.261719 19 L 270 19 L 270 49 L 1.261719 49 Z M 1.261719 19 " clip-rule="nonzero"/></clipPath></defs><g clip-path="url(#542d4d8c3c)"><path fill="#d594d6" d="M 265 39.027344 L 265 34.148438 L 250.363281 34.148438 L 250.363281 24.390625 L 235.726562 24.390625 L 235.726562 19.515625 L 221.09375 19.515625 L 221.09375 24.390625 L 206.457031 24.390625 L 206.457031 29.269531 L 201.578125 29.269531 L 201.578125 19.515625 L 191.820312 19.515625 L 191.820312 14.636719 L 167.429688 14.636719 L 167.429688 19.515625 L 157.671875 19.515625 L 157.671875 24.390625 L 152.792969 24.390625 L 152.792969 29.269531 L 147.914062 29.269531 L 147.914062 34.148438 L 143.035156 34.148438 L 143.035156 39.027344 L 133.28125 39.027344 L 133.28125 34.148438 L 128.402344 34.148438 L 128.402344 29.269531 L 118.644531 29.269531 L 118.644531 24.390625 L 104.007812 24.390625 L 104.007812 29.269531 L 94.253906 29.269531 L 94.253906 19.515625 L 89.375 19.515625 L 89.375 14.636719 L 84.496094 14.636719 L 84.496094 9.757812 L 79.617188 9.757812 L 79.617188 4.878906 L 69.859375 4.878906 L 69.859375 0 L 50.347656 0 L 50.347656 4.878906 L 45.46875 4.878906 L 45.46875 9.757812 L 40.589844 9.757812 L 40.589844 14.636719 L 35.710938 14.636719 L 35.710938 19.515625 L 30.832031 19.515625 L 30.832031 14.636719 L 21.074219 14.636719 L 21.074219 19.515625 L 16.195312 19.515625 L 16.195312 24.390625 L 11.320312 24.390625 L 11.320312 29.269531 L 6.441406 29.269531 L 6.441406 34.148438 L 1.5625 34.148438 L 1.5625 43.90625 L 6.441406 43.90625 L 6.441406 48.785156 L 269.875 48.785156 L 269.875 43.90625 L 274.753906 43.90625 L 274.753906 39.027344 Z M 265 39.027344 " fill-opacity="1" fill-rule="nonzero"/></g><g clip-path="url(#7a163bc990)"><path fill="#5561d3" d="M 230.847656 43.90625 L 230.847656 39.027344 L 225.96875 39.027344 L 225.96875 43.90625 L 221.09375 43.90625 L 221.09375 39.027344 L 211.335938 39.027344 L 211.335938 34.148438 L 206.457031 34.148438 L 206.457031 29.269531 L 201.578125 29.269531 L 201.578125 34.148438 L 196.699219 34.148438 L 196.699219 39.027344 L 186.941406 39.027344 L 186.941406 43.90625 L 162.550781 43.90625 L 162.550781 39.027344 L 157.671875 39.027344 L 157.671875 29.269531 L 162.550781 29.269531 L 162.550781 24.390625 L 167.429688 24.390625 L 167.429688 19.515625 L 157.671875 19.515625 L 157.671875 24.390625 L 152.792969 24.390625 L 152.792969 29.269531 L 147.914062 29.269531 L 147.914062 34.148438 L 143.035156 34.148438 L 143.035156 39.027344 L 133.28125 39.027344 L 133.28125 43.90625 L 118.644531 43.90625 L 118.644531 39.027344 L 113.765625 39.027344 L 113.765625 43.90625 L 108.886719 43.90625 L 108.886719 39.027344 L 104.007812 39.027344 L 104.007812 29.269531 L 94.253906 29.269531 L 94.253906 34.148438 L 99.128906 34.148438 L 99.128906 39.027344 L 94.253906 39.027344 L 94.253906 43.90625 L 84.496094 43.90625 L 84.496094 39.027344 L 79.617188 39.027344 L 79.617188 43.90625 L 74.738281 43.90625 L 74.738281 39.027344 L 55.226562 39.027344 L 55.226562 43.90625 L 30.832031 43.90625 L 30.832031 39.027344 L 16.195312 39.027344 L 16.195312 34.148438 L 11.320312 34.148438 L 11.320312 29.269531 L 6.441406 29.269531 L 6.441406 34.148438 L 1.5625 34.148438 L 1.5625 43.90625 L 6.441406 43.90625 L 6.441406 48.785156 L 269.875 48.785156 L 269.875 43.90625 Z M 230.847656 43.90625 " fill-opacity="1" fill-rule="nonzero"/></g><path fill="#5561d3" d="M 35.710938 14.636719 L 40.589844 14.636719 L 40.589844 29.269531 L 35.710938 29.269531 Z M 35.710938 14.636719 " fill-opacity="1" fill-rule="nonzero"/><path fill="#5561d3" d="M 40.589844 29.269531 L 45.46875 29.269531 L 45.46875 34.148438 L 40.589844 34.148438 Z M 40.589844 29.269531 " fill-opacity="1" fill-rule="nonzero"/><path fill="#5561d3" d="M 45.46875 34.148438 L 55.226562 34.148438 L 55.226562 39.027344 L 45.46875 39.027344 Z M 45.46875 34.148438 " fill-opacity="1" fill-rule="nonzero"/><path fill="#5561d3" d="M 11.320312 24.390625 L 16.195312 24.390625 L 16.195312 29.269531 L 11.320312 29.269531 Z M 11.320312 24.390625 " fill-opacity="1" fill-rule="nonzero"/><path fill="#5561d3" d="M 40.589844 9.757812 L 45.46875 9.757812 L 45.46875 14.636719 L 40.589844 14.636719 Z M 40.589844 9.757812 " fill-opacity="1" fill-rule="nonzero"/><path fill="#5561d3" d="M 45.46875 4.878906 L 50.347656 4.878906 L 50.347656 9.757812 L 45.46875 9.757812 Z M 45.46875 4.878906 " fill-opacity="1" fill-rule="nonzero"/><path fill="#5561d3" d="M 206.457031 24.390625 L 221.09375 24.390625 L 221.09375 29.269531 L 206.457031 29.269531 Z M 206.457031 24.390625 " fill-opacity="1" fill-rule="nonzero"/><path fill="#8e68e6" d="M 11.320312 29.269531 L 16.195312 29.269531 L 16.195312 34.148438 L 11.320312 34.148438 Z M 11.320312 29.269531 " fill-opacity="1" fill-rule="nonzero"/><path fill="#8e68e6" d="M 16.195312 34.148438 L 30.832031 34.148438 L 30.832031 39.027344 L 16.195312 39.027344 Z M 16.195312 34.148438 " fill-opacity="1" fill-rule="nonzero"/><path fill="#8e68e6" d="M 16.195312 19.515625 L 21.074219 19.515625 L 21.074219 29.269531 L 16.195312 29.269531 Z M 16.195312 19.515625 " fill-opacity="1" fill-rule="nonzero"/><path fill="#8e68e6" d="M 45.46875 34.148438 L 40.589844 34.148438 L 40.589844 39.027344 L 30.832031 39.027344 L 30.832031 43.90625 L 55.226562 43.90625 L 55.226562 39.027344 L 45.46875 39.027344 Z M 45.46875 34.148438 " fill-opacity="1" fill-rule="nonzero"/><path fill="#8e68e6" d="M 55.226562 34.148438 L 55.226562 29.269531 L 50.347656 29.269531 L 50.347656 9.757812 L 45.46875 9.757812 L 45.46875 14.636719 L 40.589844 14.636719 L 40.589844 29.269531 L 45.46875 29.269531 L 45.46875 34.148438 Z M 55.226562 34.148438 " fill-opacity="1" fill-rule="nonzero"/><path fill="#8e68e6" d="M 55.226562 34.148438 L 74.738281 34.148438 L 74.738281 39.027344 L 55.226562 39.027344 Z M 55.226562 34.148438 " fill-opacity="1" fill-rule="nonzero"/><path fill="#8e68e6" d="M 74.738281 39.027344 L 79.617188 39.027344 L 79.617188 43.90625 L 74.738281 43.90625 Z M 74.738281 39.027344 " fill-opacity="1" fill-rule="nonzero"/><path fill="#8e68e6" d="M 89.375 39.027344 L 84.496094 39.027344 L 84.496094 43.90625 L 94.253906 43.90625 L 94.253906 39.027344 L 99.128906 39.027344 L 99.128906 34.148438 L 89.375 34.148438 Z M 89.375 39.027344 " fill-opacity="1" fill-rule="nonzero"/><path fill="#8e68e6" d="M 55.226562 4.878906 L 60.101562 4.878906 L 60.101562 0 L 50.347656 0 L 50.347656 9.757812 L 55.226562 9.757812 Z M 55.226562 4.878906 " fill-opacity="1" fill-rule="nonzero"/><path fill="#8e68e6" d="M 21.074219 14.636719 L 25.953125 14.636719 L 25.953125 19.515625 L 21.074219 19.515625 Z M 21.074219 14.636719 " fill-opacity="1" fill-rule="nonzero"/><path fill="#8e68e6" d="M 157.671875 29.269531 L 162.550781 29.269531 L 162.550781 39.027344 L 157.671875 39.027344 Z M 157.671875 29.269531 " fill-opacity="1" fill-rule="nonzero"/><path fill="#8e68e6" d="M 162.550781 39.027344 L 186.941406 39.027344 L 186.941406 43.90625 L 162.550781 43.90625 Z M 162.550781 39.027344 " fill-opacity="1" fill-rule="nonzero"/><path fill="#8e68e6" d="M 186.941406 34.148438 L 196.699219 34.148438 L 196.699219 39.027344 L 186.941406 39.027344 Z M 186.941406 34.148438 " fill-opacity="1" fill-rule="nonzero"/><path fill="#8e68e6" d="M 172.308594 19.515625 L 177.1875 19.515625 L 177.1875 14.636719 L 167.429688 14.636719 L 167.429688 24.390625 L 172.308594 24.390625 Z M 172.308594 19.515625 " fill-opacity="1" fill-rule="nonzero"/><path fill="#8e68e6" d="M 162.550781 24.390625 L 167.429688 24.390625 L 167.429688 29.269531 L 162.550781 29.269531 Z M 162.550781 24.390625 " fill-opacity="1" fill-rule="nonzero"/><path fill="#8e68e6" d="M 206.457031 34.148438 L 211.335938 34.148438 L 211.335938 39.027344 L 221.09375 39.027344 L 221.09375 43.90625 L 225.96875 43.90625 L 225.96875 34.148438 L 221.09375 34.148438 L 221.09375 29.269531 L 206.457031 29.269531 Z M 206.457031 34.148438 " fill-opacity="1" fill-rule="nonzero"/><path fill="#8e68e6" d="M 265 39.027344 L 265 34.148438 L 260.121094 34.148438 L 260.121094 39.027344 L 230.847656 39.027344 L 230.847656 43.90625 L 274.753906 43.90625 L 274.753906 39.027344 Z M 265 39.027344 " fill-opacity="1" fill-rule="nonzero"/><path fill="#8e68e6" d="M 221.09375 19.515625 L 225.96875 19.515625 L 225.96875 29.269531 L 221.09375 29.269531 Z M 221.09375 19.515625 " fill-opacity="1" fill-rule="nonzero"/><path fill="#d594d6" d="M 225.96875 19.515625 L 230.847656 19.515625 L 230.847656 24.390625 L 225.96875 24.390625 Z M 225.96875 19.515625 " fill-opacity="1" fill-rule="nonzero"/><path fill="#d594d6" d="M 162.550781 29.269531 L 167.429688 29.269531 L 167.429688 39.027344 L 162.550781 39.027344 Z M 162.550781 29.269531 " fill-opacity="1" fill-rule="nonzero"/><path fill="#d594d6" d="M 186.941406 29.269531 L 201.578125 29.269531 L 201.578125 34.148438 L 186.941406 34.148438 Z M 186.941406 29.269531 " fill-opacity="1" fill-rule="nonzero"/><path fill="#d594d6" d="M 74.738281 34.148438 L 89.375 34.148438 L 89.375 39.027344 L 74.738281 39.027344 Z M 74.738281 34.148438 " fill-opacity="1" fill-rule="nonzero"/><path fill="#d594d6" d="M 89.375 19.515625 L 94.253906 19.515625 L 94.253906 34.148438 L 89.375 34.148438 Z M 89.375 19.515625 " fill-opacity="1" fill-rule="nonzero"/><path fill="#d594d6" d="M 55.226562 29.269531 L 74.738281 29.269531 L 74.738281 34.148438 L 55.226562 34.148438 Z M 55.226562 29.269531 " fill-opacity="1" fill-rule="nonzero"/><path fill="#d594d6" d="M 50.347656 19.515625 L 55.226562 19.515625 L 55.226562 29.269531 L 50.347656 29.269531 Z M 50.347656 19.515625 " fill-opacity="1" fill-rule="nonzero"/><path fill="#d594d6" d="M 104.007812 29.269531 L 108.886719 29.269531 L 108.886719 39.027344 L 104.007812 39.027344 Z M 104.007812 29.269531 " fill-opacity="1" fill-rule="nonzero"/><path fill="#d594d6" d="M 108.886719 39.027344 L 113.765625 39.027344 L 113.765625 43.90625 L 108.886719 43.90625 Z M 108.886719 39.027344 " fill-opacity="1" fill-rule="nonzero"/><path fill="#d594d6" d="M 118.644531 39.027344 L 133.28125 39.027344 L 133.28125 43.90625 L 118.644531 43.90625 Z M 118.644531 39.027344 " fill-opacity="1" fill-rule="nonzero"/><path fill="#d594d6" d="M 225.96875 34.148438 L 260.121094 34.148438 L 260.121094 39.027344 L 225.96875 39.027344 Z M 225.96875 34.148438 " fill-opacity="1" fill-rule="nonzero"/><path fill="#d594d6" d="M 221.09375 29.269531 L 225.96875 29.269531 L 225.96875 34.148438 L 221.09375 34.148438 Z M 221.09375 29.269531 " fill-opacity="1" fill-rule="nonzero"/><path fill="#d594d6" d="M 55.226562 4.878906 L 60.101562 4.878906 L 60.101562 9.757812 L 55.226562 9.757812 Z M 55.226562 4.878906 " fill-opacity="1" fill-rule="nonzero"/><path fill="#d594d6" d="M 60.101562 0 L 69.859375 0 L 69.859375 4.878906 L 60.101562 4.878906 Z M 60.101562 0 " fill-opacity="1" fill-rule="nonzero"/><path fill="#d594d6" d="M 25.953125 14.636719 L 30.832031 14.636719 L 30.832031 19.515625 L 25.953125 19.515625 Z M 25.953125 14.636719 " fill-opacity="1" fill-rule="nonzero"/><path fill="#d594d6" d="M 60.101562 14.636719 L 64.980469 14.636719 L 64.980469 24.390625 L 60.101562 24.390625 Z M 60.101562 14.636719 " fill-opacity="1" fill-rule="nonzero"/><path fill="#d594d6" d="M 69.859375 19.515625 L 79.617188 19.515625 L 79.617188 24.390625 L 69.859375 24.390625 Z M 69.859375 19.515625 " fill-opacity="1" fill-rule="nonzero"/><path fill="#d594d6" d="M 182.066406 19.515625 L 191.820312 19.515625 L 191.820312 24.390625 L 182.066406 24.390625 Z M 182.066406 19.515625 " fill-opacity="1" fill-rule="nonzero"/><path fill="#d594d6" d="M 177.1875 34.148438 L 186.941406 34.148438 L 186.941406 39.027344 L 177.1875 39.027344 Z M 177.1875 34.148438 " fill-opacity="1" fill-rule="nonzero"/><path fill="#d594d6" d="M 30.832031 34.148438 L 40.589844 34.148438 L 40.589844 39.027344 L 30.832031 39.027344 Z M 30.832031 34.148438 " fill-opacity="1" fill-rule="nonzero"/><path fill="#f2c035" d="M 177.1875 14.636719 L 191.820312 14.636719 L 191.820312 19.515625 L 177.1875 19.515625 Z M 177.1875 14.636719 " fill-opacity="1" fill-rule="nonzero"/><path fill="#f2c035" d="M 196.699219 19.515625 L 201.578125 19.515625 L 201.578125 24.390625 L 196.699219 24.390625 Z M 196.699219 19.515625 " fill-opacity="1" fill-rule="nonzero"/><path fill="#f2c035" d="M 230.847656 19.515625 L 235.726562 19.515625 L 235.726562 24.390625 L 230.847656 24.390625 Z M 230.847656 19.515625 " fill-opacity="1" fill-rule="nonzero"/><path fill="#f2c035" d="M 240.605469 24.390625 L 250.363281 24.390625 L 250.363281 29.269531 L 240.605469 29.269531 Z M 240.605469 24.390625 " fill-opacity="1" fill-rule="nonzero"/><path fill="#f2c035" d="M 108.886719 24.390625 L 118.644531 24.390625 L 118.644531 29.269531 L 108.886719 29.269531 Z M 108.886719 24.390625 " fill-opacity="1" fill-rule="nonzero"/><path fill="#f2c035" d="M 123.523438 29.269531 L 128.402344 29.269531 L 128.402344 34.148438 L 123.523438 34.148438 Z M 123.523438 29.269531 " fill-opacity="1" fill-rule="nonzero"/><path fill="#f2c035" d="M 74.738281 4.878906 L 79.617188 4.878906 L 79.617188 9.757812 L 74.738281 9.757812 Z M 74.738281 4.878906 " fill-opacity="1" fill-rule="nonzero"/><path fill="#f2c035" d="M 79.617188 9.757812 L 84.496094 9.757812 L 84.496094 14.636719 L 79.617188 14.636719 Z M 79.617188 9.757812 " fill-opacity="1" fill-rule="nonzero"/><path fill="#f2c035" d="M 84.496094 14.636719 L 89.375 14.636719 L 89.375 19.515625 L 84.496094 19.515625 Z M 84.496094 14.636719 " fill-opacity="1" fill-rule="nonzero"/><path fill="#f2c035" d="M 30.832031 19.515625 L 35.710938 19.515625 L 35.710938 24.390625 L 30.832031 24.390625 Z M 30.832031 19.515625 " fill-opacity="1" fill-rule="nonzero"/><g clip-path="url(#f01147f9b7)"><path fill="#d594d6" d="M 265 39.027344 L 265 34.148438 L 250.363281 34.148438 L 250.363281 24.390625 L 235.726562 24.390625 L 235.726562 19.515625 L 221.09375 19.515625 L 221.09375 24.390625 L 206.457031 24.390625 L 206.457031 29.269531 L 201.578125 29.269531 L 201.578125 19.515625 L 191.820312 19.515625 L 191.820312 14.636719 L 167.429688 14.636719 L 167.429688 19.515625 L 157.671875 19.515625 L 157.671875 24.390625 L 152.792969 24.390625 L 152.792969 29.269531 L 147.914062 29.269531 L 147.914062 34.148438 L 143.035156 34.148438 L 143.035156 39.027344 L 133.28125 39.027344 L 133.28125 34.148438 L 128.402344 34.148438 L 128.402344 29.269531 L 118.644531 29.269531 L 118.644531 24.390625 L 104.007812 24.390625 L 104.007812 29.269531 L 94.253906 29.269531 L 94.253906 19.515625 L 89.375 19.515625 L 89.375 14.636719 L 84.496094 14.636719 L 84.496094 9.757812 L 79.617188 9.757812 L 79.617188 4.878906 L 69.859375 4.878906 L 69.859375 0 L 50.347656 0 L 50.347656 4.878906 L 45.46875 4.878906 L 45.46875 9.757812 L 40.589844 9.757812 L 40.589844 14.636719 L 35.710938 14.636719 L 35.710938 19.515625 L 30.832031 19.515625 L 30.832031 14.636719 L 21.074219 14.636719 L 21.074219 19.515625 L 16.195312 19.515625 L 16.195312 24.390625 L 11.320312 24.390625 L 11.320312 29.269531 L 6.441406 29.269531 L 6.441406 34.148438 L 1.5625 34.148438 L 1.5625 43.90625 L 6.441406 43.90625 L 6.441406 48.785156 L 269.875 48.785156 L 269.875 43.90625 L 274.753906 43.90625 L 274.753906 39.027344 Z M 265 39.027344 " fill-opacity="1" fill-rule="nonzero"/></g><g clip-path="url(#a78d35455e)"><path fill="#5561d3" d="M 230.847656 43.90625 L 230.847656 39.027344 L 225.96875 39.027344 L 225.96875 43.90625 L 221.09375 43.90625 L 221.09375 39.027344 L 211.335938 39.027344 L 211.335938 34.148438 L 206.457031 34.148438 L 206.457031 29.269531 L 201.578125 29.269531 L 201.578125 34.148438 L 196.699219 34.148438 L 196.699219 39.027344 L 186.941406 39.027344 L 186.941406 43.90625 L 162.550781 43.90625 L 162.550781 39.027344 L 157.671875 39.027344 L 157.671875 29.269531 L 162.550781 29.269531 L 162.550781 24.390625 L 167.429688 24.390625 L 167.429688 19.515625 L 157.671875 19.515625 L 157.671875 24.390625 L 152.792969 24.390625 L 152.792969 29.269531 L 147.914062 29.269531 L 147.914062 34.148438 L 143.035156 34.148438 L 143.035156 39.027344 L 133.28125 39.027344 L 133.28125 43.90625 L 118.644531 43.90625 L 118.644531 39.027344 L 113.765625 39.027344 L 113.765625 43.90625 L 108.886719 43.90625 L 108.886719 39.027344 L 104.007812 39.027344 L 104.007812 29.269531 L 94.253906 29.269531 L 94.253906 34.148438 L 99.128906 34.148438 L 99.128906 39.027344 L 94.253906 39.027344 L 94.253906 43.90625 L 84.496094 43.90625 L 84.496094 39.027344 L 79.617188 39.027344 L 79.617188 43.90625 L 74.738281 43.90625 L 74.738281 39.027344 L 55.226562 39.027344 L 55.226562 43.90625 L 30.832031 43.90625 L 30.832031 39.027344 L 16.195312 39.027344 L 16.195312 34.148438 L 11.320312 34.148438 L 11.320312 29.269531 L 6.441406 29.269531 L 6.441406 34.148438 L 1.5625 34.148438 L 1.5625 43.90625 L 6.441406 43.90625 L 6.441406 48.785156 L 269.875 48.785156 L 269.875 43.90625 Z M 230.847656 43.90625 " fill-opacity="1" fill-rule="nonzero"/></g><path fill="#5561d3" d="M 35.710938 14.636719 L 40.589844 14.636719 L 40.589844 29.269531 L 35.710938 29.269531 Z M 35.710938 14.636719 " fill-opacity="1" fill-rule="nonzero"/><path fill="#5561d3" d="M 40.589844 29.269531 L 45.46875 29.269531 L 45.46875 34.148438 L 40.589844 34.148438 Z M 40.589844 29.269531 " fill-opacity="1" fill-rule="nonzero"/><path fill="#5561d3" d="M 45.46875 34.148438 L 55.226562 34.148438 L 55.226562 39.027344 L 45.46875 39.027344 Z M 45.46875 34.148438 " fill-opacity="1" fill-rule="nonzero"/><path fill="#5561d3" d="M 11.320312 24.390625 L 16.195312 24.390625 L 16.195312 29.269531 L 11.320312 29.269531 Z M 11.320312 24.390625 " fill-opacity="1" fill-rule="nonzero"/><path fill="#5561d3" d="M 40.589844 9.757812 L 45.46875 9.757812 L 45.46875 14.636719 L 40.589844 14.636719 Z M 40.589844 9.757812 " fill-opacity="1" fill-rule="nonzero"/><path fill="#5561d3" d="M 45.46875 4.878906 L 50.347656 4.878906 L 50.347656 9.757812 L 45.46875 9.757812 Z M 45.46875 4.878906 " fill-opacity="1" fill-rule="nonzero"/><path fill="#5561d3" d="M 206.457031 24.390625 L 221.09375 24.390625 L 221.09375 29.269531 L 206.457031 29.269531 Z M 206.457031 24.390625 " fill-opacity="1" fill-rule="nonzero"/><path fill="#8e68e6" d="M 11.320312 29.269531 L 16.195312 29.269531 L 16.195312 34.148438 L 11.320312 34.148438 Z M 11.320312 29.269531 " fill-opacity="1" fill-rule="nonzero"/><path fill="#8e68e6" d="M 16.195312 34.148438 L 30.832031 34.148438 L 30.832031 39.027344 L 16.195312 39.027344 Z M 16.195312 34.148438 " fill-opacity="1" fill-rule="nonzero"/><path fill="#8e68e6" d="M 16.195312 19.515625 L 21.074219 19.515625 L 21.074219 29.269531 L 16.195312 29.269531 Z M 16.195312 19.515625 " fill-opacity="1" fill-rule="nonzero"/><path fill="#8e68e6" d="M 45.46875 34.148438 L 40.589844 34.148438 L 40.589844 39.027344 L 30.832031 39.027344 L 30.832031 43.90625 L 55.226562 43.90625 L 55.226562 39.027344 L 45.46875 39.027344 Z M 45.46875 34.148438 " fill-opacity="1" fill-rule="nonzero"/><path fill="#8e68e6" d="M 55.226562 34.148438 L 55.226562 29.269531 L 50.347656 29.269531 L 50.347656 9.757812 L 45.46875 9.757812 L 45.46875 14.636719 L 40.589844 14.636719 L 40.589844 29.269531 L 45.46875 29.269531 L 45.46875 34.148438 Z M 55.226562 34.148438 " fill-opacity="1" fill-rule="nonzero"/><path fill="#8e68e6" d="M 55.226562 34.148438 L 74.738281 34.148438 L 74.738281 39.027344 L 55.226562 39.027344 Z M 55.226562 34.148438 " fill-opacity="1" fill-rule="nonzero"/><path fill="#8e68e6" d="M 74.738281 39.027344 L 79.617188 39.027344 L 79.617188 43.90625 L 74.738281 43.90625 Z M 74.738281 39.027344 " fill-opacity="1" fill-rule="nonzero"/><path fill="#8e68e6" d="M 89.375 39.027344 L 84.496094 39.027344 L 84.496094 43.90625 L 94.253906 43.90625 L 94.253906 39.027344 L 99.128906 39.027344 L 99.128906 34.148438 L 89.375 34.148438 Z M 89.375 39.027344 " fill-opacity="1" fill-rule="nonzero"/><path fill="#8e68e6" d="M 55.226562 4.878906 L 60.101562 4.878906 L 60.101562 0 L 50.347656 0 L 50.347656 9.757812 L 55.226562 9.757812 Z M 55.226562 4.878906 " fill-opacity="1" fill-rule="nonzero"/><path fill="#8e68e6" d="M 21.074219 14.636719 L 25.953125 14.636719 L 25.953125 19.515625 L 21.074219 19.515625 Z M 21.074219 14.636719 " fill-opacity="1" fill-rule="nonzero"/><path fill="#8e68e6" d="M 157.671875 29.269531 L 162.550781 29.269531 L 162.550781 39.027344 L 157.671875 39.027344 Z M 157.671875 29.269531 " fill-opacity="1" fill-rule="nonzero"/><path fill="#8e68e6" d="M 162.550781 39.027344 L 186.941406 39.027344 L 186.941406 43.90625 L 162.550781 43.90625 Z M 162.550781 39.027344 " fill-opacity="1" fill-rule="nonzero"/><path fill="#8e68e6" d="M 186.941406 34.148438 L 196.699219 34.148438 L 196.699219 39.027344 L 186.941406 39.027344 Z M 186.941406 34.148438 " fill-opacity="1" fill-rule="nonzero"/><path fill="#8e68e6" d="M 172.308594 19.515625 L 177.1875 19.515625 L 177.1875 14.636719 L 167.429688 14.636719 L 167.429688 24.390625 L 172.308594 24.390625 Z M 172.308594 19.515625 " fill-opacity="1" fill-rule="nonzero"/><path fill="#8e68e6" d="M 162.550781 24.390625 L 167.429688 24.390625 L 167.429688 29.269531 L 162.550781 29.269531 Z M 162.550781 24.390625 " fill-opacity="1" fill-rule="nonzero"/><path fill="#8e68e6" d="M 206.457031 34.148438 L 211.335938 34.148438 L 211.335938 39.027344 L 221.09375 39.027344 L 221.09375 43.90625 L 225.96875 43.90625 L 225.96875 34.148438 L 221.09375 34.148438 L 221.09375 29.269531 L 206.457031 29.269531 Z M 206.457031 34.148438 " fill-opacity="1" fill-rule="nonzero"/><path fill="#8e68e6" d="M 265 39.027344 L 265 34.148438 L 260.121094 34.148438 L 260.121094 39.027344 L 230.847656 39.027344 L 230.847656 43.90625 L 274.753906 43.90625 L 274.753906 39.027344 Z M 265 39.027344 " fill-opacity="1" fill-rule="nonzero"/><path fill="#8e68e6" d="M 221.09375 19.515625 L 225.96875 19.515625 L 225.96875 29.269531 L 221.09375 29.269531 Z M 221.09375 19.515625 " fill-opacity="1" fill-rule="nonzero"/><path fill="#d594d6" d="M 225.96875 19.515625 L 230.847656 19.515625 L 230.847656 24.390625 L 225.96875 24.390625 Z M 225.96875 19.515625 " fill-opacity="1" fill-rule="nonzero"/><path fill="#d594d6" d="M 162.550781 29.269531 L 167.429688 29.269531 L 167.429688 39.027344 L 162.550781 39.027344 Z M 162.550781 29.269531 " fill-opacity="1" fill-rule="nonzero"/><path fill="#d594d6" d="M 186.941406 29.269531 L 201.578125 29.269531 L 201.578125 34.148438 L 186.941406 34.148438 Z M 186.941406 29.269531 " fill-opacity="1" fill-rule="nonzero"/><path fill="#d594d6" d="M 74.738281 34.148438 L 89.375 34.148438 L 89.375 39.027344 L 74.738281 39.027344 Z M 74.738281 34.148438 " fill-opacity="1" fill-rule="nonzero"/><path fill="#d594d6" d="M 89.375 19.515625 L 94.253906 19.515625 L 94.253906 34.148438 L 89.375 34.148438 Z M 89.375 19.515625 " fill-opacity="1" fill-rule="nonzero"/><path fill="#d594d6" d="M 55.226562 29.269531 L 74.738281 29.269531 L 74.738281 34.148438 L 55.226562 34.148438 Z M 55.226562 29.269531 " fill-opacity="1" fill-rule="nonzero"/><path fill="#d594d6" d="M 50.347656 19.515625 L 55.226562 19.515625 L 55.226562 29.269531 L 50.347656 29.269531 Z M 50.347656 19.515625 " fill-opacity="1" fill-rule="nonzero"/><path fill="#d594d6" d="M 104.007812 29.269531 L 108.886719 29.269531 L 108.886719 39.027344 L 104.007812 39.027344 Z M 104.007812 29.269531 " fill-opacity="1" fill-rule="nonzero"/><path fill="#d594d6" d="M 108.886719 39.027344 L 113.765625 39.027344 L 113.765625 43.90625 L 108.886719 43.90625 Z M 108.886719 39.027344 " fill-opacity="1" fill-rule="nonzero"/><path fill="#d594d6" d="M 118.644531 39.027344 L 133.28125 39.027344 L 133.28125 43.90625 L 118.644531 43.90625 Z M 118.644531 39.027344 " fill-opacity="1" fill-rule="nonzero"/><path fill="#d594d6" d="M 225.96875 34.148438 L 260.121094 34.148438 L 260.121094 39.027344 L 225.96875 39.027344 Z M 225.96875 34.148438 " fill-opacity="1" fill-rule="nonzero"/><path fill="#d594d6" d="M 221.09375 29.269531 L 225.96875 29.269531 L 225.96875 34.148438 L 221.09375 34.148438 Z M 221.09375 29.269531 " fill-opacity="1" fill-rule="nonzero"/><path fill="#d594d6" d="M 55.226562 4.878906 L 60.101562 4.878906 L 60.101562 9.757812 L 55.226562 9.757812 Z M 55.226562 4.878906 " fill-opacity="1" fill-rule="nonzero"/><path fill="#d594d6" d="M 60.101562 0 L 69.859375 0 L 69.859375 4.878906 L 60.101562 4.878906 Z M 60.101562 0 " fill-opacity="1" fill-rule="nonzero"/><path fill="#d594d6" d="M 25.953125 14.636719 L 30.832031 14.636719 L 30.832031 19.515625 L 25.953125 19.515625 Z M 25.953125 14.636719 " fill-opacity="1" fill-rule="nonzero"/><path fill="#d594d6" d="M 60.101562 14.636719 L 64.980469 14.636719 L 64.980469 24.390625 L 60.101562 24.390625 Z M 60.101562 14.636719 " fill-opacity="1" fill-rule="nonzero"/><path fill="#d594d6" d="M 69.859375 19.515625 L 79.617188 19.515625 L 79.617188 24.390625 L 69.859375 24.390625 Z M 69.859375 19.515625 " fill-opacity="1" fill-rule="nonzero"/><path fill="#d594d6" d="M 182.066406 19.515625 L 191.820312 19.515625 L 191.820312 24.390625 L 182.066406 24.390625 Z M 182.066406 19.515625 " fill-opacity="1" fill-rule="nonzero"/><path fill="#d594d6" d="M 177.1875 34.148438 L 186.941406 34.148438 L 186.941406 39.027344 L 177.1875 39.027344 Z M 177.1875 34.148438 " fill-opacity="1" fill-rule="nonzero"/><path fill="#d594d6" d="M 30.832031 34.148438 L 40.589844 34.148438 L 40.589844 39.027344 L 30.832031 39.027344 Z M 30.832031 34.148438 " fill-opacity="1" fill-rule="nonzero"/><path fill="#f2c035" d="M 177.1875 14.636719 L 191.820312 14.636719 L 191.820312 19.515625 L 177.1875 19.515625 Z M 177.1875 14.636719 " fill-opacity="1" fill-rule="nonzero"/><path fill="#f2c035" d="M 196.699219 19.515625 L 201.578125 19.515625 L 201.578125 24.390625 L 196.699219 24.390625 Z M 196.699219 19.515625 " fill-opacity="1" fill-rule="nonzero"/><path fill="#f2c035" d="M 230.847656 19.515625 L 235.726562 19.515625 L 235.726562 24.390625 L 230.847656 24.390625 Z M 230.847656 19.515625 " fill-opacity="1" fill-rule="nonzero"/><path fill="#f2c035" d="M 240.605469 24.390625 L 250.363281 24.390625 L 250.363281 29.269531 L 240.605469 29.269531 Z M 240.605469 24.390625 " fill-opacity="1" fill-rule="nonzero"/><path fill="#f2c035" d="M 108.886719 24.390625 L 118.644531 24.390625 L 118.644531 29.269531 L 108.886719 29.269531 Z M 108.886719 24.390625 " fill-opacity="1" fill-rule="nonzero"/><path fill="#f2c035" d="M 123.523438 29.269531 L 128.402344 29.269531 L 128.402344 34.148438 L 123.523438 34.148438 Z M 123.523438 29.269531 " fill-opacity="1" fill-rule="nonzero"/><path fill="#f2c035" d="M 74.738281 4.878906 L 79.617188 4.878906 L 79.617188 9.757812 L 74.738281 9.757812 Z M 74.738281 4.878906 " fill-opacity="1" fill-rule="nonzero"/><path fill="#f2c035" d="M 79.617188 9.757812 L 84.496094 9.757812 L 84.496094 14.636719 L 79.617188 14.636719 Z M 79.617188 9.757812 " fill-opacity="1" fill-rule="nonzero"/><path fill="#f2c035" d="M 84.496094 14.636719 L 89.375 14.636719 L 89.375 19.515625 L 84.496094 19.515625 Z M 84.496094 14.636719 " fill-opacity="1" fill-rule="nonzero"/><path fill="#f2c035" d="M 30.832031 19.515625 L 35.710938 19.515625 L 35.710938 24.390625 L 30.832031 24.390625 Z M 30.832031 19.515625 " fill-opacity="1" fill-rule="nonzero"/></svg>