<svg xmlns="http://www.w3.org/2000/svg" xmlns:xlink="http://www.w3.org/1999/xlink" width="248" zoomAndPan="magnify" viewBox="0 0 186 65.249999" height="87" preserveAspectRatio="xMidYMid meet" version="1.0"><defs><clipPath id="5cc32da07f"><path d="M 1.058594 0 L 184.769531 0 L 184.769531 63.765625 L 1.058594 63.765625 Z M 1.058594 0 " clip-rule="nonzero"/></clipPath><clipPath id="e3c96e1387"><path d="M 3 26 L 184.769531 26 L 184.769531 63.765625 L 3 63.765625 Z M 3 26 " clip-rule="nonzero"/></clipPath><clipPath id="ecdcc0c35d"><path d="M 1.058594 52 L 10 52 L 10 56 L 1.058594 56 Z M 1.058594 52 " clip-rule="nonzero"/></clipPath><clipPath id="64d5bd6bd4"><path d="M 1.058594 46 L 10 46 L 10 53 L 1.058594 53 Z M 1.058594 46 " clip-rule="nonzero"/></clipPath><clipPath id="c1ca6c7394"><path d="M 1.058594 0 L 184.769531 0 L 184.769531 63.765625 L 1.058594 63.765625 Z M 1.058594 0 " clip-rule="nonzero"/></clipPath><clipPath id="e363b00158"><path d="M 3 26 L 184.769531 26 L 184.769531 63.765625 L 3 63.765625 Z M 3 26 " clip-rule="nonzero"/></clipPath><clipPath id="b5b74a7309"><path d="M 1.058594 52 L 10 52 L 10 56 L 1.058594 56 Z M 1.058594 52 " clip-rule="nonzero"/></clipPath><clipPath id="2974020883"><path d="M 1.058594 46 L 10 46 L 10 53 L 1.058594 53 Z M 1.058594 46 " clip-rule="nonzero"/></clipPath></defs><g clip-path="url(#5cc32da07f)"><path fill="#d594d6" d="M 3.839844 49.273438 L 3.839844 46.375 L 6.757812 46.375 L 6.757812 43.476562 L 12.59375 43.476562 L 12.59375 40.578125 L 27.179688 40.578125 L 27.179688 43.476562 L 33.015625 43.476562 L 33.015625 37.679688 L 35.933594 37.679688 L 35.933594 34.78125 L 38.851562 34.78125 L 38.851562 31.882812 L 41.769531 31.882812 L 41.769531 28.984375 L 56.355469 28.984375 L 56.355469 23.1875 L 59.273438 23.1875 L 59.273438 17.390625 L 62.191406 17.390625 L 62.191406 14.492188 L 65.109375 14.492188 L 65.109375 11.59375 L 68.027344 11.59375 L 68.027344 8.695312 L 79.695312 8.695312 L 79.695312 5.796875 L 82.613281 5.796875 L 82.613281 2.898438 L 85.53125 2.898438 L 85.53125 0 L 97.203125 0 L 97.203125 2.898438 L 103.039062 2.898438 L 103.039062 5.796875 L 117.625 5.796875 L 117.625 8.695312 L 120.542969 8.695312 L 120.542969 11.59375 L 123.460938 11.59375 L 123.460938 14.492188 L 126.378906 14.492188 L 126.378906 26.085938 L 129.296875 26.085938 L 129.296875 28.984375 L 132.214844 28.984375 L 132.214844 34.78125 L 135.132812 34.78125 L 135.132812 31.882812 L 143.882812 31.882812 L 143.882812 34.78125 L 146.800781 34.78125 L 146.800781 37.679688 L 149.71875 37.679688 L 149.71875 40.578125 L 152.636719 40.578125 L 152.636719 46.375 L 158.472656 46.375 L 158.472656 49.273438 L 164.308594 49.273438 L 164.308594 52.171875 L 167.222656 52.171875 L 167.222656 49.273438 L 175.976562 49.273438 L 175.976562 52.171875 L 181.8125 52.171875 L 181.8125 55.070312 L 184.730469 55.070312 L 184.730469 60.867188 L 181.8125 60.867188 L 181.8125 63.765625 L 6.757812 63.765625 L 6.757812 60.867188 L 3.839844 60.867188 L 3.839844 55.070312 L 0.921875 55.070312 L 0.921875 49.273438 Z M 3.839844 49.273438 " fill-opacity="1" fill-rule="nonzero"/></g><path fill="#5561d3" d="M 103.039062 14.492188 L 103.039062 5.796875 L 105.957031 5.796875 L 105.957031 11.59375 L 108.871094 11.59375 L 108.871094 20.289062 L 105.957031 20.289062 L 105.957031 14.492188 Z M 103.039062 14.492188 " fill-opacity="1" fill-rule="nonzero"/><path fill="#5561d3" d="M 103.039062 2.898438 L 97.203125 2.898438 L 97.203125 5.796875 L 103.039062 5.796875 Z M 103.039062 2.898438 " fill-opacity="1" fill-rule="nonzero"/><path fill="#5561d3" d="M 105.957031 20.289062 L 103.039062 20.289062 L 103.039062 26.085938 L 105.957031 26.085938 Z M 105.957031 20.289062 " fill-opacity="1" fill-rule="nonzero"/><path fill="#5561d3" d="M 94.285156 31.882812 L 94.285156 28.984375 L 97.203125 28.984375 L 97.203125 26.085938 L 103.039062 26.085938 L 103.039062 28.984375 L 100.121094 28.984375 L 100.121094 31.882812 L 97.203125 31.882812 L 97.203125 34.78125 L 91.367188 34.78125 L 91.367188 31.882812 Z M 94.285156 31.882812 " fill-opacity="1" fill-rule="nonzero"/><path fill="#5561d3" d="M 82.613281 8.695312 L 76.78125 8.695312 L 76.78125 11.59375 L 82.613281 11.59375 Z M 82.613281 8.695312 " fill-opacity="1" fill-rule="nonzero"/><path fill="#5561d3" d="M 85.53125 11.59375 L 82.613281 11.59375 L 82.613281 14.492188 L 85.53125 14.492188 Z M 85.53125 11.59375 " fill-opacity="1" fill-rule="nonzero"/><path fill="#5561d3" d="M 88.449219 14.492188 L 85.53125 14.492188 L 85.53125 23.1875 L 88.449219 23.1875 Z M 88.449219 14.492188 " fill-opacity="1" fill-rule="nonzero"/><path fill="#5561d3" d="M 85.53125 23.1875 L 82.613281 23.1875 L 82.613281 28.984375 L 85.53125 28.984375 Z M 85.53125 23.1875 " fill-opacity="1" fill-rule="nonzero"/><path fill="#5561d3" d="M 82.613281 28.984375 L 79.695312 28.984375 L 79.695312 31.882812 L 82.613281 31.882812 Z M 82.613281 28.984375 " fill-opacity="1" fill-rule="nonzero"/><path fill="#5561d3" d="M 79.695312 31.882812 L 73.863281 31.882812 L 73.863281 34.78125 L 79.695312 34.78125 Z M 79.695312 31.882812 " fill-opacity="1" fill-rule="nonzero"/><path fill="#5561d3" d="M 73.863281 34.78125 L 68.027344 34.78125 L 68.027344 37.679688 L 73.863281 37.679688 Z M 73.863281 34.78125 " fill-opacity="1" fill-rule="nonzero"/><path fill="#5561d3" d="M 68.027344 31.882812 L 62.191406 31.882812 L 62.191406 34.78125 L 68.027344 34.78125 Z M 68.027344 31.882812 " fill-opacity="1" fill-rule="nonzero"/><g clip-path="url(#e3c96e1387)"><path fill="#5561d3" d="M 9.675781 55.070312 L 9.675781 57.96875 L 15.511719 57.96875 L 15.511719 55.070312 L 21.34375 55.070312 L 21.34375 52.171875 L 27.179688 52.171875 L 27.179688 49.273438 L 30.097656 49.273438 L 30.097656 43.476562 L 35.933594 43.476562 L 35.933594 46.375 L 47.605469 46.375 L 47.605469 49.273438 L 62.191406 49.273438 L 62.191406 46.375 L 70.945312 46.375 L 70.945312 43.476562 L 79.695312 43.476562 L 79.695312 40.578125 L 82.613281 40.578125 L 82.613281 37.679688 L 79.695312 37.679688 L 79.695312 34.78125 L 91.367188 34.78125 L 91.367188 37.679688 L 88.449219 37.679688 L 88.449219 40.578125 L 85.53125 40.578125 L 85.53125 43.476562 L 91.367188 43.476562 L 91.367188 46.375 L 111.789062 46.375 L 111.789062 43.476562 L 117.625 43.476562 L 117.625 40.578125 L 123.460938 40.578125 L 123.460938 37.679688 L 129.296875 37.679688 L 129.296875 31.882812 L 126.378906 31.882812 L 126.378906 26.085938 L 129.296875 26.085938 L 129.296875 28.984375 L 132.214844 28.984375 L 132.214844 40.578125 L 129.296875 40.578125 L 129.296875 43.476562 L 126.378906 43.476562 L 126.378906 46.375 L 132.214844 46.375 L 132.214844 49.273438 L 135.132812 49.273438 L 135.132812 55.070312 L 140.964844 55.070312 L 140.964844 52.171875 L 143.882812 52.171875 L 143.882812 49.273438 L 146.800781 49.273438 L 146.800781 46.375 L 149.71875 46.375 L 149.71875 40.578125 L 152.636719 40.578125 L 152.636719 46.375 L 155.554688 46.375 L 155.554688 52.171875 L 158.472656 52.171875 L 158.472656 55.070312 L 161.390625 55.070312 L 161.390625 57.96875 L 178.894531 57.96875 L 178.894531 52.171875 L 181.8125 52.171875 L 181.8125 55.070312 L 184.730469 55.070312 L 184.730469 60.867188 L 181.8125 60.867188 L 181.8125 63.765625 L 6.757812 63.765625 L 6.757812 60.867188 L 3.839844 60.867188 L 3.839844 55.070312 Z M 9.675781 55.070312 " fill-opacity="1" fill-rule="nonzero"/></g><path fill="#8e68e6" d="M 175.976562 52.171875 L 178.894531 52.171875 L 178.894531 57.96875 L 161.390625 57.96875 L 161.390625 55.070312 L 175.976562 55.070312 Z M 175.976562 52.171875 " fill-opacity="1" fill-rule="nonzero"/><path fill="#8e68e6" d="M 158.472656 46.375 L 155.554688 46.375 L 155.554688 52.171875 L 158.472656 52.171875 Z M 158.472656 46.375 " fill-opacity="1" fill-rule="nonzero"/><path fill="#8e68e6" d="M 146.800781 43.476562 L 146.800781 37.679688 L 149.71875 37.679688 L 149.71875 46.375 L 146.800781 46.375 L 146.800781 49.273438 L 143.882812 49.273438 L 143.882812 43.476562 Z M 146.800781 43.476562 " fill-opacity="1" fill-rule="nonzero"/><path fill="#8e68e6" d="M 143.882812 49.273438 L 143.882812 52.171875 L 140.964844 52.171875 L 140.964844 55.070312 L 135.132812 55.070312 L 135.132812 49.273438 Z M 143.882812 49.273438 " fill-opacity="1" fill-rule="nonzero"/><path fill="#8e68e6" d="M 120.542969 37.679688 L 120.542969 34.78125 L 123.460938 34.78125 L 123.460938 23.1875 L 126.378906 23.1875 L 126.378906 31.882812 L 129.296875 31.882812 L 129.296875 37.679688 L 123.460938 37.679688 L 123.460938 40.578125 L 117.625 40.578125 L 117.625 37.679688 Z M 120.542969 37.679688 " fill-opacity="1" fill-rule="nonzero"/><path fill="#8e68e6" d="M 111.789062 40.578125 L 117.625 40.578125 L 117.625 46.375 L 111.789062 46.375 L 111.789062 49.273438 L 91.367188 49.273438 L 91.367188 43.476562 L 111.789062 43.476562 Z M 111.789062 40.578125 " fill-opacity="1" fill-rule="nonzero"/><path fill="#8e68e6" d="M 91.367188 40.578125 L 85.53125 40.578125 L 85.53125 43.476562 L 91.367188 43.476562 Z M 91.367188 40.578125 " fill-opacity="1" fill-rule="nonzero"/><path fill="#8e68e6" d="M 100.121094 52.171875 L 97.203125 52.171875 L 97.203125 55.070312 L 100.121094 55.070312 Z M 100.121094 52.171875 " fill-opacity="1" fill-rule="nonzero"/><path fill="#8e68e6" d="M 88.449219 46.375 L 82.613281 46.375 L 82.613281 52.171875 L 88.449219 52.171875 Z M 88.449219 46.375 " fill-opacity="1" fill-rule="nonzero"/><path fill="#8e68e6" d="M 129.296875 49.273438 L 123.460938 49.273438 L 123.460938 55.070312 L 129.296875 55.070312 Z M 129.296875 49.273438 " fill-opacity="1" fill-rule="nonzero"/><path fill="#8e68e6" d="M 152.636719 49.273438 L 149.71875 49.273438 L 149.71875 52.171875 L 152.636719 52.171875 Z M 152.636719 49.273438 " fill-opacity="1" fill-rule="nonzero"/><path fill="#8e68e6" d="M 158.472656 55.070312 L 155.554688 55.070312 L 155.554688 57.96875 L 158.472656 57.96875 Z M 158.472656 55.070312 " fill-opacity="1" fill-rule="nonzero"/><path fill="#8e68e6" d="M 152.636719 55.070312 L 146.800781 55.070312 L 146.800781 60.867188 L 152.636719 60.867188 Z M 152.636719 55.070312 " fill-opacity="1" fill-rule="nonzero"/><path fill="#8e68e6" d="M 114.707031 49.273438 L 117.625 49.273438 L 117.625 55.070312 L 103.039062 55.070312 L 103.039062 52.171875 L 114.707031 52.171875 Z M 114.707031 49.273438 " fill-opacity="1" fill-rule="nonzero"/><path fill="#8e68e6" d="M 70.945312 49.273438 L 65.109375 49.273438 L 65.109375 52.171875 L 70.945312 52.171875 Z M 70.945312 49.273438 " fill-opacity="1" fill-rule="nonzero"/><path fill="#8e68e6" d="M 76.78125 40.578125 L 76.78125 34.78125 L 79.695312 34.78125 L 79.695312 37.679688 L 82.613281 37.679688 L 82.613281 40.578125 L 79.695312 40.578125 L 79.695312 43.476562 L 70.945312 43.476562 L 70.945312 40.578125 Z M 76.78125 40.578125 " fill-opacity="1" fill-rule="nonzero"/><path fill="#8e68e6" d="M 105.957031 14.492188 L 103.039062 14.492188 L 103.039062 20.289062 L 105.957031 20.289062 Z M 105.957031 14.492188 " fill-opacity="1" fill-rule="nonzero"/><path fill="#8e68e6" d="M 100.121094 23.1875 L 100.121094 20.289062 L 103.039062 20.289062 L 103.039062 26.085938 L 97.203125 26.085938 L 97.203125 23.1875 Z M 100.121094 23.1875 " fill-opacity="1" fill-rule="nonzero"/><path fill="#8e68e6" d="M 97.203125 26.085938 L 94.285156 26.085938 L 94.285156 28.984375 L 97.203125 28.984375 Z M 97.203125 26.085938 " fill-opacity="1" fill-rule="nonzero"/><path fill="#8e68e6" d="M 82.613281 31.882812 L 82.613281 28.984375 L 94.285156 28.984375 L 94.285156 31.882812 L 91.367188 31.882812 L 91.367188 34.78125 L 79.695312 34.78125 L 79.695312 31.882812 Z M 82.613281 31.882812 " fill-opacity="1" fill-rule="nonzero"/><path fill="#8e68e6" d="M 35.933594 43.476562 L 33.015625 43.476562 L 33.015625 37.679688 L 35.933594 37.679688 L 35.933594 40.578125 L 47.605469 40.578125 L 47.605469 43.476562 L 70.945312 43.476562 L 70.945312 46.375 L 62.191406 46.375 L 62.191406 49.273438 L 47.605469 49.273438 L 47.605469 46.375 L 35.933594 46.375 Z M 35.933594 43.476562 " fill-opacity="1" fill-rule="nonzero"/><path fill="#8e68e6" d="M 27.179688 46.375 L 27.179688 43.476562 L 30.097656 43.476562 L 30.097656 49.273438 L 27.179688 49.273438 L 27.179688 52.171875 L 21.34375 52.171875 L 21.34375 46.375 Z M 27.179688 46.375 " fill-opacity="1" fill-rule="nonzero"/><path fill="#8e68e6" d="M 21.34375 52.171875 L 15.511719 52.171875 L 15.511719 55.070312 L 21.34375 55.070312 Z M 21.34375 52.171875 " fill-opacity="1" fill-rule="nonzero"/><path fill="#8e68e6" d="M 15.511719 55.070312 L 9.675781 55.070312 L 9.675781 57.96875 L 15.511719 57.96875 Z M 15.511719 55.070312 " fill-opacity="1" fill-rule="nonzero"/><g clip-path="url(#ecdcc0c35d)"><path fill="#8e68e6" d="M 9.675781 52.171875 L 0.921875 52.171875 L 0.921875 55.070312 L 9.675781 55.070312 Z M 9.675781 52.171875 " fill-opacity="1" fill-rule="nonzero"/></g><path fill="#8e68e6" d="M 30.097656 52.171875 L 35.933594 52.171875 L 35.933594 55.070312 L 33.015625 55.070312 L 33.015625 57.96875 L 24.261719 57.96875 L 24.261719 55.070312 L 30.097656 55.070312 Z M 30.097656 52.171875 " fill-opacity="1" fill-rule="nonzero"/><path fill="#8e68e6" d="M 44.6875 49.273438 L 35.933594 49.273438 L 35.933594 52.171875 L 44.6875 52.171875 Z M 44.6875 49.273438 " fill-opacity="1" fill-rule="nonzero"/><path fill="#d594d6" d="M 114.707031 37.679688 L 114.707031 31.882812 L 117.625 31.882812 L 117.625 20.289062 L 123.460938 20.289062 L 123.460938 17.390625 L 120.542969 17.390625 L 120.542969 11.59375 L 123.460938 11.59375 L 123.460938 14.492188 L 126.378906 14.492188 L 126.378906 23.1875 L 123.460938 23.1875 L 123.460938 34.78125 L 120.542969 34.78125 L 120.542969 37.679688 L 117.625 37.679688 L 117.625 40.578125 L 111.789062 40.578125 L 111.789062 37.679688 Z M 114.707031 37.679688 " fill-opacity="1" fill-rule="nonzero"/><path fill="#d594d6" d="M 111.789062 40.578125 L 91.367188 40.578125 L 91.367188 43.476562 L 111.789062 43.476562 Z M 111.789062 40.578125 " fill-opacity="1" fill-rule="nonzero"/><path fill="#d594d6" d="M 114.707031 17.390625 L 114.707031 14.492188 L 117.625 14.492188 L 117.625 20.289062 L 114.707031 20.289062 Z M 114.707031 17.390625 " fill-opacity="1" fill-rule="nonzero"/><path fill="#d594d6" d="M 114.707031 11.59375 L 111.789062 11.59375 L 111.789062 14.492188 L 114.707031 14.492188 Z M 114.707031 11.59375 " fill-opacity="1" fill-rule="nonzero"/><path fill="#d594d6" d="M 91.367188 37.679688 L 88.449219 37.679688 L 88.449219 40.578125 L 91.367188 40.578125 Z M 91.367188 37.679688 " fill-opacity="1" fill-rule="nonzero"/><path fill="#d594d6" d="M 140.964844 43.476562 L 143.882812 43.476562 L 143.882812 49.273438 L 132.214844 49.273438 L 132.214844 46.375 L 140.964844 46.375 Z M 140.964844 43.476562 " fill-opacity="1" fill-rule="nonzero"/><path fill="#d594d6" d="M 173.058594 49.273438 L 175.976562 49.273438 L 175.976562 55.070312 L 167.222656 55.070312 L 167.222656 52.171875 L 173.058594 52.171875 Z M 173.058594 49.273438 " fill-opacity="1" fill-rule="nonzero"/><path fill="#d594d6" d="M 164.308594 52.171875 L 158.472656 52.171875 L 158.472656 55.070312 L 164.308594 55.070312 Z M 164.308594 52.171875 " fill-opacity="1" fill-rule="nonzero"/><path fill="#d594d6" d="M 94.285156 2.898438 L 91.367188 2.898438 L 91.367188 0 L 97.203125 0 L 97.203125 5.796875 L 94.285156 5.796875 Z M 94.285156 2.898438 " fill-opacity="1" fill-rule="nonzero"/><path fill="#d594d6" d="M 100.121094 17.390625 L 100.121094 8.695312 L 97.203125 8.695312 L 97.203125 5.796875 L 103.039062 5.796875 L 103.039062 20.289062 L 100.121094 20.289062 L 100.121094 23.1875 L 97.203125 23.1875 L 97.203125 17.390625 Z M 100.121094 17.390625 " fill-opacity="1" fill-rule="nonzero"/><path fill="#d594d6" d="M 97.203125 23.1875 L 94.285156 23.1875 L 94.285156 26.085938 L 97.203125 26.085938 Z M 97.203125 23.1875 " fill-opacity="1" fill-rule="nonzero"/><path fill="#d594d6" d="M 94.285156 26.085938 L 85.53125 26.085938 L 85.53125 28.984375 L 94.285156 28.984375 Z M 94.285156 26.085938 " fill-opacity="1" fill-rule="nonzero"/><path fill="#d594d6" d="M 97.203125 11.59375 L 94.285156 11.59375 L 94.285156 14.492188 L 97.203125 14.492188 Z M 97.203125 11.59375 " fill-opacity="1" fill-rule="nonzero"/><path fill="#d594d6" d="M 140.964844 37.679688 L 140.964844 34.78125 L 138.046875 34.78125 L 138.046875 31.882812 L 143.882812 31.882812 L 143.882812 34.78125 L 146.800781 34.78125 L 146.800781 43.476562 L 143.882812 43.476562 L 143.882812 37.679688 Z M 140.964844 37.679688 " fill-opacity="1" fill-rule="nonzero"/><path fill="#d594d6" d="M 129.296875 40.578125 L 132.214844 40.578125 L 132.214844 46.375 L 126.378906 46.375 L 126.378906 43.476562 L 129.296875 43.476562 Z M 129.296875 40.578125 " fill-opacity="1" fill-rule="nonzero"/><path fill="#d594d6" d="M 135.132812 34.78125 L 132.214844 34.78125 L 132.214844 40.578125 L 135.132812 40.578125 Z M 135.132812 34.78125 " fill-opacity="1" fill-rule="nonzero"/><path fill="#d594d6" d="M 85.53125 14.492188 L 82.613281 14.492188 L 82.613281 23.1875 L 85.53125 23.1875 Z M 85.53125 14.492188 " fill-opacity="1" fill-rule="nonzero"/><path fill="#d594d6" d="M 82.613281 23.1875 L 79.695312 23.1875 L 79.695312 28.984375 L 82.613281 28.984375 Z M 82.613281 23.1875 " fill-opacity="1" fill-rule="nonzero"/><path fill="#d594d6" d="M 79.695312 28.984375 L 73.863281 28.984375 L 73.863281 31.882812 L 79.695312 31.882812 Z M 79.695312 28.984375 " fill-opacity="1" fill-rule="nonzero"/><path fill="#d594d6" d="M 73.863281 31.882812 L 68.027344 31.882812 L 68.027344 34.78125 L 73.863281 34.78125 Z M 73.863281 31.882812 " fill-opacity="1" fill-rule="nonzero"/><path fill="#d594d6" d="M 41.769531 37.679688 L 53.4375 37.679688 L 53.4375 40.578125 L 68.027344 40.578125 L 68.027344 37.679688 L 73.863281 37.679688 L 73.863281 34.78125 L 76.78125 34.78125 L 76.78125 40.578125 L 70.945312 40.578125 L 70.945312 43.476562 L 47.605469 43.476562 L 47.605469 40.578125 L 35.933594 40.578125 L 35.933594 34.78125 L 41.769531 34.78125 Z M 41.769531 37.679688 " fill-opacity="1" fill-rule="nonzero"/><path fill="#d594d6" d="M 68.027344 28.984375 L 62.191406 28.984375 L 62.191406 31.882812 L 68.027344 31.882812 Z M 68.027344 28.984375 " fill-opacity="1" fill-rule="nonzero"/><path fill="#d594d6" d="M 62.191406 26.085938 L 59.273438 26.085938 L 59.273438 28.984375 L 62.191406 28.984375 Z M 62.191406 26.085938 " fill-opacity="1" fill-rule="nonzero"/><path fill="#d594d6" d="M 24.261719 43.476562 L 24.261719 40.578125 L 27.179688 40.578125 L 27.179688 46.375 L 21.34375 46.375 L 21.34375 43.476562 Z M 24.261719 43.476562 " fill-opacity="1" fill-rule="nonzero"/><path fill="#d594d6" d="M 18.429688 49.273438 L 18.429688 46.375 L 21.34375 46.375 L 21.34375 52.171875 L 15.511719 52.171875 L 15.511719 49.273438 Z M 18.429688 49.273438 " fill-opacity="1" fill-rule="nonzero"/><path fill="#d594d6" d="M 15.511719 52.171875 L 9.675781 52.171875 L 9.675781 55.070312 L 15.511719 55.070312 Z M 15.511719 52.171875 " fill-opacity="1" fill-rule="nonzero"/><g clip-path="url(#64d5bd6bd4)"><path fill="#d594d6" d="M 3.839844 49.273438 L 3.839844 46.375 L 6.757812 46.375 L 6.757812 49.273438 L 9.675781 49.273438 L 9.675781 52.171875 L 0.921875 52.171875 L 0.921875 49.273438 Z M 3.839844 49.273438 " fill-opacity="1" fill-rule="nonzero"/></g><path fill="#d594d6" d="M 103.039062 28.984375 L 100.121094 28.984375 L 100.121094 31.882812 L 103.039062 31.882812 Z M 103.039062 28.984375 " fill-opacity="1" fill-rule="nonzero"/><path fill="#d594d6" d="M 100.121094 31.882812 L 97.203125 31.882812 L 97.203125 34.78125 L 100.121094 34.78125 Z M 100.121094 31.882812 " fill-opacity="1" fill-rule="nonzero"/><path fill="#d594d6" d="M 97.203125 34.78125 L 91.367188 34.78125 L 91.367188 37.679688 L 97.203125 37.679688 Z M 97.203125 34.78125 " fill-opacity="1" fill-rule="nonzero"/><path fill="#f2c035" d="M 91.367188 5.796875 L 85.53125 5.796875 L 85.53125 8.695312 L 91.367188 8.695312 Z M 91.367188 5.796875 " fill-opacity="1" fill-rule="nonzero"/><path fill="#f2c035" d="M 85.53125 2.898438 L 82.613281 2.898438 L 82.613281 5.796875 L 85.53125 5.796875 Z M 85.53125 2.898438 " fill-opacity="1" fill-rule="nonzero"/><path fill="#f2c035" d="M 82.613281 5.796875 L 79.695312 5.796875 L 79.695312 8.695312 L 82.613281 8.695312 Z M 82.613281 5.796875 " fill-opacity="1" fill-rule="nonzero"/><path fill="#f2c035" d="M 73.863281 8.695312 L 68.027344 8.695312 L 68.027344 11.59375 L 73.863281 11.59375 Z M 73.863281 8.695312 " fill-opacity="1" fill-rule="nonzero"/><path fill="#f2c035" d="M 76.78125 14.492188 L 70.945312 14.492188 L 70.945312 17.390625 L 76.78125 17.390625 Z M 76.78125 14.492188 " fill-opacity="1" fill-rule="nonzero"/><path fill="#f2c035" d="M 70.945312 20.289062 L 68.027344 20.289062 L 68.027344 23.1875 L 70.945312 23.1875 Z M 70.945312 20.289062 " fill-opacity="1" fill-rule="nonzero"/><path fill="#f2c035" d="M 114.707031 5.796875 L 105.957031 5.796875 L 105.957031 8.695312 L 114.707031 8.695312 Z M 114.707031 5.796875 " fill-opacity="1" fill-rule="nonzero"/><path fill="#f2c035" d="M 91.367188 0 L 85.53125 0 L 85.53125 2.898438 L 91.367188 2.898438 Z M 91.367188 0 " fill-opacity="1" fill-rule="nonzero"/><path fill="#f2c035" d="M 68.027344 11.59375 L 65.109375 11.59375 L 65.109375 14.492188 L 68.027344 14.492188 Z M 68.027344 11.59375 " fill-opacity="1" fill-rule="nonzero"/><path fill="#f2c035" d="M 62.191406 17.390625 L 59.273438 17.390625 L 59.273438 20.289062 L 62.191406 20.289062 Z M 62.191406 17.390625 " fill-opacity="1" fill-rule="nonzero"/><path fill="#f2c035" d="M 18.429688 40.578125 L 12.59375 40.578125 L 12.59375 43.476562 L 18.429688 43.476562 Z M 18.429688 40.578125 " fill-opacity="1" fill-rule="nonzero"/><path fill="#f2c035" d="M 12.59375 43.476562 L 6.757812 43.476562 L 6.757812 46.375 L 12.59375 46.375 Z M 12.59375 43.476562 " fill-opacity="1" fill-rule="nonzero"/><path fill="#f2c035" d="M 59.273438 23.1875 L 56.355469 23.1875 L 56.355469 28.984375 L 59.273438 28.984375 Z M 59.273438 23.1875 " fill-opacity="1" fill-rule="nonzero"/><path fill="#f2c035" d="M 56.355469 28.984375 L 47.605469 28.984375 L 47.605469 31.882812 L 56.355469 31.882812 Z M 56.355469 28.984375 " fill-opacity="1" fill-rule="nonzero"/><path fill="#f2c035" d="M 44.6875 31.882812 L 41.769531 31.882812 L 41.769531 34.78125 L 44.6875 34.78125 Z M 44.6875 31.882812 " fill-opacity="1" fill-rule="nonzero"/><path fill="#f2c035" d="M 59.273438 31.882812 L 56.355469 31.882812 L 56.355469 34.78125 L 59.273438 34.78125 Z M 59.273438 31.882812 " fill-opacity="1" fill-rule="nonzero"/><path fill="#f2c035" d="M 79.695312 17.390625 L 76.78125 17.390625 L 76.78125 20.289062 L 79.695312 20.289062 Z M 79.695312 17.390625 " fill-opacity="1" fill-rule="nonzero"/><g clip-path="url(#c1ca6c7394)"><path fill="#d594d6" d="M 3.839844 49.273438 L 3.839844 46.375 L 6.757812 46.375 L 6.757812 43.476562 L 12.59375 43.476562 L 12.59375 40.578125 L 27.179688 40.578125 L 27.179688 43.476562 L 33.015625 43.476562 L 33.015625 37.679688 L 35.933594 37.679688 L 35.933594 34.78125 L 38.851562 34.78125 L 38.851562 31.882812 L 41.769531 31.882812 L 41.769531 28.984375 L 56.355469 28.984375 L 56.355469 23.1875 L 59.273438 23.1875 L 59.273438 17.390625 L 62.191406 17.390625 L 62.191406 14.492188 L 65.109375 14.492188 L 65.109375 11.59375 L 68.027344 11.59375 L 68.027344 8.695312 L 79.695312 8.695312 L 79.695312 5.796875 L 82.613281 5.796875 L 82.613281 2.898438 L 85.53125 2.898438 L 85.53125 0 L 97.203125 0 L 97.203125 2.898438 L 103.039062 2.898438 L 103.039062 5.796875 L 117.625 5.796875 L 117.625 8.695312 L 120.542969 8.695312 L 120.542969 11.59375 L 123.460938 11.59375 L 123.460938 14.492188 L 126.378906 14.492188 L 126.378906 26.085938 L 129.296875 26.085938 L 129.296875 28.984375 L 132.214844 28.984375 L 132.214844 34.78125 L 135.132812 34.78125 L 135.132812 31.882812 L 143.882812 31.882812 L 143.882812 34.78125 L 146.800781 34.78125 L 146.800781 37.679688 L 149.71875 37.679688 L 149.71875 40.578125 L 152.636719 40.578125 L 152.636719 46.375 L 158.472656 46.375 L 158.472656 49.273438 L 164.308594 49.273438 L 164.308594 52.171875 L 167.222656 52.171875 L 167.222656 49.273438 L 175.976562 49.273438 L 175.976562 52.171875 L 181.8125 52.171875 L 181.8125 55.070312 L 184.730469 55.070312 L 184.730469 60.867188 L 181.8125 60.867188 L 181.8125 63.765625 L 6.757812 63.765625 L 6.757812 60.867188 L 3.839844 60.867188 L 3.839844 55.070312 L 0.921875 55.070312 L 0.921875 49.273438 Z M 3.839844 49.273438 " fill-opacity="1" fill-rule="nonzero"/></g><path fill="#5561d3" d="M 103.039062 14.492188 L 103.039062 5.796875 L 105.957031 5.796875 L 105.957031 11.59375 L 108.871094 11.59375 L 108.871094 20.289062 L 105.957031 20.289062 L 105.957031 14.492188 Z M 103.039062 14.492188 " fill-opacity="1" fill-rule="nonzero"/><path fill="#5561d3" d="M 103.039062 2.898438 L 97.203125 2.898438 L 97.203125 5.796875 L 103.039062 5.796875 Z M 103.039062 2.898438 " fill-opacity="1" fill-rule="nonzero"/><path fill="#5561d3" d="M 105.957031 20.289062 L 103.039062 20.289062 L 103.039062 26.085938 L 105.957031 26.085938 Z M 105.957031 20.289062 " fill-opacity="1" fill-rule="nonzero"/><path fill="#5561d3" d="M 94.285156 31.882812 L 94.285156 28.984375 L 97.203125 28.984375 L 97.203125 26.085938 L 103.039062 26.085938 L 103.039062 28.984375 L 100.121094 28.984375 L 100.121094 31.882812 L 97.203125 31.882812 L 97.203125 34.78125 L 91.367188 34.78125 L 91.367188 31.882812 Z M 94.285156 31.882812 " fill-opacity="1" fill-rule="nonzero"/><path fill="#5561d3" d="M 82.613281 8.695312 L 76.78125 8.695312 L 76.78125 11.59375 L 82.613281 11.59375 Z M 82.613281 8.695312 " fill-opacity="1" fill-rule="nonzero"/><path fill="#5561d3" d="M 85.53125 11.59375 L 82.613281 11.59375 L 82.613281 14.492188 L 85.53125 14.492188 Z M 85.53125 11.59375 " fill-opacity="1" fill-rule="nonzero"/><path fill="#5561d3" d="M 88.449219 14.492188 L 85.53125 14.492188 L 85.53125 23.1875 L 88.449219 23.1875 Z M 88.449219 14.492188 " fill-opacity="1" fill-rule="nonzero"/><path fill="#5561d3" d="M 85.53125 23.1875 L 82.613281 23.1875 L 82.613281 28.984375 L 85.53125 28.984375 Z M 85.53125 23.1875 " fill-opacity="1" fill-rule="nonzero"/><path fill="#5561d3" d="M 82.613281 28.984375 L 79.695312 28.984375 L 79.695312 31.882812 L 82.613281 31.882812 Z M 82.613281 28.984375 " fill-opacity="1" fill-rule="nonzero"/><path fill="#5561d3" d="M 79.695312 31.882812 L 73.863281 31.882812 L 73.863281 34.78125 L 79.695312 34.78125 Z M 79.695312 31.882812 " fill-opacity="1" fill-rule="nonzero"/><path fill="#5561d3" d="M 73.863281 34.78125 L 68.027344 34.78125 L 68.027344 37.679688 L 73.863281 37.679688 Z M 73.863281 34.78125 " fill-opacity="1" fill-rule="nonzero"/><path fill="#5561d3" d="M 68.027344 31.882812 L 62.191406 31.882812 L 62.191406 34.78125 L 68.027344 34.78125 Z M 68.027344 31.882812 " fill-opacity="1" fill-rule="nonzero"/><g clip-path="url(#e363b00158)"><path fill="#5561d3" d="M 9.675781 55.070312 L 9.675781 57.96875 L 15.511719 57.96875 L 15.511719 55.070312 L 21.34375 55.070312 L 21.34375 52.171875 L 27.179688 52.171875 L 27.179688 49.273438 L 30.097656 49.273438 L 30.097656 43.476562 L 35.933594 43.476562 L 35.933594 46.375 L 47.605469 46.375 L 47.605469 49.273438 L 62.191406 49.273438 L 62.191406 46.375 L 70.945312 46.375 L 70.945312 43.476562 L 79.695312 43.476562 L 79.695312 40.578125 L 82.613281 40.578125 L 82.613281 37.679688 L 79.695312 37.679688 L 79.695312 34.78125 L 91.367188 34.78125 L 91.367188 37.679688 L 88.449219 37.679688 L 88.449219 40.578125 L 85.53125 40.578125 L 85.53125 43.476562 L 91.367188 43.476562 L 91.367188 46.375 L 111.789062 46.375 L 111.789062 43.476562 L 117.625 43.476562 L 117.625 40.578125 L 123.460938 40.578125 L 123.460938 37.679688 L 129.296875 37.679688 L 129.296875 31.882812 L 126.378906 31.882812 L 126.378906 26.085938 L 129.296875 26.085938 L 129.296875 28.984375 L 132.214844 28.984375 L 132.214844 40.578125 L 129.296875 40.578125 L 129.296875 43.476562 L 126.378906 43.476562 L 126.378906 46.375 L 132.214844 46.375 L 132.214844 49.273438 L 135.132812 49.273438 L 135.132812 55.070312 L 140.964844 55.070312 L 140.964844 52.171875 L 143.882812 52.171875 L 143.882812 49.273438 L 146.800781 49.273438 L 146.800781 46.375 L 149.71875 46.375 L 149.71875 40.578125 L 152.636719 40.578125 L 152.636719 46.375 L 155.554688 46.375 L 155.554688 52.171875 L 158.472656 52.171875 L 158.472656 55.070312 L 161.390625 55.070312 L 161.390625 57.96875 L 178.894531 57.96875 L 178.894531 52.171875 L 181.8125 52.171875 L 181.8125 55.070312 L 184.730469 55.070312 L 184.730469 60.867188 L 181.8125 60.867188 L 181.8125 63.765625 L 6.757812 63.765625 L 6.757812 60.867188 L 3.839844 60.867188 L 3.839844 55.070312 Z M 9.675781 55.070312 " fill-opacity="1" fill-rule="nonzero"/></g><path fill="#8e68e6" d="M 175.976562 52.171875 L 178.894531 52.171875 L 178.894531 57.96875 L 161.390625 57.96875 L 161.390625 55.070312 L 175.976562 55.070312 Z M 175.976562 52.171875 " fill-opacity="1" fill-rule="nonzero"/><path fill="#8e68e6" d="M 158.472656 46.375 L 155.554688 46.375 L 155.554688 52.171875 L 158.472656 52.171875 Z M 158.472656 46.375 " fill-opacity="1" fill-rule="nonzero"/><path fill="#8e68e6" d="M 146.800781 43.476562 L 146.800781 37.679688 L 149.71875 37.679688 L 149.71875 46.375 L 146.800781 46.375 L 146.800781 49.273438 L 143.882812 49.273438 L 143.882812 43.476562 Z M 146.800781 43.476562 " fill-opacity="1" fill-rule="nonzero"/><path fill="#8e68e6" d="M 143.882812 49.273438 L 143.882812 52.171875 L 140.964844 52.171875 L 140.964844 55.070312 L 135.132812 55.070312 L 135.132812 49.273438 Z M 143.882812 49.273438 " fill-opacity="1" fill-rule="nonzero"/><path fill="#8e68e6" d="M 120.542969 37.679688 L 120.542969 34.78125 L 123.460938 34.78125 L 123.460938 23.1875 L 126.378906 23.1875 L 126.378906 31.882812 L 129.296875 31.882812 L 129.296875 37.679688 L 123.460938 37.679688 L 123.460938 40.578125 L 117.625 40.578125 L 117.625 37.679688 Z M 120.542969 37.679688 " fill-opacity="1" fill-rule="nonzero"/><path fill="#8e68e6" d="M 111.789062 40.578125 L 117.625 40.578125 L 117.625 46.375 L 111.789062 46.375 L 111.789062 49.273438 L 91.367188 49.273438 L 91.367188 43.476562 L 111.789062 43.476562 Z M 111.789062 40.578125 " fill-opacity="1" fill-rule="nonzero"/><path fill="#8e68e6" d="M 91.367188 40.578125 L 85.53125 40.578125 L 85.53125 43.476562 L 91.367188 43.476562 Z M 91.367188 40.578125 " fill-opacity="1" fill-rule="nonzero"/><path fill="#8e68e6" d="M 100.121094 52.171875 L 97.203125 52.171875 L 97.203125 55.070312 L 100.121094 55.070312 Z M 100.121094 52.171875 " fill-opacity="1" fill-rule="nonzero"/><path fill="#8e68e6" d="M 88.449219 46.375 L 82.613281 46.375 L 82.613281 52.171875 L 88.449219 52.171875 Z M 88.449219 46.375 " fill-opacity="1" fill-rule="nonzero"/><path fill="#8e68e6" d="M 129.296875 49.273438 L 123.460938 49.273438 L 123.460938 55.070312 L 129.296875 55.070312 Z M 129.296875 49.273438 " fill-opacity="1" fill-rule="nonzero"/><path fill="#8e68e6" d="M 152.636719 49.273438 L 149.71875 49.273438 L 149.71875 52.171875 L 152.636719 52.171875 Z M 152.636719 49.273438 " fill-opacity="1" fill-rule="nonzero"/><path fill="#8e68e6" d="M 158.472656 55.070312 L 155.554688 55.070312 L 155.554688 57.96875 L 158.472656 57.96875 Z M 158.472656 55.070312 " fill-opacity="1" fill-rule="nonzero"/><path fill="#8e68e6" d="M 152.636719 55.070312 L 146.800781 55.070312 L 146.800781 60.867188 L 152.636719 60.867188 Z M 152.636719 55.070312 " fill-opacity="1" fill-rule="nonzero"/><path fill="#8e68e6" d="M 114.707031 49.273438 L 117.625 49.273438 L 117.625 55.070312 L 103.039062 55.070312 L 103.039062 52.171875 L 114.707031 52.171875 Z M 114.707031 49.273438 " fill-opacity="1" fill-rule="nonzero"/><path fill="#8e68e6" d="M 70.945312 49.273438 L 65.109375 49.273438 L 65.109375 52.171875 L 70.945312 52.171875 Z M 70.945312 49.273438 " fill-opacity="1" fill-rule="nonzero"/><path fill="#8e68e6" d="M 76.78125 40.578125 L 76.78125 34.78125 L 79.695312 34.78125 L 79.695312 37.679688 L 82.613281 37.679688 L 82.613281 40.578125 L 79.695312 40.578125 L 79.695312 43.476562 L 70.945312 43.476562 L 70.945312 40.578125 Z M 76.78125 40.578125 " fill-opacity="1" fill-rule="nonzero"/><path fill="#8e68e6" d="M 105.957031 14.492188 L 103.039062 14.492188 L 103.039062 20.289062 L 105.957031 20.289062 Z M 105.957031 14.492188 " fill-opacity="1" fill-rule="nonzero"/><path fill="#8e68e6" d="M 100.121094 23.1875 L 100.121094 20.289062 L 103.039062 20.289062 L 103.039062 26.085938 L 97.203125 26.085938 L 97.203125 23.1875 Z M 100.121094 23.1875 " fill-opacity="1" fill-rule="nonzero"/><path fill="#8e68e6" d="M 97.203125 26.085938 L 94.285156 26.085938 L 94.285156 28.984375 L 97.203125 28.984375 Z M 97.203125 26.085938 " fill-opacity="1" fill-rule="nonzero"/><path fill="#8e68e6" d="M 82.613281 31.882812 L 82.613281 28.984375 L 94.285156 28.984375 L 94.285156 31.882812 L 91.367188 31.882812 L 91.367188 34.78125 L 79.695312 34.78125 L 79.695312 31.882812 Z M 82.613281 31.882812 " fill-opacity="1" fill-rule="nonzero"/><path fill="#8e68e6" d="M 35.933594 43.476562 L 33.015625 43.476562 L 33.015625 37.679688 L 35.933594 37.679688 L 35.933594 40.578125 L 47.605469 40.578125 L 47.605469 43.476562 L 70.945312 43.476562 L 70.945312 46.375 L 62.191406 46.375 L 62.191406 49.273438 L 47.605469 49.273438 L 47.605469 46.375 L 35.933594 46.375 Z M 35.933594 43.476562 " fill-opacity="1" fill-rule="nonzero"/><path fill="#8e68e6" d="M 27.179688 46.375 L 27.179688 43.476562 L 30.097656 43.476562 L 30.097656 49.273438 L 27.179688 49.273438 L 27.179688 52.171875 L 21.34375 52.171875 L 21.34375 46.375 Z M 27.179688 46.375 " fill-opacity="1" fill-rule="nonzero"/><path fill="#8e68e6" d="M 21.34375 52.171875 L 15.511719 52.171875 L 15.511719 55.070312 L 21.34375 55.070312 Z M 21.34375 52.171875 " fill-opacity="1" fill-rule="nonzero"/><path fill="#8e68e6" d="M 15.511719 55.070312 L 9.675781 55.070312 L 9.675781 57.96875 L 15.511719 57.96875 Z M 15.511719 55.070312 " fill-opacity="1" fill-rule="nonzero"/><g clip-path="url(#b5b74a7309)"><path fill="#8e68e6" d="M 9.675781 52.171875 L 0.921875 52.171875 L 0.921875 55.070312 L 9.675781 55.070312 Z M 9.675781 52.171875 " fill-opacity="1" fill-rule="nonzero"/></g><path fill="#8e68e6" d="M 30.097656 52.171875 L 35.933594 52.171875 L 35.933594 55.070312 L 33.015625 55.070312 L 33.015625 57.96875 L 24.261719 57.96875 L 24.261719 55.070312 L 30.097656 55.070312 Z M 30.097656 52.171875 " fill-opacity="1" fill-rule="nonzero"/><path fill="#8e68e6" d="M 44.6875 49.273438 L 35.933594 49.273438 L 35.933594 52.171875 L 44.6875 52.171875 Z M 44.6875 49.273438 " fill-opacity="1" fill-rule="nonzero"/><path fill="#d594d6" d="M 114.707031 37.679688 L 114.707031 31.882812 L 117.625 31.882812 L 117.625 20.289062 L 123.460938 20.289062 L 123.460938 17.390625 L 120.542969 17.390625 L 120.542969 11.59375 L 123.460938 11.59375 L 123.460938 14.492188 L 126.378906 14.492188 L 126.378906 23.1875 L 123.460938 23.1875 L 123.460938 34.78125 L 120.542969 34.78125 L 120.542969 37.679688 L 117.625 37.679688 L 117.625 40.578125 L 111.789062 40.578125 L 111.789062 37.679688 Z M 114.707031 37.679688 " fill-opacity="1" fill-rule="nonzero"/><path fill="#d594d6" d="M 111.789062 40.578125 L 91.367188 40.578125 L 91.367188 43.476562 L 111.789062 43.476562 Z M 111.789062 40.578125 " fill-opacity="1" fill-rule="nonzero"/><path fill="#d594d6" d="M 114.707031 17.390625 L 114.707031 14.492188 L 117.625 14.492188 L 117.625 20.289062 L 114.707031 20.289062 Z M 114.707031 17.390625 " fill-opacity="1" fill-rule="nonzero"/><path fill="#d594d6" d="M 114.707031 11.59375 L 111.789062 11.59375 L 111.789062 14.492188 L 114.707031 14.492188 Z M 114.707031 11.59375 " fill-opacity="1" fill-rule="nonzero"/><path fill="#d594d6" d="M 91.367188 37.679688 L 88.449219 37.679688 L 88.449219 40.578125 L 91.367188 40.578125 Z M 91.367188 37.679688 " fill-opacity="1" fill-rule="nonzero"/><path fill="#d594d6" d="M 140.964844 43.476562 L 143.882812 43.476562 L 143.882812 49.273438 L 132.214844 49.273438 L 132.214844 46.375 L 140.964844 46.375 Z M 140.964844 43.476562 " fill-opacity="1" fill-rule="nonzero"/><path fill="#d594d6" d="M 173.058594 49.273438 L 175.976562 49.273438 L 175.976562 55.070312 L 167.222656 55.070312 L 167.222656 52.171875 L 173.058594 52.171875 Z M 173.058594 49.273438 " fill-opacity="1" fill-rule="nonzero"/><path fill="#d594d6" d="M 164.308594 52.171875 L 158.472656 52.171875 L 158.472656 55.070312 L 164.308594 55.070312 Z M 164.308594 52.171875 " fill-opacity="1" fill-rule="nonzero"/><path fill="#d594d6" d="M 94.285156 2.898438 L 91.367188 2.898438 L 91.367188 0 L 97.203125 0 L 97.203125 5.796875 L 94.285156 5.796875 Z M 94.285156 2.898438 " fill-opacity="1" fill-rule="nonzero"/><path fill="#d594d6" d="M 100.121094 17.390625 L 100.121094 8.695312 L 97.203125 8.695312 L 97.203125 5.796875 L 103.039062 5.796875 L 103.039062 20.289062 L 100.121094 20.289062 L 100.121094 23.1875 L 97.203125 23.1875 L 97.203125 17.390625 Z M 100.121094 17.390625 " fill-opacity="1" fill-rule="nonzero"/><path fill="#d594d6" d="M 97.203125 23.1875 L 94.285156 23.1875 L 94.285156 26.085938 L 97.203125 26.085938 Z M 97.203125 23.1875 " fill-opacity="1" fill-rule="nonzero"/><path fill="#d594d6" d="M 94.285156 26.085938 L 85.53125 26.085938 L 85.53125 28.984375 L 94.285156 28.984375 Z M 94.285156 26.085938 " fill-opacity="1" fill-rule="nonzero"/><path fill="#d594d6" d="M 97.203125 11.59375 L 94.285156 11.59375 L 94.285156 14.492188 L 97.203125 14.492188 Z M 97.203125 11.59375 " fill-opacity="1" fill-rule="nonzero"/><path fill="#d594d6" d="M 140.964844 37.679688 L 140.964844 34.78125 L 138.046875 34.78125 L 138.046875 31.882812 L 143.882812 31.882812 L 143.882812 34.78125 L 146.800781 34.78125 L 146.800781 43.476562 L 143.882812 43.476562 L 143.882812 37.679688 Z M 140.964844 37.679688 " fill-opacity="1" fill-rule="nonzero"/><path fill="#d594d6" d="M 129.296875 40.578125 L 132.214844 40.578125 L 132.214844 46.375 L 126.378906 46.375 L 126.378906 43.476562 L 129.296875 43.476562 Z M 129.296875 40.578125 " fill-opacity="1" fill-rule="nonzero"/><path fill="#d594d6" d="M 135.132812 34.78125 L 132.214844 34.78125 L 132.214844 40.578125 L 135.132812 40.578125 Z M 135.132812 34.78125 " fill-opacity="1" fill-rule="nonzero"/><path fill="#d594d6" d="M 85.53125 14.492188 L 82.613281 14.492188 L 82.613281 23.1875 L 85.53125 23.1875 Z M 85.53125 14.492188 " fill-opacity="1" fill-rule="nonzero"/><path fill="#d594d6" d="M 82.613281 23.1875 L 79.695312 23.1875 L 79.695312 28.984375 L 82.613281 28.984375 Z M 82.613281 23.1875 " fill-opacity="1" fill-rule="nonzero"/><path fill="#d594d6" d="M 79.695312 28.984375 L 73.863281 28.984375 L 73.863281 31.882812 L 79.695312 31.882812 Z M 79.695312 28.984375 " fill-opacity="1" fill-rule="nonzero"/><path fill="#d594d6" d="M 73.863281 31.882812 L 68.027344 31.882812 L 68.027344 34.78125 L 73.863281 34.78125 Z M 73.863281 31.882812 " fill-opacity="1" fill-rule="nonzero"/><path fill="#d594d6" d="M 41.769531 37.679688 L 53.4375 37.679688 L 53.4375 40.578125 L 68.027344 40.578125 L 68.027344 37.679688 L 73.863281 37.679688 L 73.863281 34.78125 L 76.78125 34.78125 L 76.78125 40.578125 L 70.945312 40.578125 L 70.945312 43.476562 L 47.605469 43.476562 L 47.605469 40.578125 L 35.933594 40.578125 L 35.933594 34.78125 L 41.769531 34.78125 Z M 41.769531 37.679688 " fill-opacity="1" fill-rule="nonzero"/><path fill="#d594d6" d="M 68.027344 28.984375 L 62.191406 28.984375 L 62.191406 31.882812 L 68.027344 31.882812 Z M 68.027344 28.984375 " fill-opacity="1" fill-rule="nonzero"/><path fill="#d594d6" d="M 62.191406 26.085938 L 59.273438 26.085938 L 59.273438 28.984375 L 62.191406 28.984375 Z M 62.191406 26.085938 " fill-opacity="1" fill-rule="nonzero"/><path fill="#d594d6" d="M 24.261719 43.476562 L 24.261719 40.578125 L 27.179688 40.578125 L 27.179688 46.375 L 21.34375 46.375 L 21.34375 43.476562 Z M 24.261719 43.476562 " fill-opacity="1" fill-rule="nonzero"/><path fill="#d594d6" d="M 18.429688 49.273438 L 18.429688 46.375 L 21.34375 46.375 L 21.34375 52.171875 L 15.511719 52.171875 L 15.511719 49.273438 Z M 18.429688 49.273438 " fill-opacity="1" fill-rule="nonzero"/><path fill="#d594d6" d="M 15.511719 52.171875 L 9.675781 52.171875 L 9.675781 55.070312 L 15.511719 55.070312 Z M 15.511719 52.171875 " fill-opacity="1" fill-rule="nonzero"/><g clip-path="url(#2974020883)"><path fill="#d594d6" d="M 3.839844 49.273438 L 3.839844 46.375 L 6.757812 46.375 L 6.757812 49.273438 L 9.675781 49.273438 L 9.675781 52.171875 L 0.921875 52.171875 L 0.921875 49.273438 Z M 3.839844 49.273438 " fill-opacity="1" fill-rule="nonzero"/></g><path fill="#d594d6" d="M 103.039062 28.984375 L 100.121094 28.984375 L 100.121094 31.882812 L 103.039062 31.882812 Z M 103.039062 28.984375 " fill-opacity="1" fill-rule="nonzero"/><path fill="#d594d6" d="M 100.121094 31.882812 L 97.203125 31.882812 L 97.203125 34.78125 L 100.121094 34.78125 Z M 100.121094 31.882812 " fill-opacity="1" fill-rule="nonzero"/><path fill="#d594d6" d="M 97.203125 34.78125 L 91.367188 34.78125 L 91.367188 37.679688 L 97.203125 37.679688 Z M 97.203125 34.78125 " fill-opacity="1" fill-rule="nonzero"/><path fill="#f2c035" d="M 91.367188 5.796875 L 85.53125 5.796875 L 85.53125 8.695312 L 91.367188 8.695312 Z M 91.367188 5.796875 " fill-opacity="1" fill-rule="nonzero"/><path fill="#f2c035" d="M 85.53125 2.898438 L 82.613281 2.898438 L 82.613281 5.796875 L 85.53125 5.796875 Z M 85.53125 2.898438 " fill-opacity="1" fill-rule="nonzero"/><path fill="#f2c035" d="M 82.613281 5.796875 L 79.695312 5.796875 L 79.695312 8.695312 L 82.613281 8.695312 Z M 82.613281 5.796875 " fill-opacity="1" fill-rule="nonzero"/><path fill="#f2c035" d="M 73.863281 8.695312 L 68.027344 8.695312 L 68.027344 11.59375 L 73.863281 11.59375 Z M 73.863281 8.695312 " fill-opacity="1" fill-rule="nonzero"/><path fill="#f2c035" d="M 76.78125 14.492188 L 70.945312 14.492188 L 70.945312 17.390625 L 76.78125 17.390625 Z M 76.78125 14.492188 " fill-opacity="1" fill-rule="nonzero"/><path fill="#f2c035" d="M 70.945312 20.289062 L 68.027344 20.289062 L 68.027344 23.1875 L 70.945312 23.1875 Z M 70.945312 20.289062 " fill-opacity="1" fill-rule="nonzero"/><path fill="#f2c035" d="M 114.707031 5.796875 L 105.957031 5.796875 L 105.957031 8.695312 L 114.707031 8.695312 Z M 114.707031 5.796875 " fill-opacity="1" fill-rule="nonzero"/><path fill="#f2c035" d="M 91.367188 0 L 85.53125 0 L 85.53125 2.898438 L 91.367188 2.898438 Z M 91.367188 0 " fill-opacity="1" fill-rule="nonzero"/><path fill="#f2c035" d="M 68.027344 11.59375 L 65.109375 11.59375 L 65.109375 14.492188 L 68.027344 14.492188 Z M 68.027344 11.59375 " fill-opacity="1" fill-rule="nonzero"/><path fill="#f2c035" d="M 62.191406 17.390625 L 59.273438 17.390625 L 59.273438 20.289062 L 62.191406 20.289062 Z M 62.191406 17.390625 " fill-opacity="1" fill-rule="nonzero"/><path fill="#f2c035" d="M 18.429688 40.578125 L 12.59375 40.578125 L 12.59375 43.476562 L 18.429688 43.476562 Z M 18.429688 40.578125 " fill-opacity="1" fill-rule="nonzero"/><path fill="#f2c035" d="M 12.59375 43.476562 L 6.757812 43.476562 L 6.757812 46.375 L 12.59375 46.375 Z M 12.59375 43.476562 " fill-opacity="1" fill-rule="nonzero"/><path fill="#f2c035" d="M 59.273438 23.1875 L 56.355469 23.1875 L 56.355469 28.984375 L 59.273438 28.984375 Z M 59.273438 23.1875 " fill-opacity="1" fill-rule="nonzero"/><path fill="#f2c035" d="M 56.355469 28.984375 L 47.605469 28.984375 L 47.605469 31.882812 L 56.355469 31.882812 Z M 56.355469 28.984375 " fill-opacity="1" fill-rule="nonzero"/><path fill="#f2c035" d="M 44.6875 31.882812 L 41.769531 31.882812 L 41.769531 34.78125 L 44.6875 34.78125 Z M 44.6875 31.882812 " fill-opacity="1" fill-rule="nonzero"/><path fill="#f2c035" d="M 59.273438 31.882812 L 56.355469 31.882812 L 56.355469 34.78125 L 59.273438 34.78125 Z M 59.273438 31.882812 " fill-opacity="1" fill-rule="nonzero"/><path fill="#f2c035" d="M 79.695312 17.390625 L 76.78125 17.390625 L 76.78125 20.289062 L 79.695312 20.289062 Z M 79.695312 17.390625 " fill-opacity="1" fill-rule="nonzero"/></svg>