<svg xmlns="http://www.w3.org/2000/svg" xmlns:xlink="http://www.w3.org/1999/xlink" width="164" zoomAndPan="magnify" viewBox="0 0 123 231" height="308" preserveAspectRatio="xMidYMid meet" version="1.0"><path fill="#000000" d="M 38.390625 162.421875 L 38.390625 220.378906 C 38.390625 223.195312 42.765625 223.203125 42.765625 220.378906 L 42.765625 162.421875 C 42.765625 159.605469 38.390625 159.597656 38.390625 162.421875 Z M 38.390625 162.421875 " fill-opacity="1" fill-rule="nonzero"/><path fill="#ffe7c0" d="M 41.886719 227.128906 L 21.753906 227.128906 C 21.753906 227.128906 21.753906 219.71875 21.753906 219.71875 C 21.753906 216.242188 24.570312 213.421875 28.050781 213.421875 L 41.886719 213.421875 Z M 41.886719 227.128906 " fill-opacity="1" fill-rule="nonzero"/><path fill="#000000" d="M 41.886719 224.941406 C 35.175781 224.941406 28.460938 224.941406 21.753906 224.941406 L 23.941406 227.128906 C 23.941406 222.984375 22.515625 215.699219 28.554688 215.613281 C 32.996094 215.546875 37.445312 215.613281 41.886719 215.613281 L 39.699219 213.425781 L 39.699219 227.128906 C 39.699219 229.941406 44.074219 229.953125 44.074219 227.128906 L 44.074219 213.425781 C 44.074219 212.242188 43.074219 211.238281 41.886719 211.238281 C 37.195312 211.238281 32.429688 210.96875 27.746094 211.25 C 23.078125 211.53125 19.71875 215.179688 19.566406 219.796875 C 19.480469 222.234375 19.566406 224.6875 19.566406 227.128906 C 19.566406 228.3125 20.566406 229.316406 21.753906 229.316406 C 28.460938 229.316406 35.175781 229.316406 41.886719 229.316406 C 44.699219 229.316406 44.710938 224.941406 41.886719 224.941406 Z M 41.886719 224.941406 " fill-opacity="1" fill-rule="nonzero"/><path fill="#000000" d="M 79.960938 162.421875 C 79.960938 177.609375 79.960938 192.796875 79.960938 207.980469 C 79.960938 212.113281 79.960938 216.246094 79.960938 220.378906 C 79.960938 223.195312 84.335938 223.203125 84.335938 220.378906 C 84.335938 204.925781 84.335938 189.46875 84.335938 174.015625 C 84.335938 170.152344 84.335938 166.285156 84.335938 162.421875 C 84.335938 159.605469 79.960938 159.597656 79.960938 162.421875 Z M 79.960938 162.421875 " fill-opacity="1" fill-rule="nonzero"/><path fill="#ffe7c0" d="M 80.839844 227.128906 L 100.972656 227.128906 C 100.972656 227.128906 100.972656 219.71875 100.972656 219.71875 C 100.972656 216.242188 98.15625 213.421875 94.675781 213.421875 L 80.839844 213.421875 Z M 80.839844 227.128906 " fill-opacity="1" fill-rule="nonzero"/><path fill="#000000" d="M 80.839844 229.316406 C 87.550781 229.316406 94.265625 229.316406 100.972656 229.316406 C 102.15625 229.316406 103.164062 228.316406 103.164062 227.128906 C 103.164062 224.703125 103.242188 222.265625 103.164062 219.847656 C 103.015625 215.210938 99.679688 211.535156 94.980469 211.25 C 90.285156 210.964844 85.53125 211.238281 80.839844 211.238281 C 79.660156 211.238281 78.652344 212.238281 78.652344 213.425781 C 78.652344 217.996094 78.652344 222.558594 78.652344 227.128906 C 78.652344 229.941406 83.027344 229.953125 83.027344 227.128906 C 83.027344 222.558594 83.027344 217.996094 83.027344 213.425781 L 80.839844 215.613281 C 85.28125 215.613281 89.730469 215.554688 94.171875 215.613281 C 100.21875 215.691406 98.785156 222.992188 98.785156 227.128906 L 100.972656 224.941406 C 94.265625 224.941406 87.550781 224.941406 80.839844 224.941406 C 78.027344 224.941406 78.015625 229.316406 80.839844 229.316406 Z M 80.839844 229.316406 " fill-opacity="1" fill-rule="nonzero"/><path fill="#ffe7c0" d="M 99.339844 135.109375 C 99.339844 160.433594 82.292969 176.574219 61.261719 176.574219 C 40.230469 176.574219 23.183594 160.433594 23.183594 135.109375 C 23.183594 109.785156 40.230469 84.867188 61.261719 84.867188 C 82.292969 84.867188 99.339844 109.785156 99.339844 135.109375 Z M 99.339844 135.109375 " fill-opacity="1" fill-rule="nonzero"/><path fill="#000000" d="M 97.152344 135.109375 C 97.058594 151.050781 89.167969 166.851562 73.417969 172.347656 C 59.292969 177.277344 42.90625 173.082031 33.613281 161.183594 C 22.683594 147.183594 23.476562 126.640625 30.628906 111.144531 C 37.179688 96.957031 51.40625 83.148438 68.292969 88.082031 C 77.199219 90.679688 84.210938 97.734375 88.902344 105.5 C 94.285156 114.398438 97.09375 124.726562 97.15625 135.109375 C 97.175781 137.925781 101.550781 137.933594 101.535156 135.109375 C 101.425781 116.441406 92.546875 94.929688 75.105469 86.113281 C 67.230469 82.132812 58.160156 81.589844 49.964844 84.964844 C 41.570312 88.417969 34.917969 95.128906 30.183594 102.75 C 20.070312 119.023438 17.214844 141.726562 26.855469 158.867188 C 35.316406 173.90625 52.679688 181.25 69.460938 177.960938 C 78.5 176.1875 86.695312 171.117188 92.347656 163.855469 C 98.730469 155.65625 101.476562 145.398438 101.539062 135.109375 C 101.554688 132.292969 97.179688 132.292969 97.160156 135.109375 Z M 97.152344 135.109375 " fill-opacity="1" fill-rule="nonzero"/><path fill="#ffe7c0" d="M 112.898438 54.367188 C 112.898438 82.886719 89.777344 94.441406 61.257812 94.441406 C 32.738281 94.441406 9.621094 82.886719 9.621094 54.367188 C 9.621094 25.847656 33.339844 6.316406 61.855469 6.316406 C 90.367188 6.316406 112.890625 25.847656 112.890625 54.367188 Z M 112.898438 54.367188 " fill-opacity="1" fill-rule="nonzero"/><path fill="#000000" d="M 110.707031 54.367188 C 110.65625 63.46875 108.050781 72.398438 101.585938 79.039062 C 95.363281 85.433594 86.816406 88.882812 78.210938 90.660156 C 68.378906 92.6875 57.839844 92.847656 47.925781 91.308594 C 39.121094 89.945312 30.082031 87.070312 23.214844 81.179688 C 8.480469 68.546875 8.910156 45.148438 19.070312 29.808594 C 30.210938 12.980469 52.066406 5.949219 71.445312 9.289062 C 90.929688 12.644531 106.859375 26.757812 110.121094 46.617188 C 110.542969 49.179688 110.699219 51.773438 110.710938 54.371094 C 110.730469 57.183594 115.105469 57.191406 115.089844 54.371094 C 115.027344 43.660156 111.902344 33.089844 105.398438 24.503906 C 99.117188 16.207031 90.304688 10.234375 80.445312 7.007812 C 59.839844 0.261719 34.84375 5.292969 20.003906 21.5625 C 6.316406 36.558594 2.21875 62.234375 15.15625 79.011719 C 27.945312 95.605469 52.679688 98.257812 72.035156 96.03125 C 81.914062 94.898438 91.996094 92.15625 100.074219 86.128906 C 107.789062 80.367188 112.855469 72.023438 114.417969 62.507812 C 114.863281 59.808594 115.078125 57.097656 115.089844 54.367188 C 115.101562 51.632812 110.730469 51.546875 110.710938 54.367188 Z M 110.707031 54.367188 " fill-opacity="1" fill-rule="nonzero"/><path fill="#000000" d="M 39.027344 92.324219 C 28.191406 95.796875 17.355469 99.269531 6.523438 102.742188 C 4.984375 103.234375 3.453125 103.726562 1.917969 104.21875 C 0.46875 104.683594 0.0117188 106.121094 0.609375 107.429688 C 5.203125 117.511719 9.796875 127.59375 14.390625 137.675781 C 15.046875 139.117188 15.707031 140.5625 16.363281 142.007812 C 17.53125 144.566406 21.304688 142.34375 20.140625 139.796875 C 15.546875 129.71875 10.957031 119.632812 6.359375 109.554688 C 5.703125 108.109375 5.042969 106.664062 4.386719 105.21875 L 3.078125 108.433594 C 13.914062 104.960938 24.75 101.492188 35.582031 98.015625 C 37.121094 97.527344 38.652344 97.03125 40.1875 96.539062 C 42.859375 95.683594 41.714844 91.460938 39.023438 92.320312 Z M 39.027344 92.324219 " fill-opacity="1" fill-rule="nonzero"/><path fill="#ffe7c0" d="M 26.289062 141.113281 C 26.289062 141.652344 26.234375 142.183594 26.128906 142.710938 C 26.027344 143.238281 25.871094 143.746094 25.664062 144.242188 C 25.460938 144.738281 25.207031 145.210938 24.910156 145.65625 C 24.609375 146.101562 24.273438 146.515625 23.894531 146.894531 C 23.511719 147.277344 23.101562 147.613281 22.652344 147.914062 C 22.207031 148.210938 21.734375 148.464844 21.238281 148.667969 C 20.746094 148.875 20.234375 149.027344 19.707031 149.132812 C 19.179688 149.238281 18.648438 149.289062 18.113281 149.289062 C 17.574219 149.289062 17.042969 149.238281 16.515625 149.132812 C 15.988281 149.027344 15.480469 148.875 14.984375 148.667969 C 14.488281 148.464844 14.015625 148.210938 13.570312 147.914062 C 13.121094 147.613281 12.710938 147.277344 12.332031 146.894531 C 11.949219 146.515625 11.613281 146.101562 11.3125 145.65625 C 11.015625 145.210938 10.761719 144.738281 10.558594 144.242188 C 10.351562 143.746094 10.199219 143.238281 10.09375 142.710938 C 9.988281 142.183594 9.933594 141.652344 9.933594 141.113281 C 9.933594 140.578125 9.988281 140.046875 10.09375 139.519531 C 10.199219 138.992188 10.351562 138.480469 10.558594 137.984375 C 10.761719 137.488281 11.015625 137.019531 11.3125 136.574219 C 11.613281 136.125 11.949219 135.714844 12.332031 135.332031 C 12.710938 134.953125 13.121094 134.613281 13.570312 134.316406 C 14.015625 134.019531 14.488281 133.765625 14.984375 133.5625 C 15.480469 133.355469 15.988281 133.199219 16.515625 133.097656 C 17.042969 132.992188 17.574219 132.9375 18.113281 132.9375 C 18.648438 132.9375 19.179688 132.992188 19.707031 133.097656 C 20.234375 133.199219 20.746094 133.355469 21.238281 133.5625 C 21.734375 133.765625 22.207031 134.019531 22.652344 134.316406 C 23.101562 134.613281 23.511719 134.953125 23.894531 135.332031 C 24.273438 135.714844 24.609375 136.125 24.910156 136.574219 C 25.207031 137.019531 25.460938 137.488281 25.664062 137.984375 C 25.871094 138.480469 26.027344 138.992188 26.128906 139.519531 C 26.234375 140.046875 26.289062 140.578125 26.289062 141.113281 Z M 26.289062 141.113281 " fill-opacity="1" fill-rule="nonzero"/><path fill="#000000" d="M 24.09375 141.113281 C 23.976562 144.378906 21.46875 147.101562 18.105469 147.101562 C 14.746094 147.101562 12.121094 144.382812 12.121094 141.113281 C 12.121094 137.84375 14.835938 135.128906 18.105469 135.128906 C 21.375 135.128906 23.972656 137.84375 24.09375 141.113281 C 24.199219 143.925781 28.578125 143.9375 28.472656 141.113281 C 28.265625 135.484375 23.898438 130.75 18.105469 130.75 C 12.316406 130.75 7.742188 135.476562 7.742188 141.113281 C 7.742188 146.753906 12.46875 151.496094 18.105469 151.480469 C 23.746094 151.460938 28.261719 146.761719 28.472656 141.113281 C 28.578125 138.296875 24.199219 138.300781 24.09375 141.113281 Z M 24.09375 141.113281 " fill-opacity="1" fill-rule="nonzero"/><path fill="#000000" d="M 82.101562 96.546875 C 92.9375 100.015625 103.773438 103.488281 114.609375 106.960938 C 116.144531 107.453125 117.675781 107.945312 119.210938 108.4375 L 117.902344 105.222656 C 113.308594 115.304688 108.714844 125.390625 104.121094 135.46875 C 103.464844 136.914062 102.804688 138.355469 102.148438 139.800781 C 100.988281 142.34375 104.761719 144.574219 105.925781 142.011719 C 110.519531 131.933594 115.113281 121.847656 119.707031 111.769531 C 120.363281 110.324219 121.023438 108.878906 121.679688 107.433594 C 122.28125 106.121094 121.820312 104.683594 120.371094 104.222656 C 109.535156 100.75 98.699219 97.28125 87.867188 93.804688 C 86.328125 93.316406 84.796875 92.820312 83.261719 92.332031 C 80.574219 91.46875 79.421875 95.691406 82.097656 96.550781 Z M 82.101562 96.546875 " fill-opacity="1" fill-rule="nonzero"/><path fill="#ffe7c0" d="M 112.355469 141.113281 C 112.355469 141.652344 112.300781 142.183594 112.195312 142.710938 C 112.09375 143.238281 111.9375 143.746094 111.730469 144.242188 C 111.527344 144.738281 111.273438 145.210938 110.976562 145.65625 C 110.679688 146.101562 110.339844 146.515625 109.960938 146.894531 C 109.578125 147.277344 109.167969 147.613281 108.71875 147.914062 C 108.273438 148.210938 107.804688 148.464844 107.308594 148.667969 C 106.8125 148.875 106.300781 149.027344 105.773438 149.132812 C 105.246094 149.238281 104.714844 149.289062 104.179688 149.289062 C 103.640625 149.289062 103.109375 149.238281 102.582031 149.132812 C 102.054688 149.027344 101.546875 148.875 101.050781 148.667969 C 100.554688 148.464844 100.082031 148.210938 99.636719 147.914062 C 99.1875 147.613281 98.777344 147.277344 98.398438 146.894531 C 98.015625 146.515625 97.679688 146.101562 97.378906 145.65625 C 97.082031 145.210938 96.828125 144.738281 96.625 144.242188 C 96.417969 143.746094 96.265625 143.238281 96.160156 142.710938 C 96.054688 142.183594 96.003906 141.652344 96.003906 141.113281 C 96.003906 140.578125 96.054688 140.046875 96.160156 139.519531 C 96.265625 138.992188 96.417969 138.480469 96.625 137.984375 C 96.828125 137.488281 97.082031 137.019531 97.378906 136.574219 C 97.679688 136.125 98.015625 135.714844 98.398438 135.332031 C 98.777344 134.953125 99.1875 134.613281 99.636719 134.316406 C 100.082031 134.019531 100.554688 133.765625 101.050781 133.5625 C 101.546875 133.355469 102.054688 133.199219 102.582031 133.097656 C 103.109375 132.992188 103.640625 132.9375 104.179688 132.9375 C 104.714844 132.9375 105.246094 132.992188 105.773438 133.097656 C 106.300781 133.199219 106.8125 133.355469 107.308594 133.5625 C 107.804688 133.765625 108.273438 134.019531 108.71875 134.316406 C 109.167969 134.613281 109.578125 134.953125 109.960938 135.332031 C 110.339844 135.714844 110.679688 136.125 110.976562 136.574219 C 111.273438 137.019531 111.527344 137.488281 111.730469 137.984375 C 111.9375 138.480469 112.09375 138.992188 112.195312 139.519531 C 112.300781 140.046875 112.355469 140.578125 112.355469 141.113281 Z M 112.355469 141.113281 " fill-opacity="1" fill-rule="nonzero"/><path fill="#000000" d="M 93.816406 141.113281 C 94.023438 146.742188 98.390625 151.480469 104.183594 151.480469 C 109.972656 151.480469 114.546875 146.753906 114.546875 141.113281 C 114.546875 135.476562 109.820312 130.734375 104.183594 130.75 C 98.546875 130.769531 94.027344 135.46875 93.816406 141.113281 C 93.714844 143.933594 98.089844 143.929688 98.195312 141.113281 C 98.3125 137.851562 100.820312 135.128906 104.183594 135.128906 C 107.542969 135.128906 110.167969 137.84375 110.167969 141.113281 C 110.167969 144.382812 107.453125 147.101562 104.183594 147.101562 C 100.914062 147.101562 98.316406 144.382812 98.195312 141.113281 C 98.089844 138.304688 93.714844 138.292969 93.816406 141.113281 Z M 93.816406 141.113281 " fill-opacity="1" fill-rule="nonzero"/><path fill="#000000" d="M 38.390625 162.421875 L 38.390625 220.378906 C 38.390625 223.195312 42.765625 223.203125 42.765625 220.378906 L 42.765625 162.421875 C 42.765625 159.605469 38.390625 159.597656 38.390625 162.421875 Z M 38.390625 162.421875 " fill-opacity="1" fill-rule="nonzero"/><path fill="#ffe7c0" d="M 41.886719 227.128906 L 21.753906 227.128906 C 21.753906 227.128906 21.753906 219.71875 21.753906 219.71875 C 21.753906 216.242188 24.570312 213.421875 28.050781 213.421875 L 41.886719 213.421875 Z M 41.886719 227.128906 " fill-opacity="1" fill-rule="nonzero"/><path fill="#000000" d="M 41.886719 224.941406 C 35.175781 224.941406 28.460938 224.941406 21.753906 224.941406 L 23.941406 227.128906 C 23.941406 222.984375 22.515625 215.699219 28.554688 215.613281 C 32.996094 215.546875 37.445312 215.613281 41.886719 215.613281 L 39.699219 213.425781 L 39.699219 227.128906 C 39.699219 229.941406 44.074219 229.953125 44.074219 227.128906 L 44.074219 213.425781 C 44.074219 212.242188 43.074219 211.238281 41.886719 211.238281 C 37.195312 211.238281 32.429688 210.96875 27.746094 211.25 C 23.078125 211.53125 19.71875 215.179688 19.566406 219.796875 C 19.480469 222.234375 19.566406 224.6875 19.566406 227.128906 C 19.566406 228.3125 20.566406 229.316406 21.753906 229.316406 C 28.460938 229.316406 35.175781 229.316406 41.886719 229.316406 C 44.699219 229.316406 44.710938 224.941406 41.886719 224.941406 Z M 41.886719 224.941406 " fill-opacity="1" fill-rule="nonzero"/><path fill="#000000" d="M 79.960938 162.421875 C 79.960938 177.609375 79.960938 192.796875 79.960938 207.980469 C 79.960938 212.113281 79.960938 216.246094 79.960938 220.378906 C 79.960938 223.195312 84.335938 223.203125 84.335938 220.378906 C 84.335938 204.925781 84.335938 189.46875 84.335938 174.015625 C 84.335938 170.152344 84.335938 166.285156 84.335938 162.421875 C 84.335938 159.605469 79.960938 159.597656 79.960938 162.421875 Z M 79.960938 162.421875 " fill-opacity="1" fill-rule="nonzero"/><path fill="#ffe7c0" d="M 80.839844 227.128906 L 100.972656 227.128906 C 100.972656 227.128906 100.972656 219.71875 100.972656 219.71875 C 100.972656 216.242188 98.15625 213.421875 94.675781 213.421875 L 80.839844 213.421875 Z M 80.839844 227.128906 " fill-opacity="1" fill-rule="nonzero"/><path fill="#000000" d="M 80.839844 229.316406 C 87.550781 229.316406 94.265625 229.316406 100.972656 229.316406 C 102.15625 229.316406 103.164062 228.316406 103.164062 227.128906 C 103.164062 224.703125 103.242188 222.265625 103.164062 219.847656 C 103.015625 215.210938 99.679688 211.535156 94.980469 211.25 C 90.285156 210.964844 85.53125 211.238281 80.839844 211.238281 C 79.660156 211.238281 78.652344 212.238281 78.652344 213.425781 C 78.652344 217.996094 78.652344 222.558594 78.652344 227.128906 C 78.652344 229.941406 83.027344 229.953125 83.027344 227.128906 C 83.027344 222.558594 83.027344 217.996094 83.027344 213.425781 L 80.839844 215.613281 C 85.28125 215.613281 89.730469 215.554688 94.171875 215.613281 C 100.21875 215.691406 98.785156 222.992188 98.785156 227.128906 L 100.972656 224.941406 C 94.265625 224.941406 87.550781 224.941406 80.839844 224.941406 C 78.027344 224.941406 78.015625 229.316406 80.839844 229.316406 Z M 80.839844 229.316406 " fill-opacity="1" fill-rule="nonzero"/><path fill="#ffe7c0" d="M 99.339844 135.109375 C 99.339844 160.433594 82.292969 176.574219 61.261719 176.574219 C 40.230469 176.574219 23.183594 160.433594 23.183594 135.109375 C 23.183594 109.785156 40.230469 84.867188 61.261719 84.867188 C 82.292969 84.867188 99.339844 109.785156 99.339844 135.109375 Z M 99.339844 135.109375 " fill-opacity="1" fill-rule="nonzero"/><path fill="#000000" d="M 97.152344 135.109375 C 97.058594 151.050781 89.167969 166.851562 73.417969 172.347656 C 59.292969 177.277344 42.90625 173.082031 33.613281 161.183594 C 22.683594 147.183594 23.476562 126.640625 30.628906 111.144531 C 37.179688 96.957031 51.40625 83.148438 68.292969 88.082031 C 77.199219 90.679688 84.210938 97.734375 88.902344 105.5 C 94.285156 114.398438 97.09375 124.726562 97.15625 135.109375 C 97.175781 137.925781 101.550781 137.933594 101.535156 135.109375 C 101.425781 116.441406 92.546875 94.929688 75.105469 86.113281 C 67.230469 82.132812 58.160156 81.589844 49.964844 84.964844 C 41.570312 88.417969 34.917969 95.128906 30.183594 102.75 C 20.070312 119.023438 17.214844 141.726562 26.855469 158.867188 C 35.316406 173.90625 52.679688 181.25 69.460938 177.960938 C 78.5 176.1875 86.695312 171.117188 92.347656 163.855469 C 98.730469 155.65625 101.476562 145.398438 101.539062 135.109375 C 101.554688 132.292969 97.179688 132.292969 97.160156 135.109375 Z M 97.152344 135.109375 " fill-opacity="1" fill-rule="nonzero"/><path fill="#ffe7c0" d="M 112.898438 54.367188 C 112.898438 82.886719 89.777344 94.441406 61.257812 94.441406 C 32.738281 94.441406 9.621094 82.886719 9.621094 54.367188 C 9.621094 25.847656 33.339844 6.316406 61.855469 6.316406 C 90.367188 6.316406 112.890625 25.847656 112.890625 54.367188 Z M 112.898438 54.367188 " fill-opacity="1" fill-rule="nonzero"/><path fill="#000000" d="M 110.707031 54.367188 C 110.65625 63.46875 108.050781 72.398438 101.585938 79.039062 C 95.363281 85.433594 86.816406 88.882812 78.210938 90.660156 C 68.378906 92.6875 57.839844 92.847656 47.925781 91.308594 C 39.121094 89.945312 30.082031 87.070312 23.214844 81.179688 C 8.480469 68.546875 8.910156 45.148438 19.070312 29.808594 C 30.210938 12.980469 52.066406 5.949219 71.445312 9.289062 C 90.929688 12.644531 106.859375 26.757812 110.121094 46.617188 C 110.542969 49.179688 110.699219 51.773438 110.710938 54.371094 C 110.730469 57.183594 115.105469 57.191406 115.089844 54.371094 C 115.027344 43.660156 111.902344 33.089844 105.398438 24.503906 C 99.117188 16.207031 90.304688 10.234375 80.445312 7.007812 C 59.839844 0.261719 34.84375 5.292969 20.003906 21.5625 C 6.316406 36.558594 2.21875 62.234375 15.15625 79.011719 C 27.945312 95.605469 52.679688 98.257812 72.035156 96.03125 C 81.914062 94.898438 91.996094 92.15625 100.074219 86.128906 C 107.789062 80.367188 112.855469 72.023438 114.417969 62.507812 C 114.863281 59.808594 115.078125 57.097656 115.089844 54.367188 C 115.101562 51.632812 110.730469 51.546875 110.710938 54.367188 Z M 110.707031 54.367188 " fill-opacity="1" fill-rule="nonzero"/><path fill="#000000" d="M 39.027344 92.324219 C 28.191406 95.796875 17.355469 99.269531 6.523438 102.742188 C 4.984375 103.234375 3.453125 103.726562 1.917969 104.21875 C 0.46875 104.683594 0.0117188 106.121094 0.609375 107.429688 C 5.203125 117.511719 9.796875 127.59375 14.390625 137.675781 C 15.046875 139.117188 15.707031 140.5625 16.363281 142.007812 C 17.53125 144.566406 21.304688 142.34375 20.140625 139.796875 C 15.546875 129.71875 10.957031 119.632812 6.359375 109.554688 C 5.703125 108.109375 5.042969 106.664062 4.386719 105.21875 L 3.078125 108.433594 C 13.914062 104.960938 24.75 101.492188 35.582031 98.015625 C 37.121094 97.527344 38.652344 97.03125 40.1875 96.539062 C 42.859375 95.683594 41.714844 91.460938 39.023438 92.320312 Z M 39.027344 92.324219 " fill-opacity="1" fill-rule="nonzero"/><path fill="#ffe7c0" d="M 26.289062 141.113281 C 26.289062 141.652344 26.234375 142.183594 26.128906 142.710938 C 26.027344 143.238281 25.871094 143.746094 25.664062 144.242188 C 25.460938 144.738281 25.207031 145.210938 24.910156 145.65625 C 24.609375 146.101562 24.273438 146.515625 23.894531 146.894531 C 23.511719 147.277344 23.101562 147.613281 22.652344 147.914062 C 22.207031 148.210938 21.734375 148.464844 21.238281 148.667969 C 20.746094 148.875 20.234375 149.027344 19.707031 149.132812 C 19.179688 149.238281 18.648438 149.289062 18.113281 149.289062 C 17.574219 149.289062 17.042969 149.238281 16.515625 149.132812 C 15.988281 149.027344 15.480469 148.875 14.984375 148.667969 C 14.488281 148.464844 14.015625 148.210938 13.570312 147.914062 C 13.121094 147.613281 12.710938 147.277344 12.332031 146.894531 C 11.949219 146.515625 11.613281 146.101562 11.3125 145.65625 C 11.015625 145.210938 10.761719 144.738281 10.558594 144.242188 C 10.351562 143.746094 10.199219 143.238281 10.09375 142.710938 C 9.988281 142.183594 9.933594 141.652344 9.933594 141.113281 C 9.933594 140.578125 9.988281 140.046875 10.09375 139.519531 C 10.199219 138.992188 10.351562 138.480469 10.558594 137.984375 C 10.761719 137.488281 11.015625 137.019531 11.3125 136.574219 C 11.613281 136.125 11.949219 135.714844 12.332031 135.332031 C 12.710938 134.953125 13.121094 134.613281 13.570312 134.316406 C 14.015625 134.019531 14.488281 133.765625 14.984375 133.5625 C 15.480469 133.355469 15.988281 133.199219 16.515625 133.097656 C 17.042969 132.992188 17.574219 132.9375 18.113281 132.9375 C 18.648438 132.9375 19.179688 132.992188 19.707031 133.097656 C 20.234375 133.199219 20.746094 133.355469 21.238281 133.5625 C 21.734375 133.765625 22.207031 134.019531 22.652344 134.316406 C 23.101562 134.613281 23.511719 134.953125 23.894531 135.332031 C 24.273438 135.714844 24.609375 136.125 24.910156 136.574219 C 25.207031 137.019531 25.460938 137.488281 25.664062 137.984375 C 25.871094 138.480469 26.027344 138.992188 26.128906 139.519531 C 26.234375 140.046875 26.289062 140.578125 26.289062 141.113281 Z M 26.289062 141.113281 " fill-opacity="1" fill-rule="nonzero"/><path fill="#000000" d="M 24.09375 141.113281 C 23.976562 144.378906 21.46875 147.101562 18.105469 147.101562 C 14.746094 147.101562 12.121094 144.382812 12.121094 141.113281 C 12.121094 137.84375 14.835938 135.128906 18.105469 135.128906 C 21.375 135.128906 23.972656 137.84375 24.09375 141.113281 C 24.199219 143.925781 28.578125 143.9375 28.472656 141.113281 C 28.265625 135.484375 23.898438 130.75 18.105469 130.75 C 12.316406 130.75 7.742188 135.476562 7.742188 141.113281 C 7.742188 146.753906 12.46875 151.496094 18.105469 151.480469 C 23.746094 151.460938 28.261719 146.761719 28.472656 141.113281 C 28.578125 138.296875 24.199219 138.300781 24.09375 141.113281 Z M 24.09375 141.113281 " fill-opacity="1" fill-rule="nonzero"/><path fill="#000000" d="M 82.101562 96.546875 C 92.9375 100.015625 103.773438 103.488281 114.609375 106.960938 C 116.144531 107.453125 117.675781 107.945312 119.210938 108.4375 L 117.902344 105.222656 C 113.308594 115.304688 108.714844 125.390625 104.121094 135.46875 C 103.464844 136.914062 102.804688 138.355469 102.148438 139.800781 C 100.988281 142.34375 104.761719 144.574219 105.925781 142.011719 C 110.519531 131.933594 115.113281 121.847656 119.707031 111.769531 C 120.363281 110.324219 121.023438 108.878906 121.679688 107.433594 C 122.28125 106.121094 121.820312 104.683594 120.371094 104.222656 C 109.535156 100.75 98.699219 97.28125 87.867188 93.804688 C 86.328125 93.316406 84.796875 92.820312 83.261719 92.332031 C 80.574219 91.46875 79.421875 95.691406 82.097656 96.550781 Z M 82.101562 96.546875 " fill-opacity="1" fill-rule="nonzero"/><path fill="#ffe7c0" d="M 112.355469 141.113281 C 112.355469 141.652344 112.300781 142.183594 112.195312 142.710938 C 112.09375 143.238281 111.9375 143.746094 111.730469 144.242188 C 111.527344 144.738281 111.273438 145.210938 110.976562 145.65625 C 110.679688 146.101562 110.339844 146.515625 109.960938 146.894531 C 109.578125 147.277344 109.167969 147.613281 108.71875 147.914062 C 108.273438 148.210938 107.804688 148.464844 107.308594 148.667969 C 106.8125 148.875 106.300781 149.027344 105.773438 149.132812 C 105.246094 149.238281 104.714844 149.289062 104.179688 149.289062 C 103.640625 149.289062 103.109375 149.238281 102.582031 149.132812 C 102.054688 149.027344 101.546875 148.875 101.050781 148.667969 C 100.554688 148.464844 100.082031 148.210938 99.636719 147.914062 C 99.1875 147.613281 98.777344 147.277344 98.398438 146.894531 C 98.015625 146.515625 97.679688 146.101562 97.378906 145.65625 C 97.082031 145.210938 96.828125 144.738281 96.625 144.242188 C 96.417969 143.746094 96.265625 143.238281 96.160156 142.710938 C 96.054688 142.183594 96.003906 141.652344 96.003906 141.113281 C 96.003906 140.578125 96.054688 140.046875 96.160156 139.519531 C 96.265625 138.992188 96.417969 138.480469 96.625 137.984375 C 96.828125 137.488281 97.082031 137.019531 97.378906 136.574219 C 97.679688 136.125 98.015625 135.714844 98.398438 135.332031 C 98.777344 134.953125 99.1875 134.613281 99.636719 134.316406 C 100.082031 134.019531 100.554688 133.765625 101.050781 133.5625 C 101.546875 133.355469 102.054688 133.199219 102.582031 133.097656 C 103.109375 132.992188 103.640625 132.9375 104.179688 132.9375 C 104.714844 132.9375 105.246094 132.992188 105.773438 133.097656 C 106.300781 133.199219 106.8125 133.355469 107.308594 133.5625 C 107.804688 133.765625 108.273438 134.019531 108.71875 134.316406 C 109.167969 134.613281 109.578125 134.953125 109.960938 135.332031 C 110.339844 135.714844 110.679688 136.125 110.976562 136.574219 C 111.273438 137.019531 111.527344 137.488281 111.730469 137.984375 C 111.9375 138.480469 112.09375 138.992188 112.195312 139.519531 C 112.300781 140.046875 112.355469 140.578125 112.355469 141.113281 Z M 112.355469 141.113281 " fill-opacity="1" fill-rule="nonzero"/><path fill="#000000" d="M 93.816406 141.113281 C 94.023438 146.742188 98.390625 151.480469 104.183594 151.480469 C 109.972656 151.480469 114.546875 146.753906 114.546875 141.113281 C 114.546875 135.476562 109.820312 130.734375 104.183594 130.75 C 98.546875 130.769531 94.027344 135.46875 93.816406 141.113281 C 93.714844 143.933594 98.089844 143.929688 98.195312 141.113281 C 98.3125 137.851562 100.820312 135.128906 104.183594 135.128906 C 107.542969 135.128906 110.167969 137.84375 110.167969 141.113281 C 110.167969 144.382812 107.453125 147.101562 104.183594 147.101562 C 100.914062 147.101562 98.316406 144.382812 98.195312 141.113281 C 98.089844 138.304688 93.714844 138.292969 93.816406 141.113281 Z M 93.816406 141.113281 " fill-opacity="1" fill-rule="nonzero"/></svg>