<svg xmlns="http://www.w3.org/2000/svg" xmlns:xlink="http://www.w3.org/1999/xlink" width="223" zoomAndPan="magnify" viewBox="0 0 167.25 230.999993" height="308" preserveAspectRatio="xMidYMid meet" version="1.0"><defs><clipPath id="6cef0e1a52"><path d="M 146 100 L 166.398438 100 L 166.398438 121 L 146 121 Z M 146 100 " clip-rule="nonzero"/></clipPath><clipPath id="03db89ef3b"><path d="M 146 100 L 166.398438 100 L 166.398438 121 L 146 121 Z M 146 100 " clip-rule="nonzero"/></clipPath></defs><path fill="#000000" d="M 82.410156 171.28125 C 73.605469 178.042969 64.804688 184.800781 56.003906 191.566406 C 54.507812 192.714844 53.050781 193.980469 51.488281 195.039062 C 50.53125 195.683594 49.695312 195.589844 48.589844 195.523438 C 42.527344 195.164062 36.464844 194.800781 30.402344 194.441406 C 25.109375 194.128906 19.816406 193.8125 14.527344 193.496094 C 11.820312 193.335938 11.800781 189.109375 14.527344 189.269531 C 25.300781 189.910156 36.078125 190.550781 46.847656 191.191406 C 47.679688 191.242188 48.535156 191.234375 49.363281 191.339844 C 50.722656 191.515625 49.144531 191.191406 49.042969 191.625 C 49.101562 191.382812 49.996094 190.894531 50.1875 190.746094 L 52.566406 188.917969 C 57.863281 184.847656 63.15625 180.785156 68.449219 176.714844 C 72.390625 173.6875 76.332031 170.660156 80.273438 167.632812 C 82.429688 165.972656 84.539062 169.644531 82.410156 171.28125 Z M 82.410156 171.28125 " fill-opacity="1" fill-rule="nonzero"/><path fill="#ffe7c0" d="M 3.339844 187.390625 L 2.332031 206.820312 L 9.480469 207.1875 C 12.832031 207.359375 15.695312 204.78125 15.871094 201.425781 L 16.558594 188.074219 L 3.335938 187.390625 Z M 3.339844 187.390625 " fill-opacity="1" fill-rule="nonzero"/><path fill="#000000" d="M 5.453125 187.390625 C 5.121094 193.867188 4.785156 200.34375 4.449219 206.820312 L 2.332031 204.707031 C 6.28125 204.90625 13.324219 206.667969 13.78125 200.941406 C 14.121094 196.664062 14.226562 192.359375 14.445312 188.074219 L 16.558594 190.191406 C 12.152344 189.960938 7.742188 189.734375 3.335938 189.503906 C 0.628906 189.367188 0.613281 185.136719 3.335938 185.277344 C 7.742188 185.503906 12.152344 185.734375 16.558594 185.960938 C 17.65625 186.015625 18.738281 186.882812 18.675781 188.074219 C 18.4375 192.613281 18.386719 197.199219 17.957031 201.71875 C 17.53125 206.175781 13.863281 209.375 9.402344 209.296875 C 7.046875 209.261719 4.683594 209.054688 2.332031 208.929688 C 1.238281 208.875 0.15625 208.007812 0.21875 206.816406 C 0.550781 200.339844 0.886719 193.863281 1.226562 187.386719 C 1.363281 184.679688 5.59375 184.664062 5.453125 187.386719 Z M 5.453125 187.390625 " fill-opacity="1" fill-rule="nonzero"/><path fill="#000000" d="M 81.910156 103.910156 C 92.71875 107.753906 103.53125 111.597656 114.34375 115.449219 C 116.683594 116.28125 119.023438 117.113281 121.363281 117.941406 C 121.734375 118.074219 122.621094 118.214844 122.914062 118.492188 C 123.308594 118.871094 122.105469 118.296875 121.96875 118.539062 C 122.007812 118.46875 122.371094 118.429688 122.441406 118.398438 C 124.464844 117.550781 126.785156 117.113281 128.886719 116.488281 C 132.324219 115.46875 135.757812 114.449219 139.199219 113.429688 C 144.679688 111.808594 150.160156 110.183594 155.640625 108.558594 C 158.253906 107.785156 159.371094 111.867188 156.765625 112.636719 C 145.980469 115.832031 135.191406 119.03125 124.410156 122.226562 C 123.328125 122.550781 122.507812 122.78125 121.402344 122.429688 C 119.492188 121.824219 117.621094 121.085938 115.734375 120.414062 C 108.914062 117.984375 102.089844 115.5625 95.273438 113.132812 C 90.445312 111.417969 85.613281 109.699219 80.785156 107.984375 C 78.238281 107.078125 79.332031 102.988281 81.910156 103.90625 Z M 81.910156 103.910156 " fill-opacity="1" fill-rule="nonzero"/><path fill="#ffe7c0" d="M 40.632812 130.800781 C 40.632812 155.269531 57.105469 170.867188 77.425781 170.867188 C 97.746094 170.867188 114.21875 155.269531 114.21875 130.800781 C 114.21875 106.328125 97.746094 82.253906 77.425781 82.253906 C 57.105469 82.253906 40.632812 106.328125 40.632812 130.800781 Z M 40.632812 130.800781 " fill-opacity="1" fill-rule="nonzero"/><path fill="#000000" d="M 42.746094 130.800781 C 42.839844 146.203125 50.460938 161.46875 65.683594 166.78125 C 79.328125 171.542969 95.164062 167.492188 104.140625 155.992188 C 114.703125 142.46875 113.9375 122.617188 107.027344 107.644531 C 100.695312 93.933594 86.949219 80.589844 70.632812 85.355469 C 62.027344 87.871094 55.253906 94.6875 50.71875 102.191406 C 45.515625 110.789062 42.804688 120.769531 42.742188 130.800781 C 42.726562 133.519531 38.496094 133.527344 38.511719 130.800781 C 38.621094 112.761719 47.195312 91.976562 64.050781 83.457031 C 71.660156 79.609375 80.425781 79.085938 88.34375 82.347656 C 96.257812 85.605469 102.882812 92.167969 107.457031 99.535156 C 117.226562 115.257812 119.988281 137.195312 110.671875 153.757812 C 102.496094 168.289062 85.71875 175.382812 69.503906 172.203125 C 60.773438 170.492188 52.851562 165.59375 47.390625 158.578125 C 41.222656 150.652344 38.570312 140.742188 38.507812 130.800781 C 38.492188 128.078125 42.722656 128.078125 42.738281 130.800781 Z M 42.746094 130.800781 " fill-opacity="1" fill-rule="nonzero"/><path fill="#ffe7c0" d="M 27.535156 52.78125 C 27.535156 80.335938 49.875 91.503906 77.429688 91.503906 C 104.988281 91.503906 127.328125 80.335938 127.328125 52.78125 C 127.328125 25.222656 104.410156 6.351562 76.855469 6.351562 C 49.300781 6.351562 27.539062 25.222656 27.539062 52.78125 Z M 27.535156 52.78125 " fill-opacity="1" fill-rule="nonzero"/><path fill="#000000" d="M 29.648438 52.78125 C 29.699219 61.578125 32.214844 70.203125 38.460938 76.621094 C 44.476562 82.796875 52.738281 86.132812 61.050781 87.847656 C 70.550781 89.8125 80.734375 89.964844 90.3125 88.480469 C 98.820312 87.160156 107.554688 84.378906 114.191406 78.6875 C 128.425781 66.484375 128.011719 43.875 118.195312 29.050781 C 107.433594 12.792969 86.3125 5.996094 67.589844 9.222656 C 48.761719 12.46875 33.367188 26.101562 30.214844 45.292969 C 29.808594 47.769531 29.65625 50.277344 29.644531 52.785156 C 29.628906 55.503906 25.398438 55.511719 25.414062 52.785156 C 25.476562 42.433594 28.496094 32.222656 34.777344 23.925781 C 40.847656 15.910156 49.367188 10.136719 58.890625 7.019531 C 78.800781 0.503906 102.953125 5.363281 117.296875 21.082031 C 130.519531 35.574219 134.476562 60.382812 121.976562 76.59375 C 109.617188 92.628906 85.71875 95.191406 67.019531 93.042969 C 57.472656 91.945312 47.730469 89.292969 39.925781 83.472656 C 32.125 77.648438 27.574219 69.839844 26.0625 60.644531 C 25.636719 58.042969 25.429688 55.417969 25.414062 52.78125 C 25.402344 50.140625 29.628906 50.054688 29.644531 52.78125 Z M 29.648438 52.78125 " fill-opacity="1" fill-rule="nonzero"/><path fill="#ffe7c0" d="M 148.4375 110.804688 C 148.4375 111.324219 148.488281 111.835938 148.589844 112.34375 C 148.691406 112.855469 148.839844 113.347656 149.039062 113.828125 C 149.238281 114.308594 149.480469 114.761719 149.769531 115.195312 C 150.058594 115.625 150.386719 116.023438 150.753906 116.390625 C 151.121094 116.757812 151.519531 117.085938 151.949219 117.375 C 152.382812 117.660156 152.835938 117.90625 153.316406 118.101562 C 153.792969 118.300781 154.289062 118.453125 154.796875 118.554688 C 155.304688 118.652344 155.820312 118.703125 156.339844 118.703125 C 156.859375 118.703125 157.371094 118.652344 157.878906 118.554688 C 158.390625 118.453125 158.882812 118.300781 159.363281 118.101562 C 159.839844 117.90625 160.296875 117.660156 160.726562 117.375 C 161.160156 117.085938 161.558594 116.757812 161.925781 116.390625 C 162.292969 116.023438 162.621094 115.625 162.90625 115.195312 C 163.195312 114.761719 163.4375 114.308594 163.636719 113.828125 C 163.835938 113.347656 163.984375 112.855469 164.085938 112.34375 C 164.1875 111.835938 164.238281 111.324219 164.238281 110.804688 C 164.238281 110.285156 164.1875 109.773438 164.085938 109.261719 C 163.984375 108.753906 163.835938 108.261719 163.636719 107.78125 C 163.4375 107.300781 163.195312 106.847656 162.90625 106.414062 C 162.621094 105.984375 162.292969 105.585938 161.925781 105.21875 C 161.558594 104.851562 161.160156 104.523438 160.726562 104.234375 C 160.296875 103.949219 159.839844 103.703125 159.363281 103.503906 C 158.882812 103.308594 158.390625 103.15625 157.878906 103.054688 C 157.371094 102.953125 156.859375 102.90625 156.339844 102.90625 C 155.820312 102.90625 155.304688 102.953125 154.796875 103.054688 C 154.289062 103.15625 153.792969 103.308594 153.316406 103.503906 C 152.835938 103.703125 152.382812 103.949219 151.949219 104.234375 C 151.519531 104.523438 151.121094 104.851562 150.753906 105.21875 C 150.386719 105.585938 150.058594 105.984375 149.769531 106.414062 C 149.480469 106.847656 149.238281 107.300781 149.039062 107.78125 C 148.839844 108.261719 148.691406 108.753906 148.589844 109.261719 C 148.488281 109.773438 148.4375 110.285156 148.4375 110.804688 Z M 148.4375 110.804688 " fill-opacity="1" fill-rule="nonzero"/><g clip-path="url(#6cef0e1a52)"><path fill="#000000" d="M 150.558594 110.804688 C 150.671875 113.960938 153.09375 116.589844 156.34375 116.589844 C 159.589844 116.589844 162.128906 113.964844 162.128906 110.804688 C 162.128906 107.644531 159.503906 105.019531 156.34375 105.019531 C 153.183594 105.019531 150.675781 107.644531 150.558594 110.804688 C 150.457031 113.519531 146.226562 113.53125 146.328125 110.804688 C 146.527344 105.367188 150.746094 100.789062 156.34375 100.789062 C 161.9375 100.789062 166.359375 105.355469 166.359375 110.804688 C 166.359375 116.25 161.789062 120.835938 156.34375 120.820312 C 150.894531 120.800781 146.53125 116.261719 146.328125 110.804688 C 146.226562 108.082031 150.457031 108.085938 150.558594 110.804688 Z M 150.558594 110.804688 " fill-opacity="1" fill-rule="nonzero"/></g><path fill="#000000" d="M 59.636719 112.992188 C 48.878906 115.601562 38.121094 118.207031 27.359375 120.816406 L 22.699219 121.945312 L 24.175781 119.34375 C 26.152344 130.480469 28.121094 141.617188 30.097656 152.753906 C 30.570312 155.414062 26.496094 156.554688 26.019531 153.878906 C 24.046875 142.742188 22.074219 131.605469 20.101562 120.46875 C 19.90625 119.371094 20.382812 118.15625 21.574219 117.867188 C 32.335938 115.257812 43.09375 112.652344 53.851562 110.042969 L 58.511719 108.914062 C 61.15625 108.269531 62.285156 112.351562 59.636719 112.992188 Z M 59.636719 112.992188 " fill-opacity="1" fill-rule="nonzero"/><path fill="#ffe7c0" d="M 21.949219 158.59375 C 21.949219 159.113281 22 159.625 22.101562 160.136719 C 22.199219 160.644531 22.351562 161.136719 22.550781 161.617188 C 22.746094 162.097656 22.992188 162.550781 23.277344 162.984375 C 23.566406 163.414062 23.894531 163.8125 24.261719 164.179688 C 24.628906 164.546875 25.027344 164.875 25.457031 165.164062 C 25.890625 165.453125 26.34375 165.695312 26.824219 165.894531 C 27.304688 166.089844 27.796875 166.242188 28.308594 166.34375 C 28.816406 166.445312 29.328125 166.496094 29.847656 166.496094 C 30.367188 166.496094 30.878906 166.445312 31.390625 166.34375 C 31.898438 166.242188 32.390625 166.089844 32.871094 165.894531 C 33.351562 165.695312 33.804688 165.453125 34.238281 165.164062 C 34.667969 164.875 35.066406 164.546875 35.433594 164.179688 C 35.800781 163.8125 36.128906 163.414062 36.417969 162.984375 C 36.703125 162.550781 36.949219 162.097656 37.148438 161.617188 C 37.34375 161.136719 37.496094 160.644531 37.597656 160.136719 C 37.699219 159.625 37.75 159.113281 37.75 158.59375 C 37.75 158.074219 37.699219 157.5625 37.597656 157.054688 C 37.496094 156.542969 37.34375 156.050781 37.148438 155.570312 C 36.949219 155.089844 36.703125 154.636719 36.417969 154.207031 C 36.128906 153.773438 35.800781 153.375 35.433594 153.007812 C 35.066406 152.640625 34.667969 152.3125 34.238281 152.027344 C 33.804688 151.738281 33.351562 151.492188 32.871094 151.296875 C 32.390625 151.097656 31.898438 150.945312 31.390625 150.847656 C 30.878906 150.746094 30.367188 150.695312 29.847656 150.695312 C 29.328125 150.695312 28.816406 150.746094 28.308594 150.847656 C 27.796875 150.945312 27.304688 151.097656 26.824219 151.296875 C 26.34375 151.492188 25.890625 151.738281 25.457031 152.027344 C 25.027344 152.3125 24.628906 152.640625 24.261719 153.007812 C 23.894531 153.375 23.566406 153.773438 23.277344 154.207031 C 22.992188 154.636719 22.746094 155.089844 22.550781 155.570312 C 22.351562 156.050781 22.199219 156.542969 22.101562 157.054688 C 22 157.5625 21.949219 158.074219 21.949219 158.59375 Z M 21.949219 158.59375 " fill-opacity="1" fill-rule="nonzero"/><path fill="#000000" d="M 39.859375 158.59375 C 39.660156 164.03125 35.4375 168.609375 29.84375 168.609375 C 24.25 168.609375 19.828125 164.042969 19.828125 158.59375 C 19.828125 153.148438 24.398438 148.5625 29.84375 148.578125 C 35.289062 148.597656 39.65625 153.136719 39.859375 158.59375 C 39.960938 161.316406 35.730469 161.3125 35.628906 158.59375 C 35.515625 155.4375 33.089844 152.808594 29.84375 152.808594 C 26.597656 152.808594 24.058594 155.433594 24.058594 158.59375 C 24.058594 161.753906 26.683594 164.378906 29.84375 164.378906 C 33.003906 164.378906 35.511719 161.753906 35.628906 158.59375 C 35.730469 155.878906 39.960938 155.867188 39.859375 158.59375 Z M 39.859375 158.59375 " fill-opacity="1" fill-rule="nonzero"/><path fill="#000000" d="M 76.921875 160.4375 C 85.878906 166.351562 94.832031 172.265625 103.792969 178.179688 C 106.109375 179.710938 109.136719 181.078125 110.734375 183.417969 C 113.941406 188.121094 117.148438 192.824219 120.351562 197.527344 C 123.324219 201.886719 126.300781 206.253906 129.273438 210.613281 C 130.808594 212.867188 127.144531 214.988281 125.621094 212.75 C 119.726562 204.101562 113.832031 195.457031 107.9375 186.808594 C 107.5625 186.261719 107.066406 185.703125 106.777344 185.105469 C 106.367188 184.261719 107.828125 185.757812 107.140625 185.453125 C 105.6875 184.816406 104.285156 183.570312 102.964844 182.695312 L 86.726562 171.972656 C 82.746094 169.34375 78.769531 166.71875 74.792969 164.089844 C 72.527344 162.59375 74.648438 158.933594 76.925781 160.4375 Z M 76.921875 160.4375 " fill-opacity="1" fill-rule="nonzero"/><path fill="#ffe7c0" d="M 131.25 226.222656 L 148.800781 217.835938 L 145.714844 211.378906 C 144.265625 208.347656 140.636719 207.066406 137.601562 208.511719 L 125.542969 214.277344 Z M 131.25 226.222656 " fill-opacity="1" fill-rule="nonzero"/><path fill="#000000" d="M 130.183594 224.394531 C 136.035156 221.601562 141.886719 218.804688 147.738281 216.007812 L 146.980469 218.902344 C 145.289062 215.367188 143.449219 208.277344 138.234375 210.546875 C 134.304688 212.253906 130.476562 214.25 126.613281 216.097656 L 127.367188 213.207031 C 129.273438 217.191406 131.175781 221.167969 133.078125 225.152344 C 134.246094 227.597656 130.601562 229.746094 129.429688 227.289062 C 127.523438 223.304688 125.621094 219.324219 123.71875 215.339844 C 123.257812 214.378906 123.378906 212.972656 124.476562 212.449219 C 128.574219 210.492188 132.632812 208.410156 136.792969 206.578125 C 140.949219 204.746094 145.511719 206.421875 147.574219 210.375 C 148.667969 212.464844 149.613281 214.640625 150.628906 216.765625 C 151.089844 217.730469 150.96875 219.136719 149.871094 219.660156 C 144.023438 222.453125 138.171875 225.25 132.320312 228.046875 C 129.875 229.214844 127.726562 225.566406 130.183594 224.394531 Z M 130.183594 224.394531 " fill-opacity="1" fill-rule="nonzero"/><path fill="#000000" d="M 82.410156 171.28125 C 73.605469 178.042969 64.804688 184.800781 56.003906 191.566406 C 54.507812 192.714844 53.050781 193.980469 51.488281 195.039062 C 50.53125 195.683594 49.695312 195.589844 48.589844 195.523438 C 42.527344 195.164062 36.464844 194.800781 30.402344 194.441406 C 25.109375 194.128906 19.816406 193.8125 14.527344 193.496094 C 11.820312 193.335938 11.800781 189.109375 14.527344 189.269531 C 25.300781 189.910156 36.078125 190.550781 46.847656 191.191406 C 47.679688 191.242188 48.535156 191.234375 49.363281 191.339844 C 50.722656 191.515625 49.144531 191.191406 49.042969 191.625 C 49.101562 191.382812 49.996094 190.894531 50.1875 190.746094 L 52.566406 188.917969 C 57.863281 184.847656 63.15625 180.785156 68.449219 176.714844 C 72.390625 173.6875 76.332031 170.660156 80.273438 167.632812 C 82.429688 165.972656 84.539062 169.644531 82.410156 171.28125 Z M 82.410156 171.28125 " fill-opacity="1" fill-rule="nonzero"/><path fill="#ffe7c0" d="M 3.339844 187.390625 L 2.332031 206.820312 L 9.480469 207.1875 C 12.832031 207.359375 15.695312 204.78125 15.871094 201.425781 L 16.558594 188.074219 L 3.335938 187.390625 Z M 3.339844 187.390625 " fill-opacity="1" fill-rule="nonzero"/><path fill="#000000" d="M 5.453125 187.390625 C 5.121094 193.867188 4.785156 200.34375 4.449219 206.820312 L 2.332031 204.707031 C 6.28125 204.90625 13.324219 206.667969 13.78125 200.941406 C 14.121094 196.664062 14.226562 192.359375 14.445312 188.074219 L 16.558594 190.191406 C 12.152344 189.960938 7.742188 189.734375 3.335938 189.503906 C 0.628906 189.367188 0.613281 185.136719 3.335938 185.277344 C 7.742188 185.503906 12.152344 185.734375 16.558594 185.960938 C 17.65625 186.015625 18.738281 186.882812 18.675781 188.074219 C 18.4375 192.613281 18.386719 197.199219 17.957031 201.71875 C 17.53125 206.175781 13.863281 209.375 9.402344 209.296875 C 7.046875 209.261719 4.683594 209.054688 2.332031 208.929688 C 1.238281 208.875 0.15625 208.007812 0.21875 206.816406 C 0.550781 200.339844 0.886719 193.863281 1.226562 187.386719 C 1.363281 184.679688 5.59375 184.664062 5.453125 187.386719 Z M 5.453125 187.390625 " fill-opacity="1" fill-rule="nonzero"/><path fill="#000000" d="M 81.910156 103.910156 C 92.71875 107.753906 103.53125 111.597656 114.34375 115.449219 C 116.683594 116.28125 119.023438 117.113281 121.363281 117.941406 C 121.734375 118.074219 122.621094 118.214844 122.914062 118.492188 C 123.308594 118.871094 122.105469 118.296875 121.96875 118.539062 C 122.007812 118.46875 122.371094 118.429688 122.441406 118.398438 C 124.464844 117.550781 126.785156 117.113281 128.886719 116.488281 C 132.324219 115.46875 135.757812 114.449219 139.199219 113.429688 C 144.679688 111.808594 150.160156 110.183594 155.640625 108.558594 C 158.253906 107.785156 159.371094 111.867188 156.765625 112.636719 C 145.980469 115.832031 135.191406 119.03125 124.410156 122.226562 C 123.328125 122.550781 122.507812 122.78125 121.402344 122.429688 C 119.492188 121.824219 117.621094 121.085938 115.734375 120.414062 C 108.914062 117.984375 102.089844 115.5625 95.273438 113.132812 C 90.445312 111.417969 85.613281 109.699219 80.785156 107.984375 C 78.238281 107.078125 79.332031 102.988281 81.910156 103.90625 Z M 81.910156 103.910156 " fill-opacity="1" fill-rule="nonzero"/><path fill="#ffe7c0" d="M 40.632812 130.800781 C 40.632812 155.269531 57.105469 170.867188 77.425781 170.867188 C 97.746094 170.867188 114.21875 155.269531 114.21875 130.800781 C 114.21875 106.328125 97.746094 82.253906 77.425781 82.253906 C 57.105469 82.253906 40.632812 106.328125 40.632812 130.800781 Z M 40.632812 130.800781 " fill-opacity="1" fill-rule="nonzero"/><path fill="#000000" d="M 42.746094 130.800781 C 42.839844 146.203125 50.460938 161.46875 65.683594 166.78125 C 79.328125 171.542969 95.164062 167.492188 104.140625 155.992188 C 114.703125 142.46875 113.9375 122.617188 107.027344 107.644531 C 100.695312 93.933594 86.949219 80.589844 70.632812 85.355469 C 62.027344 87.871094 55.253906 94.6875 50.71875 102.191406 C 45.515625 110.789062 42.804688 120.769531 42.742188 130.800781 C 42.726562 133.519531 38.496094 133.527344 38.511719 130.800781 C 38.621094 112.761719 47.195312 91.976562 64.050781 83.457031 C 71.660156 79.609375 80.425781 79.085938 88.34375 82.347656 C 96.257812 85.605469 102.882812 92.167969 107.457031 99.535156 C 117.226562 115.257812 119.988281 137.195312 110.671875 153.757812 C 102.496094 168.289062 85.71875 175.382812 69.503906 172.203125 C 60.773438 170.492188 52.851562 165.59375 47.390625 158.578125 C 41.222656 150.652344 38.570312 140.742188 38.507812 130.800781 C 38.492188 128.078125 42.722656 128.078125 42.738281 130.800781 Z M 42.746094 130.800781 " fill-opacity="1" fill-rule="nonzero"/><path fill="#ffe7c0" d="M 27.535156 52.78125 C 27.535156 80.335938 49.875 91.503906 77.429688 91.503906 C 104.988281 91.503906 127.328125 80.335938 127.328125 52.78125 C 127.328125 25.222656 104.410156 6.351562 76.855469 6.351562 C 49.300781 6.351562 27.539062 25.222656 27.539062 52.78125 Z M 27.535156 52.78125 " fill-opacity="1" fill-rule="nonzero"/><path fill="#000000" d="M 29.648438 52.78125 C 29.699219 61.578125 32.214844 70.203125 38.460938 76.621094 C 44.476562 82.796875 52.738281 86.132812 61.050781 87.847656 C 70.550781 89.8125 80.734375 89.964844 90.3125 88.480469 C 98.820312 87.160156 107.554688 84.378906 114.191406 78.6875 C 128.425781 66.484375 128.011719 43.875 118.195312 29.050781 C 107.433594 12.792969 86.3125 5.996094 67.589844 9.222656 C 48.761719 12.46875 33.367188 26.101562 30.214844 45.292969 C 29.808594 47.769531 29.65625 50.277344 29.644531 52.785156 C 29.628906 55.503906 25.398438 55.511719 25.414062 52.785156 C 25.476562 42.433594 28.496094 32.222656 34.777344 23.925781 C 40.847656 15.910156 49.367188 10.136719 58.890625 7.019531 C 78.800781 0.503906 102.953125 5.363281 117.296875 21.082031 C 130.519531 35.574219 134.476562 60.382812 121.976562 76.59375 C 109.617188 92.628906 85.71875 95.191406 67.019531 93.042969 C 57.472656 91.945312 47.730469 89.292969 39.925781 83.472656 C 32.125 77.648438 27.574219 69.839844 26.0625 60.644531 C 25.636719 58.042969 25.429688 55.417969 25.414062 52.78125 C 25.402344 50.140625 29.628906 50.054688 29.644531 52.78125 Z M 29.648438 52.78125 " fill-opacity="1" fill-rule="nonzero"/><path fill="#ffe7c0" d="M 148.4375 110.804688 C 148.4375 111.324219 148.488281 111.835938 148.589844 112.34375 C 148.691406 112.855469 148.839844 113.347656 149.039062 113.828125 C 149.238281 114.308594 149.480469 114.761719 149.769531 115.195312 C 150.058594 115.625 150.386719 116.023438 150.753906 116.390625 C 151.121094 116.757812 151.519531 117.085938 151.949219 117.375 C 152.382812 117.660156 152.835938 117.90625 153.316406 118.101562 C 153.792969 118.300781 154.289062 118.453125 154.796875 118.554688 C 155.304688 118.652344 155.820312 118.703125 156.339844 118.703125 C 156.859375 118.703125 157.371094 118.652344 157.878906 118.554688 C 158.390625 118.453125 158.882812 118.300781 159.363281 118.101562 C 159.839844 117.90625 160.296875 117.660156 160.726562 117.375 C 161.160156 117.085938 161.558594 116.757812 161.925781 116.390625 C 162.292969 116.023438 162.621094 115.625 162.90625 115.195312 C 163.195312 114.761719 163.4375 114.308594 163.636719 113.828125 C 163.835938 113.347656 163.984375 112.855469 164.085938 112.34375 C 164.1875 111.835938 164.238281 111.324219 164.238281 110.804688 C 164.238281 110.285156 164.1875 109.773438 164.085938 109.261719 C 163.984375 108.753906 163.835938 108.261719 163.636719 107.78125 C 163.4375 107.300781 163.195312 106.847656 162.90625 106.414062 C 162.621094 105.984375 162.292969 105.585938 161.925781 105.21875 C 161.558594 104.851562 161.160156 104.523438 160.726562 104.234375 C 160.296875 103.949219 159.839844 103.703125 159.363281 103.503906 C 158.882812 103.308594 158.390625 103.15625 157.878906 103.054688 C 157.371094 102.953125 156.859375 102.90625 156.339844 102.90625 C 155.820312 102.90625 155.304688 102.953125 154.796875 103.054688 C 154.289062 103.15625 153.792969 103.308594 153.316406 103.503906 C 152.835938 103.703125 152.382812 103.949219 151.949219 104.234375 C 151.519531 104.523438 151.121094 104.851562 150.753906 105.21875 C 150.386719 105.585938 150.058594 105.984375 149.769531 106.414062 C 149.480469 106.847656 149.238281 107.300781 149.039062 107.78125 C 148.839844 108.261719 148.691406 108.753906 148.589844 109.261719 C 148.488281 109.773438 148.4375 110.285156 148.4375 110.804688 Z M 148.4375 110.804688 " fill-opacity="1" fill-rule="nonzero"/><g clip-path="url(#03db89ef3b)"><path fill="#000000" d="M 150.558594 110.804688 C 150.671875 113.960938 153.09375 116.589844 156.34375 116.589844 C 159.589844 116.589844 162.128906 113.964844 162.128906 110.804688 C 162.128906 107.644531 159.503906 105.019531 156.34375 105.019531 C 153.183594 105.019531 150.675781 107.644531 150.558594 110.804688 C 150.457031 113.519531 146.226562 113.53125 146.328125 110.804688 C 146.527344 105.367188 150.746094 100.789062 156.34375 100.789062 C 161.9375 100.789062 166.359375 105.355469 166.359375 110.804688 C 166.359375 116.25 161.789062 120.835938 156.34375 120.820312 C 150.894531 120.800781 146.53125 116.261719 146.328125 110.804688 C 146.226562 108.082031 150.457031 108.085938 150.558594 110.804688 Z M 150.558594 110.804688 " fill-opacity="1" fill-rule="nonzero"/></g><path fill="#000000" d="M 59.636719 112.992188 C 48.878906 115.601562 38.121094 118.207031 27.359375 120.816406 L 22.699219 121.945312 L 24.175781 119.34375 C 26.152344 130.480469 28.121094 141.617188 30.097656 152.753906 C 30.570312 155.414062 26.496094 156.554688 26.019531 153.878906 C 24.046875 142.742188 22.074219 131.605469 20.101562 120.46875 C 19.90625 119.371094 20.382812 118.15625 21.574219 117.867188 C 32.335938 115.257812 43.09375 112.652344 53.851562 110.042969 L 58.511719 108.914062 C 61.15625 108.269531 62.285156 112.351562 59.636719 112.992188 Z M 59.636719 112.992188 " fill-opacity="1" fill-rule="nonzero"/><path fill="#ffe7c0" d="M 21.949219 158.59375 C 21.949219 159.113281 22 159.625 22.101562 160.136719 C 22.199219 160.644531 22.351562 161.136719 22.550781 161.617188 C 22.746094 162.097656 22.992188 162.550781 23.277344 162.984375 C 23.566406 163.414062 23.894531 163.8125 24.261719 164.179688 C 24.628906 164.546875 25.027344 164.875 25.457031 165.164062 C 25.890625 165.453125 26.34375 165.695312 26.824219 165.894531 C 27.304688 166.089844 27.796875 166.242188 28.308594 166.34375 C 28.816406 166.445312 29.328125 166.496094 29.847656 166.496094 C 30.367188 166.496094 30.878906 166.445312 31.390625 166.34375 C 31.898438 166.242188 32.390625 166.089844 32.871094 165.894531 C 33.351562 165.695312 33.804688 165.453125 34.238281 165.164062 C 34.667969 164.875 35.066406 164.546875 35.433594 164.179688 C 35.800781 163.8125 36.128906 163.414062 36.417969 162.984375 C 36.703125 162.550781 36.949219 162.097656 37.148438 161.617188 C 37.34375 161.136719 37.496094 160.644531 37.597656 160.136719 C 37.699219 159.625 37.75 159.113281 37.75 158.59375 C 37.75 158.074219 37.699219 157.5625 37.597656 157.054688 C 37.496094 156.542969 37.34375 156.050781 37.148438 155.570312 C 36.949219 155.089844 36.703125 154.636719 36.417969 154.207031 C 36.128906 153.773438 35.800781 153.375 35.433594 153.007812 C 35.066406 152.640625 34.667969 152.3125 34.238281 152.027344 C 33.804688 151.738281 33.351562 151.492188 32.871094 151.296875 C 32.390625 151.097656 31.898438 150.945312 31.390625 150.847656 C 30.878906 150.746094 30.367188 150.695312 29.847656 150.695312 C 29.328125 150.695312 28.816406 150.746094 28.308594 150.847656 C 27.796875 150.945312 27.304688 151.097656 26.824219 151.296875 C 26.34375 151.492188 25.890625 151.738281 25.457031 152.027344 C 25.027344 152.3125 24.628906 152.640625 24.261719 153.007812 C 23.894531 153.375 23.566406 153.773438 23.277344 154.207031 C 22.992188 154.636719 22.746094 155.089844 22.550781 155.570312 C 22.351562 156.050781 22.199219 156.542969 22.101562 157.054688 C 22 157.5625 21.949219 158.074219 21.949219 158.59375 Z M 21.949219 158.59375 " fill-opacity="1" fill-rule="nonzero"/><path fill="#000000" d="M 39.859375 158.59375 C 39.660156 164.03125 35.4375 168.609375 29.84375 168.609375 C 24.25 168.609375 19.828125 164.042969 19.828125 158.59375 C 19.828125 153.148438 24.398438 148.5625 29.84375 148.578125 C 35.289062 148.597656 39.65625 153.136719 39.859375 158.59375 C 39.960938 161.316406 35.730469 161.3125 35.628906 158.59375 C 35.515625 155.4375 33.089844 152.808594 29.84375 152.808594 C 26.597656 152.808594 24.058594 155.433594 24.058594 158.59375 C 24.058594 161.753906 26.683594 164.378906 29.84375 164.378906 C 33.003906 164.378906 35.511719 161.753906 35.628906 158.59375 C 35.730469 155.878906 39.960938 155.867188 39.859375 158.59375 Z M 39.859375 158.59375 " fill-opacity="1" fill-rule="nonzero"/><path fill="#000000" d="M 76.921875 160.4375 C 85.878906 166.351562 94.832031 172.265625 103.792969 178.179688 C 106.109375 179.710938 109.136719 181.078125 110.734375 183.417969 C 113.941406 188.121094 117.148438 192.824219 120.351562 197.527344 C 123.324219 201.886719 126.300781 206.253906 129.273438 210.613281 C 130.808594 212.867188 127.144531 214.988281 125.621094 212.75 C 119.726562 204.101562 113.832031 195.457031 107.9375 186.808594 C 107.5625 186.261719 107.066406 185.703125 106.777344 185.105469 C 106.367188 184.261719 107.828125 185.757812 107.140625 185.453125 C 105.6875 184.816406 104.285156 183.570312 102.964844 182.695312 L 86.726562 171.972656 C 82.746094 169.34375 78.769531 166.71875 74.792969 164.089844 C 72.527344 162.59375 74.648438 158.933594 76.925781 160.4375 Z M 76.921875 160.4375 " fill-opacity="1" fill-rule="nonzero"/><path fill="#ffe7c0" d="M 131.25 226.222656 L 148.800781 217.835938 L 145.714844 211.378906 C 144.265625 208.347656 140.636719 207.066406 137.601562 208.511719 L 125.542969 214.277344 Z M 131.25 226.222656 " fill-opacity="1" fill-rule="nonzero"/><path fill="#000000" d="M 130.183594 224.394531 C 136.035156 221.601562 141.886719 218.804688 147.738281 216.007812 L 146.980469 218.902344 C 145.289062 215.367188 143.449219 208.277344 138.234375 210.546875 C 134.304688 212.253906 130.476562 214.25 126.613281 216.097656 L 127.367188 213.207031 C 129.273438 217.191406 131.175781 221.167969 133.078125 225.152344 C 134.246094 227.597656 130.601562 229.746094 129.429688 227.289062 C 127.523438 223.304688 125.621094 219.324219 123.71875 215.339844 C 123.257812 214.378906 123.378906 212.972656 124.476562 212.449219 C 128.574219 210.492188 132.632812 208.410156 136.792969 206.578125 C 140.949219 204.746094 145.511719 206.421875 147.574219 210.375 C 148.667969 212.464844 149.613281 214.640625 150.628906 216.765625 C 151.089844 217.730469 150.96875 219.136719 149.871094 219.660156 C 144.023438 222.453125 138.171875 225.25 132.320312 228.046875 C 129.875 229.214844 127.726562 225.566406 130.183594 224.394531 Z M 130.183594 224.394531 " fill-opacity="1" fill-rule="nonzero"/></svg>