<svg xmlns="http://www.w3.org/2000/svg" xmlns:xlink="http://www.w3.org/1999/xlink" width="223" zoomAndPan="magnify" viewBox="0 0 167.25 230.999993" height="308" preserveAspectRatio="xMidYMid meet" version="1.0"><defs><clipPath id="abd3877013"><path d="M 147 185 L 166.503906 185 L 166.503906 210 L 147 210 Z M 147 185 " clip-rule="nonzero"/></clipPath><clipPath id="2188752b89"><path d="M 147 185 L 166.503906 185 L 166.503906 210 L 147 210 Z M 147 185 " clip-rule="nonzero"/></clipPath></defs><path fill="#000000" d="M 83.988281 171.28125 C 92.789062 178.042969 101.59375 184.800781 110.394531 191.566406 C 111.890625 192.714844 113.347656 193.980469 114.910156 195.039062 C 115.867188 195.683594 116.703125 195.589844 117.804688 195.523438 C 123.871094 195.164062 129.933594 194.800781 135.996094 194.441406 C 141.285156 194.128906 146.582031 193.8125 151.871094 193.496094 C 154.578125 193.335938 154.597656 189.109375 151.871094 189.269531 C 141.097656 189.910156 130.320312 190.550781 119.550781 191.191406 C 118.71875 191.242188 117.863281 191.234375 117.035156 191.339844 C 115.675781 191.515625 117.253906 191.191406 117.355469 191.625 C 117.292969 191.382812 116.402344 190.894531 116.210938 190.746094 L 113.832031 188.917969 C 108.535156 184.847656 103.242188 180.785156 97.949219 176.714844 C 94.007812 173.6875 90.066406 170.660156 86.125 167.632812 C 83.96875 165.972656 81.859375 169.644531 83.988281 171.28125 Z M 83.988281 171.28125 " fill-opacity="1" fill-rule="nonzero"/><path fill="#ffe7c0" d="M 163.058594 187.390625 L 164.066406 206.820312 L 156.917969 207.1875 C 153.5625 207.359375 150.703125 204.78125 150.527344 201.425781 L 149.839844 188.074219 L 163.0625 187.390625 Z M 163.058594 187.390625 " fill-opacity="1" fill-rule="nonzero"/><g clip-path="url(#abd3877013)"><path fill="#000000" d="M 160.945312 187.390625 C 161.277344 193.867188 161.613281 200.34375 161.949219 206.820312 L 164.066406 204.707031 C 160.117188 204.90625 153.074219 206.667969 152.617188 200.941406 C 152.277344 196.664062 152.171875 192.359375 151.953125 188.074219 L 149.839844 190.191406 C 154.246094 189.960938 158.65625 189.734375 163.0625 189.503906 C 165.769531 189.367188 165.785156 185.136719 163.0625 185.277344 C 158.65625 185.503906 154.246094 185.734375 149.839844 185.960938 C 148.742188 186.015625 147.660156 186.882812 147.722656 188.074219 C 147.960938 192.613281 148.011719 197.199219 148.441406 201.71875 C 148.867188 206.175781 152.535156 209.375 156.996094 209.296875 C 159.351562 209.261719 161.714844 209.054688 164.066406 208.929688 C 165.160156 208.875 166.242188 208.007812 166.179688 206.816406 C 165.847656 200.339844 165.511719 193.863281 165.171875 187.386719 C 165.035156 184.679688 160.804688 184.664062 160.945312 187.386719 Z M 160.945312 187.390625 " fill-opacity="1" fill-rule="nonzero"/></g><path fill="#000000" d="M 84.488281 103.910156 C 73.679688 107.753906 62.863281 111.597656 52.054688 115.449219 C 49.714844 116.28125 47.375 117.113281 45.035156 117.941406 C 44.664062 118.074219 43.777344 118.214844 43.484375 118.492188 C 43.089844 118.871094 44.292969 118.296875 44.429688 118.539062 C 44.390625 118.46875 44.027344 118.429688 43.957031 118.398438 C 41.933594 117.550781 39.613281 117.113281 37.511719 116.488281 C 34.074219 115.46875 30.640625 114.449219 27.199219 113.429688 C 21.71875 111.808594 16.238281 110.183594 10.757812 108.558594 C 8.144531 107.785156 7.027344 111.867188 9.632812 112.636719 C 20.417969 115.832031 31.207031 119.03125 41.988281 122.226562 C 43.066406 122.550781 43.890625 122.78125 44.996094 122.429688 C 46.902344 121.824219 48.777344 121.085938 50.664062 120.414062 C 57.484375 117.984375 64.308594 115.5625 71.125 113.132812 C 75.953125 111.417969 80.785156 109.699219 85.613281 107.984375 C 88.160156 107.078125 87.066406 102.988281 84.488281 103.90625 Z M 84.488281 103.910156 " fill-opacity="1" fill-rule="nonzero"/><path fill="#ffe7c0" d="M 125.765625 130.800781 C 125.765625 155.269531 109.292969 170.867188 88.972656 170.867188 C 68.652344 170.867188 52.179688 155.269531 52.179688 130.800781 C 52.179688 106.328125 68.652344 82.253906 88.972656 82.253906 C 109.292969 82.253906 125.765625 106.328125 125.765625 130.800781 Z M 125.765625 130.800781 " fill-opacity="1" fill-rule="nonzero"/><path fill="#000000" d="M 123.652344 130.800781 C 123.558594 146.203125 115.9375 161.46875 100.714844 166.78125 C 87.070312 171.542969 71.234375 167.492188 62.257812 155.992188 C 51.695312 142.46875 52.460938 122.617188 59.371094 107.644531 C 65.703125 93.933594 79.449219 80.589844 95.765625 85.355469 C 104.371094 87.871094 111.144531 94.6875 115.679688 102.191406 C 120.882812 110.789062 123.59375 120.769531 123.65625 130.800781 C 123.671875 133.519531 127.902344 133.527344 127.882812 130.800781 C 127.777344 112.761719 119.203125 91.976562 102.347656 83.457031 C 94.738281 79.609375 85.972656 79.085938 78.054688 82.347656 C 70.140625 85.605469 63.515625 92.167969 58.941406 99.535156 C 49.171875 115.257812 46.410156 137.195312 55.726562 153.757812 C 63.902344 168.289062 80.679688 175.382812 96.894531 172.203125 C 105.625 170.492188 113.546875 165.59375 119.007812 158.578125 C 125.171875 150.652344 127.828125 140.742188 127.890625 130.800781 C 127.90625 128.078125 123.675781 128.078125 123.660156 130.800781 Z M 123.652344 130.800781 " fill-opacity="1" fill-rule="nonzero"/><path fill="#ffe7c0" d="M 138.863281 52.78125 C 138.863281 80.335938 116.523438 91.503906 88.96875 91.503906 C 61.410156 91.503906 39.070312 80.335938 39.070312 52.78125 C 39.070312 25.222656 61.988281 6.351562 89.542969 6.351562 C 117.097656 6.351562 138.859375 25.222656 138.859375 52.78125 Z M 138.863281 52.78125 " fill-opacity="1" fill-rule="nonzero"/><path fill="#000000" d="M 136.75 52.78125 C 136.699219 61.578125 134.183594 70.203125 127.933594 76.621094 C 121.921875 82.796875 113.660156 86.132812 105.347656 87.847656 C 95.847656 89.8125 85.664062 89.964844 76.085938 88.480469 C 67.578125 87.160156 58.84375 84.378906 52.207031 78.6875 C 37.972656 66.484375 38.386719 43.875 48.203125 29.050781 C 58.964844 12.792969 80.085938 5.996094 98.808594 9.222656 C 117.636719 12.46875 133.03125 26.101562 136.183594 45.292969 C 136.589844 47.769531 136.742188 50.277344 136.753906 52.785156 C 136.769531 55.503906 141 55.511719 140.984375 52.785156 C 140.921875 42.433594 137.902344 32.222656 131.617188 23.925781 C 125.550781 15.910156 117.03125 10.136719 107.507812 7.019531 C 87.597656 0.503906 63.445312 5.363281 49.101562 21.082031 C 35.878906 35.574219 31.921875 60.382812 44.421875 76.59375 C 56.78125 92.628906 80.679688 95.191406 99.378906 93.042969 C 108.925781 91.945312 118.667969 89.292969 126.472656 83.472656 C 134.273438 77.648438 138.824219 69.839844 140.335938 60.644531 C 140.761719 58.042969 140.96875 55.417969 140.984375 52.78125 C 140.996094 50.140625 136.769531 50.054688 136.753906 52.78125 Z M 136.75 52.78125 " fill-opacity="1" fill-rule="nonzero"/><path fill="#ffe7c0" d="M 17.960938 110.804688 C 17.960938 111.324219 17.910156 111.835938 17.808594 112.34375 C 17.707031 112.855469 17.558594 113.347656 17.359375 113.828125 C 17.160156 114.308594 16.917969 114.761719 16.628906 115.195312 C 16.339844 115.625 16.011719 116.023438 15.644531 116.390625 C 15.277344 116.757812 14.878906 117.085938 14.449219 117.375 C 14.015625 117.660156 13.5625 117.90625 13.082031 118.101562 C 12.605469 118.300781 12.109375 118.453125 11.601562 118.554688 C 11.09375 118.652344 10.578125 118.703125 10.058594 118.703125 C 9.539062 118.703125 9.027344 118.652344 8.519531 118.554688 C 8.007812 118.453125 7.515625 118.300781 7.035156 118.101562 C 6.558594 117.90625 6.101562 117.660156 5.671875 117.375 C 5.238281 117.085938 4.839844 116.757812 4.472656 116.390625 C 4.105469 116.023438 3.777344 115.625 3.492188 115.195312 C 3.203125 114.761719 2.960938 114.308594 2.761719 113.828125 C 2.5625 113.347656 2.414062 112.855469 2.3125 112.34375 C 2.210938 111.835938 2.160156 111.324219 2.160156 110.804688 C 2.160156 110.285156 2.210938 109.773438 2.3125 109.261719 C 2.414062 108.753906 2.5625 108.261719 2.761719 107.78125 C 2.960938 107.300781 3.203125 106.847656 3.492188 106.414062 C 3.777344 105.984375 4.105469 105.585938 4.472656 105.21875 C 4.839844 104.851562 5.238281 104.523438 5.671875 104.234375 C 6.101562 103.949219 6.558594 103.703125 7.035156 103.503906 C 7.515625 103.308594 8.007812 103.15625 8.519531 103.054688 C 9.027344 102.953125 9.539062 102.90625 10.058594 102.90625 C 10.578125 102.90625 11.09375 102.953125 11.601562 103.054688 C 12.109375 103.15625 12.605469 103.308594 13.082031 103.503906 C 13.5625 103.703125 14.015625 103.949219 14.449219 104.234375 C 14.878906 104.523438 15.277344 104.851562 15.644531 105.21875 C 16.011719 105.585938 16.339844 105.984375 16.628906 106.414062 C 16.917969 106.847656 17.160156 107.300781 17.359375 107.78125 C 17.558594 108.261719 17.707031 108.753906 17.808594 109.261719 C 17.910156 109.773438 17.960938 110.285156 17.960938 110.804688 Z M 17.960938 110.804688 " fill-opacity="1" fill-rule="nonzero"/><path fill="#000000" d="M 15.839844 110.804688 C 15.726562 113.960938 13.304688 116.589844 10.054688 116.589844 C 6.808594 116.589844 4.269531 113.964844 4.269531 110.804688 C 4.269531 107.644531 6.894531 105.019531 10.054688 105.019531 C 13.214844 105.019531 15.722656 107.644531 15.839844 110.804688 C 15.941406 113.519531 20.171875 113.53125 20.070312 110.804688 C 19.871094 105.367188 15.652344 100.789062 10.054688 100.789062 C 4.460938 100.789062 0.0390625 105.355469 0.0390625 110.804688 C 0.0390625 116.25 4.609375 120.835938 10.054688 120.820312 C 15.503906 120.800781 19.867188 116.261719 20.070312 110.804688 C 20.171875 108.082031 15.941406 108.085938 15.839844 110.804688 Z M 15.839844 110.804688 " fill-opacity="1" fill-rule="nonzero"/><path fill="#000000" d="M 106.761719 112.992188 C 117.519531 115.601562 128.277344 118.207031 139.039062 120.816406 L 143.699219 121.945312 L 142.222656 119.34375 C 140.246094 130.480469 138.277344 141.617188 136.300781 152.753906 C 135.828125 155.414062 139.902344 156.554688 140.378906 153.878906 C 142.351562 142.742188 144.324219 131.605469 146.296875 120.46875 C 146.492188 119.371094 146.015625 118.15625 144.824219 117.867188 C 134.0625 115.257812 123.304688 112.652344 112.546875 110.042969 L 107.886719 108.914062 C 105.242188 108.269531 104.113281 112.351562 106.761719 112.992188 Z M 106.761719 112.992188 " fill-opacity="1" fill-rule="nonzero"/><path fill="#ffe7c0" d="M 144.449219 158.59375 C 144.449219 159.113281 144.398438 159.625 144.296875 160.136719 C 144.199219 160.644531 144.046875 161.136719 143.847656 161.617188 C 143.652344 162.097656 143.40625 162.550781 143.117188 162.984375 C 142.832031 163.414062 142.503906 163.8125 142.136719 164.179688 C 141.769531 164.546875 141.371094 164.875 140.9375 165.164062 C 140.507812 165.453125 140.054688 165.695312 139.574219 165.894531 C 139.09375 166.089844 138.601562 166.242188 138.089844 166.34375 C 137.582031 166.445312 137.070312 166.496094 136.550781 166.496094 C 136.03125 166.496094 135.519531 166.445312 135.007812 166.34375 C 134.5 166.242188 134.007812 166.089844 133.527344 165.894531 C 133.046875 165.695312 132.59375 165.453125 132.160156 165.164062 C 131.730469 164.875 131.332031 164.546875 130.964844 164.179688 C 130.597656 163.8125 130.269531 163.414062 129.980469 162.984375 C 129.695312 162.550781 129.449219 162.097656 129.25 161.617188 C 129.054688 161.136719 128.902344 160.644531 128.800781 160.136719 C 128.699219 159.625 128.648438 159.113281 128.648438 158.59375 C 128.648438 158.074219 128.699219 157.5625 128.800781 157.054688 C 128.902344 156.542969 129.054688 156.050781 129.25 155.570312 C 129.449219 155.089844 129.695312 154.636719 129.980469 154.207031 C 130.269531 153.773438 130.597656 153.375 130.964844 153.007812 C 131.332031 152.640625 131.730469 152.3125 132.160156 152.027344 C 132.59375 151.738281 133.046875 151.492188 133.527344 151.296875 C 134.007812 151.097656 134.5 150.945312 135.007812 150.847656 C 135.519531 150.746094 136.03125 150.695312 136.550781 150.695312 C 137.070312 150.695312 137.582031 150.746094 138.089844 150.847656 C 138.601562 150.945312 139.09375 151.097656 139.574219 151.296875 C 140.054688 151.492188 140.507812 151.738281 140.9375 152.027344 C 141.371094 152.3125 141.769531 152.640625 142.136719 153.007812 C 142.503906 153.375 142.832031 153.773438 143.117188 154.207031 C 143.40625 154.636719 143.652344 155.089844 143.847656 155.570312 C 144.046875 156.050781 144.199219 156.542969 144.296875 157.054688 C 144.398438 157.5625 144.449219 158.074219 144.449219 158.59375 Z M 144.449219 158.59375 " fill-opacity="1" fill-rule="nonzero"/><path fill="#000000" d="M 126.539062 158.59375 C 126.738281 164.03125 130.960938 168.609375 136.554688 168.609375 C 142.148438 168.609375 146.570312 164.042969 146.570312 158.59375 C 146.570312 153.148438 142 148.5625 136.554688 148.578125 C 131.105469 148.597656 126.742188 153.136719 126.539062 158.59375 C 126.4375 161.316406 130.667969 161.3125 130.769531 158.59375 C 130.882812 155.4375 133.304688 152.808594 136.554688 152.808594 C 139.800781 152.808594 142.339844 155.433594 142.339844 158.59375 C 142.339844 161.753906 139.714844 164.378906 136.554688 164.378906 C 133.394531 164.378906 130.886719 161.753906 130.769531 158.59375 C 130.667969 155.878906 126.4375 155.867188 126.539062 158.59375 Z M 126.539062 158.59375 " fill-opacity="1" fill-rule="nonzero"/><path fill="#000000" d="M 89.476562 160.4375 C 80.519531 166.351562 71.566406 172.265625 62.605469 178.179688 C 60.289062 179.710938 57.261719 181.078125 55.664062 183.417969 C 52.457031 188.121094 49.25 192.824219 46.046875 197.527344 C 43.074219 201.886719 40.097656 206.253906 37.125 210.613281 C 35.589844 212.867188 39.253906 214.988281 40.777344 212.75 C 46.671875 204.101562 52.566406 195.457031 58.460938 186.808594 C 58.835938 186.261719 59.332031 185.703125 59.621094 185.105469 C 60.03125 184.261719 58.566406 185.757812 59.257812 185.453125 C 60.710938 184.816406 62.113281 183.570312 63.433594 182.695312 L 79.671875 171.972656 C 83.652344 169.34375 87.628906 166.71875 91.605469 164.089844 C 93.871094 162.59375 91.75 158.933594 89.472656 160.4375 Z M 89.476562 160.4375 " fill-opacity="1" fill-rule="nonzero"/><path fill="#ffe7c0" d="M 35.148438 226.222656 L 17.597656 217.835938 L 20.683594 211.378906 C 22.132812 208.347656 25.761719 207.066406 28.792969 208.511719 L 40.855469 214.277344 Z M 35.148438 226.222656 " fill-opacity="1" fill-rule="nonzero"/><path fill="#000000" d="M 36.210938 224.394531 C 30.363281 221.601562 24.511719 218.804688 18.660156 216.007812 L 19.417969 218.902344 C 21.109375 215.367188 22.949219 208.277344 28.164062 210.546875 C 32.09375 212.253906 35.921875 214.25 39.785156 216.097656 L 39.03125 213.207031 C 37.125 217.191406 35.222656 221.167969 33.320312 225.152344 C 32.152344 227.597656 35.796875 229.746094 36.96875 227.289062 C 38.871094 223.304688 40.777344 219.324219 42.679688 215.339844 C 43.140625 214.378906 43.019531 212.972656 41.921875 212.449219 C 37.824219 210.492188 33.765625 208.410156 29.605469 206.578125 C 25.449219 204.746094 20.886719 206.421875 18.824219 210.375 C 17.730469 212.464844 16.785156 214.640625 15.769531 216.765625 C 15.308594 217.730469 15.429688 219.136719 16.527344 219.660156 C 22.375 222.453125 28.226562 225.25 34.078125 228.046875 C 36.523438 229.214844 38.671875 225.566406 36.210938 224.394531 Z M 36.210938 224.394531 " fill-opacity="1" fill-rule="nonzero"/><path fill="#000000" d="M 83.988281 171.28125 C 92.789062 178.042969 101.59375 184.800781 110.394531 191.566406 C 111.890625 192.714844 113.347656 193.980469 114.910156 195.039062 C 115.867188 195.683594 116.703125 195.589844 117.804688 195.523438 C 123.871094 195.164062 129.933594 194.800781 135.996094 194.441406 C 141.285156 194.128906 146.582031 193.8125 151.871094 193.496094 C 154.578125 193.335938 154.597656 189.109375 151.871094 189.269531 C 141.097656 189.910156 130.320312 190.550781 119.550781 191.191406 C 118.71875 191.242188 117.863281 191.234375 117.035156 191.339844 C 115.675781 191.515625 117.253906 191.191406 117.355469 191.625 C 117.292969 191.382812 116.402344 190.894531 116.210938 190.746094 L 113.832031 188.917969 C 108.535156 184.847656 103.242188 180.785156 97.949219 176.714844 C 94.007812 173.6875 90.066406 170.660156 86.125 167.632812 C 83.96875 165.972656 81.859375 169.644531 83.988281 171.28125 Z M 83.988281 171.28125 " fill-opacity="1" fill-rule="nonzero"/><path fill="#ffe7c0" d="M 163.058594 187.390625 L 164.066406 206.820312 L 156.917969 207.1875 C 153.5625 207.359375 150.703125 204.78125 150.527344 201.425781 L 149.839844 188.074219 L 163.0625 187.390625 Z M 163.058594 187.390625 " fill-opacity="1" fill-rule="nonzero"/><g clip-path="url(#2188752b89)"><path fill="#000000" d="M 160.945312 187.390625 C 161.277344 193.867188 161.613281 200.34375 161.949219 206.820312 L 164.066406 204.707031 C 160.117188 204.90625 153.074219 206.667969 152.617188 200.941406 C 152.277344 196.664062 152.171875 192.359375 151.953125 188.074219 L 149.839844 190.191406 C 154.246094 189.960938 158.65625 189.734375 163.0625 189.503906 C 165.769531 189.367188 165.785156 185.136719 163.0625 185.277344 C 158.65625 185.503906 154.246094 185.734375 149.839844 185.960938 C 148.742188 186.015625 147.660156 186.882812 147.722656 188.074219 C 147.960938 192.613281 148.011719 197.199219 148.441406 201.71875 C 148.867188 206.175781 152.535156 209.375 156.996094 209.296875 C 159.351562 209.261719 161.714844 209.054688 164.066406 208.929688 C 165.160156 208.875 166.242188 208.007812 166.179688 206.816406 C 165.847656 200.339844 165.511719 193.863281 165.171875 187.386719 C 165.035156 184.679688 160.804688 184.664062 160.945312 187.386719 Z M 160.945312 187.390625 " fill-opacity="1" fill-rule="nonzero"/></g><path fill="#000000" d="M 84.488281 103.910156 C 73.679688 107.753906 62.863281 111.597656 52.054688 115.449219 C 49.714844 116.28125 47.375 117.113281 45.035156 117.941406 C 44.664062 118.074219 43.777344 118.214844 43.484375 118.492188 C 43.089844 118.871094 44.292969 118.296875 44.429688 118.539062 C 44.390625 118.46875 44.027344 118.429688 43.957031 118.398438 C 41.933594 117.550781 39.613281 117.113281 37.511719 116.488281 C 34.074219 115.46875 30.640625 114.449219 27.199219 113.429688 C 21.71875 111.808594 16.238281 110.183594 10.757812 108.558594 C 8.144531 107.785156 7.027344 111.867188 9.632812 112.636719 C 20.417969 115.832031 31.207031 119.03125 41.988281 122.226562 C 43.066406 122.550781 43.890625 122.78125 44.996094 122.429688 C 46.902344 121.824219 48.777344 121.085938 50.664062 120.414062 C 57.484375 117.984375 64.308594 115.5625 71.125 113.132812 C 75.953125 111.417969 80.785156 109.699219 85.613281 107.984375 C 88.160156 107.078125 87.066406 102.988281 84.488281 103.90625 Z M 84.488281 103.910156 " fill-opacity="1" fill-rule="nonzero"/><path fill="#ffe7c0" d="M 125.765625 130.800781 C 125.765625 155.269531 109.292969 170.867188 88.972656 170.867188 C 68.652344 170.867188 52.179688 155.269531 52.179688 130.800781 C 52.179688 106.328125 68.652344 82.253906 88.972656 82.253906 C 109.292969 82.253906 125.765625 106.328125 125.765625 130.800781 Z M 125.765625 130.800781 " fill-opacity="1" fill-rule="nonzero"/><path fill="#000000" d="M 123.652344 130.800781 C 123.558594 146.203125 115.9375 161.46875 100.714844 166.78125 C 87.070312 171.542969 71.234375 167.492188 62.257812 155.992188 C 51.695312 142.46875 52.460938 122.617188 59.371094 107.644531 C 65.703125 93.933594 79.449219 80.589844 95.765625 85.355469 C 104.371094 87.871094 111.144531 94.6875 115.679688 102.191406 C 120.882812 110.789062 123.59375 120.769531 123.65625 130.800781 C 123.671875 133.519531 127.902344 133.527344 127.882812 130.800781 C 127.777344 112.761719 119.203125 91.976562 102.347656 83.457031 C 94.738281 79.609375 85.972656 79.085938 78.054688 82.347656 C 70.140625 85.605469 63.515625 92.167969 58.941406 99.535156 C 49.171875 115.257812 46.410156 137.195312 55.726562 153.757812 C 63.902344 168.289062 80.679688 175.382812 96.894531 172.203125 C 105.625 170.492188 113.546875 165.59375 119.007812 158.578125 C 125.171875 150.652344 127.828125 140.742188 127.890625 130.800781 C 127.90625 128.078125 123.675781 128.078125 123.660156 130.800781 Z M 123.652344 130.800781 " fill-opacity="1" fill-rule="nonzero"/><path fill="#ffe7c0" d="M 138.863281 52.78125 C 138.863281 80.335938 116.523438 91.503906 88.96875 91.503906 C 61.410156 91.503906 39.070312 80.335938 39.070312 52.78125 C 39.070312 25.222656 61.988281 6.351562 89.542969 6.351562 C 117.097656 6.351562 138.859375 25.222656 138.859375 52.78125 Z M 138.863281 52.78125 " fill-opacity="1" fill-rule="nonzero"/><path fill="#000000" d="M 136.75 52.78125 C 136.699219 61.578125 134.183594 70.203125 127.933594 76.621094 C 121.921875 82.796875 113.660156 86.132812 105.347656 87.847656 C 95.847656 89.8125 85.664062 89.964844 76.085938 88.480469 C 67.578125 87.160156 58.84375 84.378906 52.207031 78.6875 C 37.972656 66.484375 38.386719 43.875 48.203125 29.050781 C 58.964844 12.792969 80.085938 5.996094 98.808594 9.222656 C 117.636719 12.46875 133.03125 26.101562 136.183594 45.292969 C 136.589844 47.769531 136.742188 50.277344 136.753906 52.785156 C 136.769531 55.503906 141 55.511719 140.984375 52.785156 C 140.921875 42.433594 137.902344 32.222656 131.617188 23.925781 C 125.550781 15.910156 117.03125 10.136719 107.507812 7.019531 C 87.597656 0.503906 63.445312 5.363281 49.101562 21.082031 C 35.878906 35.574219 31.921875 60.382812 44.421875 76.59375 C 56.78125 92.628906 80.679688 95.191406 99.378906 93.042969 C 108.925781 91.945312 118.667969 89.292969 126.472656 83.472656 C 134.273438 77.648438 138.824219 69.839844 140.335938 60.644531 C 140.761719 58.042969 140.96875 55.417969 140.984375 52.78125 C 140.996094 50.140625 136.769531 50.054688 136.753906 52.78125 Z M 136.75 52.78125 " fill-opacity="1" fill-rule="nonzero"/><path fill="#ffe7c0" d="M 17.960938 110.804688 C 17.960938 111.324219 17.910156 111.835938 17.808594 112.34375 C 17.707031 112.855469 17.558594 113.347656 17.359375 113.828125 C 17.160156 114.308594 16.917969 114.761719 16.628906 115.195312 C 16.339844 115.625 16.011719 116.023438 15.644531 116.390625 C 15.277344 116.757812 14.878906 117.085938 14.449219 117.375 C 14.015625 117.660156 13.5625 117.90625 13.082031 118.101562 C 12.605469 118.300781 12.109375 118.453125 11.601562 118.554688 C 11.09375 118.652344 10.578125 118.703125 10.058594 118.703125 C 9.539062 118.703125 9.027344 118.652344 8.519531 118.554688 C 8.007812 118.453125 7.515625 118.300781 7.035156 118.101562 C 6.558594 117.90625 6.101562 117.660156 5.671875 117.375 C 5.238281 117.085938 4.839844 116.757812 4.472656 116.390625 C 4.105469 116.023438 3.777344 115.625 3.492188 115.195312 C 3.203125 114.761719 2.960938 114.308594 2.761719 113.828125 C 2.5625 113.347656 2.414062 112.855469 2.3125 112.34375 C 2.210938 111.835938 2.160156 111.324219 2.160156 110.804688 C 2.160156 110.285156 2.210938 109.773438 2.3125 109.261719 C 2.414062 108.753906 2.5625 108.261719 2.761719 107.78125 C 2.960938 107.300781 3.203125 106.847656 3.492188 106.414062 C 3.777344 105.984375 4.105469 105.585938 4.472656 105.21875 C 4.839844 104.851562 5.238281 104.523438 5.671875 104.234375 C 6.101562 103.949219 6.558594 103.703125 7.035156 103.503906 C 7.515625 103.308594 8.007812 103.15625 8.519531 103.054688 C 9.027344 102.953125 9.539062 102.90625 10.058594 102.90625 C 10.578125 102.90625 11.09375 102.953125 11.601562 103.054688 C 12.109375 103.15625 12.605469 103.308594 13.082031 103.503906 C 13.5625 103.703125 14.015625 103.949219 14.449219 104.234375 C 14.878906 104.523438 15.277344 104.851562 15.644531 105.21875 C 16.011719 105.585938 16.339844 105.984375 16.628906 106.414062 C 16.917969 106.847656 17.160156 107.300781 17.359375 107.78125 C 17.558594 108.261719 17.707031 108.753906 17.808594 109.261719 C 17.910156 109.773438 17.960938 110.285156 17.960938 110.804688 Z M 17.960938 110.804688 " fill-opacity="1" fill-rule="nonzero"/><path fill="#000000" d="M 15.839844 110.804688 C 15.726562 113.960938 13.304688 116.589844 10.054688 116.589844 C 6.808594 116.589844 4.269531 113.964844 4.269531 110.804688 C 4.269531 107.644531 6.894531 105.019531 10.054688 105.019531 C 13.214844 105.019531 15.722656 107.644531 15.839844 110.804688 C 15.941406 113.519531 20.171875 113.53125 20.070312 110.804688 C 19.871094 105.367188 15.652344 100.789062 10.054688 100.789062 C 4.460938 100.789062 0.0390625 105.355469 0.0390625 110.804688 C 0.0390625 116.25 4.609375 120.835938 10.054688 120.820312 C 15.503906 120.800781 19.867188 116.261719 20.070312 110.804688 C 20.171875 108.082031 15.941406 108.085938 15.839844 110.804688 Z M 15.839844 110.804688 " fill-opacity="1" fill-rule="nonzero"/><path fill="#000000" d="M 106.761719 112.992188 C 117.519531 115.601562 128.277344 118.207031 139.039062 120.816406 L 143.699219 121.945312 L 142.222656 119.34375 C 140.246094 130.480469 138.277344 141.617188 136.300781 152.753906 C 135.828125 155.414062 139.902344 156.554688 140.378906 153.878906 C 142.351562 142.742188 144.324219 131.605469 146.296875 120.46875 C 146.492188 119.371094 146.015625 118.15625 144.824219 117.867188 C 134.0625 115.257812 123.304688 112.652344 112.546875 110.042969 L 107.886719 108.914062 C 105.242188 108.269531 104.113281 112.351562 106.761719 112.992188 Z M 106.761719 112.992188 " fill-opacity="1" fill-rule="nonzero"/><path fill="#ffe7c0" d="M 144.449219 158.59375 C 144.449219 159.113281 144.398438 159.625 144.296875 160.136719 C 144.199219 160.644531 144.046875 161.136719 143.847656 161.617188 C 143.652344 162.097656 143.40625 162.550781 143.117188 162.984375 C 142.832031 163.414062 142.503906 163.8125 142.136719 164.179688 C 141.769531 164.546875 141.371094 164.875 140.9375 165.164062 C 140.507812 165.453125 140.054688 165.695312 139.574219 165.894531 C 139.09375 166.089844 138.601562 166.242188 138.089844 166.34375 C 137.582031 166.445312 137.070312 166.496094 136.550781 166.496094 C 136.03125 166.496094 135.519531 166.445312 135.007812 166.34375 C 134.5 166.242188 134.007812 166.089844 133.527344 165.894531 C 133.046875 165.695312 132.59375 165.453125 132.160156 165.164062 C 131.730469 164.875 131.332031 164.546875 130.964844 164.179688 C 130.597656 163.8125 130.269531 163.414062 129.980469 162.984375 C 129.695312 162.550781 129.449219 162.097656 129.25 161.617188 C 129.054688 161.136719 128.902344 160.644531 128.800781 160.136719 C 128.699219 159.625 128.648438 159.113281 128.648438 158.59375 C 128.648438 158.074219 128.699219 157.5625 128.800781 157.054688 C 128.902344 156.542969 129.054688 156.050781 129.25 155.570312 C 129.449219 155.089844 129.695312 154.636719 129.980469 154.207031 C 130.269531 153.773438 130.597656 153.375 130.964844 153.007812 C 131.332031 152.640625 131.730469 152.3125 132.160156 152.027344 C 132.59375 151.738281 133.046875 151.492188 133.527344 151.296875 C 134.007812 151.097656 134.5 150.945312 135.007812 150.847656 C 135.519531 150.746094 136.03125 150.695312 136.550781 150.695312 C 137.070312 150.695312 137.582031 150.746094 138.089844 150.847656 C 138.601562 150.945312 139.09375 151.097656 139.574219 151.296875 C 140.054688 151.492188 140.507812 151.738281 140.9375 152.027344 C 141.371094 152.3125 141.769531 152.640625 142.136719 153.007812 C 142.503906 153.375 142.832031 153.773438 143.117188 154.207031 C 143.40625 154.636719 143.652344 155.089844 143.847656 155.570312 C 144.046875 156.050781 144.199219 156.542969 144.296875 157.054688 C 144.398438 157.5625 144.449219 158.074219 144.449219 158.59375 Z M 144.449219 158.59375 " fill-opacity="1" fill-rule="nonzero"/><path fill="#000000" d="M 126.539062 158.59375 C 126.738281 164.03125 130.960938 168.609375 136.554688 168.609375 C 142.148438 168.609375 146.570312 164.042969 146.570312 158.59375 C 146.570312 153.148438 142 148.5625 136.554688 148.578125 C 131.105469 148.597656 126.742188 153.136719 126.539062 158.59375 C 126.4375 161.316406 130.667969 161.3125 130.769531 158.59375 C 130.882812 155.4375 133.304688 152.808594 136.554688 152.808594 C 139.800781 152.808594 142.339844 155.433594 142.339844 158.59375 C 142.339844 161.753906 139.714844 164.378906 136.554688 164.378906 C 133.394531 164.378906 130.886719 161.753906 130.769531 158.59375 C 130.667969 155.878906 126.4375 155.867188 126.539062 158.59375 Z M 126.539062 158.59375 " fill-opacity="1" fill-rule="nonzero"/><path fill="#000000" d="M 89.476562 160.4375 C 80.519531 166.351562 71.566406 172.265625 62.605469 178.179688 C 60.289062 179.710938 57.261719 181.078125 55.664062 183.417969 C 52.457031 188.121094 49.25 192.824219 46.046875 197.527344 C 43.074219 201.886719 40.097656 206.253906 37.125 210.613281 C 35.589844 212.867188 39.253906 214.988281 40.777344 212.75 C 46.671875 204.101562 52.566406 195.457031 58.460938 186.808594 C 58.835938 186.261719 59.332031 185.703125 59.621094 185.105469 C 60.03125 184.261719 58.566406 185.757812 59.257812 185.453125 C 60.710938 184.816406 62.113281 183.570312 63.433594 182.695312 L 79.671875 171.972656 C 83.652344 169.34375 87.628906 166.71875 91.605469 164.089844 C 93.871094 162.59375 91.75 158.933594 89.472656 160.4375 Z M 89.476562 160.4375 " fill-opacity="1" fill-rule="nonzero"/><path fill="#ffe7c0" d="M 35.148438 226.222656 L 17.597656 217.835938 L 20.683594 211.378906 C 22.132812 208.347656 25.761719 207.066406 28.792969 208.511719 L 40.855469 214.277344 Z M 35.148438 226.222656 " fill-opacity="1" fill-rule="nonzero"/><path fill="#000000" d="M 36.210938 224.394531 C 30.363281 221.601562 24.511719 218.804688 18.660156 216.007812 L 19.417969 218.902344 C 21.109375 215.367188 22.949219 208.277344 28.164062 210.546875 C 32.09375 212.253906 35.921875 214.25 39.785156 216.097656 L 39.03125 213.207031 C 37.125 217.191406 35.222656 221.167969 33.320312 225.152344 C 32.152344 227.597656 35.796875 229.746094 36.96875 227.289062 C 38.871094 223.304688 40.777344 219.324219 42.679688 215.339844 C 43.140625 214.378906 43.019531 212.972656 41.921875 212.449219 C 37.824219 210.492188 33.765625 208.410156 29.605469 206.578125 C 25.449219 204.746094 20.886719 206.421875 18.824219 210.375 C 17.730469 212.464844 16.785156 214.640625 15.769531 216.765625 C 15.308594 217.730469 15.429688 219.136719 16.527344 219.660156 C 22.375 222.453125 28.226562 225.25 34.078125 228.046875 C 36.523438 229.214844 38.671875 225.566406 36.210938 224.394531 Z M 36.210938 224.394531 " fill-opacity="1" fill-rule="nonzero"/></svg>