<svg xmlns="http://www.w3.org/2000/svg" xmlns:xlink="http://www.w3.org/1999/xlink" width="308" zoomAndPan="magnify" viewBox="0 0 230.87999 66" height="88" preserveAspectRatio="xMidYMid meet" version="1.0"><defs><clipPath id="3e9959c3c3"><path d="M 12 10 L 218 10 L 218 65.234375 L 12 65.234375 Z M 12 10 " clip-rule="nonzero"/></clipPath><clipPath id="6bbcb7536d"><path d="M 12 29 L 218 29 L 218 65.234375 L 12 65.234375 Z M 12 29 " clip-rule="nonzero"/></clipPath><clipPath id="92812731ad"><path d="M 0 0.015625 L 230 0.015625 L 230 20 L 0 20 Z M 0 0.015625 " clip-rule="nonzero"/></clipPath><clipPath id="a8ffe817c8"><path d="M 12 10 L 218 10 L 218 65.234375 L 12 65.234375 Z M 12 10 " clip-rule="nonzero"/></clipPath><clipPath id="8ba4ed3f58"><path d="M 12 29 L 218 29 L 218 65.234375 L 12 65.234375 Z M 12 29 " clip-rule="nonzero"/></clipPath><clipPath id="7b2e7ff0d5"><path d="M 0 0.015625 L 230 0.015625 L 230 20 L 0 20 Z M 0 0.015625 " clip-rule="nonzero"/></clipPath></defs><g clip-path="url(#3e9959c3c3)"><path fill="#8a4838" d="M 217.40625 10.308594 L 217.40625 40.996094 L 197.269531 40.996094 L 197.269531 51.054688 L 189.675781 51.054688 L 189.675781 58.078125 L 179.605469 58.078125 L 179.605469 65.242188 L 50.460938 65.242188 L 50.460938 58.078125 L 40.394531 58.078125 L 40.394531 51.054688 L 32.800781 51.054688 L 32.800781 40.996094 L 12.660156 40.996094 L 12.660156 10.308594 L 217.40625 10.308594 " fill-opacity="1" fill-rule="nonzero"/></g><g clip-path="url(#6bbcb7536d)"><path fill="#5e3028" d="M 179.605469 65.242188 L 50.460938 65.242188 L 50.460938 58.078125 L 40.394531 58.078125 L 40.394531 51.054688 L 32.800781 51.054688 L 32.800781 45.78125 L 32.902344 45.78125 L 32.902344 41.820312 L 32.800781 41.820312 L 32.800781 40.996094 L 24.804688 40.996094 L 24.804688 37.859375 L 20.757812 37.859375 L 20.757812 40.996094 L 12.660156 40.996094 L 12.660156 37.773438 L 16.707031 37.773438 L 16.707031 33.902344 L 12.660156 33.902344 L 12.660156 29.855469 L 16.707031 29.855469 L 16.707031 33.816406 L 20.757812 33.816406 L 20.757812 29.855469 L 28.855469 29.855469 L 28.855469 33.816406 L 32.902344 33.816406 L 32.902344 29.855469 L 36.949219 29.855469 L 36.949219 37.773438 L 41 37.773438 L 41 33.816406 L 53.148438 33.816406 L 53.148438 37.773438 L 61.246094 37.773438 L 61.246094 29.855469 L 65.292969 29.855469 L 65.292969 33.816406 L 69.34375 33.816406 L 69.34375 37.773438 L 73.394531 37.773438 L 73.394531 33.816406 L 82.140625 33.816406 L 82.140625 37.773438 L 86.839844 37.773438 L 86.839844 33.816406 L 91.539062 33.816406 L 91.539062 29.855469 L 96.238281 29.855469 L 96.238281 37.773438 L 105.632812 37.773438 L 105.632812 33.816406 L 119.730469 33.816406 L 119.730469 37.773438 L 124.429688 37.773438 L 124.429688 29.855469 L 129.128906 29.855469 L 129.128906 33.816406 L 133.828125 33.816406 L 133.828125 29.855469 L 143.226562 29.855469 L 143.226562 33.816406 L 147.925781 33.816406 L 147.925781 29.855469 L 152.625 29.855469 L 152.625 33.816406 L 156.671875 33.816406 L 156.671875 37.773438 L 160.722656 37.773438 L 160.722656 33.816406 L 164.773438 33.816406 L 164.773438 29.855469 L 168.820312 29.855469 L 168.820312 37.773438 L 176.917969 37.773438 L 176.917969 33.816406 L 189.0625 33.816406 L 189.0625 37.773438 L 193.113281 37.773438 L 193.113281 29.855469 L 197.164062 29.855469 L 197.164062 33.816406 L 201.210938 33.816406 L 201.210938 29.855469 L 209.3125 29.855469 L 209.3125 33.816406 L 213.355469 33.816406 L 213.355469 29.855469 L 217.40625 29.855469 L 217.40625 33.902344 L 213.355469 33.902344 L 213.355469 37.773438 L 217.40625 37.773438 L 217.40625 40.996094 L 209.3125 40.996094 L 209.3125 37.859375 L 205.261719 37.859375 L 205.261719 40.996094 L 197.269531 40.996094 L 197.269531 41.820312 L 197.164062 41.820312 L 197.164062 45.78125 L 197.269531 45.78125 L 197.269531 51.054688 L 189.675781 51.054688 L 189.675781 58.078125 L 179.605469 58.078125 L 179.605469 65.242188 M 185.019531 41.820312 L 185.019531 45.78125 L 189.0625 45.78125 L 189.0625 41.820312 L 185.019531 41.820312 M 172.867188 41.820312 L 172.867188 45.78125 L 176.917969 45.78125 L 176.917969 41.820312 L 172.867188 41.820312 M 160.722656 37.859375 L 160.722656 45.78125 L 164.773438 45.78125 L 164.773438 41.738281 L 168.820312 41.738281 L 168.820312 37.859375 L 160.722656 37.859375 M 147.925781 41.820312 L 147.925781 45.78125 L 152.625 45.78125 L 152.625 41.820312 L 147.925781 41.820312 M 129.128906 41.820312 L 129.128906 45.78125 L 133.828125 45.78125 L 133.828125 41.820312 L 129.128906 41.820312 M 115.03125 41.820312 L 115.03125 45.78125 L 119.730469 45.78125 L 119.730469 41.820312 L 115.03125 41.820312 M 100.9375 41.820312 L 100.9375 45.78125 L 105.632812 45.78125 L 105.632812 41.820312 L 100.9375 41.820312 M 86.839844 37.859375 L 86.839844 45.78125 L 91.539062 45.78125 L 91.539062 41.738281 L 96.238281 41.738281 L 96.238281 37.859375 L 86.839844 37.859375 M 61.246094 37.859375 L 61.246094 41.738281 L 65.292969 41.738281 L 65.292969 45.78125 L 69.34375 45.78125 L 69.34375 37.859375 L 61.246094 37.859375 M 53.148438 41.820312 L 53.148438 45.78125 L 57.199219 45.78125 L 57.199219 41.820312 L 53.148438 41.820312 M 41 41.820312 L 41 45.78125 L 45.050781 45.78125 L 45.050781 41.820312 L 41 41.820312 M 193.113281 37.859375 L 193.113281 41.738281 L 197.164062 41.738281 L 197.164062 37.859375 L 193.113281 37.859375 M 176.917969 37.859375 L 176.917969 41.738281 L 185.019531 41.738281 L 185.019531 37.859375 L 176.917969 37.859375 M 152.625 37.859375 L 152.625 41.738281 L 156.671875 41.738281 L 156.671875 37.859375 L 152.625 37.859375 M 138.527344 37.859375 L 138.527344 41.738281 L 143.226562 41.738281 L 143.226562 37.859375 L 138.527344 37.859375 M 124.429688 37.859375 L 124.429688 41.738281 L 129.128906 41.738281 L 129.128906 37.859375 L 124.429688 37.859375 M 105.632812 37.859375 L 105.632812 41.738281 L 115.03125 41.738281 L 115.03125 37.859375 L 105.632812 37.859375 M 73.394531 37.859375 L 73.394531 41.738281 L 82.140625 41.738281 L 82.140625 37.859375 L 73.394531 37.859375 M 45.050781 37.859375 L 45.050781 41.738281 L 53.148438 41.738281 L 53.148438 37.859375 L 45.050781 37.859375 M 32.902344 37.859375 L 32.902344 41.738281 L 36.949219 41.738281 L 36.949219 37.859375 L 32.902344 37.859375 M 201.210938 33.902344 L 201.210938 37.773438 L 205.261719 37.773438 L 205.261719 33.902344 L 201.210938 33.902344 M 147.925781 33.902344 L 147.925781 37.773438 L 152.625 37.773438 L 152.625 33.902344 L 147.925781 33.902344 M 133.828125 33.902344 L 133.828125 37.773438 L 138.527344 37.773438 L 138.527344 33.902344 L 133.828125 33.902344 M 24.804688 33.902344 L 24.804688 37.773438 L 28.855469 37.773438 L 28.855469 33.902344 L 24.804688 33.902344 " fill-opacity="1" fill-rule="nonzero"/></g><g clip-path="url(#92812731ad)"><path fill="#49b44a" d="M 0.617188 9.734375 C 0.617188 15.101562 4.972656 19.457031 10.351562 19.457031 L 219.714844 19.457031 C 225.089844 19.457031 229.453125 15.101562 229.453125 9.734375 C 229.453125 4.363281 225.089844 0.0078125 219.714844 0.0078125 L 10.351562 0.0078125 C 4.972656 0.0078125 0.617188 4.363281 0.617188 9.734375 " fill-opacity="1" fill-rule="nonzero"/></g><path fill="#80ce49" d="M 228.019531 6.742188 L 2.046875 6.742188 C 2 6.667969 1.957031 6.589844 1.914062 6.515625 C 3.597656 3.605469 6.746094 1.648438 10.351562 1.648438 L 219.714844 1.648438 C 223.320312 1.648438 226.472656 3.605469 228.152344 6.515625 C 228.109375 6.589844 228.066406 6.667969 228.019531 6.742188 " fill-opacity="1" fill-rule="nonzero"/><path fill="#367b37" d="M 219.714844 19.457031 L 10.351562 19.457031 C 4.972656 19.457031 0.617188 15.101562 0.617188 9.734375 C 0.617188 9.726562 0.617188 9.722656 0.617188 9.714844 C 0.617188 8.28125 0.9375 6.929688 1.5 5.710938 C 1.625 5.984375 1.761719 6.253906 1.914062 6.515625 C 1.867188 6.589844 1.824219 6.664062 1.785156 6.742188 L 2.046875 6.742188 C 3.757812 9.535156 6.832031 11.402344 10.351562 11.402344 L 219.714844 11.402344 C 223.234375 11.402344 226.308594 9.535156 228.019531 6.742188 L 228.28125 6.742188 C 228.238281 6.664062 228.199219 6.589844 228.152344 6.515625 C 228.300781 6.253906 228.441406 5.984375 228.566406 5.710938 C 229.128906 6.929688 229.449219 8.28125 229.453125 9.714844 C 229.453125 9.722656 229.453125 9.726562 229.453125 9.734375 C 229.453125 15.101562 225.089844 19.457031 219.714844 19.457031 " fill-opacity="1" fill-rule="nonzero"/><path fill="#5c8e36" d="M 228.28125 6.742188 L 228.019531 6.742188 C 228.066406 6.667969 228.109375 6.589844 228.152344 6.515625 C 228.199219 6.589844 228.238281 6.664062 228.28125 6.742188 M 2.046875 6.742188 L 1.785156 6.742188 C 1.824219 6.664062 1.867188 6.589844 1.914062 6.515625 C 1.957031 6.589844 2 6.667969 2.046875 6.742188 " fill-opacity="1" fill-rule="nonzero"/><g clip-path="url(#a8ffe817c8)"><path fill="#8a4838" d="M 217.40625 10.308594 L 217.40625 40.996094 L 197.269531 40.996094 L 197.269531 51.054688 L 189.675781 51.054688 L 189.675781 58.078125 L 179.605469 58.078125 L 179.605469 65.242188 L 50.460938 65.242188 L 50.460938 58.078125 L 40.394531 58.078125 L 40.394531 51.054688 L 32.800781 51.054688 L 32.800781 40.996094 L 12.660156 40.996094 L 12.660156 10.308594 L 217.40625 10.308594 " fill-opacity="1" fill-rule="nonzero"/></g><g clip-path="url(#8ba4ed3f58)"><path fill="#5e3028" d="M 179.605469 65.242188 L 50.460938 65.242188 L 50.460938 58.078125 L 40.394531 58.078125 L 40.394531 51.054688 L 32.800781 51.054688 L 32.800781 45.78125 L 32.902344 45.78125 L 32.902344 41.820312 L 32.800781 41.820312 L 32.800781 40.996094 L 24.804688 40.996094 L 24.804688 37.859375 L 20.757812 37.859375 L 20.757812 40.996094 L 12.660156 40.996094 L 12.660156 37.773438 L 16.707031 37.773438 L 16.707031 33.902344 L 12.660156 33.902344 L 12.660156 29.855469 L 16.707031 29.855469 L 16.707031 33.816406 L 20.757812 33.816406 L 20.757812 29.855469 L 28.855469 29.855469 L 28.855469 33.816406 L 32.902344 33.816406 L 32.902344 29.855469 L 36.949219 29.855469 L 36.949219 37.773438 L 41 37.773438 L 41 33.816406 L 53.148438 33.816406 L 53.148438 37.773438 L 61.246094 37.773438 L 61.246094 29.855469 L 65.292969 29.855469 L 65.292969 33.816406 L 69.34375 33.816406 L 69.34375 37.773438 L 73.394531 37.773438 L 73.394531 33.816406 L 82.140625 33.816406 L 82.140625 37.773438 L 86.839844 37.773438 L 86.839844 33.816406 L 91.539062 33.816406 L 91.539062 29.855469 L 96.238281 29.855469 L 96.238281 37.773438 L 105.632812 37.773438 L 105.632812 33.816406 L 119.730469 33.816406 L 119.730469 37.773438 L 124.429688 37.773438 L 124.429688 29.855469 L 129.128906 29.855469 L 129.128906 33.816406 L 133.828125 33.816406 L 133.828125 29.855469 L 143.226562 29.855469 L 143.226562 33.816406 L 147.925781 33.816406 L 147.925781 29.855469 L 152.625 29.855469 L 152.625 33.816406 L 156.671875 33.816406 L 156.671875 37.773438 L 160.722656 37.773438 L 160.722656 33.816406 L 164.773438 33.816406 L 164.773438 29.855469 L 168.820312 29.855469 L 168.820312 37.773438 L 176.917969 37.773438 L 176.917969 33.816406 L 189.0625 33.816406 L 189.0625 37.773438 L 193.113281 37.773438 L 193.113281 29.855469 L 197.164062 29.855469 L 197.164062 33.816406 L 201.210938 33.816406 L 201.210938 29.855469 L 209.3125 29.855469 L 209.3125 33.816406 L 213.355469 33.816406 L 213.355469 29.855469 L 217.40625 29.855469 L 217.40625 33.902344 L 213.355469 33.902344 L 213.355469 37.773438 L 217.40625 37.773438 L 217.40625 40.996094 L 209.3125 40.996094 L 209.3125 37.859375 L 205.261719 37.859375 L 205.261719 40.996094 L 197.269531 40.996094 L 197.269531 41.820312 L 197.164062 41.820312 L 197.164062 45.78125 L 197.269531 45.78125 L 197.269531 51.054688 L 189.675781 51.054688 L 189.675781 58.078125 L 179.605469 58.078125 L 179.605469 65.242188 M 185.019531 41.820312 L 185.019531 45.78125 L 189.0625 45.78125 L 189.0625 41.820312 L 185.019531 41.820312 M 172.867188 41.820312 L 172.867188 45.78125 L 176.917969 45.78125 L 176.917969 41.820312 L 172.867188 41.820312 M 160.722656 37.859375 L 160.722656 45.78125 L 164.773438 45.78125 L 164.773438 41.738281 L 168.820312 41.738281 L 168.820312 37.859375 L 160.722656 37.859375 M 147.925781 41.820312 L 147.925781 45.78125 L 152.625 45.78125 L 152.625 41.820312 L 147.925781 41.820312 M 129.128906 41.820312 L 129.128906 45.78125 L 133.828125 45.78125 L 133.828125 41.820312 L 129.128906 41.820312 M 115.03125 41.820312 L 115.03125 45.78125 L 119.730469 45.78125 L 119.730469 41.820312 L 115.03125 41.820312 M 100.9375 41.820312 L 100.9375 45.78125 L 105.632812 45.78125 L 105.632812 41.820312 L 100.9375 41.820312 M 86.839844 37.859375 L 86.839844 45.78125 L 91.539062 45.78125 L 91.539062 41.738281 L 96.238281 41.738281 L 96.238281 37.859375 L 86.839844 37.859375 M 61.246094 37.859375 L 61.246094 41.738281 L 65.292969 41.738281 L 65.292969 45.78125 L 69.34375 45.78125 L 69.34375 37.859375 L 61.246094 37.859375 M 53.148438 41.820312 L 53.148438 45.78125 L 57.199219 45.78125 L 57.199219 41.820312 L 53.148438 41.820312 M 41 41.820312 L 41 45.78125 L 45.050781 45.78125 L 45.050781 41.820312 L 41 41.820312 M 193.113281 37.859375 L 193.113281 41.738281 L 197.164062 41.738281 L 197.164062 37.859375 L 193.113281 37.859375 M 176.917969 37.859375 L 176.917969 41.738281 L 185.019531 41.738281 L 185.019531 37.859375 L 176.917969 37.859375 M 152.625 37.859375 L 152.625 41.738281 L 156.671875 41.738281 L 156.671875 37.859375 L 152.625 37.859375 M 138.527344 37.859375 L 138.527344 41.738281 L 143.226562 41.738281 L 143.226562 37.859375 L 138.527344 37.859375 M 124.429688 37.859375 L 124.429688 41.738281 L 129.128906 41.738281 L 129.128906 37.859375 L 124.429688 37.859375 M 105.632812 37.859375 L 105.632812 41.738281 L 115.03125 41.738281 L 115.03125 37.859375 L 105.632812 37.859375 M 73.394531 37.859375 L 73.394531 41.738281 L 82.140625 41.738281 L 82.140625 37.859375 L 73.394531 37.859375 M 45.050781 37.859375 L 45.050781 41.738281 L 53.148438 41.738281 L 53.148438 37.859375 L 45.050781 37.859375 M 32.902344 37.859375 L 32.902344 41.738281 L 36.949219 41.738281 L 36.949219 37.859375 L 32.902344 37.859375 M 201.210938 33.902344 L 201.210938 37.773438 L 205.261719 37.773438 L 205.261719 33.902344 L 201.210938 33.902344 M 147.925781 33.902344 L 147.925781 37.773438 L 152.625 37.773438 L 152.625 33.902344 L 147.925781 33.902344 M 133.828125 33.902344 L 133.828125 37.773438 L 138.527344 37.773438 L 138.527344 33.902344 L 133.828125 33.902344 M 24.804688 33.902344 L 24.804688 37.773438 L 28.855469 37.773438 L 28.855469 33.902344 L 24.804688 33.902344 " fill-opacity="1" fill-rule="nonzero"/></g><g clip-path="url(#7b2e7ff0d5)"><path fill="#49b44a" d="M 0.617188 9.734375 C 0.617188 15.101562 4.972656 19.457031 10.351562 19.457031 L 219.714844 19.457031 C 225.089844 19.457031 229.453125 15.101562 229.453125 9.734375 C 229.453125 4.363281 225.089844 0.0078125 219.714844 0.0078125 L 10.351562 0.0078125 C 4.972656 0.0078125 0.617188 4.363281 0.617188 9.734375 " fill-opacity="1" fill-rule="nonzero"/></g><path fill="#80ce49" d="M 228.019531 6.742188 L 2.046875 6.742188 C 2 6.667969 1.957031 6.589844 1.914062 6.515625 C 3.597656 3.605469 6.746094 1.648438 10.351562 1.648438 L 219.714844 1.648438 C 223.320312 1.648438 226.472656 3.605469 228.152344 6.515625 C 228.109375 6.589844 228.066406 6.667969 228.019531 6.742188 " fill-opacity="1" fill-rule="nonzero"/><path fill="#367b37" d="M 219.714844 19.457031 L 10.351562 19.457031 C 4.972656 19.457031 0.617188 15.101562 0.617188 9.734375 C 0.617188 9.726562 0.617188 9.722656 0.617188 9.714844 C 0.617188 8.28125 0.9375 6.929688 1.5 5.710938 C 1.625 5.984375 1.761719 6.253906 1.914062 6.515625 C 1.867188 6.589844 1.824219 6.664062 1.785156 6.742188 L 2.046875 6.742188 C 3.757812 9.535156 6.832031 11.402344 10.351562 11.402344 L 219.714844 11.402344 C 223.234375 11.402344 226.308594 9.535156 228.019531 6.742188 L 228.28125 6.742188 C 228.238281 6.664062 228.199219 6.589844 228.152344 6.515625 C 228.300781 6.253906 228.441406 5.984375 228.566406 5.710938 C 229.128906 6.929688 229.449219 8.28125 229.453125 9.714844 C 229.453125 9.722656 229.453125 9.726562 229.453125 9.734375 C 229.453125 15.101562 225.089844 19.457031 219.714844 19.457031 " fill-opacity="1" fill-rule="nonzero"/><path fill="#5c8e36" d="M 228.28125 6.742188 L 228.019531 6.742188 C 228.066406 6.667969 228.109375 6.589844 228.152344 6.515625 C 228.199219 6.589844 228.238281 6.664062 228.28125 6.742188 M 2.046875 6.742188 L 1.785156 6.742188 C 1.824219 6.664062 1.867188 6.589844 1.914062 6.515625 C 1.957031 6.589844 2 6.667969 2.046875 6.742188 " fill-opacity="1" fill-rule="nonzero"/></svg>