<svg xmlns="http://www.w3.org/2000/svg" xmlns:xlink="http://www.w3.org/1999/xlink" width="196" zoomAndPan="magnify" viewBox="0 0 147 68.249996" height="91" preserveAspectRatio="xMidYMid meet" version="1.0"><defs><clipPath id="9d176603c2"><path d="M 0.800781 0 L 146 0 L 146 67.507812 L 0.800781 67.507812 Z M 0.800781 0 " clip-rule="nonzero"/></clipPath><clipPath id="f8a98ca188"><path d="M 109 46 L 141 46 L 141 67.507812 L 109 67.507812 Z M 109 46 " clip-rule="nonzero"/></clipPath><clipPath id="9763056cb6"><path d="M 6 20 L 95 20 L 95 67.507812 L 6 67.507812 Z M 6 20 " clip-rule="nonzero"/></clipPath><clipPath id="239ac22a7e"><path d="M 0.800781 56 L 12 56 L 12 67.507812 L 0.800781 67.507812 Z M 0.800781 56 " clip-rule="nonzero"/></clipPath><clipPath id="d7935b40a6"><path d="M 114 62 L 120 62 L 120 67.507812 L 114 67.507812 Z M 114 62 " clip-rule="nonzero"/></clipPath><clipPath id="a45144b274"><path d="M 16 62 L 22 62 L 22 67.507812 L 16 67.507812 Z M 16 62 " clip-rule="nonzero"/></clipPath><clipPath id="57594b5bef"><path d="M 57 62 L 64 62 L 64 67.507812 L 57 67.507812 Z M 57 62 " clip-rule="nonzero"/></clipPath><clipPath id="903944fc63"><path d="M 42 62 L 48 62 L 48 67.507812 L 42 67.507812 Z M 42 62 " clip-rule="nonzero"/></clipPath><clipPath id="cff79f01c1"><path d="M 31 62 L 38 62 L 38 67.507812 L 31 67.507812 Z M 31 62 " clip-rule="nonzero"/></clipPath><clipPath id="65031077f4"><path d="M 78 56 L 89 56 L 89 67.507812 L 78 67.507812 Z M 78 56 " clip-rule="nonzero"/></clipPath><clipPath id="b7e7265616"><path d="M 135 62 L 141 62 L 141 67.507812 L 135 67.507812 Z M 135 62 " clip-rule="nonzero"/></clipPath><clipPath id="a5bf360ec2"><path d="M 94 62 L 110 62 L 110 67.507812 L 94 67.507812 Z M 94 62 " clip-rule="nonzero"/></clipPath><clipPath id="8c025b45bc"><path d="M 0.800781 0 L 146 0 L 146 67.507812 L 0.800781 67.507812 Z M 0.800781 0 " clip-rule="nonzero"/></clipPath><clipPath id="1baec9422f"><path d="M 109 46 L 141 46 L 141 67.507812 L 109 67.507812 Z M 109 46 " clip-rule="nonzero"/></clipPath><clipPath id="c5c7569bcb"><path d="M 6 20 L 95 20 L 95 67.507812 L 6 67.507812 Z M 6 20 " clip-rule="nonzero"/></clipPath><clipPath id="1c6b75b13e"><path d="M 0.800781 56 L 12 56 L 12 67.507812 L 0.800781 67.507812 Z M 0.800781 56 " clip-rule="nonzero"/></clipPath><clipPath id="6a306f30bc"><path d="M 114 62 L 120 62 L 120 67.507812 L 114 67.507812 Z M 114 62 " clip-rule="nonzero"/></clipPath><clipPath id="e2ef5b9963"><path d="M 16 62 L 22 62 L 22 67.507812 L 16 67.507812 Z M 16 62 " clip-rule="nonzero"/></clipPath><clipPath id="3c5f949f8e"><path d="M 57 62 L 64 62 L 64 67.507812 L 57 67.507812 Z M 57 62 " clip-rule="nonzero"/></clipPath><clipPath id="5174551595"><path d="M 42 62 L 48 62 L 48 67.507812 L 42 67.507812 Z M 42 62 " clip-rule="nonzero"/></clipPath><clipPath id="e98e5d1e02"><path d="M 31 62 L 38 62 L 38 67.507812 L 31 67.507812 Z M 31 62 " clip-rule="nonzero"/></clipPath><clipPath id="2b5f366a85"><path d="M 78 56 L 89 56 L 89 67.507812 L 78 67.507812 Z M 78 56 " clip-rule="nonzero"/></clipPath><clipPath id="8f382d65d0"><path d="M 135 62 L 141 62 L 141 67.507812 L 135 67.507812 Z M 135 62 " clip-rule="nonzero"/></clipPath><clipPath id="09abe9da42"><path d="M 94 62 L 110 62 L 110 67.507812 L 94 67.507812 Z M 94 62 " clip-rule="nonzero"/></clipPath></defs><g clip-path="url(#9d176603c2)"><path fill="#6a7e6f" d="M 140.636719 56.925781 L 140.636719 46.574219 L 130.285156 46.574219 L 130.285156 41.402344 L 119.9375 41.402344 L 119.9375 36.226562 L 114.761719 36.226562 L 114.761719 25.875 L 109.585938 25.875 L 109.585938 20.699219 L 104.410156 20.699219 L 104.410156 15.523438 L 99.238281 15.523438 L 99.238281 10.351562 L 94.0625 10.351562 L 94.0625 5.175781 L 83.710938 5.175781 L 83.710938 0 L 63.011719 0 L 63.011719 5.175781 L 52.660156 5.175781 L 52.660156 10.351562 L 47.484375 10.351562 L 47.484375 15.523438 L 42.308594 15.523438 L 42.308594 20.699219 L 37.136719 20.699219 L 37.136719 25.875 L 31.960938 25.875 L 31.960938 31.050781 L 26.785156 31.050781 L 26.785156 36.226562 L 16.539062 36.226562 L 16.539062 41.402344 L 11.363281 41.402344 L 11.363281 46.574219 L 6.1875 46.574219 L 6.1875 56.925781 L 0.910156 56.925781 L 0.910156 67.277344 L 145.8125 67.277344 L 145.8125 56.925781 Z M 140.636719 56.925781 " fill-opacity="1" fill-rule="nonzero"/></g><g clip-path="url(#f8a98ca188)"><path fill="#556458" d="M 140.636719 56.925781 L 140.636719 51.75 L 135.460938 51.75 L 135.460938 46.574219 L 130.285156 46.574219 L 130.285156 51.75 L 125.113281 51.75 L 125.113281 56.925781 L 114.761719 56.925781 L 114.761719 62.101562 L 109.585938 62.101562 L 109.585938 67.277344 L 140.636719 67.277344 L 140.636719 62.101562 L 135.460938 62.101562 L 135.460938 56.925781 Z M 140.636719 56.925781 " fill-opacity="1" fill-rule="nonzero"/></g><g clip-path="url(#9763056cb6)"><path fill="#556458" d="M 83.710938 41.402344 L 83.710938 46.574219 L 78.535156 46.574219 L 78.535156 51.75 L 68.1875 51.75 L 68.1875 46.574219 L 63.011719 46.574219 L 63.011719 41.402344 L 57.835938 41.402344 L 57.835938 36.226562 L 52.660156 36.226562 L 52.660156 31.050781 L 47.484375 31.050781 L 47.484375 25.875 L 42.308594 25.875 L 42.308594 20.699219 L 37.136719 20.699219 L 37.136719 25.875 L 31.960938 25.875 L 31.960938 31.050781 L 37.136719 31.050781 L 37.136719 36.226562 L 42.308594 36.226562 L 42.308594 41.402344 L 47.484375 41.402344 L 47.484375 51.75 L 42.308594 51.75 L 42.308594 56.925781 L 26.785156 56.925781 L 26.785156 51.75 L 21.609375 51.75 L 21.609375 46.574219 L 16.433594 46.574219 L 16.433594 41.402344 L 11.257812 41.402344 L 11.257812 46.574219 L 6.085938 46.574219 L 6.085938 56.925781 L 11.257812 56.925781 L 11.257812 67.277344 L 63.011719 67.277344 L 63.011719 62.101562 L 57.835938 62.101562 L 57.835938 51.75 L 52.660156 51.75 L 52.660156 46.574219 L 57.835938 46.574219 L 57.835938 51.75 L 63.011719 51.75 L 63.011719 56.925781 L 78.535156 56.925781 L 78.535156 67.277344 L 88.886719 67.277344 L 88.886719 56.925781 L 83.710938 56.925781 L 83.710938 51.75 L 88.886719 51.75 L 88.886719 46.574219 L 94.0625 46.574219 L 94.0625 36.226562 L 83.710938 36.226562 Z M 83.710938 41.402344 " fill-opacity="1" fill-rule="nonzero"/></g><path fill="#556458" d="M 94.0625 31.050781 L 99.238281 31.050781 L 99.238281 36.226562 L 94.0625 36.226562 Z M 94.0625 31.050781 " fill-opacity="1" fill-rule="nonzero"/><path fill="#556458" d="M 99.238281 36.226562 L 104.410156 36.226562 L 104.410156 41.402344 L 99.238281 41.402344 Z M 99.238281 36.226562 " fill-opacity="1" fill-rule="nonzero"/><path fill="#556458" d="M 99.238281 25.875 L 104.410156 25.875 L 104.410156 31.050781 L 99.238281 31.050781 Z M 99.238281 25.875 " fill-opacity="1" fill-rule="nonzero"/><path fill="#556458" d="M 31.960938 36.226562 L 37.136719 36.226562 L 37.136719 41.402344 L 31.960938 41.402344 Z M 31.960938 36.226562 " fill-opacity="1" fill-rule="nonzero"/><path fill="#556458" d="M 26.785156 46.574219 L 31.960938 46.574219 L 31.960938 51.75 L 26.785156 51.75 Z M 26.785156 46.574219 " fill-opacity="1" fill-rule="nonzero"/><path fill="#768b7b" d="M 52.660156 25.875 L 57.835938 25.875 L 57.835938 31.050781 L 52.660156 31.050781 Z M 52.660156 25.875 " fill-opacity="1" fill-rule="nonzero"/><path fill="#768b7b" d="M 57.835938 31.050781 L 63.011719 31.050781 L 63.011719 36.226562 L 57.835938 36.226562 Z M 57.835938 31.050781 " fill-opacity="1" fill-rule="nonzero"/><path fill="#768b7b" d="M 94.0625 15.523438 L 94.0625 10.351562 L 88.886719 10.351562 L 88.886719 5.175781 L 78.535156 5.175781 L 78.535156 0 L 63.011719 0 L 63.011719 5.175781 L 52.660156 5.175781 L 52.660156 10.351562 L 47.484375 10.351562 L 47.484375 15.523438 L 52.660156 15.523438 L 52.660156 20.699219 L 57.835938 20.699219 L 57.835938 25.875 L 83.710938 25.875 L 83.710938 20.699219 L 99.238281 20.699219 L 99.238281 15.523438 Z M 94.0625 15.523438 " fill-opacity="1" fill-rule="nonzero"/><path fill="#768b7b" d="M 119.9375 46.574219 L 119.9375 41.402344 L 114.761719 41.402344 L 114.761719 36.226562 L 109.585938 36.226562 L 109.585938 20.699219 L 99.238281 20.699219 L 99.238281 25.875 L 104.410156 25.875 L 104.410156 31.050781 L 99.238281 31.050781 L 99.238281 36.226562 L 104.410156 36.226562 L 104.410156 41.402344 L 99.238281 41.402344 L 99.238281 36.226562 L 94.0625 36.226562 L 94.0625 46.574219 L 88.886719 46.574219 L 88.886719 51.75 L 83.710938 51.75 L 83.710938 56.925781 L 94.0625 56.925781 L 94.0625 62.101562 L 109.585938 62.101562 L 109.585938 56.925781 L 114.761719 56.925781 L 114.761719 51.75 L 125.113281 51.75 L 125.113281 46.574219 Z M 119.9375 46.574219 " fill-opacity="1" fill-rule="nonzero"/><path fill="#768b7b" d="M 47.484375 20.699219 L 52.660156 20.699219 L 52.660156 25.875 L 47.484375 25.875 Z M 47.484375 20.699219 " fill-opacity="1" fill-rule="nonzero"/><path fill="#768b7b" d="M 63.011719 36.226562 L 68.1875 36.226562 L 68.1875 41.402344 L 63.011719 41.402344 Z M 63.011719 36.226562 " fill-opacity="1" fill-rule="nonzero"/><path fill="#768b7b" d="M 78.535156 36.226562 L 83.710938 36.226562 L 83.710938 41.402344 L 78.535156 41.402344 Z M 78.535156 36.226562 " fill-opacity="1" fill-rule="nonzero"/><path fill="#768b7b" d="M 83.710938 31.050781 L 88.886719 31.050781 L 88.886719 36.226562 L 83.710938 36.226562 Z M 83.710938 31.050781 " fill-opacity="1" fill-rule="nonzero"/><path fill="#768b7b" d="M 88.886719 25.875 L 94.0625 25.875 L 94.0625 31.050781 L 88.886719 31.050781 Z M 88.886719 25.875 " fill-opacity="1" fill-rule="nonzero"/><path fill="#768b7b" d="M 68.1875 41.402344 L 78.535156 41.402344 L 78.535156 46.574219 L 68.1875 46.574219 Z M 68.1875 41.402344 " fill-opacity="1" fill-rule="nonzero"/><path fill="#768b7b" d="M 42.308594 36.226562 L 37.136719 36.226562 L 37.136719 31.050781 L 26.785156 31.050781 L 26.785156 36.226562 L 21.609375 36.226562 L 21.609375 46.574219 L 26.785156 46.574219 L 26.785156 51.75 L 42.308594 51.75 L 42.308594 46.574219 L 47.484375 46.574219 L 47.484375 41.402344 L 42.308594 41.402344 Z M 42.308594 36.226562 " fill-opacity="1" fill-rule="nonzero"/><g clip-path="url(#239ac22a7e)"><path fill="#160059" d="M 0.910156 62.101562 L 0.910156 67.277344 L 11.257812 67.277344 L 11.257812 62.101562 L 6.085938 62.101562 L 6.085938 56.925781 L 0.910156 56.925781 Z M 0.910156 62.101562 " fill-opacity="1" fill-rule="nonzero"/></g><path fill="#160059" d="M 6.085938 46.574219 L 11.257812 46.574219 L 11.257812 56.925781 L 6.085938 56.925781 Z M 6.085938 46.574219 " fill-opacity="1" fill-rule="nonzero"/><path fill="#160059" d="M 47.484375 46.574219 L 52.660156 46.574219 L 52.660156 56.925781 L 47.484375 56.925781 Z M 47.484375 46.574219 " fill-opacity="1" fill-rule="nonzero"/><path fill="#160059" d="M 11.257812 41.402344 L 16.433594 41.402344 L 16.433594 46.574219 L 11.257812 46.574219 Z M 11.257812 41.402344 " fill-opacity="1" fill-rule="nonzero"/><path fill="#160059" d="M 52.660156 41.402344 L 57.835938 41.402344 L 57.835938 46.574219 L 52.660156 46.574219 Z M 52.660156 41.402344 " fill-opacity="1" fill-rule="nonzero"/><path fill="#160059" d="M 57.835938 46.574219 L 63.011719 46.574219 L 63.011719 51.75 L 57.835938 51.75 Z M 57.835938 46.574219 " fill-opacity="1" fill-rule="nonzero"/><path fill="#160059" d="M 63.011719 51.75 L 68.1875 51.75 L 68.1875 56.925781 L 63.011719 56.925781 Z M 63.011719 51.75 " fill-opacity="1" fill-rule="nonzero"/><path fill="#160059" d="M 83.710938 46.574219 L 88.886719 46.574219 L 88.886719 51.75 L 83.710938 51.75 Z M 83.710938 46.574219 " fill-opacity="1" fill-rule="nonzero"/><path fill="#160059" d="M 88.886719 41.402344 L 94.0625 41.402344 L 94.0625 46.574219 L 88.886719 46.574219 Z M 88.886719 41.402344 " fill-opacity="1" fill-rule="nonzero"/><path fill="#160059" d="M 47.484375 36.226562 L 52.660156 36.226562 L 52.660156 41.402344 L 47.484375 41.402344 Z M 47.484375 36.226562 " fill-opacity="1" fill-rule="nonzero"/><path fill="#160059" d="M 42.308594 31.050781 L 47.484375 31.050781 L 47.484375 36.226562 L 42.308594 36.226562 Z M 42.308594 31.050781 " fill-opacity="1" fill-rule="nonzero"/><g clip-path="url(#d7935b40a6)"><path fill="#160059" d="M 114.761719 62.101562 L 119.9375 62.101562 L 119.9375 67.277344 L 114.761719 67.277344 Z M 114.761719 62.101562 " fill-opacity="1" fill-rule="nonzero"/></g><path fill="#160059" d="M 125.113281 56.925781 L 130.285156 56.925781 L 130.285156 62.101562 L 125.113281 62.101562 Z M 125.113281 56.925781 " fill-opacity="1" fill-rule="nonzero"/><path fill="#160059" d="M 130.285156 51.75 L 135.460938 51.75 L 135.460938 56.925781 L 130.285156 56.925781 Z M 130.285156 51.75 " fill-opacity="1" fill-rule="nonzero"/><path fill="#160059" d="M 16.433594 36.226562 L 26.785156 36.226562 L 26.785156 41.402344 L 16.433594 41.402344 Z M 16.433594 36.226562 " fill-opacity="1" fill-rule="nonzero"/><path fill="#160059" d="M 26.785156 31.050781 L 31.960938 31.050781 L 31.960938 36.226562 L 26.785156 36.226562 Z M 26.785156 31.050781 " fill-opacity="1" fill-rule="nonzero"/><path fill="#160059" d="M 37.136719 25.875 L 31.960938 25.875 L 31.960938 31.050781 L 42.308594 31.050781 L 42.308594 20.699219 L 37.136719 20.699219 Z M 37.136719 25.875 " fill-opacity="1" fill-rule="nonzero"/><path fill="#160059" d="M 42.308594 15.523438 L 47.484375 15.523438 L 47.484375 20.699219 L 42.308594 20.699219 Z M 42.308594 15.523438 " fill-opacity="1" fill-rule="nonzero"/><path fill="#160059" d="M 47.484375 10.351562 L 52.660156 10.351562 L 52.660156 15.523438 L 47.484375 15.523438 Z M 47.484375 10.351562 " fill-opacity="1" fill-rule="nonzero"/><path fill="#160059" d="M 52.660156 5.175781 L 63.011719 5.175781 L 63.011719 10.351562 L 52.660156 10.351562 Z M 52.660156 5.175781 " fill-opacity="1" fill-rule="nonzero"/><path fill="#160059" d="M 63.011719 0 L 73.359375 0 L 73.359375 5.175781 L 63.011719 5.175781 Z M 63.011719 0 " fill-opacity="1" fill-rule="nonzero"/><g clip-path="url(#a45144b274)"><path fill="#160059" d="M 16.433594 62.101562 L 21.609375 62.101562 L 21.609375 67.277344 L 16.433594 67.277344 Z M 16.433594 62.101562 " fill-opacity="1" fill-rule="nonzero"/></g><path fill="#160059" d="M 52.660156 56.925781 L 57.835938 56.925781 L 57.835938 62.101562 L 52.660156 62.101562 Z M 52.660156 56.925781 " fill-opacity="1" fill-rule="nonzero"/><g clip-path="url(#57594b5bef)"><path fill="#160059" d="M 57.835938 62.101562 L 63.011719 62.101562 L 63.011719 67.277344 L 57.835938 67.277344 Z M 57.835938 62.101562 " fill-opacity="1" fill-rule="nonzero"/></g><g clip-path="url(#903944fc63)"><path fill="#160059" d="M 42.308594 62.101562 L 47.484375 62.101562 L 47.484375 67.277344 L 42.308594 67.277344 Z M 42.308594 62.101562 " fill-opacity="1" fill-rule="nonzero"/></g><g clip-path="url(#cff79f01c1)"><path fill="#160059" d="M 31.960938 62.101562 L 37.136719 62.101562 L 37.136719 67.277344 L 31.960938 67.277344 Z M 31.960938 62.101562 " fill-opacity="1" fill-rule="nonzero"/></g><path fill="#160059" d="M 78.535156 51.75 L 83.710938 51.75 L 83.710938 56.925781 L 78.535156 56.925781 Z M 78.535156 51.75 " fill-opacity="1" fill-rule="nonzero"/><g clip-path="url(#65031077f4)"><path fill="#160059" d="M 78.535156 62.101562 L 78.535156 67.277344 L 83.816406 67.277344 L 83.816406 62.101562 L 88.886719 62.101562 L 88.886719 56.925781 L 83.710938 56.925781 L 83.710938 62.101562 Z M 78.535156 62.101562 " fill-opacity="1" fill-rule="nonzero"/></g><g clip-path="url(#b7e7265616)"><path fill="#160059" d="M 135.460938 62.101562 L 140.636719 62.101562 L 140.636719 67.277344 L 135.460938 67.277344 Z M 135.460938 62.101562 " fill-opacity="1" fill-rule="nonzero"/></g><path fill="#97b19c" d="M 16.433594 41.402344 L 21.609375 41.402344 L 21.609375 46.574219 L 16.433594 46.574219 Z M 16.433594 41.402344 " fill-opacity="1" fill-rule="nonzero"/><path fill="#97b19c" d="M 21.609375 46.574219 L 26.785156 46.574219 L 26.785156 51.75 L 21.609375 51.75 Z M 21.609375 46.574219 " fill-opacity="1" fill-rule="nonzero"/><path fill="#97b19c" d="M 26.785156 51.75 L 42.308594 51.75 L 42.308594 56.925781 L 26.785156 56.925781 Z M 26.785156 51.75 " fill-opacity="1" fill-rule="nonzero"/><path fill="#97b19c" d="M 42.308594 15.523438 L 52.660156 15.523438 L 52.660156 20.699219 L 42.308594 20.699219 Z M 42.308594 15.523438 " fill-opacity="1" fill-rule="nonzero"/><path fill="#97b19c" d="M 52.660156 20.699219 L 57.835938 20.699219 L 57.835938 25.875 L 52.660156 25.875 Z M 52.660156 20.699219 " fill-opacity="1" fill-rule="nonzero"/><path fill="#97b19c" d="M 57.835938 25.875 L 63.011719 25.875 L 63.011719 31.050781 L 57.835938 31.050781 Z M 57.835938 25.875 " fill-opacity="1" fill-rule="nonzero"/><path fill="#97b19c" d="M 63.011719 31.050781 L 68.1875 31.050781 L 68.1875 36.226562 L 63.011719 36.226562 Z M 63.011719 31.050781 " fill-opacity="1" fill-rule="nonzero"/><path fill="#97b19c" d="M 68.1875 36.226562 L 78.535156 36.226562 L 78.535156 41.402344 L 68.1875 41.402344 Z M 68.1875 36.226562 " fill-opacity="1" fill-rule="nonzero"/><path fill="#97b19c" d="M 88.886719 5.175781 L 94.0625 5.175781 L 94.0625 10.351562 L 88.886719 10.351562 Z M 88.886719 5.175781 " fill-opacity="1" fill-rule="nonzero"/><path fill="#97b19c" d="M 94.0625 10.351562 L 99.238281 10.351562 L 99.238281 15.523438 L 94.0625 15.523438 Z M 94.0625 10.351562 " fill-opacity="1" fill-rule="nonzero"/><path fill="#97b19c" d="M 78.535156 31.050781 L 83.710938 31.050781 L 83.710938 36.226562 L 78.535156 36.226562 Z M 78.535156 31.050781 " fill-opacity="1" fill-rule="nonzero"/><path fill="#97b19c" d="M 88.886719 25.875 L 99.238281 25.875 L 99.238281 20.699219 L 83.710938 20.699219 L 83.710938 31.050781 L 88.886719 31.050781 Z M 88.886719 25.875 " fill-opacity="1" fill-rule="nonzero"/><path fill="#97b19c" d="M 99.238281 15.523438 L 104.410156 15.523438 L 104.410156 20.699219 L 99.238281 20.699219 Z M 99.238281 15.523438 " fill-opacity="1" fill-rule="nonzero"/><path fill="#97b19c" d="M 73.359375 25.875 L 78.535156 25.875 L 78.535156 31.050781 L 73.359375 31.050781 Z M 73.359375 25.875 " fill-opacity="1" fill-rule="nonzero"/><path fill="#97b19c" d="M 78.535156 15.523438 L 83.710938 15.523438 L 83.710938 20.699219 L 78.535156 20.699219 Z M 78.535156 15.523438 " fill-opacity="1" fill-rule="nonzero"/><path fill="#97b19c" d="M 83.710938 5.175781 L 88.886719 5.175781 L 88.886719 10.351562 L 83.710938 10.351562 Z M 83.710938 5.175781 " fill-opacity="1" fill-rule="nonzero"/><path fill="#97b19c" d="M 78.535156 0 L 83.710938 0 L 83.710938 5.175781 L 78.535156 5.175781 Z M 78.535156 0 " fill-opacity="1" fill-rule="nonzero"/><path fill="#97b19c" d="M 26.785156 41.402344 L 31.960938 41.402344 L 31.960938 46.574219 L 26.785156 46.574219 Z M 26.785156 41.402344 " fill-opacity="1" fill-rule="nonzero"/><path fill="#97b19c" d="M 104.410156 51.75 L 109.585938 51.75 L 109.585938 56.925781 L 104.410156 56.925781 Z M 104.410156 51.75 " fill-opacity="1" fill-rule="nonzero"/><path fill="#97b19c" d="M 109.585938 41.402344 L 114.761719 41.402344 L 114.761719 46.574219 L 109.585938 46.574219 Z M 109.585938 41.402344 " fill-opacity="1" fill-rule="nonzero"/><path fill="#97b19c" d="M 57.835938 36.226562 L 63.011719 36.226562 L 63.011719 41.402344 L 57.835938 41.402344 Z M 57.835938 36.226562 " fill-opacity="1" fill-rule="nonzero"/><path fill="#97b19c" d="M 47.484375 25.875 L 52.660156 25.875 L 52.660156 31.050781 L 47.484375 31.050781 Z M 47.484375 25.875 " fill-opacity="1" fill-rule="nonzero"/><path fill="#97b19c" d="M 109.585938 25.875 L 114.761719 25.875 L 114.761719 36.226562 L 109.585938 36.226562 Z M 109.585938 25.875 " fill-opacity="1" fill-rule="nonzero"/><path fill="#97b19c" d="M 114.761719 36.226562 L 119.9375 36.226562 L 119.9375 41.402344 L 114.761719 41.402344 Z M 114.761719 36.226562 " fill-opacity="1" fill-rule="nonzero"/><path fill="#97b19c" d="M 119.9375 41.402344 L 119.9375 46.574219 L 125.113281 46.574219 L 125.113281 51.75 L 130.285156 51.75 L 130.285156 41.402344 Z M 119.9375 41.402344 " fill-opacity="1" fill-rule="nonzero"/><path fill="#97b19c" d="M 42.308594 46.574219 L 47.484375 46.574219 L 47.484375 51.75 L 42.308594 51.75 Z M 42.308594 46.574219 " fill-opacity="1" fill-rule="nonzero"/><path fill="#97b19c" d="M 52.660156 46.574219 L 57.835938 46.574219 L 57.835938 51.75 L 52.660156 51.75 Z M 52.660156 46.574219 " fill-opacity="1" fill-rule="nonzero"/><path fill="#97b19c" d="M 57.835938 51.75 L 63.011719 51.75 L 63.011719 56.925781 L 57.835938 56.925781 Z M 57.835938 51.75 " fill-opacity="1" fill-rule="nonzero"/><path fill="#97b19c" d="M 63.011719 56.925781 L 78.535156 56.925781 L 78.535156 62.101562 L 63.011719 62.101562 Z M 63.011719 56.925781 " fill-opacity="1" fill-rule="nonzero"/><path fill="#97b19c" d="M 88.886719 56.925781 L 94.0625 56.925781 L 94.0625 62.101562 L 88.886719 62.101562 Z M 88.886719 56.925781 " fill-opacity="1" fill-rule="nonzero"/><g clip-path="url(#a5bf360ec2)"><path fill="#97b19c" d="M 94.0625 62.101562 L 109.585938 62.101562 L 109.585938 67.277344 L 94.0625 67.277344 Z M 94.0625 62.101562 " fill-opacity="1" fill-rule="nonzero"/></g><path fill="#97b19c" d="M 109.585938 56.925781 L 114.761719 56.925781 L 114.761719 62.101562 L 109.585938 62.101562 Z M 109.585938 56.925781 " fill-opacity="1" fill-rule="nonzero"/><path fill="#97b19c" d="M 114.761719 51.75 L 114.761719 56.925781 L 125.113281 56.925781 L 125.113281 51.75 Z M 114.761719 51.75 " fill-opacity="1" fill-rule="nonzero"/><g clip-path="url(#8c025b45bc)"><path fill="#6a7e6f" d="M 140.636719 56.925781 L 140.636719 46.574219 L 130.285156 46.574219 L 130.285156 41.402344 L 119.9375 41.402344 L 119.9375 36.226562 L 114.761719 36.226562 L 114.761719 25.875 L 109.585938 25.875 L 109.585938 20.699219 L 104.410156 20.699219 L 104.410156 15.523438 L 99.238281 15.523438 L 99.238281 10.351562 L 94.0625 10.351562 L 94.0625 5.175781 L 83.710938 5.175781 L 83.710938 0 L 63.011719 0 L 63.011719 5.175781 L 52.660156 5.175781 L 52.660156 10.351562 L 47.484375 10.351562 L 47.484375 15.523438 L 42.308594 15.523438 L 42.308594 20.699219 L 37.136719 20.699219 L 37.136719 25.875 L 31.960938 25.875 L 31.960938 31.050781 L 26.785156 31.050781 L 26.785156 36.226562 L 16.539062 36.226562 L 16.539062 41.402344 L 11.363281 41.402344 L 11.363281 46.574219 L 6.1875 46.574219 L 6.1875 56.925781 L 0.910156 56.925781 L 0.910156 67.277344 L 145.8125 67.277344 L 145.8125 56.925781 Z M 140.636719 56.925781 " fill-opacity="1" fill-rule="nonzero"/></g><g clip-path="url(#1baec9422f)"><path fill="#556458" d="M 140.636719 56.925781 L 140.636719 51.75 L 135.460938 51.75 L 135.460938 46.574219 L 130.285156 46.574219 L 130.285156 51.75 L 125.113281 51.75 L 125.113281 56.925781 L 114.761719 56.925781 L 114.761719 62.101562 L 109.585938 62.101562 L 109.585938 67.277344 L 140.636719 67.277344 L 140.636719 62.101562 L 135.460938 62.101562 L 135.460938 56.925781 Z M 140.636719 56.925781 " fill-opacity="1" fill-rule="nonzero"/></g><g clip-path="url(#c5c7569bcb)"><path fill="#556458" d="M 83.710938 41.402344 L 83.710938 46.574219 L 78.535156 46.574219 L 78.535156 51.75 L 68.1875 51.75 L 68.1875 46.574219 L 63.011719 46.574219 L 63.011719 41.402344 L 57.835938 41.402344 L 57.835938 36.226562 L 52.660156 36.226562 L 52.660156 31.050781 L 47.484375 31.050781 L 47.484375 25.875 L 42.308594 25.875 L 42.308594 20.699219 L 37.136719 20.699219 L 37.136719 25.875 L 31.960938 25.875 L 31.960938 31.050781 L 37.136719 31.050781 L 37.136719 36.226562 L 42.308594 36.226562 L 42.308594 41.402344 L 47.484375 41.402344 L 47.484375 51.75 L 42.308594 51.75 L 42.308594 56.925781 L 26.785156 56.925781 L 26.785156 51.75 L 21.609375 51.75 L 21.609375 46.574219 L 16.433594 46.574219 L 16.433594 41.402344 L 11.257812 41.402344 L 11.257812 46.574219 L 6.085938 46.574219 L 6.085938 56.925781 L 11.257812 56.925781 L 11.257812 67.277344 L 63.011719 67.277344 L 63.011719 62.101562 L 57.835938 62.101562 L 57.835938 51.75 L 52.660156 51.75 L 52.660156 46.574219 L 57.835938 46.574219 L 57.835938 51.75 L 63.011719 51.75 L 63.011719 56.925781 L 78.535156 56.925781 L 78.535156 67.277344 L 88.886719 67.277344 L 88.886719 56.925781 L 83.710938 56.925781 L 83.710938 51.75 L 88.886719 51.75 L 88.886719 46.574219 L 94.0625 46.574219 L 94.0625 36.226562 L 83.710938 36.226562 Z M 83.710938 41.402344 " fill-opacity="1" fill-rule="nonzero"/></g><path fill="#556458" d="M 94.0625 31.050781 L 99.238281 31.050781 L 99.238281 36.226562 L 94.0625 36.226562 Z M 94.0625 31.050781 " fill-opacity="1" fill-rule="nonzero"/><path fill="#556458" d="M 99.238281 36.226562 L 104.410156 36.226562 L 104.410156 41.402344 L 99.238281 41.402344 Z M 99.238281 36.226562 " fill-opacity="1" fill-rule="nonzero"/><path fill="#556458" d="M 99.238281 25.875 L 104.410156 25.875 L 104.410156 31.050781 L 99.238281 31.050781 Z M 99.238281 25.875 " fill-opacity="1" fill-rule="nonzero"/><path fill="#556458" d="M 31.960938 36.226562 L 37.136719 36.226562 L 37.136719 41.402344 L 31.960938 41.402344 Z M 31.960938 36.226562 " fill-opacity="1" fill-rule="nonzero"/><path fill="#556458" d="M 26.785156 46.574219 L 31.960938 46.574219 L 31.960938 51.75 L 26.785156 51.75 Z M 26.785156 46.574219 " fill-opacity="1" fill-rule="nonzero"/><path fill="#768b7b" d="M 52.660156 25.875 L 57.835938 25.875 L 57.835938 31.050781 L 52.660156 31.050781 Z M 52.660156 25.875 " fill-opacity="1" fill-rule="nonzero"/><path fill="#768b7b" d="M 57.835938 31.050781 L 63.011719 31.050781 L 63.011719 36.226562 L 57.835938 36.226562 Z M 57.835938 31.050781 " fill-opacity="1" fill-rule="nonzero"/><path fill="#768b7b" d="M 94.0625 15.523438 L 94.0625 10.351562 L 88.886719 10.351562 L 88.886719 5.175781 L 78.535156 5.175781 L 78.535156 0 L 63.011719 0 L 63.011719 5.175781 L 52.660156 5.175781 L 52.660156 10.351562 L 47.484375 10.351562 L 47.484375 15.523438 L 52.660156 15.523438 L 52.660156 20.699219 L 57.835938 20.699219 L 57.835938 25.875 L 83.710938 25.875 L 83.710938 20.699219 L 99.238281 20.699219 L 99.238281 15.523438 Z M 94.0625 15.523438 " fill-opacity="1" fill-rule="nonzero"/><path fill="#768b7b" d="M 119.9375 46.574219 L 119.9375 41.402344 L 114.761719 41.402344 L 114.761719 36.226562 L 109.585938 36.226562 L 109.585938 20.699219 L 99.238281 20.699219 L 99.238281 25.875 L 104.410156 25.875 L 104.410156 31.050781 L 99.238281 31.050781 L 99.238281 36.226562 L 104.410156 36.226562 L 104.410156 41.402344 L 99.238281 41.402344 L 99.238281 36.226562 L 94.0625 36.226562 L 94.0625 46.574219 L 88.886719 46.574219 L 88.886719 51.75 L 83.710938 51.75 L 83.710938 56.925781 L 94.0625 56.925781 L 94.0625 62.101562 L 109.585938 62.101562 L 109.585938 56.925781 L 114.761719 56.925781 L 114.761719 51.75 L 125.113281 51.75 L 125.113281 46.574219 Z M 119.9375 46.574219 " fill-opacity="1" fill-rule="nonzero"/><path fill="#768b7b" d="M 47.484375 20.699219 L 52.660156 20.699219 L 52.660156 25.875 L 47.484375 25.875 Z M 47.484375 20.699219 " fill-opacity="1" fill-rule="nonzero"/><path fill="#768b7b" d="M 63.011719 36.226562 L 68.1875 36.226562 L 68.1875 41.402344 L 63.011719 41.402344 Z M 63.011719 36.226562 " fill-opacity="1" fill-rule="nonzero"/><path fill="#768b7b" d="M 78.535156 36.226562 L 83.710938 36.226562 L 83.710938 41.402344 L 78.535156 41.402344 Z M 78.535156 36.226562 " fill-opacity="1" fill-rule="nonzero"/><path fill="#768b7b" d="M 83.710938 31.050781 L 88.886719 31.050781 L 88.886719 36.226562 L 83.710938 36.226562 Z M 83.710938 31.050781 " fill-opacity="1" fill-rule="nonzero"/><path fill="#768b7b" d="M 88.886719 25.875 L 94.0625 25.875 L 94.0625 31.050781 L 88.886719 31.050781 Z M 88.886719 25.875 " fill-opacity="1" fill-rule="nonzero"/><path fill="#768b7b" d="M 68.1875 41.402344 L 78.535156 41.402344 L 78.535156 46.574219 L 68.1875 46.574219 Z M 68.1875 41.402344 " fill-opacity="1" fill-rule="nonzero"/><path fill="#768b7b" d="M 42.308594 36.226562 L 37.136719 36.226562 L 37.136719 31.050781 L 26.785156 31.050781 L 26.785156 36.226562 L 21.609375 36.226562 L 21.609375 46.574219 L 26.785156 46.574219 L 26.785156 51.75 L 42.308594 51.75 L 42.308594 46.574219 L 47.484375 46.574219 L 47.484375 41.402344 L 42.308594 41.402344 Z M 42.308594 36.226562 " fill-opacity="1" fill-rule="nonzero"/><g clip-path="url(#1c6b75b13e)"><path fill="#160059" d="M 0.910156 62.101562 L 0.910156 67.277344 L 11.257812 67.277344 L 11.257812 62.101562 L 6.085938 62.101562 L 6.085938 56.925781 L 0.910156 56.925781 Z M 0.910156 62.101562 " fill-opacity="1" fill-rule="nonzero"/></g><path fill="#160059" d="M 6.085938 46.574219 L 11.257812 46.574219 L 11.257812 56.925781 L 6.085938 56.925781 Z M 6.085938 46.574219 " fill-opacity="1" fill-rule="nonzero"/><path fill="#160059" d="M 47.484375 46.574219 L 52.660156 46.574219 L 52.660156 56.925781 L 47.484375 56.925781 Z M 47.484375 46.574219 " fill-opacity="1" fill-rule="nonzero"/><path fill="#160059" d="M 11.257812 41.402344 L 16.433594 41.402344 L 16.433594 46.574219 L 11.257812 46.574219 Z M 11.257812 41.402344 " fill-opacity="1" fill-rule="nonzero"/><path fill="#160059" d="M 52.660156 41.402344 L 57.835938 41.402344 L 57.835938 46.574219 L 52.660156 46.574219 Z M 52.660156 41.402344 " fill-opacity="1" fill-rule="nonzero"/><path fill="#160059" d="M 57.835938 46.574219 L 63.011719 46.574219 L 63.011719 51.75 L 57.835938 51.75 Z M 57.835938 46.574219 " fill-opacity="1" fill-rule="nonzero"/><path fill="#160059" d="M 63.011719 51.75 L 68.1875 51.75 L 68.1875 56.925781 L 63.011719 56.925781 Z M 63.011719 51.75 " fill-opacity="1" fill-rule="nonzero"/><path fill="#160059" d="M 83.710938 46.574219 L 88.886719 46.574219 L 88.886719 51.75 L 83.710938 51.75 Z M 83.710938 46.574219 " fill-opacity="1" fill-rule="nonzero"/><path fill="#160059" d="M 88.886719 41.402344 L 94.0625 41.402344 L 94.0625 46.574219 L 88.886719 46.574219 Z M 88.886719 41.402344 " fill-opacity="1" fill-rule="nonzero"/><path fill="#160059" d="M 47.484375 36.226562 L 52.660156 36.226562 L 52.660156 41.402344 L 47.484375 41.402344 Z M 47.484375 36.226562 " fill-opacity="1" fill-rule="nonzero"/><path fill="#160059" d="M 42.308594 31.050781 L 47.484375 31.050781 L 47.484375 36.226562 L 42.308594 36.226562 Z M 42.308594 31.050781 " fill-opacity="1" fill-rule="nonzero"/><g clip-path="url(#6a306f30bc)"><path fill="#160059" d="M 114.761719 62.101562 L 119.9375 62.101562 L 119.9375 67.277344 L 114.761719 67.277344 Z M 114.761719 62.101562 " fill-opacity="1" fill-rule="nonzero"/></g><path fill="#160059" d="M 125.113281 56.925781 L 130.285156 56.925781 L 130.285156 62.101562 L 125.113281 62.101562 Z M 125.113281 56.925781 " fill-opacity="1" fill-rule="nonzero"/><path fill="#160059" d="M 130.285156 51.75 L 135.460938 51.75 L 135.460938 56.925781 L 130.285156 56.925781 Z M 130.285156 51.75 " fill-opacity="1" fill-rule="nonzero"/><path fill="#160059" d="M 16.433594 36.226562 L 26.785156 36.226562 L 26.785156 41.402344 L 16.433594 41.402344 Z M 16.433594 36.226562 " fill-opacity="1" fill-rule="nonzero"/><path fill="#160059" d="M 26.785156 31.050781 L 31.960938 31.050781 L 31.960938 36.226562 L 26.785156 36.226562 Z M 26.785156 31.050781 " fill-opacity="1" fill-rule="nonzero"/><path fill="#160059" d="M 37.136719 25.875 L 31.960938 25.875 L 31.960938 31.050781 L 42.308594 31.050781 L 42.308594 20.699219 L 37.136719 20.699219 Z M 37.136719 25.875 " fill-opacity="1" fill-rule="nonzero"/><path fill="#160059" d="M 42.308594 15.523438 L 47.484375 15.523438 L 47.484375 20.699219 L 42.308594 20.699219 Z M 42.308594 15.523438 " fill-opacity="1" fill-rule="nonzero"/><path fill="#160059" d="M 47.484375 10.351562 L 52.660156 10.351562 L 52.660156 15.523438 L 47.484375 15.523438 Z M 47.484375 10.351562 " fill-opacity="1" fill-rule="nonzero"/><path fill="#160059" d="M 52.660156 5.175781 L 63.011719 5.175781 L 63.011719 10.351562 L 52.660156 10.351562 Z M 52.660156 5.175781 " fill-opacity="1" fill-rule="nonzero"/><path fill="#160059" d="M 63.011719 0 L 73.359375 0 L 73.359375 5.175781 L 63.011719 5.175781 Z M 63.011719 0 " fill-opacity="1" fill-rule="nonzero"/><g clip-path="url(#e2ef5b9963)"><path fill="#160059" d="M 16.433594 62.101562 L 21.609375 62.101562 L 21.609375 67.277344 L 16.433594 67.277344 Z M 16.433594 62.101562 " fill-opacity="1" fill-rule="nonzero"/></g><path fill="#160059" d="M 52.660156 56.925781 L 57.835938 56.925781 L 57.835938 62.101562 L 52.660156 62.101562 Z M 52.660156 56.925781 " fill-opacity="1" fill-rule="nonzero"/><g clip-path="url(#3c5f949f8e)"><path fill="#160059" d="M 57.835938 62.101562 L 63.011719 62.101562 L 63.011719 67.277344 L 57.835938 67.277344 Z M 57.835938 62.101562 " fill-opacity="1" fill-rule="nonzero"/></g><g clip-path="url(#5174551595)"><path fill="#160059" d="M 42.308594 62.101562 L 47.484375 62.101562 L 47.484375 67.277344 L 42.308594 67.277344 Z M 42.308594 62.101562 " fill-opacity="1" fill-rule="nonzero"/></g><g clip-path="url(#e98e5d1e02)"><path fill="#160059" d="M 31.960938 62.101562 L 37.136719 62.101562 L 37.136719 67.277344 L 31.960938 67.277344 Z M 31.960938 62.101562 " fill-opacity="1" fill-rule="nonzero"/></g><path fill="#160059" d="M 78.535156 51.75 L 83.710938 51.75 L 83.710938 56.925781 L 78.535156 56.925781 Z M 78.535156 51.75 " fill-opacity="1" fill-rule="nonzero"/><g clip-path="url(#2b5f366a85)"><path fill="#160059" d="M 78.535156 62.101562 L 78.535156 67.277344 L 83.816406 67.277344 L 83.816406 62.101562 L 88.886719 62.101562 L 88.886719 56.925781 L 83.710938 56.925781 L 83.710938 62.101562 Z M 78.535156 62.101562 " fill-opacity="1" fill-rule="nonzero"/></g><g clip-path="url(#8f382d65d0)"><path fill="#160059" d="M 135.460938 62.101562 L 140.636719 62.101562 L 140.636719 67.277344 L 135.460938 67.277344 Z M 135.460938 62.101562 " fill-opacity="1" fill-rule="nonzero"/></g><path fill="#97b19c" d="M 16.433594 41.402344 L 21.609375 41.402344 L 21.609375 46.574219 L 16.433594 46.574219 Z M 16.433594 41.402344 " fill-opacity="1" fill-rule="nonzero"/><path fill="#97b19c" d="M 21.609375 46.574219 L 26.785156 46.574219 L 26.785156 51.75 L 21.609375 51.75 Z M 21.609375 46.574219 " fill-opacity="1" fill-rule="nonzero"/><path fill="#97b19c" d="M 26.785156 51.75 L 42.308594 51.75 L 42.308594 56.925781 L 26.785156 56.925781 Z M 26.785156 51.75 " fill-opacity="1" fill-rule="nonzero"/><path fill="#97b19c" d="M 42.308594 15.523438 L 52.660156 15.523438 L 52.660156 20.699219 L 42.308594 20.699219 Z M 42.308594 15.523438 " fill-opacity="1" fill-rule="nonzero"/><path fill="#97b19c" d="M 52.660156 20.699219 L 57.835938 20.699219 L 57.835938 25.875 L 52.660156 25.875 Z M 52.660156 20.699219 " fill-opacity="1" fill-rule="nonzero"/><path fill="#97b19c" d="M 57.835938 25.875 L 63.011719 25.875 L 63.011719 31.050781 L 57.835938 31.050781 Z M 57.835938 25.875 " fill-opacity="1" fill-rule="nonzero"/><path fill="#97b19c" d="M 63.011719 31.050781 L 68.1875 31.050781 L 68.1875 36.226562 L 63.011719 36.226562 Z M 63.011719 31.050781 " fill-opacity="1" fill-rule="nonzero"/><path fill="#97b19c" d="M 68.1875 36.226562 L 78.535156 36.226562 L 78.535156 41.402344 L 68.1875 41.402344 Z M 68.1875 36.226562 " fill-opacity="1" fill-rule="nonzero"/><path fill="#97b19c" d="M 88.886719 5.175781 L 94.0625 5.175781 L 94.0625 10.351562 L 88.886719 10.351562 Z M 88.886719 5.175781 " fill-opacity="1" fill-rule="nonzero"/><path fill="#97b19c" d="M 94.0625 10.351562 L 99.238281 10.351562 L 99.238281 15.523438 L 94.0625 15.523438 Z M 94.0625 10.351562 " fill-opacity="1" fill-rule="nonzero"/><path fill="#97b19c" d="M 78.535156 31.050781 L 83.710938 31.050781 L 83.710938 36.226562 L 78.535156 36.226562 Z M 78.535156 31.050781 " fill-opacity="1" fill-rule="nonzero"/><path fill="#97b19c" d="M 88.886719 25.875 L 99.238281 25.875 L 99.238281 20.699219 L 83.710938 20.699219 L 83.710938 31.050781 L 88.886719 31.050781 Z M 88.886719 25.875 " fill-opacity="1" fill-rule="nonzero"/><path fill="#97b19c" d="M 99.238281 15.523438 L 104.410156 15.523438 L 104.410156 20.699219 L 99.238281 20.699219 Z M 99.238281 15.523438 " fill-opacity="1" fill-rule="nonzero"/><path fill="#97b19c" d="M 73.359375 25.875 L 78.535156 25.875 L 78.535156 31.050781 L 73.359375 31.050781 Z M 73.359375 25.875 " fill-opacity="1" fill-rule="nonzero"/><path fill="#97b19c" d="M 78.535156 15.523438 L 83.710938 15.523438 L 83.710938 20.699219 L 78.535156 20.699219 Z M 78.535156 15.523438 " fill-opacity="1" fill-rule="nonzero"/><path fill="#97b19c" d="M 83.710938 5.175781 L 88.886719 5.175781 L 88.886719 10.351562 L 83.710938 10.351562 Z M 83.710938 5.175781 " fill-opacity="1" fill-rule="nonzero"/><path fill="#97b19c" d="M 78.535156 0 L 83.710938 0 L 83.710938 5.175781 L 78.535156 5.175781 Z M 78.535156 0 " fill-opacity="1" fill-rule="nonzero"/><path fill="#97b19c" d="M 26.785156 41.402344 L 31.960938 41.402344 L 31.960938 46.574219 L 26.785156 46.574219 Z M 26.785156 41.402344 " fill-opacity="1" fill-rule="nonzero"/><path fill="#97b19c" d="M 104.410156 51.75 L 109.585938 51.75 L 109.585938 56.925781 L 104.410156 56.925781 Z M 104.410156 51.75 " fill-opacity="1" fill-rule="nonzero"/><path fill="#97b19c" d="M 109.585938 41.402344 L 114.761719 41.402344 L 114.761719 46.574219 L 109.585938 46.574219 Z M 109.585938 41.402344 " fill-opacity="1" fill-rule="nonzero"/><path fill="#97b19c" d="M 57.835938 36.226562 L 63.011719 36.226562 L 63.011719 41.402344 L 57.835938 41.402344 Z M 57.835938 36.226562 " fill-opacity="1" fill-rule="nonzero"/><path fill="#97b19c" d="M 47.484375 25.875 L 52.660156 25.875 L 52.660156 31.050781 L 47.484375 31.050781 Z M 47.484375 25.875 " fill-opacity="1" fill-rule="nonzero"/><path fill="#97b19c" d="M 109.585938 25.875 L 114.761719 25.875 L 114.761719 36.226562 L 109.585938 36.226562 Z M 109.585938 25.875 " fill-opacity="1" fill-rule="nonzero"/><path fill="#97b19c" d="M 114.761719 36.226562 L 119.9375 36.226562 L 119.9375 41.402344 L 114.761719 41.402344 Z M 114.761719 36.226562 " fill-opacity="1" fill-rule="nonzero"/><path fill="#97b19c" d="M 119.9375 41.402344 L 119.9375 46.574219 L 125.113281 46.574219 L 125.113281 51.75 L 130.285156 51.75 L 130.285156 41.402344 Z M 119.9375 41.402344 " fill-opacity="1" fill-rule="nonzero"/><path fill="#97b19c" d="M 42.308594 46.574219 L 47.484375 46.574219 L 47.484375 51.75 L 42.308594 51.75 Z M 42.308594 46.574219 " fill-opacity="1" fill-rule="nonzero"/><path fill="#97b19c" d="M 52.660156 46.574219 L 57.835938 46.574219 L 57.835938 51.75 L 52.660156 51.75 Z M 52.660156 46.574219 " fill-opacity="1" fill-rule="nonzero"/><path fill="#97b19c" d="M 57.835938 51.75 L 63.011719 51.75 L 63.011719 56.925781 L 57.835938 56.925781 Z M 57.835938 51.75 " fill-opacity="1" fill-rule="nonzero"/><path fill="#97b19c" d="M 63.011719 56.925781 L 78.535156 56.925781 L 78.535156 62.101562 L 63.011719 62.101562 Z M 63.011719 56.925781 " fill-opacity="1" fill-rule="nonzero"/><path fill="#97b19c" d="M 88.886719 56.925781 L 94.0625 56.925781 L 94.0625 62.101562 L 88.886719 62.101562 Z M 88.886719 56.925781 " fill-opacity="1" fill-rule="nonzero"/><g clip-path="url(#09abe9da42)"><path fill="#97b19c" d="M 94.0625 62.101562 L 109.585938 62.101562 L 109.585938 67.277344 L 94.0625 67.277344 Z M 94.0625 62.101562 " fill-opacity="1" fill-rule="nonzero"/></g><path fill="#97b19c" d="M 109.585938 56.925781 L 114.761719 56.925781 L 114.761719 62.101562 L 109.585938 62.101562 Z M 109.585938 56.925781 " fill-opacity="1" fill-rule="nonzero"/><path fill="#97b19c" d="M 114.761719 51.75 L 114.761719 56.925781 L 125.113281 56.925781 L 125.113281 51.75 Z M 114.761719 51.75 " fill-opacity="1" fill-rule="nonzero"/></svg>