<svg xmlns="http://www.w3.org/2000/svg" xmlns:xlink="http://www.w3.org/1999/xlink" width="1668" zoomAndPan="magnify" viewBox="0 0 1251 298.499991" height="398" preserveAspectRatio="xMidYMid meet" version="1.0"><defs><g/></defs><g fill="#74a050" fill-opacity="1"><g transform="translate(55.502467, 234.04656)"><g><path d="M 0 -20.46875 L 0 -163.8125 L 122.859375 -163.8125 L 122.859375 -143.328125 L 143.328125 -143.328125 L 143.328125 -81.90625 L 122.859375 -81.90625 L 122.859375 -61.421875 L 40.953125 -61.421875 L 40.953125 -20.46875 Z M 40.953125 -81.90625 L 102.375 -81.90625 L 102.375 -143.328125 L 40.953125 -143.328125 Z M 40.953125 -81.90625 "/></g></g></g><g fill="#74a050" fill-opacity="1"><g transform="translate(219.313986, 234.04656)"><g><path d="M 0 -20.46875 L 0 -122.859375 L 20.46875 -122.859375 L 20.46875 -143.328125 L 40.953125 -143.328125 L 40.953125 -163.8125 L 102.375 -163.8125 L 102.375 -143.328125 L 122.859375 -143.328125 L 122.859375 -122.859375 L 143.328125 -122.859375 L 143.328125 -20.46875 L 102.375 -20.46875 L 102.375 -61.421875 L 40.953125 -61.421875 L 40.953125 -20.46875 Z M 40.953125 -81.90625 L 102.375 -81.90625 L 102.375 -122.859375 L 81.90625 -122.859375 L 81.90625 -143.328125 L 61.421875 -143.328125 L 61.421875 -122.859375 L 40.953125 -122.859375 Z M 40.953125 -81.90625 "/></g></g></g><g fill="#74a050" fill-opacity="1"><g transform="translate(383.125506, 234.04656)"><g><path d="M 61.421875 -20.46875 L 61.421875 -143.328125 L 20.46875 -143.328125 L 20.46875 -163.8125 L 143.328125 -163.8125 L 143.328125 -143.328125 L 102.375 -143.328125 L 102.375 -20.46875 Z M 61.421875 -20.46875 "/></g></g></g><g fill="#74a050" fill-opacity="1"><g transform="translate(546.937018, 234.04656)"><g><path d="M 0 -20.46875 L 0 -163.8125 L 40.953125 -163.8125 L 40.953125 -102.375 L 102.375 -102.375 L 102.375 -163.8125 L 143.328125 -163.8125 L 143.328125 -20.46875 L 102.375 -20.46875 L 102.375 -81.90625 L 40.953125 -81.90625 L 40.953125 -20.46875 Z M 0 -20.46875 "/></g></g></g><g fill="#74a050" fill-opacity="1"><g transform="translate(710.748552, 234.04656)"><g><path d="M 20.46875 -20.46875 L 20.46875 -40.953125 L 61.421875 -40.953125 L 61.421875 -143.328125 L 20.46875 -143.328125 L 20.46875 -163.8125 L 143.328125 -163.8125 L 143.328125 -143.328125 L 102.375 -143.328125 L 102.375 -40.953125 L 143.328125 -40.953125 L 143.328125 -20.46875 Z M 20.46875 -20.46875 "/></g></g></g><g fill="#74a050" fill-opacity="1"><g transform="translate(874.560042, 234.04656)"><g><path d="M 0 -20.46875 L 0 -163.8125 L 143.328125 -163.8125 L 143.328125 -143.328125 L 40.953125 -143.328125 L 40.953125 -102.375 L 122.859375 -102.375 L 122.859375 -81.90625 L 40.953125 -81.90625 L 40.953125 -20.46875 Z M 0 -20.46875 "/></g></g></g><g fill="#74a050" fill-opacity="1"><g transform="translate(1038.371577, 234.04656)"><g><path d="M 61.421875 -20.46875 L 61.421875 -81.90625 L 40.953125 -81.90625 L 40.953125 -102.375 L 20.46875 -102.375 L 20.46875 -163.8125 L 61.421875 -163.8125 L 61.421875 -102.375 L 102.375 -102.375 L 102.375 -163.8125 L 143.328125 -163.8125 L 143.328125 -102.375 L 122.859375 -102.375 L 122.859375 -81.90625 L 102.375 -81.90625 L 102.375 -20.46875 Z M 61.421875 -20.46875 "/></g></g></g><g fill="#420e6b" fill-opacity="1"><g transform="translate(48.262399, 226.80649)"><g><path d="M 0 -20.46875 L 0 -163.8125 L 122.859375 -163.8125 L 122.859375 -143.328125 L 143.328125 -143.328125 L 143.328125 -81.90625 L 122.859375 -81.90625 L 122.859375 -61.421875 L 40.953125 -61.421875 L 40.953125 -20.46875 Z M 40.953125 -81.90625 L 102.375 -81.90625 L 102.375 -143.328125 L 40.953125 -143.328125 Z M 40.953125 -81.90625 "/></g></g></g><g fill="#420e6b" fill-opacity="1"><g transform="translate(212.073919, 226.80649)"><g><path d="M 0 -20.46875 L 0 -122.859375 L 20.46875 -122.859375 L 20.46875 -143.328125 L 40.953125 -143.328125 L 40.953125 -163.8125 L 102.375 -163.8125 L 102.375 -143.328125 L 122.859375 -143.328125 L 122.859375 -122.859375 L 143.328125 -122.859375 L 143.328125 -20.46875 L 102.375 -20.46875 L 102.375 -61.421875 L 40.953125 -61.421875 L 40.953125 -20.46875 Z M 40.953125 -81.90625 L 102.375 -81.90625 L 102.375 -122.859375 L 81.90625 -122.859375 L 81.90625 -143.328125 L 61.421875 -143.328125 L 61.421875 -122.859375 L 40.953125 -122.859375 Z M 40.953125 -81.90625 "/></g></g></g><g fill="#420e6b" fill-opacity="1"><g transform="translate(375.885438, 226.80649)"><g><path d="M 61.421875 -20.46875 L 61.421875 -143.328125 L 20.46875 -143.328125 L 20.46875 -163.8125 L 143.328125 -163.8125 L 143.328125 -143.328125 L 102.375 -143.328125 L 102.375 -20.46875 Z M 61.421875 -20.46875 "/></g></g></g><g fill="#420e6b" fill-opacity="1"><g transform="translate(539.696951, 226.80649)"><g><path d="M 0 -20.46875 L 0 -163.8125 L 40.953125 -163.8125 L 40.953125 -102.375 L 102.375 -102.375 L 102.375 -163.8125 L 143.328125 -163.8125 L 143.328125 -20.46875 L 102.375 -20.46875 L 102.375 -81.90625 L 40.953125 -81.90625 L 40.953125 -20.46875 Z M 0 -20.46875 "/></g></g></g><g fill="#420e6b" fill-opacity="1"><g transform="translate(703.508485, 226.80649)"><g><path d="M 20.46875 -20.46875 L 20.46875 -40.953125 L 61.421875 -40.953125 L 61.421875 -143.328125 L 20.46875 -143.328125 L 20.46875 -163.8125 L 143.328125 -163.8125 L 143.328125 -143.328125 L 102.375 -143.328125 L 102.375 -40.953125 L 143.328125 -40.953125 L 143.328125 -20.46875 Z M 20.46875 -20.46875 "/></g></g></g><g fill="#420e6b" fill-opacity="1"><g transform="translate(867.319975, 226.80649)"><g><path d="M 0 -20.46875 L 0 -163.8125 L 143.328125 -163.8125 L 143.328125 -143.328125 L 40.953125 -143.328125 L 40.953125 -102.375 L 122.859375 -102.375 L 122.859375 -81.90625 L 40.953125 -81.90625 L 40.953125 -20.46875 Z M 0 -20.46875 "/></g></g></g><g fill="#420e6b" fill-opacity="1"><g transform="translate(1031.131509, 226.80649)"><g><path d="M 61.421875 -20.46875 L 61.421875 -81.90625 L 40.953125 -81.90625 L 40.953125 -102.375 L 20.46875 -102.375 L 20.46875 -163.8125 L 61.421875 -163.8125 L 61.421875 -102.375 L 102.375 -102.375 L 102.375 -163.8125 L 143.328125 -163.8125 L 143.328125 -102.375 L 122.859375 -102.375 L 122.859375 -81.90625 L 102.375 -81.90625 L 102.375 -20.46875 Z M 61.421875 -20.46875 "/></g></g></g><g fill="#74a050" fill-opacity="1"><g transform="translate(55.502467, 234.04656)"><g><path d="M 0 -20.46875 L 0 -163.8125 L 122.859375 -163.8125 L 122.859375 -143.328125 L 143.328125 -143.328125 L 143.328125 -81.90625 L 122.859375 -81.90625 L 122.859375 -61.421875 L 40.953125 -61.421875 L 40.953125 -20.46875 Z M 40.953125 -81.90625 L 102.375 -81.90625 L 102.375 -143.328125 L 40.953125 -143.328125 Z M 40.953125 -81.90625 "/></g></g></g><g fill="#74a050" fill-opacity="1"><g transform="translate(219.313986, 234.04656)"><g><path d="M 0 -20.46875 L 0 -122.859375 L 20.46875 -122.859375 L 20.46875 -143.328125 L 40.953125 -143.328125 L 40.953125 -163.8125 L 102.375 -163.8125 L 102.375 -143.328125 L 122.859375 -143.328125 L 122.859375 -122.859375 L 143.328125 -122.859375 L 143.328125 -20.46875 L 102.375 -20.46875 L 102.375 -61.421875 L 40.953125 -61.421875 L 40.953125 -20.46875 Z M 40.953125 -81.90625 L 102.375 -81.90625 L 102.375 -122.859375 L 81.90625 -122.859375 L 81.90625 -143.328125 L 61.421875 -143.328125 L 61.421875 -122.859375 L 40.953125 -122.859375 Z M 40.953125 -81.90625 "/></g></g></g><g fill="#74a050" fill-opacity="1"><g transform="translate(383.125506, 234.04656)"><g><path d="M 61.421875 -20.46875 L 61.421875 -143.328125 L 20.46875 -143.328125 L 20.46875 -163.8125 L 143.328125 -163.8125 L 143.328125 -143.328125 L 102.375 -143.328125 L 102.375 -20.46875 Z M 61.421875 -20.46875 "/></g></g></g><g fill="#74a050" fill-opacity="1"><g transform="translate(546.937018, 234.04656)"><g><path d="M 0 -20.46875 L 0 -163.8125 L 40.953125 -163.8125 L 40.953125 -102.375 L 102.375 -102.375 L 102.375 -163.8125 L 143.328125 -163.8125 L 143.328125 -20.46875 L 102.375 -20.46875 L 102.375 -81.90625 L 40.953125 -81.90625 L 40.953125 -20.46875 Z M 0 -20.46875 "/></g></g></g><g fill="#74a050" fill-opacity="1"><g transform="translate(710.748552, 234.04656)"><g><path d="M 20.46875 -20.46875 L 20.46875 -40.953125 L 61.421875 -40.953125 L 61.421875 -143.328125 L 20.46875 -143.328125 L 20.46875 -163.8125 L 143.328125 -163.8125 L 143.328125 -143.328125 L 102.375 -143.328125 L 102.375 -40.953125 L 143.328125 -40.953125 L 143.328125 -20.46875 Z M 20.46875 -20.46875 "/></g></g></g><g fill="#74a050" fill-opacity="1"><g transform="translate(874.560042, 234.04656)"><g><path d="M 0 -20.46875 L 0 -163.8125 L 143.328125 -163.8125 L 143.328125 -143.328125 L 40.953125 -143.328125 L 40.953125 -102.375 L 122.859375 -102.375 L 122.859375 -81.90625 L 40.953125 -81.90625 L 40.953125 -20.46875 Z M 0 -20.46875 "/></g></g></g><g fill="#74a050" fill-opacity="1"><g transform="translate(1038.371577, 234.04656)"><g><path d="M 61.421875 -20.46875 L 61.421875 -81.90625 L 40.953125 -81.90625 L 40.953125 -102.375 L 20.46875 -102.375 L 20.46875 -163.8125 L 61.421875 -163.8125 L 61.421875 -102.375 L 102.375 -102.375 L 102.375 -163.8125 L 143.328125 -163.8125 L 143.328125 -102.375 L 122.859375 -102.375 L 122.859375 -81.90625 L 102.375 -81.90625 L 102.375 -20.46875 Z M 61.421875 -20.46875 "/></g></g></g><g fill="#420e6b" fill-opacity="1"><g transform="translate(48.262399, 226.80649)"><g><path d="M 0 -20.46875 L 0 -163.8125 L 122.859375 -163.8125 L 122.859375 -143.328125 L 143.328125 -143.328125 L 143.328125 -81.90625 L 122.859375 -81.90625 L 122.859375 -61.421875 L 40.953125 -61.421875 L 40.953125 -20.46875 Z M 40.953125 -81.90625 L 102.375 -81.90625 L 102.375 -143.328125 L 40.953125 -143.328125 Z M 40.953125 -81.90625 "/></g></g></g><g fill="#420e6b" fill-opacity="1"><g transform="translate(212.073919, 226.80649)"><g><path d="M 0 -20.46875 L 0 -122.859375 L 20.46875 -122.859375 L 20.46875 -143.328125 L 40.953125 -143.328125 L 40.953125 -163.8125 L 102.375 -163.8125 L 102.375 -143.328125 L 122.859375 -143.328125 L 122.859375 -122.859375 L 143.328125 -122.859375 L 143.328125 -20.46875 L 102.375 -20.46875 L 102.375 -61.421875 L 40.953125 -61.421875 L 40.953125 -20.46875 Z M 40.953125 -81.90625 L 102.375 -81.90625 L 102.375 -122.859375 L 81.90625 -122.859375 L 81.90625 -143.328125 L 61.421875 -143.328125 L 61.421875 -122.859375 L 40.953125 -122.859375 Z M 40.953125 -81.90625 "/></g></g></g><g fill="#420e6b" fill-opacity="1"><g transform="translate(375.885438, 226.80649)"><g><path d="M 61.421875 -20.46875 L 61.421875 -143.328125 L 20.46875 -143.328125 L 20.46875 -163.8125 L 143.328125 -163.8125 L 143.328125 -143.328125 L 102.375 -143.328125 L 102.375 -20.46875 Z M 61.421875 -20.46875 "/></g></g></g><g fill="#420e6b" fill-opacity="1"><g transform="translate(539.696951, 226.80649)"><g><path d="M 0 -20.46875 L 0 -163.8125 L 40.953125 -163.8125 L 40.953125 -102.375 L 102.375 -102.375 L 102.375 -163.8125 L 143.328125 -163.8125 L 143.328125 -20.46875 L 102.375 -20.46875 L 102.375 -81.90625 L 40.953125 -81.90625 L 40.953125 -20.46875 Z M 0 -20.46875 "/></g></g></g><g fill="#420e6b" fill-opacity="1"><g transform="translate(703.508485, 226.80649)"><g><path d="M 20.46875 -20.46875 L 20.46875 -40.953125 L 61.421875 -40.953125 L 61.421875 -143.328125 L 20.46875 -143.328125 L 20.46875 -163.8125 L 143.328125 -163.8125 L 143.328125 -143.328125 L 102.375 -143.328125 L 102.375 -40.953125 L 143.328125 -40.953125 L 143.328125 -20.46875 Z M 20.46875 -20.46875 "/></g></g></g><g fill="#420e6b" fill-opacity="1"><g transform="translate(867.319975, 226.80649)"><g><path d="M 0 -20.46875 L 0 -163.8125 L 143.328125 -163.8125 L 143.328125 -143.328125 L 40.953125 -143.328125 L 40.953125 -102.375 L 122.859375 -102.375 L 122.859375 -81.90625 L 40.953125 -81.90625 L 40.953125 -20.46875 Z M 0 -20.46875 "/></g></g></g><g fill="#420e6b" fill-opacity="1"><g transform="translate(1031.131509, 226.80649)"><g><path d="M 61.421875 -20.46875 L 61.421875 -81.90625 L 40.953125 -81.90625 L 40.953125 -102.375 L 20.46875 -102.375 L 20.46875 -163.8125 L 61.421875 -163.8125 L 61.421875 -102.375 L 102.375 -102.375 L 102.375 -163.8125 L 143.328125 -163.8125 L 143.328125 -102.375 L 122.859375 -102.375 L 122.859375 -81.90625 L 102.375 -81.90625 L 102.375 -20.46875 Z M 61.421875 -20.46875 "/></g></g></g></svg>