<svg xmlns="http://www.w3.org/2000/svg" xmlns:xlink="http://www.w3.org/1999/xlink" width="317" zoomAndPan="magnify" viewBox="0 0 237.75 214.499994" height="286" preserveAspectRatio="xMidYMid meet" version="1.0"><defs><clipPath id="57b3be406f"><path d="M 0.152344 45 L 54 45 L 54 77 L 0.152344 77 Z M 0.152344 45 " clip-rule="nonzero"/></clipPath><clipPath id="223dcb5364"><path d="M 168 114.351562 L 237.117188 114.351562 L 237.117188 153 L 168 153 Z M 168 114.351562 " clip-rule="nonzero"/></clipPath><clipPath id="99f99d4c28"><path d="M 38.089844 175.515625 L 92 175.515625 L 92 213.875 L 38.089844 213.875 Z M 38.089844 175.515625 " clip-rule="nonzero"/></clipPath><clipPath id="5ffd7f1134"><path d="M 53.515625 206 L 69.472656 206 L 69.472656 213.875 L 53.515625 213.875 Z M 53.515625 206 " clip-rule="nonzero"/></clipPath><clipPath id="18b996b8c3"><path d="M 76.386719 129.773438 L 138 129.773438 L 138 213.875 L 76.386719 213.875 Z M 76.386719 129.773438 " clip-rule="nonzero"/></clipPath><clipPath id="63670ca30d"><path d="M 0.152344 45 L 54 45 L 54 77 L 0.152344 77 Z M 0.152344 45 " clip-rule="nonzero"/></clipPath><clipPath id="1ec44ba9e5"><path d="M 168 114.351562 L 237.117188 114.351562 L 237.117188 153 L 168 153 Z M 168 114.351562 " clip-rule="nonzero"/></clipPath><clipPath id="13f060c095"><path d="M 38.089844 175.515625 L 92 175.515625 L 92 213.875 L 38.089844 213.875 Z M 38.089844 175.515625 " clip-rule="nonzero"/></clipPath><clipPath id="2c55dbc5a0"><path d="M 53.515625 206 L 69.472656 206 L 69.472656 213.875 L 53.515625 213.875 Z M 53.515625 206 " clip-rule="nonzero"/></clipPath><clipPath id="47b573ebb0"><path d="M 76.386719 129.773438 L 138 129.773438 L 138 213.875 L 76.386719 213.875 Z M 76.386719 129.773438 " clip-rule="nonzero"/></clipPath></defs><g clip-path="url(#57b3be406f)"><path fill="#4e8b39" d="M 0.335938 76.390625 L 0.328125 68.746094 L 7.972656 68.742188 L 7.96875 61.113281 L 23.253906 61.105469 L 23.25 53.476562 L 30.886719 53.472656 L 30.882812 45.832031 L 53.800781 45.824219 L 53.804688 53.476562 L 46.167969 53.484375 L 46.171875 68.746094 L 23.253906 68.75 L 23.257812 76.390625 L 0.335938 76.390625 " fill-opacity="1" fill-rule="nonzero"/><path fill="#4e8b39" d="M 23.253906 68.746094 L 23.253906 76.382812 L 0.335938 76.382812 L 0.335938 68.746094 L 7.972656 68.746094 L 7.972656 61.113281 L 23.253906 61.113281 L 23.253906 53.476562 L 30.886719 53.476562 L 30.886719 45.832031 L 53.800781 45.832031 L 53.800781 53.476562 L 46.167969 53.476562 L 46.167969 68.746094 L 23.253906 68.746094 " fill-opacity="1" fill-rule="nonzero"/></g><path fill="#4e8b39" d="M 130.179688 160.402344 L 130.175781 152.765625 L 145.453125 152.761719 L 145.449219 145.125 L 153.09375 145.121094 L 153.097656 152.765625 L 160.734375 152.761719 L 160.738281 160.402344 L 130.179688 160.402344 " fill-opacity="1" fill-rule="nonzero"/><path fill="#4e8b39" d="M 153.09375 152.765625 L 160.734375 152.765625 L 160.734375 160.398438 L 130.179688 160.398438 L 130.179688 152.765625 L 145.453125 152.765625 L 145.453125 145.125 L 153.09375 145.125 L 153.09375 152.765625 " fill-opacity="1" fill-rule="nonzero"/><path fill="#4e8b39" d="M 30.886719 137.496094 L 30.882812 129.851562 L 38.519531 129.847656 L 38.515625 122.210938 L 46.167969 122.207031 L 46.164062 114.578125 L 69.074219 114.570312 L 69.082031 122.210938 L 61.441406 122.21875 L 61.445312 129.851562 L 46.167969 129.855469 L 46.171875 137.496094 L 30.886719 137.496094 " fill-opacity="1" fill-rule="nonzero"/><path fill="#4e8b39" d="M 69.074219 114.578125 L 69.074219 122.210938 L 61.441406 122.210938 L 61.441406 129.851562 L 46.167969 129.851562 L 46.167969 137.492188 L 30.886719 137.492188 L 30.886719 129.851562 L 38.519531 129.851562 L 38.519531 122.210938 L 46.167969 122.210938 L 46.167969 114.578125 L 69.074219 114.578125 " fill-opacity="1" fill-rule="nonzero"/><path fill="#4e8b39" d="M 53.800781 38.203125 L 53.796875 22.917969 L 61.441406 22.914062 L 61.433594 15.285156 L 69.074219 15.277344 L 69.070312 7.644531 L 84.355469 7.640625 L 84.347656 0.00390625 L 122.546875 0 L 122.554688 7.644531 L 114.902344 7.648438 L 114.90625 15.285156 L 107.269531 15.289062 L 107.273438 22.917969 L 69.074219 22.925781 L 69.082031 30.554688 L 61.441406 30.558594 L 61.445312 38.203125 L 53.800781 38.203125 " fill-opacity="1" fill-rule="nonzero"/><path fill="#4e8b39" d="M 114.902344 15.285156 L 107.269531 15.285156 L 107.269531 22.917969 L 69.074219 22.917969 L 69.074219 30.554688 L 61.441406 30.554688 L 61.441406 38.199219 L 53.800781 38.199219 L 53.800781 22.917969 L 61.441406 22.917969 L 61.441406 15.285156 L 69.074219 15.285156 L 69.074219 7.644531 L 84.355469 7.644531 L 84.355469 0.00390625 L 122.546875 0.00390625 L 122.546875 7.644531 L 114.902344 7.644531 L 114.902344 15.285156 " fill-opacity="1" fill-rule="nonzero"/><path fill="#4e8b39" d="M 114.902344 91.667969 L 114.898438 84.023438 L 130.179688 84.019531 L 130.175781 76.382812 L 137.816406 76.378906 L 137.808594 68.746094 L 153.09375 68.742188 L 153.089844 61.113281 L 176.003906 61.105469 L 176.007812 84.023438 L 153.09375 84.03125 L 153.097656 91.667969 L 114.902344 91.667969 " fill-opacity="1" fill-rule="nonzero"/><path fill="#4e8b39" d="M 114.902344 91.664062 L 114.902344 84.023438 L 130.179688 84.023438 L 130.179688 76.382812 L 137.816406 76.382812 L 137.816406 68.746094 L 153.09375 68.746094 L 153.09375 61.113281 L 176.003906 61.113281 L 176.003906 84.023438 L 153.09375 84.023438 L 153.09375 91.664062 L 114.902344 91.664062 " fill-opacity="1" fill-rule="nonzero"/><path fill="#4e8b39" d="M 153.09375 129.855469 L 153.089844 122.210938 L 160.734375 122.207031 L 160.726562 114.578125 L 176.003906 114.570312 L 175.996094 106.933594 L 191.28125 106.925781 L 191.277344 99.296875 L 206.5625 99.292969 L 206.566406 106.933594 L 198.925781 106.9375 L 198.933594 114.578125 L 183.648438 114.582031 L 183.652344 122.210938 L 168.367188 122.21875 L 168.375 129.855469 L 153.09375 129.855469 " fill-opacity="1" fill-rule="nonzero"/><path fill="#4e8b39" d="M 206.5625 99.296875 L 206.5625 106.933594 L 198.925781 106.933594 L 198.925781 114.578125 L 183.648438 114.578125 L 183.648438 122.210938 L 168.367188 122.210938 L 168.367188 129.851562 L 153.09375 129.851562 L 153.09375 122.210938 L 160.734375 122.210938 L 160.734375 114.578125 L 176.003906 114.578125 L 176.003906 106.933594 L 191.28125 106.933594 L 191.28125 99.296875 L 206.5625 99.296875 " fill-opacity="1" fill-rule="nonzero"/><path fill="#356939" d="M 23.253906 145.132812 L 23.25 137.492188 L 15.609375 137.496094 L 15.601562 129.851562 L 23.253906 129.847656 L 23.25 122.210938 L 38.519531 122.207031 L 38.527344 129.851562 L 30.886719 129.855469 L 30.890625 137.492188 L 46.167969 137.484375 L 46.164062 129.851562 L 61.441406 129.847656 L 61.433594 122.210938 L 84.355469 122.207031 L 84.359375 129.851562 L 69.074219 129.855469 L 69.082031 137.492188 L 61.441406 137.496094 L 61.445312 145.132812 L 23.253906 145.132812 " fill-opacity="1" fill-rule="nonzero"/><path fill="#356939" d="M 84.355469 122.210938 L 84.355469 129.851562 L 69.074219 129.851562 L 69.074219 137.492188 L 61.441406 137.492188 L 61.441406 145.125 L 23.253906 145.125 L 23.253906 137.492188 L 15.609375 137.492188 L 15.609375 129.851562 L 23.253906 129.851562 L 23.253906 122.210938 L 38.519531 122.210938 L 38.519531 129.851562 L 30.886719 129.851562 L 30.886719 137.492188 L 46.167969 137.492188 L 46.167969 129.851562 L 61.441406 129.851562 L 61.441406 122.210938 L 84.355469 122.210938 " fill-opacity="1" fill-rule="nonzero"/><path fill="#356939" d="M 7.972656 84.03125 L 7.96875 76.382812 L 23.253906 76.378906 L 23.25 68.746094 L 46.167969 68.742188 L 46.164062 53.476562 L 53.800781 53.472656 L 53.796875 45.832031 L 61.441406 45.824219 L 61.445312 53.476562 L 76.714844 53.472656 L 76.71875 61.113281 L 91.988281 61.105469 L 91.984375 53.476562 L 84.355469 53.484375 L 84.347656 45.832031 L 69.074219 45.835938 L 69.070312 38.199219 L 61.441406 38.203125 L 61.433594 30.554688 L 69.074219 30.546875 L 69.070312 22.917969 L 107.269531 22.914062 L 107.261719 15.285156 L 145.453125 15.277344 L 145.460938 22.917969 L 153.09375 22.914062 L 153.097656 30.554688 L 160.734375 30.546875 L 160.738281 38.199219 L 153.09375 38.203125 L 153.097656 45.832031 L 130.179688 45.835938 L 130.1875 53.476562 L 122.546875 53.484375 L 122.554688 61.113281 L 99.621094 61.117188 L 99.625 68.746094 L 84.355469 68.75 L 84.359375 76.382812 L 46.167969 76.390625 L 46.171875 84.03125 L 7.972656 84.03125 " fill-opacity="1" fill-rule="nonzero"/><path fill="#356939" d="M 99.621094 68.746094 L 84.355469 68.746094 L 84.355469 76.382812 L 46.167969 76.382812 L 46.167969 84.023438 L 7.972656 84.023438 L 7.972656 76.382812 L 23.253906 76.382812 L 23.253906 68.746094 L 46.167969 68.746094 L 46.167969 53.476562 L 53.800781 53.476562 L 53.800781 45.832031 L 61.441406 45.832031 L 61.441406 53.476562 L 76.714844 53.476562 L 76.714844 61.113281 L 91.988281 61.113281 L 91.988281 53.476562 L 84.355469 53.476562 L 84.355469 45.832031 L 69.074219 45.832031 L 69.074219 38.199219 L 61.441406 38.199219 L 61.441406 30.554688 L 69.074219 30.554688 L 69.074219 22.917969 L 107.269531 22.917969 L 107.269531 15.285156 L 145.453125 15.285156 L 145.453125 22.917969 L 153.09375 22.917969 L 153.09375 30.554688 L 160.734375 30.554688 L 160.734375 38.199219 L 153.09375 38.199219 L 153.09375 45.832031 L 130.179688 45.832031 L 130.179688 53.476562 L 122.546875 53.476562 L 122.546875 61.113281 L 99.621094 61.113281 L 99.621094 68.746094 " fill-opacity="1" fill-rule="nonzero"/><path fill="#356939" d="M 99.621094 168.042969 L 99.617188 160.398438 L 107.269531 160.394531 L 107.261719 152.765625 L 130.179688 152.761719 L 130.1875 160.398438 L 122.546875 160.402344 L 122.554688 168.042969 L 99.621094 168.042969 " fill-opacity="1" fill-rule="nonzero"/><path fill="#356939" d="M 130.179688 152.765625 L 130.179688 160.398438 L 122.546875 160.398438 L 122.546875 168.039062 L 99.621094 168.039062 L 99.621094 160.398438 L 107.269531 160.398438 L 107.269531 152.765625 L 130.179688 152.765625 " fill-opacity="1" fill-rule="nonzero"/><path fill="#356939" d="M 176.003906 84.03125 L 175.996094 68.746094 L 183.648438 68.742188 L 183.652344 84.03125 L 176.003906 84.03125 " fill-opacity="1" fill-rule="nonzero"/><path fill="#356939" d="M 183.648438 84.023438 L 176.003906 84.023438 L 176.003906 68.746094 L 183.648438 68.746094 L 183.648438 84.023438 " fill-opacity="1" fill-rule="nonzero"/><path fill="#356939" d="M 137.816406 168.042969 L 137.808594 160.398438 L 160.734375 160.394531 L 160.726562 152.765625 L 153.09375 152.769531 L 153.089844 137.492188 L 168.367188 137.484375 L 168.375 145.125 L 176.003906 145.121094 L 176.007812 160.398438 L 191.28125 160.394531 L 191.289062 168.042969 L 137.816406 168.042969 " fill-opacity="1" fill-rule="nonzero"/><path fill="#356939" d="M 168.367188 137.492188 L 168.367188 145.125 L 176.003906 145.125 L 176.003906 160.398438 L 191.28125 160.398438 L 191.28125 168.039062 L 137.816406 168.039062 L 137.816406 160.398438 L 160.734375 160.398438 L 160.734375 152.765625 L 153.09375 152.765625 L 153.09375 137.492188 L 168.367188 137.492188 " fill-opacity="1" fill-rule="nonzero"/><path fill="#356939" d="M 114.902344 99.304688 L 114.898438 91.664062 L 153.09375 91.660156 L 153.089844 84.023438 L 176.003906 84.019531 L 176.007812 91.664062 L 160.734375 91.667969 L 160.738281 99.304688 L 114.902344 99.304688 " fill-opacity="1" fill-rule="nonzero"/><path fill="#356939" d="M 176.003906 84.023438 L 176.003906 91.664062 L 160.734375 91.664062 L 160.734375 99.296875 L 114.902344 99.296875 L 114.902344 91.664062 L 153.09375 91.664062 L 153.09375 84.023438 L 176.003906 84.023438 " fill-opacity="1" fill-rule="nonzero"/><path fill="#356939" d="M 130.179688 152.769531 L 130.175781 145.125 L 145.453125 145.121094 L 145.460938 152.769531 L 130.179688 152.769531 " fill-opacity="1" fill-rule="nonzero"/><path fill="#356939" d="M 130.179688 152.765625 L 130.179688 145.125 L 145.453125 145.125 L 145.453125 152.765625 L 130.179688 152.765625 " fill-opacity="1" fill-rule="nonzero"/><path fill="#356939" d="M 191.28125 145.132812 L 191.277344 137.492188 L 168.367188 137.496094 L 168.363281 122.210938 L 183.648438 122.207031 L 183.640625 114.578125 L 198.925781 114.570312 L 198.921875 106.933594 L 214.195312 106.925781 L 214.199219 129.851562 L 221.835938 129.847656 L 221.839844 137.492188 L 206.5625 137.496094 L 206.566406 145.132812 L 191.28125 145.132812 " fill-opacity="1" fill-rule="nonzero"/><path fill="#356939" d="M 221.835938 129.851562 L 221.835938 137.492188 L 206.5625 137.492188 L 206.5625 145.125 L 191.28125 145.125 L 191.28125 137.492188 L 168.367188 137.492188 L 168.367188 122.210938 L 183.648438 122.210938 L 183.648438 114.578125 L 198.925781 114.578125 L 198.925781 106.933594 L 214.195312 106.933594 L 214.195312 129.851562 L 221.835938 129.851562 " fill-opacity="1" fill-rule="nonzero"/><path fill="#1f373a" d="M 130.179688 145.132812 L 130.175781 137.492188 L 153.09375 137.484375 L 153.097656 145.132812 L 130.179688 145.132812 " fill-opacity="1" fill-rule="nonzero"/><path fill="#1f373a" d="M 130.179688 145.125 L 130.179688 137.492188 L 153.09375 137.492188 L 153.09375 145.125 L 130.179688 145.125 " fill-opacity="1" fill-rule="nonzero"/><path fill="#1f373a" d="M 122.546875 175.683594 L 122.542969 160.398438 L 137.816406 160.394531 L 137.820312 168.039062 L 168.367188 168.035156 L 168.375 175.683594 L 122.546875 175.683594 " fill-opacity="1" fill-rule="nonzero"/><path fill="#1f373a" d="M 168.367188 168.039062 L 168.367188 175.679688 L 122.546875 175.679688 L 122.546875 160.398438 L 137.816406 160.398438 L 137.816406 168.039062 L 168.367188 168.039062 " fill-opacity="1" fill-rule="nonzero"/><path fill="#1f373a" d="M 160.734375 137.496094 L 160.726562 129.851562 L 168.367188 129.847656 L 168.375 137.496094 L 160.734375 137.496094 " fill-opacity="1" fill-rule="nonzero"/><path fill="#1f373a" d="M 168.367188 129.851562 L 168.367188 137.492188 L 160.734375 137.492188 L 160.734375 129.851562 L 168.367188 129.851562 " fill-opacity="1" fill-rule="nonzero"/><path fill="#1f373a" d="M 137.816406 106.9375 L 137.808594 99.296875 L 160.734375 99.292969 L 160.726562 91.664062 L 176.003906 91.660156 L 175.996094 84.023438 L 183.648438 84.019531 L 183.640625 76.382812 L 191.28125 76.378906 L 191.289062 91.664062 L 183.648438 91.667969 L 183.652344 99.296875 L 168.367188 99.304688 L 168.375 106.9375 L 137.816406 106.9375 " fill-opacity="1" fill-rule="nonzero"/><path fill="#1f373a" d="M 176.003906 91.664062 L 176.003906 84.023438 L 183.648438 84.023438 L 183.648438 76.382812 L 191.28125 76.382812 L 191.28125 91.664062 L 183.648438 91.664062 L 183.648438 99.296875 L 168.367188 99.296875 L 168.367188 106.933594 L 137.816406 106.933594 L 137.816406 99.296875 L 160.734375 99.296875 L 160.734375 91.664062 L 176.003906 91.664062 " fill-opacity="1" fill-rule="nonzero"/><g clip-path="url(#223dcb5364)"><path fill="#1f373a" d="M 183.648438 152.769531 L 183.640625 145.125 L 168.367188 145.132812 L 168.363281 137.492188 L 191.28125 137.484375 L 191.289062 145.125 L 206.5625 145.121094 L 206.554688 137.492188 L 221.835938 137.484375 L 221.828125 129.851562 L 214.195312 129.855469 L 214.191406 114.578125 L 221.835938 114.570312 L 221.839844 122.210938 L 229.476562 122.207031 L 229.480469 129.851562 L 237.113281 129.847656 L 237.117188 137.492188 L 229.476562 137.496094 L 229.480469 145.125 L 214.195312 145.132812 L 214.199219 152.769531 L 183.648438 152.769531 " fill-opacity="1" fill-rule="nonzero"/><path fill="#1f373a" d="M 237.113281 129.851562 L 237.113281 137.492188 L 229.476562 137.492188 L 229.476562 145.125 L 214.195312 145.125 L 214.195312 152.765625 L 183.648438 152.765625 L 183.648438 145.125 L 168.367188 145.125 L 168.367188 137.492188 L 191.28125 137.492188 L 191.28125 145.125 L 206.5625 145.125 L 206.5625 137.492188 L 221.835938 137.492188 L 221.835938 129.851562 L 214.195312 129.851562 L 214.195312 114.578125 L 221.835938 114.578125 L 221.835938 122.210938 L 229.476562 122.210938 L 229.476562 129.851562 L 237.113281 129.851562 " fill-opacity="1" fill-rule="nonzero"/></g><path fill="#1f373a" d="M 76.714844 61.117188 L 76.710938 53.476562 L 61.441406 53.484375 L 61.433594 45.832031 L 53.800781 45.835938 L 53.796875 38.199219 L 69.074219 38.191406 L 69.082031 45.832031 L 84.355469 45.824219 L 84.359375 53.476562 L 91.988281 53.472656 L 91.992188 61.117188 L 76.714844 61.117188 " fill-opacity="1" fill-rule="nonzero"/><path fill="#1f373a" d="M 61.441406 45.832031 L 53.800781 45.832031 L 53.800781 38.199219 L 69.074219 38.199219 L 69.074219 45.832031 L 84.355469 45.832031 L 84.355469 53.476562 L 91.988281 53.476562 L 91.988281 61.113281 L 76.714844 61.113281 L 76.714844 53.476562 L 61.441406 53.476562 L 61.441406 45.832031 " fill-opacity="1" fill-rule="nonzero"/><path fill="#1f373a" d="M 38.519531 99.304688 L 38.515625 91.664062 L 30.886719 91.667969 L 30.882812 84.023438 L 46.167969 84.019531 L 46.164062 76.382812 L 84.355469 76.378906 L 84.347656 68.746094 L 99.621094 68.742188 L 99.617188 61.113281 L 122.546875 61.105469 L 122.542969 53.476562 L 130.179688 53.472656 L 130.175781 45.832031 L 153.09375 45.824219 L 153.089844 38.199219 L 168.367188 38.191406 L 168.375 45.832031 L 160.734375 45.835938 L 160.738281 53.476562 L 137.816406 53.484375 L 137.820312 61.113281 L 130.179688 61.117188 L 130.1875 68.746094 L 107.269531 68.75 L 107.273438 76.382812 L 91.988281 76.390625 L 91.992188 84.023438 L 61.441406 84.03125 L 61.445312 91.664062 L 53.800781 91.667969 L 53.804688 99.304688 L 38.519531 99.304688 " fill-opacity="1" fill-rule="nonzero"/><path fill="#1f373a" d="M 107.269531 68.746094 L 107.269531 76.382812 L 91.988281 76.382812 L 91.988281 84.023438 L 61.441406 84.023438 L 61.441406 91.664062 L 53.800781 91.664062 L 53.800781 99.296875 L 38.519531 99.296875 L 38.519531 91.664062 L 30.886719 91.664062 L 30.886719 84.023438 L 46.167969 84.023438 L 46.167969 76.382812 L 84.355469 76.382812 L 84.355469 68.746094 L 99.621094 68.746094 L 99.621094 61.113281 L 122.546875 61.113281 L 122.546875 53.476562 L 130.179688 53.476562 L 130.179688 45.832031 L 153.09375 45.832031 L 153.09375 38.199219 L 168.367188 38.199219 L 168.367188 45.832031 L 160.734375 45.832031 L 160.734375 53.476562 L 137.816406 53.476562 L 137.816406 61.113281 L 130.179688 61.113281 L 130.179688 68.746094 L 107.269531 68.746094 " fill-opacity="1" fill-rule="nonzero"/><path fill="#1f373a" d="M 69.074219 122.21875 L 69.070312 114.578125 L 76.714844 114.570312 L 76.71875 122.21875 L 69.074219 122.21875 " fill-opacity="1" fill-rule="nonzero"/><path fill="#1f373a" d="M 76.714844 122.210938 L 69.074219 122.210938 L 69.074219 114.578125 L 76.714844 114.578125 L 76.714844 122.210938 " fill-opacity="1" fill-rule="nonzero"/><path fill="#1f373a" d="M 38.519531 152.769531 L 38.515625 145.125 L 61.441406 145.121094 L 61.433594 137.492188 L 69.074219 137.484375 L 69.070312 129.851562 L 91.988281 129.847656 L 91.992188 137.492188 L 76.714844 137.496094 L 76.71875 145.125 L 69.074219 145.132812 L 69.082031 152.769531 L 38.519531 152.769531 " fill-opacity="1" fill-rule="nonzero"/><path fill="#1f373a" d="M 91.988281 129.851562 L 91.988281 137.492188 L 76.714844 137.492188 L 76.714844 145.125 L 69.074219 145.125 L 69.074219 152.765625 L 38.519531 152.765625 L 38.519531 145.125 L 61.441406 145.125 L 61.441406 137.492188 L 69.074219 137.492188 L 69.074219 129.851562 L 91.988281 129.851562 " fill-opacity="1" fill-rule="nonzero"/><path fill="#1f373a" d="M 114.902344 152.769531 L 114.898438 145.125 L 130.179688 145.121094 L 130.1875 152.769531 L 114.902344 152.769531 " fill-opacity="1" fill-rule="nonzero"/><path fill="#1f373a" d="M 114.902344 152.765625 L 114.902344 145.125 L 130.179688 145.125 L 130.179688 152.765625 L 114.902344 152.765625 " fill-opacity="1" fill-rule="nonzero"/><path fill="#5c4f2f" d="M 91.988281 129.855469 L 91.984375 122.210938 L 99.621094 122.207031 L 99.625 129.855469 L 91.988281 129.855469 " fill-opacity="1" fill-rule="nonzero"/><path fill="#5c4f2f" d="M 99.621094 122.210938 L 99.621094 129.851562 L 91.988281 129.851562 L 91.988281 122.210938 L 99.621094 122.210938 " fill-opacity="1" fill-rule="nonzero"/><path fill="#5c4f2f" d="M 46.167969 114.582031 L 46.164062 106.933594 L 53.800781 106.925781 L 53.804688 114.582031 L 46.167969 114.582031 " fill-opacity="1" fill-rule="nonzero"/><path fill="#5c4f2f" d="M 53.800781 114.578125 L 46.167969 114.578125 L 46.167969 106.933594 L 53.800781 106.933594 L 53.800781 114.578125 " fill-opacity="1" fill-rule="nonzero"/><path fill="#5c4f2f" d="M 53.800781 106.9375 L 53.796875 99.296875 L 61.441406 99.292969 L 61.445312 106.9375 L 53.800781 106.9375 " fill-opacity="1" fill-rule="nonzero"/><path fill="#5c4f2f" d="M 61.441406 106.933594 L 53.800781 106.933594 L 53.800781 99.296875 L 61.441406 99.296875 L 61.441406 106.933594 " fill-opacity="1" fill-rule="nonzero"/><path fill="#5c4f2f" d="M 38.519531 122.21875 L 38.515625 114.578125 L 46.167969 114.570312 L 46.171875 122.21875 L 38.519531 122.21875 " fill-opacity="1" fill-rule="nonzero"/><path fill="#5c4f2f" d="M 46.167969 122.210938 L 38.519531 122.210938 L 38.519531 114.578125 L 46.167969 114.578125 L 46.167969 122.210938 " fill-opacity="1" fill-rule="nonzero"/><path fill="#5c4f2f" d="M 61.441406 91.667969 L 61.433594 84.023438 L 69.074219 84.019531 L 69.082031 91.667969 L 61.441406 91.667969 " fill-opacity="1" fill-rule="nonzero"/><path fill="#5c4f2f" d="M 69.074219 91.664062 L 61.441406 91.664062 L 61.441406 84.023438 L 69.074219 84.023438 L 69.074219 91.664062 " fill-opacity="1" fill-rule="nonzero"/><g clip-path="url(#99f99d4c28)"><path fill="#5c4f2f" d="M 69.074219 213.875 L 69.070312 206.226562 L 53.800781 206.230469 L 53.804688 213.871094 L 38.519531 213.875 L 38.515625 206.226562 L 46.167969 206.21875 L 46.164062 190.957031 L 53.800781 190.953125 L 53.796875 183.3125 L 69.074219 183.308594 L 69.070312 175.679688 L 84.355469 175.671875 L 84.359375 183.3125 L 91.988281 183.308594 L 91.992188 190.957031 L 84.355469 190.960938 L 84.359375 213.875 L 69.074219 213.875 " fill-opacity="1" fill-rule="nonzero"/><path fill="#5c4f2f" d="M 84.355469 183.3125 L 91.988281 183.3125 L 91.988281 190.957031 L 84.355469 190.957031 L 84.355469 213.871094 L 69.074219 213.871094 L 69.074219 206.226562 L 53.800781 206.226562 L 53.800781 213.871094 L 38.519531 213.871094 L 38.519531 206.226562 L 46.167969 206.226562 L 46.167969 190.957031 L 53.800781 190.957031 L 53.800781 183.3125 L 69.074219 183.3125 L 69.074219 175.679688 L 84.355469 175.679688 L 84.355469 183.3125 " fill-opacity="1" fill-rule="nonzero"/></g><path fill="#5c4f2f" d="M 99.621094 152.769531 L 99.617188 145.125 L 91.988281 145.132812 L 91.984375 137.492188 L 99.621094 137.484375 L 99.617188 129.851562 L 107.269531 129.847656 L 107.273438 137.492188 L 114.902344 137.484375 L 114.90625 145.125 L 107.269531 145.132812 L 107.273438 152.769531 L 99.621094 152.769531 " fill-opacity="1" fill-rule="nonzero"/><path fill="#5c4f2f" d="M 114.902344 137.492188 L 114.902344 145.125 L 107.269531 145.125 L 107.269531 152.765625 L 99.621094 152.765625 L 99.621094 145.125 L 91.988281 145.125 L 91.988281 137.492188 L 99.621094 137.492188 L 99.621094 129.851562 L 107.269531 129.851562 L 107.269531 137.492188 L 114.902344 137.492188 " fill-opacity="1" fill-rule="nonzero"/><path fill="#3a301e" d="M 84.355469 129.855469 L 84.347656 122.210938 L 91.988281 122.207031 L 91.992188 129.855469 L 84.355469 129.855469 " fill-opacity="1" fill-rule="nonzero"/><path fill="#3a301e" d="M 91.988281 122.210938 L 91.988281 129.851562 L 84.355469 129.851562 L 84.355469 122.210938 L 91.988281 122.210938 " fill-opacity="1" fill-rule="nonzero"/><path fill="#3a301e" d="M 69.074219 198.597656 L 69.070312 190.957031 L 76.714844 190.953125 L 76.71875 198.597656 L 69.074219 198.597656 " fill-opacity="1" fill-rule="nonzero"/><path fill="#3a301e" d="M 69.074219 190.957031 L 76.714844 190.957031 L 76.714844 198.589844 L 69.074219 198.589844 L 69.074219 190.957031 " fill-opacity="1" fill-rule="nonzero"/><path fill="#3a301e" d="M 53.800781 114.582031 L 53.796875 106.933594 L 61.441406 106.925781 L 61.433594 91.664062 L 69.074219 91.660156 L 69.070312 84.023438 L 107.269531 84.019531 L 107.273438 91.664062 L 114.902344 91.660156 L 114.90625 99.296875 L 84.355469 99.304688 L 84.359375 106.933594 L 69.074219 106.9375 L 69.082031 114.582031 L 53.800781 114.582031 " fill-opacity="1" fill-rule="nonzero"/><path fill="#3a301e" d="M 53.800781 114.578125 L 53.800781 106.933594 L 61.441406 106.933594 L 61.441406 91.664062 L 69.074219 91.664062 L 69.074219 84.023438 L 107.269531 84.023438 L 107.269531 91.664062 L 114.902344 91.664062 L 114.902344 99.296875 L 84.355469 99.296875 L 84.355469 106.933594 L 69.074219 106.933594 L 69.074219 114.578125 L 53.800781 114.578125 " fill-opacity="1" fill-rule="nonzero"/><g clip-path="url(#5ffd7f1134)"><path fill="#3a301e" d="M 53.800781 213.875 L 53.796875 206.226562 L 69.074219 206.21875 L 69.082031 213.875 L 53.800781 213.875 " fill-opacity="1" fill-rule="nonzero"/><path fill="#3a301e" d="M 69.074219 206.226562 L 69.074219 213.871094 L 53.800781 213.871094 L 53.800781 206.226562 L 69.074219 206.226562 " fill-opacity="1" fill-rule="nonzero"/></g><g clip-path="url(#18b996b8c3)"><path fill="#3a301e" d="M 84.355469 213.875 L 84.347656 190.957031 L 91.988281 190.953125 L 91.984375 183.3125 L 84.355469 183.316406 L 84.347656 168.039062 L 91.988281 168.035156 L 91.984375 152.765625 L 84.355469 152.769531 L 84.347656 145.125 L 76.714844 145.132812 L 76.710938 137.492188 L 91.988281 137.484375 L 91.984375 129.851562 L 99.621094 129.847656 L 99.625 137.492188 L 107.269531 137.484375 L 107.261719 129.851562 L 114.902344 129.847656 L 114.90625 137.492188 L 130.179688 137.484375 L 130.1875 145.125 L 114.902344 145.132812 L 114.90625 152.765625 L 107.269531 152.769531 L 107.273438 160.398438 L 99.621094 160.402344 L 99.625 168.039062 L 122.546875 168.035156 L 122.554688 175.679688 L 107.269531 175.683594 L 107.273438 183.3125 L 114.902344 183.308594 L 114.90625 190.957031 L 122.546875 190.953125 L 122.554688 198.589844 L 130.179688 198.585938 L 130.1875 206.226562 L 137.816406 206.21875 L 137.820312 213.875 L 84.355469 213.875 " fill-opacity="1" fill-rule="nonzero"/><path fill="#3a301e" d="M 137.816406 206.226562 L 137.816406 213.871094 L 84.355469 213.871094 L 84.355469 190.957031 L 91.988281 190.957031 L 91.988281 183.3125 L 84.355469 183.3125 L 84.355469 168.039062 L 91.988281 168.039062 L 91.988281 152.765625 L 84.355469 152.765625 L 84.355469 145.125 L 76.714844 145.125 L 76.714844 137.492188 L 91.988281 137.492188 L 91.988281 129.851562 L 99.621094 129.851562 L 99.621094 137.492188 L 107.269531 137.492188 L 107.269531 129.851562 L 114.902344 129.851562 L 114.902344 137.492188 L 130.179688 137.492188 L 130.179688 145.125 L 114.902344 145.125 L 114.902344 152.765625 L 107.269531 152.765625 L 107.269531 160.398438 L 99.621094 160.398438 L 99.621094 168.039062 L 122.546875 168.039062 L 122.546875 175.679688 L 107.269531 175.679688 L 107.269531 183.3125 L 114.902344 183.3125 L 114.902344 190.957031 L 122.546875 190.957031 L 122.546875 198.589844 L 130.179688 198.589844 L 130.179688 206.226562 L 137.816406 206.226562 " fill-opacity="1" fill-rule="nonzero"/></g><g clip-path="url(#63670ca30d)"><path fill="#4e8b39" d="M 0.335938 76.390625 L 0.328125 68.746094 L 7.972656 68.742188 L 7.96875 61.113281 L 23.253906 61.105469 L 23.25 53.476562 L 30.886719 53.472656 L 30.882812 45.832031 L 53.800781 45.824219 L 53.804688 53.476562 L 46.167969 53.484375 L 46.171875 68.746094 L 23.253906 68.75 L 23.257812 76.390625 L 0.335938 76.390625 " fill-opacity="1" fill-rule="nonzero"/><path fill="#4e8b39" d="M 23.253906 68.746094 L 23.253906 76.382812 L 0.335938 76.382812 L 0.335938 68.746094 L 7.972656 68.746094 L 7.972656 61.113281 L 23.253906 61.113281 L 23.253906 53.476562 L 30.886719 53.476562 L 30.886719 45.832031 L 53.800781 45.832031 L 53.800781 53.476562 L 46.167969 53.476562 L 46.167969 68.746094 L 23.253906 68.746094 " fill-opacity="1" fill-rule="nonzero"/></g><path fill="#4e8b39" d="M 130.179688 160.402344 L 130.175781 152.765625 L 145.453125 152.761719 L 145.449219 145.125 L 153.09375 145.121094 L 153.097656 152.765625 L 160.734375 152.761719 L 160.738281 160.402344 L 130.179688 160.402344 " fill-opacity="1" fill-rule="nonzero"/><path fill="#4e8b39" d="M 153.09375 152.765625 L 160.734375 152.765625 L 160.734375 160.398438 L 130.179688 160.398438 L 130.179688 152.765625 L 145.453125 152.765625 L 145.453125 145.125 L 153.09375 145.125 L 153.09375 152.765625 " fill-opacity="1" fill-rule="nonzero"/><path fill="#4e8b39" d="M 30.886719 137.496094 L 30.882812 129.851562 L 38.519531 129.847656 L 38.515625 122.210938 L 46.167969 122.207031 L 46.164062 114.578125 L 69.074219 114.570312 L 69.082031 122.210938 L 61.441406 122.21875 L 61.445312 129.851562 L 46.167969 129.855469 L 46.171875 137.496094 L 30.886719 137.496094 " fill-opacity="1" fill-rule="nonzero"/><path fill="#4e8b39" d="M 69.074219 114.578125 L 69.074219 122.210938 L 61.441406 122.210938 L 61.441406 129.851562 L 46.167969 129.851562 L 46.167969 137.492188 L 30.886719 137.492188 L 30.886719 129.851562 L 38.519531 129.851562 L 38.519531 122.210938 L 46.167969 122.210938 L 46.167969 114.578125 L 69.074219 114.578125 " fill-opacity="1" fill-rule="nonzero"/><path fill="#4e8b39" d="M 53.800781 38.203125 L 53.796875 22.917969 L 61.441406 22.914062 L 61.433594 15.285156 L 69.074219 15.277344 L 69.070312 7.644531 L 84.355469 7.640625 L 84.347656 0.00390625 L 122.546875 0 L 122.554688 7.644531 L 114.902344 7.648438 L 114.90625 15.285156 L 107.269531 15.289062 L 107.273438 22.917969 L 69.074219 22.925781 L 69.082031 30.554688 L 61.441406 30.558594 L 61.445312 38.203125 L 53.800781 38.203125 " fill-opacity="1" fill-rule="nonzero"/><path fill="#4e8b39" d="M 114.902344 15.285156 L 107.269531 15.285156 L 107.269531 22.917969 L 69.074219 22.917969 L 69.074219 30.554688 L 61.441406 30.554688 L 61.441406 38.199219 L 53.800781 38.199219 L 53.800781 22.917969 L 61.441406 22.917969 L 61.441406 15.285156 L 69.074219 15.285156 L 69.074219 7.644531 L 84.355469 7.644531 L 84.355469 0.00390625 L 122.546875 0.00390625 L 122.546875 7.644531 L 114.902344 7.644531 L 114.902344 15.285156 " fill-opacity="1" fill-rule="nonzero"/><path fill="#4e8b39" d="M 114.902344 91.667969 L 114.898438 84.023438 L 130.179688 84.019531 L 130.175781 76.382812 L 137.816406 76.378906 L 137.808594 68.746094 L 153.09375 68.742188 L 153.089844 61.113281 L 176.003906 61.105469 L 176.007812 84.023438 L 153.09375 84.03125 L 153.097656 91.667969 L 114.902344 91.667969 " fill-opacity="1" fill-rule="nonzero"/><path fill="#4e8b39" d="M 114.902344 91.664062 L 114.902344 84.023438 L 130.179688 84.023438 L 130.179688 76.382812 L 137.816406 76.382812 L 137.816406 68.746094 L 153.09375 68.746094 L 153.09375 61.113281 L 176.003906 61.113281 L 176.003906 84.023438 L 153.09375 84.023438 L 153.09375 91.664062 L 114.902344 91.664062 " fill-opacity="1" fill-rule="nonzero"/><path fill="#4e8b39" d="M 153.09375 129.855469 L 153.089844 122.210938 L 160.734375 122.207031 L 160.726562 114.578125 L 176.003906 114.570312 L 175.996094 106.933594 L 191.28125 106.925781 L 191.277344 99.296875 L 206.5625 99.292969 L 206.566406 106.933594 L 198.925781 106.9375 L 198.933594 114.578125 L 183.648438 114.582031 L 183.652344 122.210938 L 168.367188 122.21875 L 168.375 129.855469 L 153.09375 129.855469 " fill-opacity="1" fill-rule="nonzero"/><path fill="#4e8b39" d="M 206.5625 99.296875 L 206.5625 106.933594 L 198.925781 106.933594 L 198.925781 114.578125 L 183.648438 114.578125 L 183.648438 122.210938 L 168.367188 122.210938 L 168.367188 129.851562 L 153.09375 129.851562 L 153.09375 122.210938 L 160.734375 122.210938 L 160.734375 114.578125 L 176.003906 114.578125 L 176.003906 106.933594 L 191.28125 106.933594 L 191.28125 99.296875 L 206.5625 99.296875 " fill-opacity="1" fill-rule="nonzero"/><path fill="#356939" d="M 23.253906 145.132812 L 23.25 137.492188 L 15.609375 137.496094 L 15.601562 129.851562 L 23.253906 129.847656 L 23.25 122.210938 L 38.519531 122.207031 L 38.527344 129.851562 L 30.886719 129.855469 L 30.890625 137.492188 L 46.167969 137.484375 L 46.164062 129.851562 L 61.441406 129.847656 L 61.433594 122.210938 L 84.355469 122.207031 L 84.359375 129.851562 L 69.074219 129.855469 L 69.082031 137.492188 L 61.441406 137.496094 L 61.445312 145.132812 L 23.253906 145.132812 " fill-opacity="1" fill-rule="nonzero"/><path fill="#356939" d="M 84.355469 122.210938 L 84.355469 129.851562 L 69.074219 129.851562 L 69.074219 137.492188 L 61.441406 137.492188 L 61.441406 145.125 L 23.253906 145.125 L 23.253906 137.492188 L 15.609375 137.492188 L 15.609375 129.851562 L 23.253906 129.851562 L 23.253906 122.210938 L 38.519531 122.210938 L 38.519531 129.851562 L 30.886719 129.851562 L 30.886719 137.492188 L 46.167969 137.492188 L 46.167969 129.851562 L 61.441406 129.851562 L 61.441406 122.210938 L 84.355469 122.210938 " fill-opacity="1" fill-rule="nonzero"/><path fill="#356939" d="M 7.972656 84.03125 L 7.96875 76.382812 L 23.253906 76.378906 L 23.25 68.746094 L 46.167969 68.742188 L 46.164062 53.476562 L 53.800781 53.472656 L 53.796875 45.832031 L 61.441406 45.824219 L 61.445312 53.476562 L 76.714844 53.472656 L 76.71875 61.113281 L 91.988281 61.105469 L 91.984375 53.476562 L 84.355469 53.484375 L 84.347656 45.832031 L 69.074219 45.835938 L 69.070312 38.199219 L 61.441406 38.203125 L 61.433594 30.554688 L 69.074219 30.546875 L 69.070312 22.917969 L 107.269531 22.914062 L 107.261719 15.285156 L 145.453125 15.277344 L 145.460938 22.917969 L 153.09375 22.914062 L 153.097656 30.554688 L 160.734375 30.546875 L 160.738281 38.199219 L 153.09375 38.203125 L 153.097656 45.832031 L 130.179688 45.835938 L 130.1875 53.476562 L 122.546875 53.484375 L 122.554688 61.113281 L 99.621094 61.117188 L 99.625 68.746094 L 84.355469 68.75 L 84.359375 76.382812 L 46.167969 76.390625 L 46.171875 84.03125 L 7.972656 84.03125 " fill-opacity="1" fill-rule="nonzero"/><path fill="#356939" d="M 99.621094 68.746094 L 84.355469 68.746094 L 84.355469 76.382812 L 46.167969 76.382812 L 46.167969 84.023438 L 7.972656 84.023438 L 7.972656 76.382812 L 23.253906 76.382812 L 23.253906 68.746094 L 46.167969 68.746094 L 46.167969 53.476562 L 53.800781 53.476562 L 53.800781 45.832031 L 61.441406 45.832031 L 61.441406 53.476562 L 76.714844 53.476562 L 76.714844 61.113281 L 91.988281 61.113281 L 91.988281 53.476562 L 84.355469 53.476562 L 84.355469 45.832031 L 69.074219 45.832031 L 69.074219 38.199219 L 61.441406 38.199219 L 61.441406 30.554688 L 69.074219 30.554688 L 69.074219 22.917969 L 107.269531 22.917969 L 107.269531 15.285156 L 145.453125 15.285156 L 145.453125 22.917969 L 153.09375 22.917969 L 153.09375 30.554688 L 160.734375 30.554688 L 160.734375 38.199219 L 153.09375 38.199219 L 153.09375 45.832031 L 130.179688 45.832031 L 130.179688 53.476562 L 122.546875 53.476562 L 122.546875 61.113281 L 99.621094 61.113281 L 99.621094 68.746094 " fill-opacity="1" fill-rule="nonzero"/><path fill="#356939" d="M 99.621094 168.042969 L 99.617188 160.398438 L 107.269531 160.394531 L 107.261719 152.765625 L 130.179688 152.761719 L 130.1875 160.398438 L 122.546875 160.402344 L 122.554688 168.042969 L 99.621094 168.042969 " fill-opacity="1" fill-rule="nonzero"/><path fill="#356939" d="M 130.179688 152.765625 L 130.179688 160.398438 L 122.546875 160.398438 L 122.546875 168.039062 L 99.621094 168.039062 L 99.621094 160.398438 L 107.269531 160.398438 L 107.269531 152.765625 L 130.179688 152.765625 " fill-opacity="1" fill-rule="nonzero"/><path fill="#356939" d="M 176.003906 84.03125 L 175.996094 68.746094 L 183.648438 68.742188 L 183.652344 84.03125 L 176.003906 84.03125 " fill-opacity="1" fill-rule="nonzero"/><path fill="#356939" d="M 183.648438 84.023438 L 176.003906 84.023438 L 176.003906 68.746094 L 183.648438 68.746094 L 183.648438 84.023438 " fill-opacity="1" fill-rule="nonzero"/><path fill="#356939" d="M 137.816406 168.042969 L 137.808594 160.398438 L 160.734375 160.394531 L 160.726562 152.765625 L 153.09375 152.769531 L 153.089844 137.492188 L 168.367188 137.484375 L 168.375 145.125 L 176.003906 145.121094 L 176.007812 160.398438 L 191.28125 160.394531 L 191.289062 168.042969 L 137.816406 168.042969 " fill-opacity="1" fill-rule="nonzero"/><path fill="#356939" d="M 168.367188 137.492188 L 168.367188 145.125 L 176.003906 145.125 L 176.003906 160.398438 L 191.28125 160.398438 L 191.28125 168.039062 L 137.816406 168.039062 L 137.816406 160.398438 L 160.734375 160.398438 L 160.734375 152.765625 L 153.09375 152.765625 L 153.09375 137.492188 L 168.367188 137.492188 " fill-opacity="1" fill-rule="nonzero"/><path fill="#356939" d="M 114.902344 99.304688 L 114.898438 91.664062 L 153.09375 91.660156 L 153.089844 84.023438 L 176.003906 84.019531 L 176.007812 91.664062 L 160.734375 91.667969 L 160.738281 99.304688 L 114.902344 99.304688 " fill-opacity="1" fill-rule="nonzero"/><path fill="#356939" d="M 176.003906 84.023438 L 176.003906 91.664062 L 160.734375 91.664062 L 160.734375 99.296875 L 114.902344 99.296875 L 114.902344 91.664062 L 153.09375 91.664062 L 153.09375 84.023438 L 176.003906 84.023438 " fill-opacity="1" fill-rule="nonzero"/><path fill="#356939" d="M 130.179688 152.769531 L 130.175781 145.125 L 145.453125 145.121094 L 145.460938 152.769531 L 130.179688 152.769531 " fill-opacity="1" fill-rule="nonzero"/><path fill="#356939" d="M 130.179688 152.765625 L 130.179688 145.125 L 145.453125 145.125 L 145.453125 152.765625 L 130.179688 152.765625 " fill-opacity="1" fill-rule="nonzero"/><path fill="#356939" d="M 191.28125 145.132812 L 191.277344 137.492188 L 168.367188 137.496094 L 168.363281 122.210938 L 183.648438 122.207031 L 183.640625 114.578125 L 198.925781 114.570312 L 198.921875 106.933594 L 214.195312 106.925781 L 214.199219 129.851562 L 221.835938 129.847656 L 221.839844 137.492188 L 206.5625 137.496094 L 206.566406 145.132812 L 191.28125 145.132812 " fill-opacity="1" fill-rule="nonzero"/><path fill="#356939" d="M 221.835938 129.851562 L 221.835938 137.492188 L 206.5625 137.492188 L 206.5625 145.125 L 191.28125 145.125 L 191.28125 137.492188 L 168.367188 137.492188 L 168.367188 122.210938 L 183.648438 122.210938 L 183.648438 114.578125 L 198.925781 114.578125 L 198.925781 106.933594 L 214.195312 106.933594 L 214.195312 129.851562 L 221.835938 129.851562 " fill-opacity="1" fill-rule="nonzero"/><path fill="#1f373a" d="M 130.179688 145.132812 L 130.175781 137.492188 L 153.09375 137.484375 L 153.097656 145.132812 L 130.179688 145.132812 " fill-opacity="1" fill-rule="nonzero"/><path fill="#1f373a" d="M 130.179688 145.125 L 130.179688 137.492188 L 153.09375 137.492188 L 153.09375 145.125 L 130.179688 145.125 " fill-opacity="1" fill-rule="nonzero"/><path fill="#1f373a" d="M 122.546875 175.683594 L 122.542969 160.398438 L 137.816406 160.394531 L 137.820312 168.039062 L 168.367188 168.035156 L 168.375 175.683594 L 122.546875 175.683594 " fill-opacity="1" fill-rule="nonzero"/><path fill="#1f373a" d="M 168.367188 168.039062 L 168.367188 175.679688 L 122.546875 175.679688 L 122.546875 160.398438 L 137.816406 160.398438 L 137.816406 168.039062 L 168.367188 168.039062 " fill-opacity="1" fill-rule="nonzero"/><path fill="#1f373a" d="M 160.734375 137.496094 L 160.726562 129.851562 L 168.367188 129.847656 L 168.375 137.496094 L 160.734375 137.496094 " fill-opacity="1" fill-rule="nonzero"/><path fill="#1f373a" d="M 168.367188 129.851562 L 168.367188 137.492188 L 160.734375 137.492188 L 160.734375 129.851562 L 168.367188 129.851562 " fill-opacity="1" fill-rule="nonzero"/><path fill="#1f373a" d="M 137.816406 106.9375 L 137.808594 99.296875 L 160.734375 99.292969 L 160.726562 91.664062 L 176.003906 91.660156 L 175.996094 84.023438 L 183.648438 84.019531 L 183.640625 76.382812 L 191.28125 76.378906 L 191.289062 91.664062 L 183.648438 91.667969 L 183.652344 99.296875 L 168.367188 99.304688 L 168.375 106.9375 L 137.816406 106.9375 " fill-opacity="1" fill-rule="nonzero"/><path fill="#1f373a" d="M 176.003906 91.664062 L 176.003906 84.023438 L 183.648438 84.023438 L 183.648438 76.382812 L 191.28125 76.382812 L 191.28125 91.664062 L 183.648438 91.664062 L 183.648438 99.296875 L 168.367188 99.296875 L 168.367188 106.933594 L 137.816406 106.933594 L 137.816406 99.296875 L 160.734375 99.296875 L 160.734375 91.664062 L 176.003906 91.664062 " fill-opacity="1" fill-rule="nonzero"/><g clip-path="url(#1ec44ba9e5)"><path fill="#1f373a" d="M 183.648438 152.769531 L 183.640625 145.125 L 168.367188 145.132812 L 168.363281 137.492188 L 191.28125 137.484375 L 191.289062 145.125 L 206.5625 145.121094 L 206.554688 137.492188 L 221.835938 137.484375 L 221.828125 129.851562 L 214.195312 129.855469 L 214.191406 114.578125 L 221.835938 114.570312 L 221.839844 122.210938 L 229.476562 122.207031 L 229.480469 129.851562 L 237.113281 129.847656 L 237.117188 137.492188 L 229.476562 137.496094 L 229.480469 145.125 L 214.195312 145.132812 L 214.199219 152.769531 L 183.648438 152.769531 " fill-opacity="1" fill-rule="nonzero"/><path fill="#1f373a" d="M 237.113281 129.851562 L 237.113281 137.492188 L 229.476562 137.492188 L 229.476562 145.125 L 214.195312 145.125 L 214.195312 152.765625 L 183.648438 152.765625 L 183.648438 145.125 L 168.367188 145.125 L 168.367188 137.492188 L 191.28125 137.492188 L 191.28125 145.125 L 206.5625 145.125 L 206.5625 137.492188 L 221.835938 137.492188 L 221.835938 129.851562 L 214.195312 129.851562 L 214.195312 114.578125 L 221.835938 114.578125 L 221.835938 122.210938 L 229.476562 122.210938 L 229.476562 129.851562 L 237.113281 129.851562 " fill-opacity="1" fill-rule="nonzero"/></g><path fill="#1f373a" d="M 76.714844 61.117188 L 76.710938 53.476562 L 61.441406 53.484375 L 61.433594 45.832031 L 53.800781 45.835938 L 53.796875 38.199219 L 69.074219 38.191406 L 69.082031 45.832031 L 84.355469 45.824219 L 84.359375 53.476562 L 91.988281 53.472656 L 91.992188 61.117188 L 76.714844 61.117188 " fill-opacity="1" fill-rule="nonzero"/><path fill="#1f373a" d="M 61.441406 45.832031 L 53.800781 45.832031 L 53.800781 38.199219 L 69.074219 38.199219 L 69.074219 45.832031 L 84.355469 45.832031 L 84.355469 53.476562 L 91.988281 53.476562 L 91.988281 61.113281 L 76.714844 61.113281 L 76.714844 53.476562 L 61.441406 53.476562 L 61.441406 45.832031 " fill-opacity="1" fill-rule="nonzero"/><path fill="#1f373a" d="M 38.519531 99.304688 L 38.515625 91.664062 L 30.886719 91.667969 L 30.882812 84.023438 L 46.167969 84.019531 L 46.164062 76.382812 L 84.355469 76.378906 L 84.347656 68.746094 L 99.621094 68.742188 L 99.617188 61.113281 L 122.546875 61.105469 L 122.542969 53.476562 L 130.179688 53.472656 L 130.175781 45.832031 L 153.09375 45.824219 L 153.089844 38.199219 L 168.367188 38.191406 L 168.375 45.832031 L 160.734375 45.835938 L 160.738281 53.476562 L 137.816406 53.484375 L 137.820312 61.113281 L 130.179688 61.117188 L 130.1875 68.746094 L 107.269531 68.75 L 107.273438 76.382812 L 91.988281 76.390625 L 91.992188 84.023438 L 61.441406 84.03125 L 61.445312 91.664062 L 53.800781 91.667969 L 53.804688 99.304688 L 38.519531 99.304688 " fill-opacity="1" fill-rule="nonzero"/><path fill="#1f373a" d="M 107.269531 68.746094 L 107.269531 76.382812 L 91.988281 76.382812 L 91.988281 84.023438 L 61.441406 84.023438 L 61.441406 91.664062 L 53.800781 91.664062 L 53.800781 99.296875 L 38.519531 99.296875 L 38.519531 91.664062 L 30.886719 91.664062 L 30.886719 84.023438 L 46.167969 84.023438 L 46.167969 76.382812 L 84.355469 76.382812 L 84.355469 68.746094 L 99.621094 68.746094 L 99.621094 61.113281 L 122.546875 61.113281 L 122.546875 53.476562 L 130.179688 53.476562 L 130.179688 45.832031 L 153.09375 45.832031 L 153.09375 38.199219 L 168.367188 38.199219 L 168.367188 45.832031 L 160.734375 45.832031 L 160.734375 53.476562 L 137.816406 53.476562 L 137.816406 61.113281 L 130.179688 61.113281 L 130.179688 68.746094 L 107.269531 68.746094 " fill-opacity="1" fill-rule="nonzero"/><path fill="#1f373a" d="M 69.074219 122.21875 L 69.070312 114.578125 L 76.714844 114.570312 L 76.71875 122.21875 L 69.074219 122.21875 " fill-opacity="1" fill-rule="nonzero"/><path fill="#1f373a" d="M 76.714844 122.210938 L 69.074219 122.210938 L 69.074219 114.578125 L 76.714844 114.578125 L 76.714844 122.210938 " fill-opacity="1" fill-rule="nonzero"/><path fill="#1f373a" d="M 38.519531 152.769531 L 38.515625 145.125 L 61.441406 145.121094 L 61.433594 137.492188 L 69.074219 137.484375 L 69.070312 129.851562 L 91.988281 129.847656 L 91.992188 137.492188 L 76.714844 137.496094 L 76.71875 145.125 L 69.074219 145.132812 L 69.082031 152.769531 L 38.519531 152.769531 " fill-opacity="1" fill-rule="nonzero"/><path fill="#1f373a" d="M 91.988281 129.851562 L 91.988281 137.492188 L 76.714844 137.492188 L 76.714844 145.125 L 69.074219 145.125 L 69.074219 152.765625 L 38.519531 152.765625 L 38.519531 145.125 L 61.441406 145.125 L 61.441406 137.492188 L 69.074219 137.492188 L 69.074219 129.851562 L 91.988281 129.851562 " fill-opacity="1" fill-rule="nonzero"/><path fill="#1f373a" d="M 114.902344 152.769531 L 114.898438 145.125 L 130.179688 145.121094 L 130.1875 152.769531 L 114.902344 152.769531 " fill-opacity="1" fill-rule="nonzero"/><path fill="#1f373a" d="M 114.902344 152.765625 L 114.902344 145.125 L 130.179688 145.125 L 130.179688 152.765625 L 114.902344 152.765625 " fill-opacity="1" fill-rule="nonzero"/><path fill="#5c4f2f" d="M 91.988281 129.855469 L 91.984375 122.210938 L 99.621094 122.207031 L 99.625 129.855469 L 91.988281 129.855469 " fill-opacity="1" fill-rule="nonzero"/><path fill="#5c4f2f" d="M 99.621094 122.210938 L 99.621094 129.851562 L 91.988281 129.851562 L 91.988281 122.210938 L 99.621094 122.210938 " fill-opacity="1" fill-rule="nonzero"/><path fill="#5c4f2f" d="M 46.167969 114.582031 L 46.164062 106.933594 L 53.800781 106.925781 L 53.804688 114.582031 L 46.167969 114.582031 " fill-opacity="1" fill-rule="nonzero"/><path fill="#5c4f2f" d="M 53.800781 114.578125 L 46.167969 114.578125 L 46.167969 106.933594 L 53.800781 106.933594 L 53.800781 114.578125 " fill-opacity="1" fill-rule="nonzero"/><path fill="#5c4f2f" d="M 53.800781 106.9375 L 53.796875 99.296875 L 61.441406 99.292969 L 61.445312 106.9375 L 53.800781 106.9375 " fill-opacity="1" fill-rule="nonzero"/><path fill="#5c4f2f" d="M 61.441406 106.933594 L 53.800781 106.933594 L 53.800781 99.296875 L 61.441406 99.296875 L 61.441406 106.933594 " fill-opacity="1" fill-rule="nonzero"/><path fill="#5c4f2f" d="M 38.519531 122.21875 L 38.515625 114.578125 L 46.167969 114.570312 L 46.171875 122.21875 L 38.519531 122.21875 " fill-opacity="1" fill-rule="nonzero"/><path fill="#5c4f2f" d="M 46.167969 122.210938 L 38.519531 122.210938 L 38.519531 114.578125 L 46.167969 114.578125 L 46.167969 122.210938 " fill-opacity="1" fill-rule="nonzero"/><path fill="#5c4f2f" d="M 61.441406 91.667969 L 61.433594 84.023438 L 69.074219 84.019531 L 69.082031 91.667969 L 61.441406 91.667969 " fill-opacity="1" fill-rule="nonzero"/><path fill="#5c4f2f" d="M 69.074219 91.664062 L 61.441406 91.664062 L 61.441406 84.023438 L 69.074219 84.023438 L 69.074219 91.664062 " fill-opacity="1" fill-rule="nonzero"/><g clip-path="url(#13f060c095)"><path fill="#5c4f2f" d="M 69.074219 213.875 L 69.070312 206.226562 L 53.800781 206.230469 L 53.804688 213.871094 L 38.519531 213.875 L 38.515625 206.226562 L 46.167969 206.21875 L 46.164062 190.957031 L 53.800781 190.953125 L 53.796875 183.3125 L 69.074219 183.308594 L 69.070312 175.679688 L 84.355469 175.671875 L 84.359375 183.3125 L 91.988281 183.308594 L 91.992188 190.957031 L 84.355469 190.960938 L 84.359375 213.875 L 69.074219 213.875 " fill-opacity="1" fill-rule="nonzero"/><path fill="#5c4f2f" d="M 84.355469 183.3125 L 91.988281 183.3125 L 91.988281 190.957031 L 84.355469 190.957031 L 84.355469 213.871094 L 69.074219 213.871094 L 69.074219 206.226562 L 53.800781 206.226562 L 53.800781 213.871094 L 38.519531 213.871094 L 38.519531 206.226562 L 46.167969 206.226562 L 46.167969 190.957031 L 53.800781 190.957031 L 53.800781 183.3125 L 69.074219 183.3125 L 69.074219 175.679688 L 84.355469 175.679688 L 84.355469 183.3125 " fill-opacity="1" fill-rule="nonzero"/></g><path fill="#5c4f2f" d="M 99.621094 152.769531 L 99.617188 145.125 L 91.988281 145.132812 L 91.984375 137.492188 L 99.621094 137.484375 L 99.617188 129.851562 L 107.269531 129.847656 L 107.273438 137.492188 L 114.902344 137.484375 L 114.90625 145.125 L 107.269531 145.132812 L 107.273438 152.769531 L 99.621094 152.769531 " fill-opacity="1" fill-rule="nonzero"/><path fill="#5c4f2f" d="M 114.902344 137.492188 L 114.902344 145.125 L 107.269531 145.125 L 107.269531 152.765625 L 99.621094 152.765625 L 99.621094 145.125 L 91.988281 145.125 L 91.988281 137.492188 L 99.621094 137.492188 L 99.621094 129.851562 L 107.269531 129.851562 L 107.269531 137.492188 L 114.902344 137.492188 " fill-opacity="1" fill-rule="nonzero"/><path fill="#3a301e" d="M 84.355469 129.855469 L 84.347656 122.210938 L 91.988281 122.207031 L 91.992188 129.855469 L 84.355469 129.855469 " fill-opacity="1" fill-rule="nonzero"/><path fill="#3a301e" d="M 91.988281 122.210938 L 91.988281 129.851562 L 84.355469 129.851562 L 84.355469 122.210938 L 91.988281 122.210938 " fill-opacity="1" fill-rule="nonzero"/><path fill="#3a301e" d="M 69.074219 198.597656 L 69.070312 190.957031 L 76.714844 190.953125 L 76.71875 198.597656 L 69.074219 198.597656 " fill-opacity="1" fill-rule="nonzero"/><path fill="#3a301e" d="M 69.074219 190.957031 L 76.714844 190.957031 L 76.714844 198.589844 L 69.074219 198.589844 L 69.074219 190.957031 " fill-opacity="1" fill-rule="nonzero"/><path fill="#3a301e" d="M 53.800781 114.582031 L 53.796875 106.933594 L 61.441406 106.925781 L 61.433594 91.664062 L 69.074219 91.660156 L 69.070312 84.023438 L 107.269531 84.019531 L 107.273438 91.664062 L 114.902344 91.660156 L 114.90625 99.296875 L 84.355469 99.304688 L 84.359375 106.933594 L 69.074219 106.9375 L 69.082031 114.582031 L 53.800781 114.582031 " fill-opacity="1" fill-rule="nonzero"/><path fill="#3a301e" d="M 53.800781 114.578125 L 53.800781 106.933594 L 61.441406 106.933594 L 61.441406 91.664062 L 69.074219 91.664062 L 69.074219 84.023438 L 107.269531 84.023438 L 107.269531 91.664062 L 114.902344 91.664062 L 114.902344 99.296875 L 84.355469 99.296875 L 84.355469 106.933594 L 69.074219 106.933594 L 69.074219 114.578125 L 53.800781 114.578125 " fill-opacity="1" fill-rule="nonzero"/><g clip-path="url(#2c55dbc5a0)"><path fill="#3a301e" d="M 53.800781 213.875 L 53.796875 206.226562 L 69.074219 206.21875 L 69.082031 213.875 L 53.800781 213.875 " fill-opacity="1" fill-rule="nonzero"/><path fill="#3a301e" d="M 69.074219 206.226562 L 69.074219 213.871094 L 53.800781 213.871094 L 53.800781 206.226562 L 69.074219 206.226562 " fill-opacity="1" fill-rule="nonzero"/></g><g clip-path="url(#47b573ebb0)"><path fill="#3a301e" d="M 84.355469 213.875 L 84.347656 190.957031 L 91.988281 190.953125 L 91.984375 183.3125 L 84.355469 183.316406 L 84.347656 168.039062 L 91.988281 168.035156 L 91.984375 152.765625 L 84.355469 152.769531 L 84.347656 145.125 L 76.714844 145.132812 L 76.710938 137.492188 L 91.988281 137.484375 L 91.984375 129.851562 L 99.621094 129.847656 L 99.625 137.492188 L 107.269531 137.484375 L 107.261719 129.851562 L 114.902344 129.847656 L 114.90625 137.492188 L 130.179688 137.484375 L 130.1875 145.125 L 114.902344 145.132812 L 114.90625 152.765625 L 107.269531 152.769531 L 107.273438 160.398438 L 99.621094 160.402344 L 99.625 168.039062 L 122.546875 168.035156 L 122.554688 175.679688 L 107.269531 175.683594 L 107.273438 183.3125 L 114.902344 183.308594 L 114.90625 190.957031 L 122.546875 190.953125 L 122.554688 198.589844 L 130.179688 198.585938 L 130.1875 206.226562 L 137.816406 206.21875 L 137.820312 213.875 L 84.355469 213.875 " fill-opacity="1" fill-rule="nonzero"/><path fill="#3a301e" d="M 137.816406 206.226562 L 137.816406 213.871094 L 84.355469 213.871094 L 84.355469 190.957031 L 91.988281 190.957031 L 91.988281 183.3125 L 84.355469 183.3125 L 84.355469 168.039062 L 91.988281 168.039062 L 91.988281 152.765625 L 84.355469 152.765625 L 84.355469 145.125 L 76.714844 145.125 L 76.714844 137.492188 L 91.988281 137.492188 L 91.988281 129.851562 L 99.621094 129.851562 L 99.621094 137.492188 L 107.269531 137.492188 L 107.269531 129.851562 L 114.902344 129.851562 L 114.902344 137.492188 L 130.179688 137.492188 L 130.179688 145.125 L 114.902344 145.125 L 114.902344 152.765625 L 107.269531 152.765625 L 107.269531 160.398438 L 99.621094 160.398438 L 99.621094 168.039062 L 122.546875 168.039062 L 122.546875 175.679688 L 107.269531 175.679688 L 107.269531 183.3125 L 114.902344 183.3125 L 114.902344 190.957031 L 122.546875 190.957031 L 122.546875 198.589844 L 130.179688 198.589844 L 130.179688 206.226562 L 137.816406 206.226562 " fill-opacity="1" fill-rule="nonzero"/></g></svg>