<svg xmlns="http://www.w3.org/2000/svg" xmlns:xlink="http://www.w3.org/1999/xlink" width="768" zoomAndPan="magnify" viewBox="0 0 576 86.999996" height="116" preserveAspectRatio="xMidYMid meet" version="1.0"><path fill="#007d2a" d="M 570.238281 17.539062 L 570.238281 11.777344 L 558.71875 11.777344 L 558.71875 6.019531 L 547.199219 6.019531 L 547.199219 0.257812 L 541.441406 0.257812 L 541.441406 6.019531 L 535.679688 6.019531 L 535.679688 17.539062 L 529.921875 17.539062 L 529.921875 11.777344 L 512.640625 11.777344 L 512.640625 17.539062 L 506.878906 17.539062 L 506.878906 11.777344 L 495.359375 11.777344 L 495.359375 6.019531 L 501.121094 6.019531 L 501.121094 0.257812 L 489.601562 0.257812 L 489.601562 6.019531 L 478.078125 6.019531 L 478.078125 11.777344 L 466.558594 11.777344 L 466.558594 17.539062 L 460.800781 17.539062 L 460.800781 6.019531 L 455.039062 6.019531 L 455.039062 11.777344 L 443.519531 11.777344 L 443.519531 17.539062 L 437.761719 17.539062 L 437.761719 11.777344 L 426.238281 11.777344 L 426.238281 6.019531 L 437.761719 6.019531 L 437.761719 0.257812 L 420.480469 0.257812 L 420.480469 6.019531 L 408.960938 6.019531 L 408.960938 11.777344 L 403.199219 11.777344 L 403.199219 17.539062 L 397.441406 17.539062 L 397.441406 6.019531 L 403.199219 6.019531 L 403.199219 0.257812 L 391.679688 0.257812 L 391.679688 6.019531 L 374.398438 6.019531 L 374.398438 11.777344 L 380.160156 11.777344 L 380.160156 17.539062 L 374.398438 17.539062 L 374.398438 11.777344 L 368.640625 11.777344 L 368.640625 6.019531 L 362.878906 6.019531 L 362.878906 11.777344 L 357.121094 11.777344 L 357.121094 6.019531 L 351.359375 6.019531 L 351.359375 0.257812 L 339.839844 0.257812 L 339.839844 6.019531 L 345.601562 6.019531 L 345.601562 11.777344 L 339.839844 11.777344 L 339.839844 17.539062 L 334.078125 17.539062 L 334.078125 11.777344 L 328.320312 11.777344 L 328.320312 6.019531 L 322.558594 6.019531 L 322.558594 11.777344 L 316.800781 11.777344 L 316.800781 17.539062 L 311.039062 17.539062 L 311.039062 11.777344 L 305.28125 11.777344 L 305.28125 17.539062 L 299.519531 17.539062 L 299.519531 11.777344 L 288 11.777344 L 288 6.019531 L 276.480469 6.019531 L 276.480469 0.257812 L 264.960938 0.257812 L 264.960938 6.019531 L 259.199219 6.019531 L 259.199219 0.257812 L 241.921875 0.257812 L 241.921875 6.019531 L 253.441406 6.019531 L 253.441406 11.777344 L 236.160156 11.777344 L 236.160156 17.539062 L 218.878906 17.539062 L 218.878906 11.777344 L 213.121094 11.777344 L 213.121094 6.019531 L 207.359375 6.019531 L 207.359375 11.777344 L 195.839844 11.777344 L 195.839844 17.539062 L 190.078125 17.539062 L 190.078125 11.777344 L 178.558594 11.777344 L 178.558594 17.539062 L 172.800781 17.539062 L 172.800781 11.777344 L 167.039062 11.777344 L 167.039062 17.539062 L 161.28125 17.539062 L 161.28125 11.777344 L 155.519531 11.777344 L 155.519531 6.019531 L 138.238281 6.019531 L 138.238281 11.777344 L 132.480469 11.777344 L 132.480469 17.539062 L 120.960938 17.539062 L 120.960938 11.777344 L 115.199219 11.777344 L 115.199219 17.539062 L 109.441406 17.539062 L 109.441406 11.777344 L 86.398438 11.777344 L 86.398438 17.539062 L 80.640625 17.539062 L 80.640625 11.777344 L 86.398438 11.777344 L 86.398438 6.019531 L 74.878906 6.019531 L 74.878906 11.777344 L 69.121094 11.777344 L 69.121094 6.019531 L 63.359375 6.019531 L 63.359375 0.257812 L 51.839844 0.257812 L 51.839844 6.019531 L 28.800781 6.019531 L 28.800781 11.777344 L 11.519531 11.777344 L 11.519531 6.25 L 0 6.25 L 0 11.777344 L 5.761719 11.777344 L 5.761719 17.539062 L 0 17.539062 L 0 86.660156 L 576 86.660156 L 576 17.539062 Z M 570.238281 17.539062 " fill-opacity="1" fill-rule="nonzero"/><path fill="#007d2a" d="M 155.519531 0.257812 L 161.28125 0.257812 L 161.28125 6.019531 L 155.519531 6.019531 Z M 155.519531 0.257812 " fill-opacity="1" fill-rule="nonzero"/><path fill="#007d2a" d="M 109.441406 6.019531 L 115.199219 6.019531 L 115.199219 11.777344 L 109.441406 11.777344 Z M 109.441406 6.019531 " fill-opacity="1" fill-rule="nonzero"/><path fill="#007d2a" d="M 299.519531 6.019531 L 305.28125 6.019531 L 305.28125 11.777344 L 299.519531 11.777344 Z M 299.519531 6.019531 " fill-opacity="1" fill-rule="nonzero"/><path fill="#007d2a" d="M 224.640625 6.019531 L 236.160156 6.019531 L 236.160156 11.777344 L 224.640625 11.777344 Z M 224.640625 6.019531 " fill-opacity="1" fill-rule="nonzero"/><path fill="#007d2a" d="M 558.71875 0.257812 L 570.238281 0.257812 L 570.238281 6.019531 L 558.71875 6.019531 Z M 558.71875 0.257812 " fill-opacity="1" fill-rule="nonzero"/><path fill="#160059" d="M 570.238281 75.140625 L 570.238281 69.378906 L 564.480469 69.378906 L 564.480469 75.140625 L 558.71875 75.140625 L 558.71875 69.378906 L 552.960938 69.378906 L 552.960938 75.140625 L 547.199219 75.140625 L 547.199219 63.617188 L 529.921875 63.617188 L 529.921875 69.378906 L 541.441406 69.378906 L 541.441406 75.140625 L 518.398438 75.140625 L 518.398438 69.378906 L 512.640625 69.378906 L 512.640625 63.617188 L 506.878906 63.617188 L 506.878906 69.378906 L 495.359375 69.378906 L 495.359375 75.140625 L 483.839844 75.140625 L 483.839844 69.378906 L 472.320312 69.378906 L 472.320312 75.140625 L 466.558594 75.140625 L 466.558594 69.378906 L 455.039062 69.378906 L 455.039062 63.617188 L 449.28125 63.617188 L 449.28125 75.140625 L 443.519531 75.140625 L 443.519531 69.378906 L 437.761719 69.378906 L 437.761719 75.140625 L 432 75.140625 L 432 69.378906 L 426.238281 69.378906 L 426.238281 75.140625 L 420.480469 75.140625 L 420.480469 69.378906 L 414.71875 69.378906 L 414.71875 63.617188 L 408.960938 63.617188 L 408.960938 69.378906 L 391.679688 69.378906 L 391.679688 75.140625 L 380.160156 75.140625 L 380.160156 69.378906 L 368.640625 69.378906 L 368.640625 75.140625 L 362.878906 75.140625 L 362.878906 69.378906 L 351.359375 69.378906 L 351.359375 75.140625 L 339.839844 75.140625 L 339.839844 69.378906 L 334.078125 69.378906 L 334.078125 75.140625 L 328.320312 75.140625 L 328.320312 69.378906 L 322.558594 69.378906 L 322.558594 63.617188 L 316.800781 63.617188 L 316.800781 69.378906 L 311.039062 69.378906 L 311.039062 75.140625 L 305.28125 75.140625 L 305.28125 69.378906 L 288 69.378906 L 288 75.140625 L 282.238281 75.140625 L 282.238281 69.378906 L 276.480469 69.378906 L 276.480469 75.140625 L 253.441406 75.140625 L 253.441406 69.378906 L 259.199219 69.378906 L 259.199219 63.617188 L 241.921875 63.617188 L 241.921875 57.859375 L 236.160156 57.859375 L 236.160156 63.617188 L 230.398438 63.617188 L 230.398438 69.378906 L 247.679688 69.378906 L 247.679688 75.140625 L 218.878906 75.140625 L 218.878906 69.378906 L 213.121094 69.378906 L 213.121094 75.140625 L 201.601562 75.140625 L 201.601562 63.617188 L 195.839844 63.617188 L 195.839844 69.378906 L 190.078125 69.378906 L 190.078125 75.140625 L 172.800781 75.140625 L 172.800781 69.378906 L 167.039062 69.378906 L 167.039062 75.140625 L 149.761719 75.140625 L 149.761719 69.378906 L 138.238281 69.378906 L 138.238281 75.140625 L 132.480469 75.140625 L 132.480469 63.617188 L 126.71875 63.617188 L 126.71875 69.378906 L 115.199219 69.378906 L 115.199219 75.140625 L 97.921875 75.140625 L 97.921875 69.378906 L 86.398438 69.378906 L 86.398438 75.140625 L 74.878906 75.140625 L 74.878906 69.378906 L 63.359375 69.378906 L 63.359375 63.617188 L 57.601562 63.617188 L 57.601562 75.140625 L 40.320312 75.140625 L 40.320312 69.378906 L 28.800781 69.378906 L 28.800781 75.140625 L 17.28125 75.140625 L 17.28125 69.378906 L 5.761719 69.378906 L 5.761719 75.140625 L 0 75.140625 L 0 86.660156 L 576 86.660156 L 576 75.140625 Z M 570.238281 75.140625 " fill-opacity="1" fill-rule="nonzero"/><path fill="#160059" d="M 17.28125 63.617188 L 23.039062 63.617188 L 23.039062 69.378906 L 17.28125 69.378906 Z M 17.28125 63.617188 " fill-opacity="1" fill-rule="nonzero"/><path fill="#160059" d="M 97.921875 63.617188 L 103.679688 63.617188 L 103.679688 69.378906 L 97.921875 69.378906 Z M 97.921875 63.617188 " fill-opacity="1" fill-rule="nonzero"/><path fill="#160059" d="M 74.878906 57.859375 L 80.640625 57.859375 L 80.640625 63.617188 L 74.878906 63.617188 Z M 74.878906 57.859375 " fill-opacity="1" fill-rule="nonzero"/><path fill="#160059" d="M 5.761719 57.859375 L 11.519531 57.859375 L 11.519531 63.617188 L 5.761719 63.617188 Z M 5.761719 57.859375 " fill-opacity="1" fill-rule="nonzero"/><path fill="#160059" d="M 155.519531 57.859375 L 161.28125 57.859375 L 161.28125 63.617188 L 155.519531 63.617188 Z M 155.519531 57.859375 " fill-opacity="1" fill-rule="nonzero"/><path fill="#160059" d="M 161.28125 63.617188 L 167.039062 63.617188 L 167.039062 69.378906 L 161.28125 69.378906 Z M 161.28125 63.617188 " fill-opacity="1" fill-rule="nonzero"/><path fill="#160059" d="M 172.800781 63.617188 L 178.558594 63.617188 L 178.558594 69.378906 L 172.800781 69.378906 Z M 172.800781 63.617188 " fill-opacity="1" fill-rule="nonzero"/><path fill="#160059" d="M 264.960938 63.617188 L 270.71875 63.617188 L 270.71875 69.378906 L 264.960938 69.378906 Z M 264.960938 63.617188 " fill-opacity="1" fill-rule="nonzero"/><path fill="#160059" d="M 282.238281 63.617188 L 288 63.617188 L 288 69.378906 L 282.238281 69.378906 Z M 282.238281 63.617188 " fill-opacity="1" fill-rule="nonzero"/><path fill="#160059" d="M 299.519531 57.859375 L 311.039062 57.859375 L 311.039062 63.617188 L 299.519531 63.617188 Z M 299.519531 57.859375 " fill-opacity="1" fill-rule="nonzero"/><path fill="#160059" d="M 339.839844 63.617188 L 345.601562 63.617188 L 345.601562 69.378906 L 339.839844 69.378906 Z M 339.839844 63.617188 " fill-opacity="1" fill-rule="nonzero"/><path fill="#160059" d="M 362.878906 63.617188 L 368.640625 63.617188 L 368.640625 69.378906 L 362.878906 69.378906 Z M 362.878906 63.617188 " fill-opacity="1" fill-rule="nonzero"/><path fill="#160059" d="M 432 63.617188 L 437.761719 63.617188 L 437.761719 69.378906 L 432 69.378906 Z M 432 63.617188 " fill-opacity="1" fill-rule="nonzero"/><path fill="#160059" d="M 437.761719 57.859375 L 443.519531 57.859375 L 443.519531 63.617188 L 437.761719 63.617188 Z M 437.761719 57.859375 " fill-opacity="1" fill-rule="nonzero"/><path fill="#160059" d="M 403.199219 57.859375 L 408.960938 57.859375 L 408.960938 63.617188 L 403.199219 63.617188 Z M 403.199219 57.859375 " fill-opacity="1" fill-rule="nonzero"/><path fill="#160059" d="M 385.921875 57.859375 L 391.679688 57.859375 L 391.679688 63.617188 L 385.921875 63.617188 Z M 385.921875 57.859375 " fill-opacity="1" fill-rule="nonzero"/><path fill="#160059" d="M 351.359375 57.859375 L 362.878906 57.859375 L 362.878906 63.617188 L 351.359375 63.617188 Z M 351.359375 57.859375 " fill-opacity="1" fill-rule="nonzero"/><path fill="#160059" d="M 483.839844 63.617188 L 489.601562 63.617188 L 489.601562 69.378906 L 483.839844 69.378906 Z M 483.839844 63.617188 " fill-opacity="1" fill-rule="nonzero"/><path fill="#160059" d="M 512.640625 57.859375 L 518.398438 57.859375 L 518.398438 63.617188 L 512.640625 63.617188 Z M 512.640625 57.859375 " fill-opacity="1" fill-rule="nonzero"/><path fill="#160059" d="M 558.71875 63.617188 L 564.480469 63.617188 L 564.480469 69.378906 L 558.71875 69.378906 Z M 558.71875 63.617188 " fill-opacity="1" fill-rule="nonzero"/><path fill="#160059" d="M 558.71875 52.097656 L 564.480469 52.097656 L 564.480469 57.859375 L 558.71875 57.859375 Z M 558.71875 52.097656 " fill-opacity="1" fill-rule="nonzero"/><path fill="#160059" d="M 132.480469 57.859375 L 138.238281 57.859375 L 138.238281 63.617188 L 132.480469 63.617188 Z M 132.480469 57.859375 " fill-opacity="1" fill-rule="nonzero"/><path fill="#160059" d="M 115.199219 52.097656 L 120.960938 52.097656 L 120.960938 57.859375 L 115.199219 57.859375 Z M 115.199219 52.097656 " fill-opacity="1" fill-rule="nonzero"/><path fill="#160059" d="M 28.800781 57.859375 L 34.558594 57.859375 L 34.558594 63.617188 L 28.800781 63.617188 Z M 28.800781 57.859375 " fill-opacity="1" fill-rule="nonzero"/><path fill="#160059" d="M 51.839844 52.097656 L 57.601562 52.097656 L 57.601562 57.859375 L 51.839844 57.859375 Z M 51.839844 52.097656 " fill-opacity="1" fill-rule="nonzero"/><path fill="#160059" d="M 339.839844 52.097656 L 345.601562 52.097656 L 345.601562 57.859375 L 339.839844 57.859375 Z M 339.839844 52.097656 " fill-opacity="1" fill-rule="nonzero"/><path fill="#160059" d="M 247.679688 46.339844 L 253.441406 46.339844 L 253.441406 52.097656 L 247.679688 52.097656 Z M 247.679688 46.339844 " fill-opacity="1" fill-rule="nonzero"/><path fill="#160059" d="M 213.121094 52.097656 L 218.878906 52.097656 L 218.878906 57.859375 L 213.121094 57.859375 Z M 213.121094 52.097656 " fill-opacity="1" fill-rule="nonzero"/><path fill="#160059" d="M 455.039062 46.339844 L 460.800781 46.339844 L 460.800781 52.097656 L 455.039062 52.097656 Z M 455.039062 46.339844 " fill-opacity="1" fill-rule="nonzero"/><path fill="#160059" d="M 495.359375 52.097656 L 501.121094 52.097656 L 501.121094 57.859375 L 495.359375 57.859375 Z M 495.359375 52.097656 " fill-opacity="1" fill-rule="nonzero"/><path fill="#160059" d="M 541.441406 52.097656 L 547.199219 52.097656 L 547.199219 57.859375 L 541.441406 57.859375 Z M 541.441406 52.097656 " fill-opacity="1" fill-rule="nonzero"/><path fill="#008c7b" d="M 426.238281 46.339844 L 432 46.339844 L 432 52.097656 L 426.238281 52.097656 Z M 426.238281 46.339844 " fill-opacity="1" fill-rule="nonzero"/><path fill="#008c7b" d="M 443.519531 46.339844 L 449.28125 46.339844 L 449.28125 52.097656 L 443.519531 52.097656 Z M 443.519531 46.339844 " fill-opacity="1" fill-rule="nonzero"/><path fill="#008c7b" d="M 391.679688 52.097656 L 403.199219 52.097656 L 403.199219 57.859375 L 391.679688 57.859375 Z M 391.679688 52.097656 " fill-opacity="1" fill-rule="nonzero"/><path fill="#008c7b" d="M 403.199219 46.339844 L 408.960938 46.339844 L 408.960938 52.097656 L 403.199219 52.097656 Z M 403.199219 46.339844 " fill-opacity="1" fill-rule="nonzero"/><path fill="#008c7b" d="M 362.878906 29.058594 L 374.398438 29.058594 L 374.398438 40.578125 L 362.878906 40.578125 Z M 362.878906 29.058594 " fill-opacity="1" fill-rule="nonzero"/><path fill="#008c7b" d="M 380.160156 34.820312 L 385.921875 34.820312 L 385.921875 40.578125 L 380.160156 40.578125 Z M 380.160156 34.820312 " fill-opacity="1" fill-rule="nonzero"/><path fill="#008c7b" d="M 397.441406 34.820312 L 403.199219 34.820312 L 403.199219 40.578125 L 397.441406 40.578125 Z M 397.441406 34.820312 " fill-opacity="1" fill-rule="nonzero"/><path fill="#008c7b" d="M 259.199219 29.058594 L 264.960938 29.058594 L 264.960938 34.820312 L 259.199219 34.820312 Z M 259.199219 29.058594 " fill-opacity="1" fill-rule="nonzero"/><path fill="#008c7b" d="M 264.960938 40.578125 L 276.480469 40.578125 L 276.480469 46.339844 L 264.960938 46.339844 Z M 264.960938 40.578125 " fill-opacity="1" fill-rule="nonzero"/><path fill="#008c7b" d="M 276.480469 34.820312 L 282.238281 34.820312 L 282.238281 40.578125 L 276.480469 40.578125 Z M 276.480469 34.820312 " fill-opacity="1" fill-rule="nonzero"/><path fill="#008c7b" d="M 282.238281 52.097656 L 288 52.097656 L 288 57.859375 L 282.238281 57.859375 Z M 282.238281 52.097656 " fill-opacity="1" fill-rule="nonzero"/><path fill="#008c7b" d="M 293.761719 46.339844 L 299.519531 46.339844 L 299.519531 52.097656 L 293.761719 52.097656 Z M 293.761719 46.339844 " fill-opacity="1" fill-rule="nonzero"/><path fill="#008c7b" d="M 299.519531 34.820312 L 311.039062 34.820312 L 311.039062 46.339844 L 299.519531 46.339844 Z M 299.519531 34.820312 " fill-opacity="1" fill-rule="nonzero"/><path fill="#008c7b" d="M 311.039062 29.058594 L 316.800781 29.058594 L 316.800781 34.820312 L 311.039062 34.820312 Z M 311.039062 29.058594 " fill-opacity="1" fill-rule="nonzero"/><path fill="#008c7b" d="M 311.039062 46.339844 L 316.800781 46.339844 L 316.800781 52.097656 L 311.039062 52.097656 Z M 311.039062 46.339844 " fill-opacity="1" fill-rule="nonzero"/><path fill="#008c7b" d="M 328.320312 34.820312 L 334.078125 34.820312 L 334.078125 40.578125 L 328.320312 40.578125 Z M 328.320312 34.820312 " fill-opacity="1" fill-rule="nonzero"/><path fill="#008c7b" d="M 316.800781 40.578125 L 328.320312 40.578125 L 328.320312 46.339844 L 316.800781 46.339844 Z M 316.800781 40.578125 " fill-opacity="1" fill-rule="nonzero"/><path fill="#008c7b" d="M 328.320312 52.097656 L 334.078125 52.097656 L 334.078125 57.859375 L 328.320312 57.859375 Z M 328.320312 52.097656 " fill-opacity="1" fill-rule="nonzero"/><path fill="#008c7b" d="M 339.839844 29.058594 L 334.078125 29.058594 L 334.078125 34.820312 L 345.601562 34.820312 L 345.601562 23.300781 L 339.839844 23.300781 Z M 339.839844 29.058594 " fill-opacity="1" fill-rule="nonzero"/><path fill="#008c7b" d="M 339.839844 46.339844 L 345.601562 46.339844 L 345.601562 52.097656 L 339.839844 52.097656 Z M 339.839844 46.339844 " fill-opacity="1" fill-rule="nonzero"/><path fill="#008c7b" d="M 351.359375 34.820312 L 357.121094 34.820312 L 357.121094 40.578125 L 351.359375 40.578125 Z M 351.359375 34.820312 " fill-opacity="1" fill-rule="nonzero"/><path fill="#008c7b" d="M 408.960938 17.539062 L 420.480469 17.539062 L 420.480469 29.058594 L 408.960938 29.058594 Z M 408.960938 17.539062 " fill-opacity="1" fill-rule="nonzero"/><path fill="#008c7b" d="M 420.480469 29.058594 L 426.238281 29.058594 L 426.238281 34.820312 L 420.480469 34.820312 Z M 420.480469 29.058594 " fill-opacity="1" fill-rule="nonzero"/><path fill="#008c7b" d="M 432 23.300781 L 437.761719 23.300781 L 437.761719 29.058594 L 432 29.058594 Z M 432 23.300781 " fill-opacity="1" fill-rule="nonzero"/><path fill="#008c7b" d="M 460.800781 23.300781 L 466.558594 23.300781 L 466.558594 29.058594 L 460.800781 29.058594 Z M 460.800781 23.300781 " fill-opacity="1" fill-rule="nonzero"/><path fill="#008c7b" d="M 449.28125 29.058594 L 455.039062 29.058594 L 455.039062 34.820312 L 449.28125 34.820312 Z M 449.28125 29.058594 " fill-opacity="1" fill-rule="nonzero"/><path fill="#008c7b" d="M 478.078125 34.820312 L 483.839844 34.820312 L 483.839844 40.578125 L 478.078125 40.578125 Z M 478.078125 34.820312 " fill-opacity="1" fill-rule="nonzero"/><path fill="#008c7b" d="M 466.558594 40.578125 L 478.078125 40.578125 L 478.078125 46.339844 L 466.558594 46.339844 Z M 466.558594 40.578125 " fill-opacity="1" fill-rule="nonzero"/><path fill="#008c7b" d="M 483.839844 17.539062 L 495.359375 17.539062 L 495.359375 23.300781 L 483.839844 23.300781 Z M 483.839844 17.539062 " fill-opacity="1" fill-rule="nonzero"/><path fill="#008c7b" d="M 495.359375 29.058594 L 501.121094 29.058594 L 501.121094 34.820312 L 495.359375 34.820312 Z M 495.359375 29.058594 " fill-opacity="1" fill-rule="nonzero"/><path fill="#008c7b" d="M 512.640625 29.058594 L 524.160156 29.058594 L 524.160156 34.820312 L 512.640625 34.820312 Z M 512.640625 29.058594 " fill-opacity="1" fill-rule="nonzero"/><path fill="#008c7b" d="M 529.921875 29.058594 L 535.679688 29.058594 L 535.679688 34.820312 L 529.921875 34.820312 Z M 529.921875 29.058594 " fill-opacity="1" fill-rule="nonzero"/><path fill="#008c7b" d="M 506.878906 40.578125 L 512.640625 40.578125 L 512.640625 46.339844 L 506.878906 46.339844 Z M 506.878906 40.578125 " fill-opacity="1" fill-rule="nonzero"/><path fill="#008c7b" d="M 512.640625 46.339844 L 518.398438 46.339844 L 518.398438 52.097656 L 512.640625 52.097656 Z M 512.640625 46.339844 " fill-opacity="1" fill-rule="nonzero"/><path fill="#008c7b" d="M 541.441406 34.820312 L 552.960938 34.820312 L 552.960938 46.339844 L 541.441406 46.339844 Z M 541.441406 34.820312 " fill-opacity="1" fill-rule="nonzero"/><path fill="#008c7b" d="M 552.960938 23.300781 L 558.71875 23.300781 L 558.71875 29.058594 L 552.960938 29.058594 Z M 552.960938 23.300781 " fill-opacity="1" fill-rule="nonzero"/><path fill="#008c7b" d="M 564.480469 40.578125 L 570.238281 40.578125 L 570.238281 46.339844 L 564.480469 46.339844 Z M 564.480469 40.578125 " fill-opacity="1" fill-rule="nonzero"/><path fill="#008c7b" d="M 524.160156 52.097656 L 529.921875 52.097656 L 529.921875 57.859375 L 524.160156 57.859375 Z M 524.160156 52.097656 " fill-opacity="1" fill-rule="nonzero"/><path fill="#008c7b" d="M 541.441406 11.777344 L 547.199219 11.777344 L 547.199219 17.539062 L 541.441406 17.539062 Z M 541.441406 11.777344 " fill-opacity="1" fill-rule="nonzero"/><path fill="#008c7b" d="M 472.320312 52.097656 L 478.078125 52.097656 L 478.078125 57.859375 L 472.320312 57.859375 Z M 472.320312 52.097656 " fill-opacity="1" fill-rule="nonzero"/><path fill="#008c7b" d="M 5.761719 23.300781 L 11.519531 23.300781 L 11.519531 29.058594 L 5.761719 29.058594 Z M 5.761719 23.300781 " fill-opacity="1" fill-rule="nonzero"/><path fill="#008c7b" d="M 17.28125 34.820312 L 23.039062 34.820312 L 23.039062 40.578125 L 17.28125 40.578125 Z M 17.28125 34.820312 " fill-opacity="1" fill-rule="nonzero"/><path fill="#008c7b" d="M 28.800781 23.300781 L 40.320312 23.300781 L 40.320312 34.820312 L 28.800781 34.820312 Z M 28.800781 23.300781 " fill-opacity="1" fill-rule="nonzero"/><path fill="#008c7b" d="M 34.558594 46.339844 L 40.320312 46.339844 L 40.320312 52.097656 L 34.558594 52.097656 Z M 34.558594 46.339844 " fill-opacity="1" fill-rule="nonzero"/><path fill="#008c7b" d="M 46.078125 11.777344 L 57.601562 11.777344 L 57.601562 17.539062 L 46.078125 17.539062 Z M 46.078125 11.777344 " fill-opacity="1" fill-rule="nonzero"/><path fill="#008c7b" d="M 40.320312 17.539062 L 46.078125 17.539062 L 46.078125 23.300781 L 40.320312 23.300781 Z M 40.320312 17.539062 " fill-opacity="1" fill-rule="nonzero"/><path fill="#008c7b" d="M 51.839844 34.820312 L 69.121094 34.820312 L 69.121094 40.578125 L 51.839844 40.578125 Z M 51.839844 34.820312 " fill-opacity="1" fill-rule="nonzero"/><path fill="#008c7b" d="M 63.359375 23.300781 L 69.121094 23.300781 L 69.121094 29.058594 L 63.359375 29.058594 Z M 63.359375 23.300781 " fill-opacity="1" fill-rule="nonzero"/><path fill="#008c7b" d="M 69.121094 40.578125 L 80.640625 40.578125 L 80.640625 46.339844 L 69.121094 46.339844 Z M 69.121094 40.578125 " fill-opacity="1" fill-rule="nonzero"/><path fill="#008c7b" d="M 80.640625 46.339844 L 86.398438 46.339844 L 86.398438 52.097656 L 80.640625 52.097656 Z M 80.640625 46.339844 " fill-opacity="1" fill-rule="nonzero"/><path fill="#008c7b" d="M 80.640625 34.820312 L 86.398438 34.820312 L 86.398438 40.578125 L 80.640625 40.578125 Z M 80.640625 34.820312 " fill-opacity="1" fill-rule="nonzero"/><path fill="#008c7b" d="M 86.398438 23.300781 L 97.921875 23.300781 L 97.921875 34.820312 L 86.398438 34.820312 Z M 86.398438 23.300781 " fill-opacity="1" fill-rule="nonzero"/><path fill="#008c7b" d="M 103.679688 23.300781 L 109.441406 23.300781 L 109.441406 29.058594 L 103.679688 29.058594 Z M 103.679688 23.300781 " fill-opacity="1" fill-rule="nonzero"/><path fill="#008c7b" d="M 97.921875 52.097656 L 103.679688 52.097656 L 103.679688 57.859375 L 97.921875 57.859375 Z M 97.921875 52.097656 " fill-opacity="1" fill-rule="nonzero"/><path fill="#008c7b" d="M 5.761719 46.339844 L 11.519531 46.339844 L 11.519531 52.097656 L 5.761719 52.097656 Z M 5.761719 46.339844 " fill-opacity="1" fill-rule="nonzero"/><path fill="#008c7b" d="M 270.71875 17.539062 L 276.480469 17.539062 L 276.480469 23.300781 L 270.71875 23.300781 Z M 270.71875 17.539062 " fill-opacity="1" fill-rule="nonzero"/><path fill="#008c7b" d="M 236.160156 40.578125 L 247.679688 40.578125 L 247.679688 46.339844 L 236.160156 46.339844 Z M 236.160156 40.578125 " fill-opacity="1" fill-rule="nonzero"/><path fill="#008c7b" d="M 224.640625 52.097656 L 230.398438 52.097656 L 230.398438 57.859375 L 224.640625 57.859375 Z M 224.640625 52.097656 " fill-opacity="1" fill-rule="nonzero"/><path fill="#008c7b" d="M 126.71875 34.820312 L 132.480469 34.820312 L 132.480469 40.578125 L 126.71875 40.578125 Z M 126.71875 34.820312 " fill-opacity="1" fill-rule="nonzero"/><path fill="#008c7b" d="M 138.238281 23.300781 L 144 23.300781 L 144 29.058594 L 138.238281 29.058594 Z M 138.238281 23.300781 " fill-opacity="1" fill-rule="nonzero"/><path fill="#008c7b" d="M 144 29.058594 L 149.761719 29.058594 L 149.761719 40.578125 L 144 40.578125 Z M 144 29.058594 " fill-opacity="1" fill-rule="nonzero"/><path fill="#008c7b" d="M 149.761719 40.578125 L 155.519531 40.578125 L 155.519531 46.339844 L 149.761719 46.339844 Z M 149.761719 40.578125 " fill-opacity="1" fill-rule="nonzero"/><path fill="#008c7b" d="M 155.519531 23.300781 L 167.039062 23.300781 L 167.039062 34.820312 L 155.519531 34.820312 Z M 155.519531 23.300781 " fill-opacity="1" fill-rule="nonzero"/><path fill="#008c7b" d="M 167.039062 40.578125 L 172.800781 40.578125 L 172.800781 46.339844 L 167.039062 46.339844 Z M 167.039062 40.578125 " fill-opacity="1" fill-rule="nonzero"/><path fill="#008c7b" d="M 178.558594 34.820312 L 184.320312 34.820312 L 184.320312 40.578125 L 178.558594 40.578125 Z M 178.558594 34.820312 " fill-opacity="1" fill-rule="nonzero"/><path fill="#008c7b" d="M 195.839844 29.058594 L 201.601562 29.058594 L 201.601562 34.820312 L 195.839844 34.820312 Z M 195.839844 29.058594 " fill-opacity="1" fill-rule="nonzero"/><path fill="#008c7b" d="M 201.601562 34.820312 L 213.121094 34.820312 L 213.121094 40.578125 L 201.601562 40.578125 Z M 201.601562 34.820312 " fill-opacity="1" fill-rule="nonzero"/><path fill="#008c7b" d="M 213.121094 29.058594 L 218.878906 29.058594 L 218.878906 34.820312 L 213.121094 34.820312 Z M 213.121094 29.058594 " fill-opacity="1" fill-rule="nonzero"/><path fill="#008c7b" d="M 201.601562 17.539062 L 207.359375 17.539062 L 207.359375 23.300781 L 201.601562 23.300781 Z M 201.601562 17.539062 " fill-opacity="1" fill-rule="nonzero"/><path fill="#008c7b" d="M 224.640625 23.300781 L 230.398438 23.300781 L 230.398438 29.058594 L 224.640625 29.058594 Z M 224.640625 23.300781 " fill-opacity="1" fill-rule="nonzero"/><path fill="#008c7b" d="M 241.921875 29.058594 L 253.441406 29.058594 L 253.441406 34.820312 L 241.921875 34.820312 Z M 241.921875 29.058594 " fill-opacity="1" fill-rule="nonzero"/><path fill="#008c7b" d="M 103.679688 29.058594 L 109.441406 29.058594 L 109.441406 34.820312 L 103.679688 34.820312 Z M 103.679688 29.058594 " fill-opacity="1" fill-rule="nonzero"/><path fill="#008c7b" d="M 115.199219 29.058594 L 126.71875 29.058594 L 126.71875 34.820312 L 115.199219 34.820312 Z M 115.199219 29.058594 " fill-opacity="1" fill-rule="nonzero"/><path fill="#008c7b" d="M 144 11.777344 L 149.761719 11.777344 L 149.761719 17.539062 L 144 17.539062 Z M 144 11.777344 " fill-opacity="1" fill-rule="nonzero"/><path fill="#008c7b" d="M 178.558594 17.539062 L 190.078125 17.539062 L 190.078125 23.300781 L 178.558594 23.300781 Z M 178.558594 17.539062 " fill-opacity="1" fill-rule="nonzero"/><path fill="#008c7b" d="M 236.160156 11.777344 L 247.679688 11.777344 L 247.679688 17.539062 L 236.160156 17.539062 Z M 236.160156 11.777344 " fill-opacity="1" fill-rule="nonzero"/><path fill="#008c7b" d="M 288 17.539062 L 299.519531 17.539062 L 299.519531 23.300781 L 288 23.300781 Z M 288 17.539062 " fill-opacity="1" fill-rule="nonzero"/><path fill="#008c7b" d="M 264.960938 6.019531 L 276.480469 6.019531 L 276.480469 11.777344 L 264.960938 11.777344 Z M 264.960938 6.019531 " fill-opacity="1" fill-rule="nonzero"/><path fill="#008c7b" d="M 253.441406 11.777344 L 259.199219 11.777344 L 259.199219 17.539062 L 253.441406 17.539062 Z M 253.441406 11.777344 " fill-opacity="1" fill-rule="nonzero"/><path fill="#008c7b" d="M 351.359375 11.777344 L 362.878906 11.777344 L 362.878906 17.539062 L 351.359375 17.539062 Z M 351.359375 11.777344 " fill-opacity="1" fill-rule="nonzero"/><path fill="#008c7b" d="M 368.640625 23.300781 L 380.160156 23.300781 L 380.160156 29.058594 L 368.640625 29.058594 Z M 368.640625 23.300781 " fill-opacity="1" fill-rule="nonzero"/><path fill="#008c7b" d="M 380.160156 6.019531 L 391.679688 6.019531 L 391.679688 17.539062 L 380.160156 17.539062 Z M 380.160156 6.019531 " fill-opacity="1" fill-rule="nonzero"/><path fill="#008c7b" d="M 397.441406 23.300781 L 403.199219 23.300781 L 403.199219 29.058594 L 397.441406 29.058594 Z M 397.441406 23.300781 " fill-opacity="1" fill-rule="nonzero"/><path fill="#008c7b" d="M 414.71875 6.019531 L 420.480469 6.019531 L 420.480469 11.777344 L 414.71875 11.777344 Z M 414.71875 6.019531 " fill-opacity="1" fill-rule="nonzero"/><path fill="#008c7b" d="M 432 11.777344 L 437.761719 11.777344 L 437.761719 17.539062 L 432 17.539062 Z M 432 11.777344 " fill-opacity="1" fill-rule="nonzero"/><path fill="#008c7b" d="M 449.28125 11.777344 L 460.800781 11.777344 L 460.800781 23.300781 L 449.28125 23.300781 Z M 449.28125 11.777344 " fill-opacity="1" fill-rule="nonzero"/><path fill="#008c7b" d="M 478.078125 6.019531 L 483.839844 6.019531 L 483.839844 11.777344 L 478.078125 11.777344 Z M 478.078125 6.019531 " fill-opacity="1" fill-rule="nonzero"/><path fill="#008c7b" d="M 472.320312 17.539062 L 478.078125 17.539062 L 478.078125 23.300781 L 472.320312 23.300781 Z M 472.320312 17.539062 " fill-opacity="1" fill-rule="nonzero"/><path fill="#008c7b" d="M 506.878906 17.539062 L 512.640625 17.539062 L 512.640625 23.300781 L 506.878906 23.300781 Z M 506.878906 17.539062 " fill-opacity="1" fill-rule="nonzero"/><path fill="#008c7b" d="M 518.398438 11.777344 L 529.921875 11.777344 L 529.921875 23.300781 L 518.398438 23.300781 Z M 518.398438 11.777344 " fill-opacity="1" fill-rule="nonzero"/><path fill="#008c7b" d="M 535.679688 17.539062 L 541.441406 17.539062 L 541.441406 23.300781 L 535.679688 23.300781 Z M 535.679688 17.539062 " fill-opacity="1" fill-rule="nonzero"/><path fill="#008c7b" d="M 489.601562 40.578125 L 495.359375 40.578125 L 495.359375 46.339844 L 489.601562 46.339844 Z M 489.601562 40.578125 " fill-opacity="1" fill-rule="nonzero"/><path fill="#008c7b" d="M 524.160156 40.578125 L 529.921875 40.578125 L 529.921875 46.339844 L 524.160156 46.339844 Z M 524.160156 40.578125 " fill-opacity="1" fill-rule="nonzero"/><path fill="#008c7b" d="M 547.199219 40.578125 L 552.960938 40.578125 L 552.960938 46.339844 L 547.199219 46.339844 Z M 547.199219 40.578125 " fill-opacity="1" fill-rule="nonzero"/><path fill="#008c7b" d="M 564.480469 23.300781 L 576 23.300781 L 576 34.820312 L 564.480469 34.820312 Z M 564.480469 23.300781 " fill-opacity="1" fill-rule="nonzero"/><path fill="#008c7b" d="M 34.558594 40.578125 L 40.320312 40.578125 L 40.320312 46.339844 L 34.558594 46.339844 Z M 34.558594 40.578125 " fill-opacity="1" fill-rule="nonzero"/><path fill="#008c7b" d="M 17.28125 52.097656 L 23.039062 52.097656 L 23.039062 57.859375 L 17.28125 57.859375 Z M 17.28125 52.097656 " fill-opacity="1" fill-rule="nonzero"/><path fill="#008c7b" d="M 11.519531 11.777344 L 28.800781 11.777344 L 28.800781 17.539062 L 11.519531 17.539062 Z M 11.519531 11.777344 " fill-opacity="1" fill-rule="nonzero"/><path fill="#008c7b" d="M 34.558594 6.019531 L 40.320312 6.019531 L 40.320312 11.777344 L 34.558594 11.777344 Z M 34.558594 6.019531 " fill-opacity="1" fill-rule="nonzero"/><path fill="#008c7b" d="M 57.601562 23.300781 L 63.359375 23.300781 L 63.359375 29.058594 L 57.601562 29.058594 Z M 57.601562 23.300781 " fill-opacity="1" fill-rule="nonzero"/><path fill="#008c7b" d="M 201.601562 46.339844 L 213.121094 46.339844 L 213.121094 52.097656 L 201.601562 52.097656 Z M 201.601562 46.339844 " fill-opacity="1" fill-rule="nonzero"/><path fill="#9d7de6" d="M 276.480469 6.019531 L 288 6.019531 L 288 11.777344 L 276.480469 11.777344 Z M 276.480469 6.019531 " fill-opacity="1" fill-rule="nonzero"/><path fill="#9d7de6" d="M 259.199219 17.539062 L 264.960938 17.539062 L 264.960938 23.300781 L 259.199219 23.300781 Z M 259.199219 17.539062 " fill-opacity="1" fill-rule="nonzero"/><path fill="#9d7de6" d="M 247.679688 0.257812 L 259.199219 0.257812 L 259.199219 6.019531 L 247.679688 6.019531 Z M 247.679688 0.257812 " fill-opacity="1" fill-rule="nonzero"/><path fill="#9d7de6" d="M 224.640625 23.300781 L 236.160156 23.300781 L 236.160156 29.058594 L 224.640625 29.058594 Z M 224.640625 23.300781 " fill-opacity="1" fill-rule="nonzero"/><path fill="#9d7de6" d="M 241.921875 17.539062 L 247.679688 17.539062 L 247.679688 23.300781 L 241.921875 23.300781 Z M 241.921875 17.539062 " fill-opacity="1" fill-rule="nonzero"/><path fill="#9d7de6" d="M 282.238281 23.300781 L 293.761719 23.300781 L 293.761719 29.058594 L 282.238281 29.058594 Z M 282.238281 23.300781 " fill-opacity="1" fill-rule="nonzero"/><path fill="#9d7de6" d="M 316.800781 23.300781 L 328.320312 23.300781 L 328.320312 29.058594 L 316.800781 29.058594 Z M 316.800781 23.300781 " fill-opacity="1" fill-rule="nonzero"/><path fill="#9d7de6" d="M 339.839844 17.539062 L 351.359375 17.539062 L 351.359375 23.300781 L 339.839844 23.300781 Z M 339.839844 17.539062 " fill-opacity="1" fill-rule="nonzero"/><path fill="#9d7de6" d="M 316.800781 11.777344 L 328.320312 11.777344 L 328.320312 17.539062 L 316.800781 17.539062 Z M 316.800781 11.777344 " fill-opacity="1" fill-rule="nonzero"/><path fill="#9d7de6" d="M 368.640625 17.539062 L 380.160156 17.539062 L 380.160156 23.300781 L 368.640625 23.300781 Z M 368.640625 17.539062 " fill-opacity="1" fill-rule="nonzero"/><path fill="#9d7de6" d="M 385.921875 23.300781 L 391.679688 23.300781 L 391.679688 29.058594 L 385.921875 29.058594 Z M 385.921875 23.300781 " fill-opacity="1" fill-rule="nonzero"/><path fill="#9d7de6" d="M 408.960938 34.820312 L 414.71875 34.820312 L 414.71875 40.578125 L 408.960938 40.578125 Z M 408.960938 34.820312 " fill-opacity="1" fill-rule="nonzero"/><path fill="#9d7de6" d="M 420.480469 11.777344 L 432 11.777344 L 432 17.539062 L 420.480469 17.539062 Z M 420.480469 11.777344 " fill-opacity="1" fill-rule="nonzero"/><path fill="#9d7de6" d="M 426.238281 0.257812 L 432 0.257812 L 432 6.019531 L 426.238281 6.019531 Z M 426.238281 0.257812 " fill-opacity="1" fill-rule="nonzero"/><path fill="#9d7de6" d="M 437.761719 40.578125 L 449.28125 40.578125 L 449.28125 46.339844 L 437.761719 46.339844 Z M 437.761719 40.578125 " fill-opacity="1" fill-rule="nonzero"/><path fill="#9d7de6" d="M 472.320312 23.300781 L 478.078125 23.300781 L 478.078125 29.058594 L 472.320312 29.058594 Z M 472.320312 23.300781 " fill-opacity="1" fill-rule="nonzero"/><path fill="#9d7de6" d="M 184.320312 40.578125 L 201.601562 40.578125 L 201.601562 46.339844 L 184.320312 46.339844 Z M 184.320312 40.578125 " fill-opacity="1" fill-rule="nonzero"/><path fill="#9d7de6" d="M 178.558594 29.058594 L 184.320312 29.058594 L 184.320312 34.820312 L 178.558594 34.820312 Z M 178.558594 29.058594 " fill-opacity="1" fill-rule="nonzero"/><path fill="#9d7de6" d="M 120.960938 23.300781 L 132.480469 23.300781 L 132.480469 29.058594 L 120.960938 29.058594 Z M 120.960938 23.300781 " fill-opacity="1" fill-rule="nonzero"/><path fill="#9d7de6" d="M 138.238281 52.097656 L 144 52.097656 L 144 57.859375 L 138.238281 57.859375 Z M 138.238281 52.097656 " fill-opacity="1" fill-rule="nonzero"/><path fill="#9d7de6" d="M 80.640625 17.539062 L 97.921875 17.539062 L 97.921875 23.300781 L 80.640625 23.300781 Z M 80.640625 17.539062 " fill-opacity="1" fill-rule="nonzero"/><path fill="#9d7de6" d="M 46.078125 29.058594 L 57.601562 29.058594 L 57.601562 34.820312 L 46.078125 34.820312 Z M 46.078125 29.058594 " fill-opacity="1" fill-rule="nonzero"/><path fill="#9d7de6" d="M 46.078125 6.019531 L 57.601562 6.019531 L 57.601562 11.777344 L 46.078125 11.777344 Z M 46.078125 6.019531 " fill-opacity="1" fill-rule="nonzero"/><path fill="#9d7de6" d="M 63.359375 17.539062 L 69.121094 17.539062 L 69.121094 23.300781 L 63.359375 23.300781 Z M 63.359375 17.539062 " fill-opacity="1" fill-rule="nonzero"/><path fill="#9d7de6" d="M 40.320312 46.339844 L 46.078125 46.339844 L 46.078125 52.097656 L 40.320312 52.097656 Z M 40.320312 46.339844 " fill-opacity="1" fill-rule="nonzero"/><path fill="#9d7de6" d="M 23.039062 34.820312 L 28.800781 34.820312 L 28.800781 40.578125 L 23.039062 40.578125 Z M 23.039062 34.820312 " fill-opacity="1" fill-rule="nonzero"/><path fill="#9d7de6" d="M 17.28125 23.300781 L 23.039062 23.300781 L 23.039062 29.058594 L 17.28125 29.058594 Z M 17.28125 23.300781 " fill-opacity="1" fill-rule="nonzero"/><path fill="#9d7de6" d="M 518.398438 23.300781 L 529.921875 23.300781 L 529.921875 29.058594 L 518.398438 29.058594 Z M 518.398438 23.300781 " fill-opacity="1" fill-rule="nonzero"/><path fill="#9d7de6" d="M 547.199219 6.019531 L 552.960938 6.019531 L 552.960938 11.777344 L 547.199219 11.777344 Z M 547.199219 6.019531 " fill-opacity="1" fill-rule="nonzero"/><path fill="#9d7de6" d="M 541.441406 29.058594 L 547.199219 29.058594 L 547.199219 34.820312 L 541.441406 34.820312 Z M 541.441406 29.058594 " fill-opacity="1" fill-rule="nonzero"/><path fill="#9d7de6" d="M 558.71875 17.539062 L 570.238281 17.539062 L 570.238281 23.300781 L 558.71875 23.300781 Z M 558.71875 17.539062 " fill-opacity="1" fill-rule="nonzero"/><path fill="#9d7de6" d="M 558.71875 34.820312 L 570.238281 34.820312 L 570.238281 40.578125 L 558.71875 40.578125 Z M 558.71875 34.820312 " fill-opacity="1" fill-rule="nonzero"/><path fill="#9d7de6" d="M 495.359375 34.820312 L 506.878906 34.820312 L 506.878906 40.578125 L 495.359375 40.578125 Z M 495.359375 34.820312 " fill-opacity="1" fill-rule="nonzero"/><path fill="#9d7de6" d="M 109.441406 40.578125 L 115.199219 40.578125 L 115.199219 46.339844 L 109.441406 46.339844 Z M 109.441406 40.578125 " fill-opacity="1" fill-rule="nonzero"/><path fill="#9d7de6" d="M 155.519531 17.539062 L 167.039062 17.539062 L 167.039062 23.300781 L 155.519531 23.300781 Z M 155.519531 17.539062 " fill-opacity="1" fill-rule="nonzero"/><path fill="#007d2a" d="M 570.238281 17.539062 L 570.238281 11.777344 L 558.71875 11.777344 L 558.71875 6.019531 L 547.199219 6.019531 L 547.199219 0.257812 L 541.441406 0.257812 L 541.441406 6.019531 L 535.679688 6.019531 L 535.679688 17.539062 L 529.921875 17.539062 L 529.921875 11.777344 L 512.640625 11.777344 L 512.640625 17.539062 L 506.878906 17.539062 L 506.878906 11.777344 L 495.359375 11.777344 L 495.359375 6.019531 L 501.121094 6.019531 L 501.121094 0.257812 L 489.601562 0.257812 L 489.601562 6.019531 L 478.078125 6.019531 L 478.078125 11.777344 L 466.558594 11.777344 L 466.558594 17.539062 L 460.800781 17.539062 L 460.800781 6.019531 L 455.039062 6.019531 L 455.039062 11.777344 L 443.519531 11.777344 L 443.519531 17.539062 L 437.761719 17.539062 L 437.761719 11.777344 L 426.238281 11.777344 L 426.238281 6.019531 L 437.761719 6.019531 L 437.761719 0.257812 L 420.480469 0.257812 L 420.480469 6.019531 L 408.960938 6.019531 L 408.960938 11.777344 L 403.199219 11.777344 L 403.199219 17.539062 L 397.441406 17.539062 L 397.441406 6.019531 L 403.199219 6.019531 L 403.199219 0.257812 L 391.679688 0.257812 L 391.679688 6.019531 L 374.398438 6.019531 L 374.398438 11.777344 L 380.160156 11.777344 L 380.160156 17.539062 L 374.398438 17.539062 L 374.398438 11.777344 L 368.640625 11.777344 L 368.640625 6.019531 L 362.878906 6.019531 L 362.878906 11.777344 L 357.121094 11.777344 L 357.121094 6.019531 L 351.359375 6.019531 L 351.359375 0.257812 L 339.839844 0.257812 L 339.839844 6.019531 L 345.601562 6.019531 L 345.601562 11.777344 L 339.839844 11.777344 L 339.839844 17.539062 L 334.078125 17.539062 L 334.078125 11.777344 L 328.320312 11.777344 L 328.320312 6.019531 L 322.558594 6.019531 L 322.558594 11.777344 L 316.800781 11.777344 L 316.800781 17.539062 L 311.039062 17.539062 L 311.039062 11.777344 L 305.28125 11.777344 L 305.28125 17.539062 L 299.519531 17.539062 L 299.519531 11.777344 L 288 11.777344 L 288 6.019531 L 276.480469 6.019531 L 276.480469 0.257812 L 264.960938 0.257812 L 264.960938 6.019531 L 259.199219 6.019531 L 259.199219 0.257812 L 241.921875 0.257812 L 241.921875 6.019531 L 253.441406 6.019531 L 253.441406 11.777344 L 236.160156 11.777344 L 236.160156 17.539062 L 218.878906 17.539062 L 218.878906 11.777344 L 213.121094 11.777344 L 213.121094 6.019531 L 207.359375 6.019531 L 207.359375 11.777344 L 195.839844 11.777344 L 195.839844 17.539062 L 190.078125 17.539062 L 190.078125 11.777344 L 178.558594 11.777344 L 178.558594 17.539062 L 172.800781 17.539062 L 172.800781 11.777344 L 167.039062 11.777344 L 167.039062 17.539062 L 161.28125 17.539062 L 161.28125 11.777344 L 155.519531 11.777344 L 155.519531 6.019531 L 138.238281 6.019531 L 138.238281 11.777344 L 132.480469 11.777344 L 132.480469 17.539062 L 120.960938 17.539062 L 120.960938 11.777344 L 115.199219 11.777344 L 115.199219 17.539062 L 109.441406 17.539062 L 109.441406 11.777344 L 86.398438 11.777344 L 86.398438 17.539062 L 80.640625 17.539062 L 80.640625 11.777344 L 86.398438 11.777344 L 86.398438 6.019531 L 74.878906 6.019531 L 74.878906 11.777344 L 69.121094 11.777344 L 69.121094 6.019531 L 63.359375 6.019531 L 63.359375 0.257812 L 51.839844 0.257812 L 51.839844 6.019531 L 28.800781 6.019531 L 28.800781 11.777344 L 11.519531 11.777344 L 11.519531 6.25 L 0 6.25 L 0 11.777344 L 5.761719 11.777344 L 5.761719 17.539062 L 0 17.539062 L 0 86.660156 L 576 86.660156 L 576 17.539062 Z M 570.238281 17.539062 " fill-opacity="1" fill-rule="nonzero"/><path fill="#007d2a" d="M 155.519531 0.257812 L 161.28125 0.257812 L 161.28125 6.019531 L 155.519531 6.019531 Z M 155.519531 0.257812 " fill-opacity="1" fill-rule="nonzero"/><path fill="#007d2a" d="M 109.441406 6.019531 L 115.199219 6.019531 L 115.199219 11.777344 L 109.441406 11.777344 Z M 109.441406 6.019531 " fill-opacity="1" fill-rule="nonzero"/><path fill="#007d2a" d="M 299.519531 6.019531 L 305.28125 6.019531 L 305.28125 11.777344 L 299.519531 11.777344 Z M 299.519531 6.019531 " fill-opacity="1" fill-rule="nonzero"/><path fill="#007d2a" d="M 224.640625 6.019531 L 236.160156 6.019531 L 236.160156 11.777344 L 224.640625 11.777344 Z M 224.640625 6.019531 " fill-opacity="1" fill-rule="nonzero"/><path fill="#007d2a" d="M 558.71875 0.257812 L 570.238281 0.257812 L 570.238281 6.019531 L 558.71875 6.019531 Z M 558.71875 0.257812 " fill-opacity="1" fill-rule="nonzero"/><path fill="#160059" d="M 570.238281 75.140625 L 570.238281 69.378906 L 564.480469 69.378906 L 564.480469 75.140625 L 558.71875 75.140625 L 558.71875 69.378906 L 552.960938 69.378906 L 552.960938 75.140625 L 547.199219 75.140625 L 547.199219 63.617188 L 529.921875 63.617188 L 529.921875 69.378906 L 541.441406 69.378906 L 541.441406 75.140625 L 518.398438 75.140625 L 518.398438 69.378906 L 512.640625 69.378906 L 512.640625 63.617188 L 506.878906 63.617188 L 506.878906 69.378906 L 495.359375 69.378906 L 495.359375 75.140625 L 483.839844 75.140625 L 483.839844 69.378906 L 472.320312 69.378906 L 472.320312 75.140625 L 466.558594 75.140625 L 466.558594 69.378906 L 455.039062 69.378906 L 455.039062 63.617188 L 449.28125 63.617188 L 449.28125 75.140625 L 443.519531 75.140625 L 443.519531 69.378906 L 437.761719 69.378906 L 437.761719 75.140625 L 432 75.140625 L 432 69.378906 L 426.238281 69.378906 L 426.238281 75.140625 L 420.480469 75.140625 L 420.480469 69.378906 L 414.71875 69.378906 L 414.71875 63.617188 L 408.960938 63.617188 L 408.960938 69.378906 L 391.679688 69.378906 L 391.679688 75.140625 L 380.160156 75.140625 L 380.160156 69.378906 L 368.640625 69.378906 L 368.640625 75.140625 L 362.878906 75.140625 L 362.878906 69.378906 L 351.359375 69.378906 L 351.359375 75.140625 L 339.839844 75.140625 L 339.839844 69.378906 L 334.078125 69.378906 L 334.078125 75.140625 L 328.320312 75.140625 L 328.320312 69.378906 L 322.558594 69.378906 L 322.558594 63.617188 L 316.800781 63.617188 L 316.800781 69.378906 L 311.039062 69.378906 L 311.039062 75.140625 L 305.28125 75.140625 L 305.28125 69.378906 L 288 69.378906 L 288 75.140625 L 282.238281 75.140625 L 282.238281 69.378906 L 276.480469 69.378906 L 276.480469 75.140625 L 253.441406 75.140625 L 253.441406 69.378906 L 259.199219 69.378906 L 259.199219 63.617188 L 241.921875 63.617188 L 241.921875 57.859375 L 236.160156 57.859375 L 236.160156 63.617188 L 230.398438 63.617188 L 230.398438 69.378906 L 247.679688 69.378906 L 247.679688 75.140625 L 218.878906 75.140625 L 218.878906 69.378906 L 213.121094 69.378906 L 213.121094 75.140625 L 201.601562 75.140625 L 201.601562 63.617188 L 195.839844 63.617188 L 195.839844 69.378906 L 190.078125 69.378906 L 190.078125 75.140625 L 172.800781 75.140625 L 172.800781 69.378906 L 167.039062 69.378906 L 167.039062 75.140625 L 149.761719 75.140625 L 149.761719 69.378906 L 138.238281 69.378906 L 138.238281 75.140625 L 132.480469 75.140625 L 132.480469 63.617188 L 126.71875 63.617188 L 126.71875 69.378906 L 115.199219 69.378906 L 115.199219 75.140625 L 97.921875 75.140625 L 97.921875 69.378906 L 86.398438 69.378906 L 86.398438 75.140625 L 74.878906 75.140625 L 74.878906 69.378906 L 63.359375 69.378906 L 63.359375 63.617188 L 57.601562 63.617188 L 57.601562 75.140625 L 40.320312 75.140625 L 40.320312 69.378906 L 28.800781 69.378906 L 28.800781 75.140625 L 17.28125 75.140625 L 17.28125 69.378906 L 5.761719 69.378906 L 5.761719 75.140625 L 0 75.140625 L 0 86.660156 L 576 86.660156 L 576 75.140625 Z M 570.238281 75.140625 " fill-opacity="1" fill-rule="nonzero"/><path fill="#160059" d="M 17.28125 63.617188 L 23.039062 63.617188 L 23.039062 69.378906 L 17.28125 69.378906 Z M 17.28125 63.617188 " fill-opacity="1" fill-rule="nonzero"/><path fill="#160059" d="M 97.921875 63.617188 L 103.679688 63.617188 L 103.679688 69.378906 L 97.921875 69.378906 Z M 97.921875 63.617188 " fill-opacity="1" fill-rule="nonzero"/><path fill="#160059" d="M 74.878906 57.859375 L 80.640625 57.859375 L 80.640625 63.617188 L 74.878906 63.617188 Z M 74.878906 57.859375 " fill-opacity="1" fill-rule="nonzero"/><path fill="#160059" d="M 5.761719 57.859375 L 11.519531 57.859375 L 11.519531 63.617188 L 5.761719 63.617188 Z M 5.761719 57.859375 " fill-opacity="1" fill-rule="nonzero"/><path fill="#160059" d="M 155.519531 57.859375 L 161.28125 57.859375 L 161.28125 63.617188 L 155.519531 63.617188 Z M 155.519531 57.859375 " fill-opacity="1" fill-rule="nonzero"/><path fill="#160059" d="M 161.28125 63.617188 L 167.039062 63.617188 L 167.039062 69.378906 L 161.28125 69.378906 Z M 161.28125 63.617188 " fill-opacity="1" fill-rule="nonzero"/><path fill="#160059" d="M 172.800781 63.617188 L 178.558594 63.617188 L 178.558594 69.378906 L 172.800781 69.378906 Z M 172.800781 63.617188 " fill-opacity="1" fill-rule="nonzero"/><path fill="#160059" d="M 264.960938 63.617188 L 270.71875 63.617188 L 270.71875 69.378906 L 264.960938 69.378906 Z M 264.960938 63.617188 " fill-opacity="1" fill-rule="nonzero"/><path fill="#160059" d="M 282.238281 63.617188 L 288 63.617188 L 288 69.378906 L 282.238281 69.378906 Z M 282.238281 63.617188 " fill-opacity="1" fill-rule="nonzero"/><path fill="#160059" d="M 299.519531 57.859375 L 311.039062 57.859375 L 311.039062 63.617188 L 299.519531 63.617188 Z M 299.519531 57.859375 " fill-opacity="1" fill-rule="nonzero"/><path fill="#160059" d="M 339.839844 63.617188 L 345.601562 63.617188 L 345.601562 69.378906 L 339.839844 69.378906 Z M 339.839844 63.617188 " fill-opacity="1" fill-rule="nonzero"/><path fill="#160059" d="M 362.878906 63.617188 L 368.640625 63.617188 L 368.640625 69.378906 L 362.878906 69.378906 Z M 362.878906 63.617188 " fill-opacity="1" fill-rule="nonzero"/><path fill="#160059" d="M 432 63.617188 L 437.761719 63.617188 L 437.761719 69.378906 L 432 69.378906 Z M 432 63.617188 " fill-opacity="1" fill-rule="nonzero"/><path fill="#160059" d="M 437.761719 57.859375 L 443.519531 57.859375 L 443.519531 63.617188 L 437.761719 63.617188 Z M 437.761719 57.859375 " fill-opacity="1" fill-rule="nonzero"/><path fill="#160059" d="M 403.199219 57.859375 L 408.960938 57.859375 L 408.960938 63.617188 L 403.199219 63.617188 Z M 403.199219 57.859375 " fill-opacity="1" fill-rule="nonzero"/><path fill="#160059" d="M 385.921875 57.859375 L 391.679688 57.859375 L 391.679688 63.617188 L 385.921875 63.617188 Z M 385.921875 57.859375 " fill-opacity="1" fill-rule="nonzero"/><path fill="#160059" d="M 351.359375 57.859375 L 362.878906 57.859375 L 362.878906 63.617188 L 351.359375 63.617188 Z M 351.359375 57.859375 " fill-opacity="1" fill-rule="nonzero"/><path fill="#160059" d="M 483.839844 63.617188 L 489.601562 63.617188 L 489.601562 69.378906 L 483.839844 69.378906 Z M 483.839844 63.617188 " fill-opacity="1" fill-rule="nonzero"/><path fill="#160059" d="M 512.640625 57.859375 L 518.398438 57.859375 L 518.398438 63.617188 L 512.640625 63.617188 Z M 512.640625 57.859375 " fill-opacity="1" fill-rule="nonzero"/><path fill="#160059" d="M 558.71875 63.617188 L 564.480469 63.617188 L 564.480469 69.378906 L 558.71875 69.378906 Z M 558.71875 63.617188 " fill-opacity="1" fill-rule="nonzero"/><path fill="#160059" d="M 558.71875 52.097656 L 564.480469 52.097656 L 564.480469 57.859375 L 558.71875 57.859375 Z M 558.71875 52.097656 " fill-opacity="1" fill-rule="nonzero"/><path fill="#160059" d="M 132.480469 57.859375 L 138.238281 57.859375 L 138.238281 63.617188 L 132.480469 63.617188 Z M 132.480469 57.859375 " fill-opacity="1" fill-rule="nonzero"/><path fill="#160059" d="M 115.199219 52.097656 L 120.960938 52.097656 L 120.960938 57.859375 L 115.199219 57.859375 Z M 115.199219 52.097656 " fill-opacity="1" fill-rule="nonzero"/><path fill="#160059" d="M 28.800781 57.859375 L 34.558594 57.859375 L 34.558594 63.617188 L 28.800781 63.617188 Z M 28.800781 57.859375 " fill-opacity="1" fill-rule="nonzero"/><path fill="#160059" d="M 51.839844 52.097656 L 57.601562 52.097656 L 57.601562 57.859375 L 51.839844 57.859375 Z M 51.839844 52.097656 " fill-opacity="1" fill-rule="nonzero"/><path fill="#160059" d="M 339.839844 52.097656 L 345.601562 52.097656 L 345.601562 57.859375 L 339.839844 57.859375 Z M 339.839844 52.097656 " fill-opacity="1" fill-rule="nonzero"/><path fill="#160059" d="M 247.679688 46.339844 L 253.441406 46.339844 L 253.441406 52.097656 L 247.679688 52.097656 Z M 247.679688 46.339844 " fill-opacity="1" fill-rule="nonzero"/><path fill="#160059" d="M 213.121094 52.097656 L 218.878906 52.097656 L 218.878906 57.859375 L 213.121094 57.859375 Z M 213.121094 52.097656 " fill-opacity="1" fill-rule="nonzero"/><path fill="#160059" d="M 455.039062 46.339844 L 460.800781 46.339844 L 460.800781 52.097656 L 455.039062 52.097656 Z M 455.039062 46.339844 " fill-opacity="1" fill-rule="nonzero"/><path fill="#160059" d="M 495.359375 52.097656 L 501.121094 52.097656 L 501.121094 57.859375 L 495.359375 57.859375 Z M 495.359375 52.097656 " fill-opacity="1" fill-rule="nonzero"/><path fill="#160059" d="M 541.441406 52.097656 L 547.199219 52.097656 L 547.199219 57.859375 L 541.441406 57.859375 Z M 541.441406 52.097656 " fill-opacity="1" fill-rule="nonzero"/><path fill="#008c7b" d="M 426.238281 46.339844 L 432 46.339844 L 432 52.097656 L 426.238281 52.097656 Z M 426.238281 46.339844 " fill-opacity="1" fill-rule="nonzero"/><path fill="#008c7b" d="M 443.519531 46.339844 L 449.28125 46.339844 L 449.28125 52.097656 L 443.519531 52.097656 Z M 443.519531 46.339844 " fill-opacity="1" fill-rule="nonzero"/><path fill="#008c7b" d="M 391.679688 52.097656 L 403.199219 52.097656 L 403.199219 57.859375 L 391.679688 57.859375 Z M 391.679688 52.097656 " fill-opacity="1" fill-rule="nonzero"/><path fill="#008c7b" d="M 403.199219 46.339844 L 408.960938 46.339844 L 408.960938 52.097656 L 403.199219 52.097656 Z M 403.199219 46.339844 " fill-opacity="1" fill-rule="nonzero"/><path fill="#008c7b" d="M 362.878906 29.058594 L 374.398438 29.058594 L 374.398438 40.578125 L 362.878906 40.578125 Z M 362.878906 29.058594 " fill-opacity="1" fill-rule="nonzero"/><path fill="#008c7b" d="M 380.160156 34.820312 L 385.921875 34.820312 L 385.921875 40.578125 L 380.160156 40.578125 Z M 380.160156 34.820312 " fill-opacity="1" fill-rule="nonzero"/><path fill="#008c7b" d="M 397.441406 34.820312 L 403.199219 34.820312 L 403.199219 40.578125 L 397.441406 40.578125 Z M 397.441406 34.820312 " fill-opacity="1" fill-rule="nonzero"/><path fill="#008c7b" d="M 259.199219 29.058594 L 264.960938 29.058594 L 264.960938 34.820312 L 259.199219 34.820312 Z M 259.199219 29.058594 " fill-opacity="1" fill-rule="nonzero"/><path fill="#008c7b" d="M 264.960938 40.578125 L 276.480469 40.578125 L 276.480469 46.339844 L 264.960938 46.339844 Z M 264.960938 40.578125 " fill-opacity="1" fill-rule="nonzero"/><path fill="#008c7b" d="M 276.480469 34.820312 L 282.238281 34.820312 L 282.238281 40.578125 L 276.480469 40.578125 Z M 276.480469 34.820312 " fill-opacity="1" fill-rule="nonzero"/><path fill="#008c7b" d="M 282.238281 52.097656 L 288 52.097656 L 288 57.859375 L 282.238281 57.859375 Z M 282.238281 52.097656 " fill-opacity="1" fill-rule="nonzero"/><path fill="#008c7b" d="M 293.761719 46.339844 L 299.519531 46.339844 L 299.519531 52.097656 L 293.761719 52.097656 Z M 293.761719 46.339844 " fill-opacity="1" fill-rule="nonzero"/><path fill="#008c7b" d="M 299.519531 34.820312 L 311.039062 34.820312 L 311.039062 46.339844 L 299.519531 46.339844 Z M 299.519531 34.820312 " fill-opacity="1" fill-rule="nonzero"/><path fill="#008c7b" d="M 311.039062 29.058594 L 316.800781 29.058594 L 316.800781 34.820312 L 311.039062 34.820312 Z M 311.039062 29.058594 " fill-opacity="1" fill-rule="nonzero"/><path fill="#008c7b" d="M 311.039062 46.339844 L 316.800781 46.339844 L 316.800781 52.097656 L 311.039062 52.097656 Z M 311.039062 46.339844 " fill-opacity="1" fill-rule="nonzero"/><path fill="#008c7b" d="M 328.320312 34.820312 L 334.078125 34.820312 L 334.078125 40.578125 L 328.320312 40.578125 Z M 328.320312 34.820312 " fill-opacity="1" fill-rule="nonzero"/><path fill="#008c7b" d="M 316.800781 40.578125 L 328.320312 40.578125 L 328.320312 46.339844 L 316.800781 46.339844 Z M 316.800781 40.578125 " fill-opacity="1" fill-rule="nonzero"/><path fill="#008c7b" d="M 328.320312 52.097656 L 334.078125 52.097656 L 334.078125 57.859375 L 328.320312 57.859375 Z M 328.320312 52.097656 " fill-opacity="1" fill-rule="nonzero"/><path fill="#008c7b" d="M 339.839844 29.058594 L 334.078125 29.058594 L 334.078125 34.820312 L 345.601562 34.820312 L 345.601562 23.300781 L 339.839844 23.300781 Z M 339.839844 29.058594 " fill-opacity="1" fill-rule="nonzero"/><path fill="#008c7b" d="M 339.839844 46.339844 L 345.601562 46.339844 L 345.601562 52.097656 L 339.839844 52.097656 Z M 339.839844 46.339844 " fill-opacity="1" fill-rule="nonzero"/><path fill="#008c7b" d="M 351.359375 34.820312 L 357.121094 34.820312 L 357.121094 40.578125 L 351.359375 40.578125 Z M 351.359375 34.820312 " fill-opacity="1" fill-rule="nonzero"/><path fill="#008c7b" d="M 408.960938 17.539062 L 420.480469 17.539062 L 420.480469 29.058594 L 408.960938 29.058594 Z M 408.960938 17.539062 " fill-opacity="1" fill-rule="nonzero"/><path fill="#008c7b" d="M 420.480469 29.058594 L 426.238281 29.058594 L 426.238281 34.820312 L 420.480469 34.820312 Z M 420.480469 29.058594 " fill-opacity="1" fill-rule="nonzero"/><path fill="#008c7b" d="M 432 23.300781 L 437.761719 23.300781 L 437.761719 29.058594 L 432 29.058594 Z M 432 23.300781 " fill-opacity="1" fill-rule="nonzero"/><path fill="#008c7b" d="M 460.800781 23.300781 L 466.558594 23.300781 L 466.558594 29.058594 L 460.800781 29.058594 Z M 460.800781 23.300781 " fill-opacity="1" fill-rule="nonzero"/><path fill="#008c7b" d="M 449.28125 29.058594 L 455.039062 29.058594 L 455.039062 34.820312 L 449.28125 34.820312 Z M 449.28125 29.058594 " fill-opacity="1" fill-rule="nonzero"/><path fill="#008c7b" d="M 478.078125 34.820312 L 483.839844 34.820312 L 483.839844 40.578125 L 478.078125 40.578125 Z M 478.078125 34.820312 " fill-opacity="1" fill-rule="nonzero"/><path fill="#008c7b" d="M 466.558594 40.578125 L 478.078125 40.578125 L 478.078125 46.339844 L 466.558594 46.339844 Z M 466.558594 40.578125 " fill-opacity="1" fill-rule="nonzero"/><path fill="#008c7b" d="M 483.839844 17.539062 L 495.359375 17.539062 L 495.359375 23.300781 L 483.839844 23.300781 Z M 483.839844 17.539062 " fill-opacity="1" fill-rule="nonzero"/><path fill="#008c7b" d="M 495.359375 29.058594 L 501.121094 29.058594 L 501.121094 34.820312 L 495.359375 34.820312 Z M 495.359375 29.058594 " fill-opacity="1" fill-rule="nonzero"/><path fill="#008c7b" d="M 512.640625 29.058594 L 524.160156 29.058594 L 524.160156 34.820312 L 512.640625 34.820312 Z M 512.640625 29.058594 " fill-opacity="1" fill-rule="nonzero"/><path fill="#008c7b" d="M 529.921875 29.058594 L 535.679688 29.058594 L 535.679688 34.820312 L 529.921875 34.820312 Z M 529.921875 29.058594 " fill-opacity="1" fill-rule="nonzero"/><path fill="#008c7b" d="M 506.878906 40.578125 L 512.640625 40.578125 L 512.640625 46.339844 L 506.878906 46.339844 Z M 506.878906 40.578125 " fill-opacity="1" fill-rule="nonzero"/><path fill="#008c7b" d="M 512.640625 46.339844 L 518.398438 46.339844 L 518.398438 52.097656 L 512.640625 52.097656 Z M 512.640625 46.339844 " fill-opacity="1" fill-rule="nonzero"/><path fill="#008c7b" d="M 541.441406 34.820312 L 552.960938 34.820312 L 552.960938 46.339844 L 541.441406 46.339844 Z M 541.441406 34.820312 " fill-opacity="1" fill-rule="nonzero"/><path fill="#008c7b" d="M 552.960938 23.300781 L 558.71875 23.300781 L 558.71875 29.058594 L 552.960938 29.058594 Z M 552.960938 23.300781 " fill-opacity="1" fill-rule="nonzero"/><path fill="#008c7b" d="M 564.480469 40.578125 L 570.238281 40.578125 L 570.238281 46.339844 L 564.480469 46.339844 Z M 564.480469 40.578125 " fill-opacity="1" fill-rule="nonzero"/><path fill="#008c7b" d="M 524.160156 52.097656 L 529.921875 52.097656 L 529.921875 57.859375 L 524.160156 57.859375 Z M 524.160156 52.097656 " fill-opacity="1" fill-rule="nonzero"/><path fill="#008c7b" d="M 541.441406 11.777344 L 547.199219 11.777344 L 547.199219 17.539062 L 541.441406 17.539062 Z M 541.441406 11.777344 " fill-opacity="1" fill-rule="nonzero"/><path fill="#008c7b" d="M 472.320312 52.097656 L 478.078125 52.097656 L 478.078125 57.859375 L 472.320312 57.859375 Z M 472.320312 52.097656 " fill-opacity="1" fill-rule="nonzero"/><path fill="#008c7b" d="M 5.761719 23.300781 L 11.519531 23.300781 L 11.519531 29.058594 L 5.761719 29.058594 Z M 5.761719 23.300781 " fill-opacity="1" fill-rule="nonzero"/><path fill="#008c7b" d="M 17.28125 34.820312 L 23.039062 34.820312 L 23.039062 40.578125 L 17.28125 40.578125 Z M 17.28125 34.820312 " fill-opacity="1" fill-rule="nonzero"/><path fill="#008c7b" d="M 28.800781 23.300781 L 40.320312 23.300781 L 40.320312 34.820312 L 28.800781 34.820312 Z M 28.800781 23.300781 " fill-opacity="1" fill-rule="nonzero"/><path fill="#008c7b" d="M 34.558594 46.339844 L 40.320312 46.339844 L 40.320312 52.097656 L 34.558594 52.097656 Z M 34.558594 46.339844 " fill-opacity="1" fill-rule="nonzero"/><path fill="#008c7b" d="M 46.078125 11.777344 L 57.601562 11.777344 L 57.601562 17.539062 L 46.078125 17.539062 Z M 46.078125 11.777344 " fill-opacity="1" fill-rule="nonzero"/><path fill="#008c7b" d="M 40.320312 17.539062 L 46.078125 17.539062 L 46.078125 23.300781 L 40.320312 23.300781 Z M 40.320312 17.539062 " fill-opacity="1" fill-rule="nonzero"/><path fill="#008c7b" d="M 51.839844 34.820312 L 69.121094 34.820312 L 69.121094 40.578125 L 51.839844 40.578125 Z M 51.839844 34.820312 " fill-opacity="1" fill-rule="nonzero"/><path fill="#008c7b" d="M 63.359375 23.300781 L 69.121094 23.300781 L 69.121094 29.058594 L 63.359375 29.058594 Z M 63.359375 23.300781 " fill-opacity="1" fill-rule="nonzero"/><path fill="#008c7b" d="M 69.121094 40.578125 L 80.640625 40.578125 L 80.640625 46.339844 L 69.121094 46.339844 Z M 69.121094 40.578125 " fill-opacity="1" fill-rule="nonzero"/><path fill="#008c7b" d="M 80.640625 46.339844 L 86.398438 46.339844 L 86.398438 52.097656 L 80.640625 52.097656 Z M 80.640625 46.339844 " fill-opacity="1" fill-rule="nonzero"/><path fill="#008c7b" d="M 80.640625 34.820312 L 86.398438 34.820312 L 86.398438 40.578125 L 80.640625 40.578125 Z M 80.640625 34.820312 " fill-opacity="1" fill-rule="nonzero"/><path fill="#008c7b" d="M 86.398438 23.300781 L 97.921875 23.300781 L 97.921875 34.820312 L 86.398438 34.820312 Z M 86.398438 23.300781 " fill-opacity="1" fill-rule="nonzero"/><path fill="#008c7b" d="M 103.679688 23.300781 L 109.441406 23.300781 L 109.441406 29.058594 L 103.679688 29.058594 Z M 103.679688 23.300781 " fill-opacity="1" fill-rule="nonzero"/><path fill="#008c7b" d="M 97.921875 52.097656 L 103.679688 52.097656 L 103.679688 57.859375 L 97.921875 57.859375 Z M 97.921875 52.097656 " fill-opacity="1" fill-rule="nonzero"/><path fill="#008c7b" d="M 5.761719 46.339844 L 11.519531 46.339844 L 11.519531 52.097656 L 5.761719 52.097656 Z M 5.761719 46.339844 " fill-opacity="1" fill-rule="nonzero"/><path fill="#008c7b" d="M 270.71875 17.539062 L 276.480469 17.539062 L 276.480469 23.300781 L 270.71875 23.300781 Z M 270.71875 17.539062 " fill-opacity="1" fill-rule="nonzero"/><path fill="#008c7b" d="M 236.160156 40.578125 L 247.679688 40.578125 L 247.679688 46.339844 L 236.160156 46.339844 Z M 236.160156 40.578125 " fill-opacity="1" fill-rule="nonzero"/><path fill="#008c7b" d="M 224.640625 52.097656 L 230.398438 52.097656 L 230.398438 57.859375 L 224.640625 57.859375 Z M 224.640625 52.097656 " fill-opacity="1" fill-rule="nonzero"/><path fill="#008c7b" d="M 126.71875 34.820312 L 132.480469 34.820312 L 132.480469 40.578125 L 126.71875 40.578125 Z M 126.71875 34.820312 " fill-opacity="1" fill-rule="nonzero"/><path fill="#008c7b" d="M 138.238281 23.300781 L 144 23.300781 L 144 29.058594 L 138.238281 29.058594 Z M 138.238281 23.300781 " fill-opacity="1" fill-rule="nonzero"/><path fill="#008c7b" d="M 144 29.058594 L 149.761719 29.058594 L 149.761719 40.578125 L 144 40.578125 Z M 144 29.058594 " fill-opacity="1" fill-rule="nonzero"/><path fill="#008c7b" d="M 149.761719 40.578125 L 155.519531 40.578125 L 155.519531 46.339844 L 149.761719 46.339844 Z M 149.761719 40.578125 " fill-opacity="1" fill-rule="nonzero"/><path fill="#008c7b" d="M 155.519531 23.300781 L 167.039062 23.300781 L 167.039062 34.820312 L 155.519531 34.820312 Z M 155.519531 23.300781 " fill-opacity="1" fill-rule="nonzero"/><path fill="#008c7b" d="M 167.039062 40.578125 L 172.800781 40.578125 L 172.800781 46.339844 L 167.039062 46.339844 Z M 167.039062 40.578125 " fill-opacity="1" fill-rule="nonzero"/><path fill="#008c7b" d="M 178.558594 34.820312 L 184.320312 34.820312 L 184.320312 40.578125 L 178.558594 40.578125 Z M 178.558594 34.820312 " fill-opacity="1" fill-rule="nonzero"/><path fill="#008c7b" d="M 195.839844 29.058594 L 201.601562 29.058594 L 201.601562 34.820312 L 195.839844 34.820312 Z M 195.839844 29.058594 " fill-opacity="1" fill-rule="nonzero"/><path fill="#008c7b" d="M 201.601562 34.820312 L 213.121094 34.820312 L 213.121094 40.578125 L 201.601562 40.578125 Z M 201.601562 34.820312 " fill-opacity="1" fill-rule="nonzero"/><path fill="#008c7b" d="M 213.121094 29.058594 L 218.878906 29.058594 L 218.878906 34.820312 L 213.121094 34.820312 Z M 213.121094 29.058594 " fill-opacity="1" fill-rule="nonzero"/><path fill="#008c7b" d="M 201.601562 17.539062 L 207.359375 17.539062 L 207.359375 23.300781 L 201.601562 23.300781 Z M 201.601562 17.539062 " fill-opacity="1" fill-rule="nonzero"/><path fill="#008c7b" d="M 224.640625 23.300781 L 230.398438 23.300781 L 230.398438 29.058594 L 224.640625 29.058594 Z M 224.640625 23.300781 " fill-opacity="1" fill-rule="nonzero"/><path fill="#008c7b" d="M 241.921875 29.058594 L 253.441406 29.058594 L 253.441406 34.820312 L 241.921875 34.820312 Z M 241.921875 29.058594 " fill-opacity="1" fill-rule="nonzero"/><path fill="#008c7b" d="M 103.679688 29.058594 L 109.441406 29.058594 L 109.441406 34.820312 L 103.679688 34.820312 Z M 103.679688 29.058594 " fill-opacity="1" fill-rule="nonzero"/><path fill="#008c7b" d="M 115.199219 29.058594 L 126.71875 29.058594 L 126.71875 34.820312 L 115.199219 34.820312 Z M 115.199219 29.058594 " fill-opacity="1" fill-rule="nonzero"/><path fill="#008c7b" d="M 144 11.777344 L 149.761719 11.777344 L 149.761719 17.539062 L 144 17.539062 Z M 144 11.777344 " fill-opacity="1" fill-rule="nonzero"/><path fill="#008c7b" d="M 178.558594 17.539062 L 190.078125 17.539062 L 190.078125 23.300781 L 178.558594 23.300781 Z M 178.558594 17.539062 " fill-opacity="1" fill-rule="nonzero"/><path fill="#008c7b" d="M 236.160156 11.777344 L 247.679688 11.777344 L 247.679688 17.539062 L 236.160156 17.539062 Z M 236.160156 11.777344 " fill-opacity="1" fill-rule="nonzero"/><path fill="#008c7b" d="M 288 17.539062 L 299.519531 17.539062 L 299.519531 23.300781 L 288 23.300781 Z M 288 17.539062 " fill-opacity="1" fill-rule="nonzero"/><path fill="#008c7b" d="M 264.960938 6.019531 L 276.480469 6.019531 L 276.480469 11.777344 L 264.960938 11.777344 Z M 264.960938 6.019531 " fill-opacity="1" fill-rule="nonzero"/><path fill="#008c7b" d="M 253.441406 11.777344 L 259.199219 11.777344 L 259.199219 17.539062 L 253.441406 17.539062 Z M 253.441406 11.777344 " fill-opacity="1" fill-rule="nonzero"/><path fill="#008c7b" d="M 351.359375 11.777344 L 362.878906 11.777344 L 362.878906 17.539062 L 351.359375 17.539062 Z M 351.359375 11.777344 " fill-opacity="1" fill-rule="nonzero"/><path fill="#008c7b" d="M 368.640625 23.300781 L 380.160156 23.300781 L 380.160156 29.058594 L 368.640625 29.058594 Z M 368.640625 23.300781 " fill-opacity="1" fill-rule="nonzero"/><path fill="#008c7b" d="M 380.160156 6.019531 L 391.679688 6.019531 L 391.679688 17.539062 L 380.160156 17.539062 Z M 380.160156 6.019531 " fill-opacity="1" fill-rule="nonzero"/><path fill="#008c7b" d="M 397.441406 23.300781 L 403.199219 23.300781 L 403.199219 29.058594 L 397.441406 29.058594 Z M 397.441406 23.300781 " fill-opacity="1" fill-rule="nonzero"/><path fill="#008c7b" d="M 414.71875 6.019531 L 420.480469 6.019531 L 420.480469 11.777344 L 414.71875 11.777344 Z M 414.71875 6.019531 " fill-opacity="1" fill-rule="nonzero"/><path fill="#008c7b" d="M 432 11.777344 L 437.761719 11.777344 L 437.761719 17.539062 L 432 17.539062 Z M 432 11.777344 " fill-opacity="1" fill-rule="nonzero"/><path fill="#008c7b" d="M 449.28125 11.777344 L 460.800781 11.777344 L 460.800781 23.300781 L 449.28125 23.300781 Z M 449.28125 11.777344 " fill-opacity="1" fill-rule="nonzero"/><path fill="#008c7b" d="M 478.078125 6.019531 L 483.839844 6.019531 L 483.839844 11.777344 L 478.078125 11.777344 Z M 478.078125 6.019531 " fill-opacity="1" fill-rule="nonzero"/><path fill="#008c7b" d="M 472.320312 17.539062 L 478.078125 17.539062 L 478.078125 23.300781 L 472.320312 23.300781 Z M 472.320312 17.539062 " fill-opacity="1" fill-rule="nonzero"/><path fill="#008c7b" d="M 506.878906 17.539062 L 512.640625 17.539062 L 512.640625 23.300781 L 506.878906 23.300781 Z M 506.878906 17.539062 " fill-opacity="1" fill-rule="nonzero"/><path fill="#008c7b" d="M 518.398438 11.777344 L 529.921875 11.777344 L 529.921875 23.300781 L 518.398438 23.300781 Z M 518.398438 11.777344 " fill-opacity="1" fill-rule="nonzero"/><path fill="#008c7b" d="M 535.679688 17.539062 L 541.441406 17.539062 L 541.441406 23.300781 L 535.679688 23.300781 Z M 535.679688 17.539062 " fill-opacity="1" fill-rule="nonzero"/><path fill="#008c7b" d="M 489.601562 40.578125 L 495.359375 40.578125 L 495.359375 46.339844 L 489.601562 46.339844 Z M 489.601562 40.578125 " fill-opacity="1" fill-rule="nonzero"/><path fill="#008c7b" d="M 524.160156 40.578125 L 529.921875 40.578125 L 529.921875 46.339844 L 524.160156 46.339844 Z M 524.160156 40.578125 " fill-opacity="1" fill-rule="nonzero"/><path fill="#008c7b" d="M 547.199219 40.578125 L 552.960938 40.578125 L 552.960938 46.339844 L 547.199219 46.339844 Z M 547.199219 40.578125 " fill-opacity="1" fill-rule="nonzero"/><path fill="#008c7b" d="M 564.480469 23.300781 L 576 23.300781 L 576 34.820312 L 564.480469 34.820312 Z M 564.480469 23.300781 " fill-opacity="1" fill-rule="nonzero"/><path fill="#008c7b" d="M 34.558594 40.578125 L 40.320312 40.578125 L 40.320312 46.339844 L 34.558594 46.339844 Z M 34.558594 40.578125 " fill-opacity="1" fill-rule="nonzero"/><path fill="#008c7b" d="M 17.28125 52.097656 L 23.039062 52.097656 L 23.039062 57.859375 L 17.28125 57.859375 Z M 17.28125 52.097656 " fill-opacity="1" fill-rule="nonzero"/><path fill="#008c7b" d="M 11.519531 11.777344 L 28.800781 11.777344 L 28.800781 17.539062 L 11.519531 17.539062 Z M 11.519531 11.777344 " fill-opacity="1" fill-rule="nonzero"/><path fill="#008c7b" d="M 34.558594 6.019531 L 40.320312 6.019531 L 40.320312 11.777344 L 34.558594 11.777344 Z M 34.558594 6.019531 " fill-opacity="1" fill-rule="nonzero"/><path fill="#008c7b" d="M 57.601562 23.300781 L 63.359375 23.300781 L 63.359375 29.058594 L 57.601562 29.058594 Z M 57.601562 23.300781 " fill-opacity="1" fill-rule="nonzero"/><path fill="#008c7b" d="M 201.601562 46.339844 L 213.121094 46.339844 L 213.121094 52.097656 L 201.601562 52.097656 Z M 201.601562 46.339844 " fill-opacity="1" fill-rule="nonzero"/><path fill="#9d7de6" d="M 276.480469 6.019531 L 288 6.019531 L 288 11.777344 L 276.480469 11.777344 Z M 276.480469 6.019531 " fill-opacity="1" fill-rule="nonzero"/><path fill="#9d7de6" d="M 259.199219 17.539062 L 264.960938 17.539062 L 264.960938 23.300781 L 259.199219 23.300781 Z M 259.199219 17.539062 " fill-opacity="1" fill-rule="nonzero"/><path fill="#9d7de6" d="M 247.679688 0.257812 L 259.199219 0.257812 L 259.199219 6.019531 L 247.679688 6.019531 Z M 247.679688 0.257812 " fill-opacity="1" fill-rule="nonzero"/><path fill="#9d7de6" d="M 224.640625 23.300781 L 236.160156 23.300781 L 236.160156 29.058594 L 224.640625 29.058594 Z M 224.640625 23.300781 " fill-opacity="1" fill-rule="nonzero"/><path fill="#9d7de6" d="M 241.921875 17.539062 L 247.679688 17.539062 L 247.679688 23.300781 L 241.921875 23.300781 Z M 241.921875 17.539062 " fill-opacity="1" fill-rule="nonzero"/><path fill="#9d7de6" d="M 282.238281 23.300781 L 293.761719 23.300781 L 293.761719 29.058594 L 282.238281 29.058594 Z M 282.238281 23.300781 " fill-opacity="1" fill-rule="nonzero"/><path fill="#9d7de6" d="M 316.800781 23.300781 L 328.320312 23.300781 L 328.320312 29.058594 L 316.800781 29.058594 Z M 316.800781 23.300781 " fill-opacity="1" fill-rule="nonzero"/><path fill="#9d7de6" d="M 339.839844 17.539062 L 351.359375 17.539062 L 351.359375 23.300781 L 339.839844 23.300781 Z M 339.839844 17.539062 " fill-opacity="1" fill-rule="nonzero"/><path fill="#9d7de6" d="M 316.800781 11.777344 L 328.320312 11.777344 L 328.320312 17.539062 L 316.800781 17.539062 Z M 316.800781 11.777344 " fill-opacity="1" fill-rule="nonzero"/><path fill="#9d7de6" d="M 368.640625 17.539062 L 380.160156 17.539062 L 380.160156 23.300781 L 368.640625 23.300781 Z M 368.640625 17.539062 " fill-opacity="1" fill-rule="nonzero"/><path fill="#9d7de6" d="M 385.921875 23.300781 L 391.679688 23.300781 L 391.679688 29.058594 L 385.921875 29.058594 Z M 385.921875 23.300781 " fill-opacity="1" fill-rule="nonzero"/><path fill="#9d7de6" d="M 408.960938 34.820312 L 414.71875 34.820312 L 414.71875 40.578125 L 408.960938 40.578125 Z M 408.960938 34.820312 " fill-opacity="1" fill-rule="nonzero"/><path fill="#9d7de6" d="M 420.480469 11.777344 L 432 11.777344 L 432 17.539062 L 420.480469 17.539062 Z M 420.480469 11.777344 " fill-opacity="1" fill-rule="nonzero"/><path fill="#9d7de6" d="M 426.238281 0.257812 L 432 0.257812 L 432 6.019531 L 426.238281 6.019531 Z M 426.238281 0.257812 " fill-opacity="1" fill-rule="nonzero"/><path fill="#9d7de6" d="M 437.761719 40.578125 L 449.28125 40.578125 L 449.28125 46.339844 L 437.761719 46.339844 Z M 437.761719 40.578125 " fill-opacity="1" fill-rule="nonzero"/><path fill="#9d7de6" d="M 472.320312 23.300781 L 478.078125 23.300781 L 478.078125 29.058594 L 472.320312 29.058594 Z M 472.320312 23.300781 " fill-opacity="1" fill-rule="nonzero"/><path fill="#9d7de6" d="M 184.320312 40.578125 L 201.601562 40.578125 L 201.601562 46.339844 L 184.320312 46.339844 Z M 184.320312 40.578125 " fill-opacity="1" fill-rule="nonzero"/><path fill="#9d7de6" d="M 178.558594 29.058594 L 184.320312 29.058594 L 184.320312 34.820312 L 178.558594 34.820312 Z M 178.558594 29.058594 " fill-opacity="1" fill-rule="nonzero"/><path fill="#9d7de6" d="M 120.960938 23.300781 L 132.480469 23.300781 L 132.480469 29.058594 L 120.960938 29.058594 Z M 120.960938 23.300781 " fill-opacity="1" fill-rule="nonzero"/><path fill="#9d7de6" d="M 138.238281 52.097656 L 144 52.097656 L 144 57.859375 L 138.238281 57.859375 Z M 138.238281 52.097656 " fill-opacity="1" fill-rule="nonzero"/><path fill="#9d7de6" d="M 80.640625 17.539062 L 97.921875 17.539062 L 97.921875 23.300781 L 80.640625 23.300781 Z M 80.640625 17.539062 " fill-opacity="1" fill-rule="nonzero"/><path fill="#9d7de6" d="M 46.078125 29.058594 L 57.601562 29.058594 L 57.601562 34.820312 L 46.078125 34.820312 Z M 46.078125 29.058594 " fill-opacity="1" fill-rule="nonzero"/><path fill="#9d7de6" d="M 46.078125 6.019531 L 57.601562 6.019531 L 57.601562 11.777344 L 46.078125 11.777344 Z M 46.078125 6.019531 " fill-opacity="1" fill-rule="nonzero"/><path fill="#9d7de6" d="M 63.359375 17.539062 L 69.121094 17.539062 L 69.121094 23.300781 L 63.359375 23.300781 Z M 63.359375 17.539062 " fill-opacity="1" fill-rule="nonzero"/><path fill="#9d7de6" d="M 40.320312 46.339844 L 46.078125 46.339844 L 46.078125 52.097656 L 40.320312 52.097656 Z M 40.320312 46.339844 " fill-opacity="1" fill-rule="nonzero"/><path fill="#9d7de6" d="M 23.039062 34.820312 L 28.800781 34.820312 L 28.800781 40.578125 L 23.039062 40.578125 Z M 23.039062 34.820312 " fill-opacity="1" fill-rule="nonzero"/><path fill="#9d7de6" d="M 17.28125 23.300781 L 23.039062 23.300781 L 23.039062 29.058594 L 17.28125 29.058594 Z M 17.28125 23.300781 " fill-opacity="1" fill-rule="nonzero"/><path fill="#9d7de6" d="M 518.398438 23.300781 L 529.921875 23.300781 L 529.921875 29.058594 L 518.398438 29.058594 Z M 518.398438 23.300781 " fill-opacity="1" fill-rule="nonzero"/><path fill="#9d7de6" d="M 547.199219 6.019531 L 552.960938 6.019531 L 552.960938 11.777344 L 547.199219 11.777344 Z M 547.199219 6.019531 " fill-opacity="1" fill-rule="nonzero"/><path fill="#9d7de6" d="M 541.441406 29.058594 L 547.199219 29.058594 L 547.199219 34.820312 L 541.441406 34.820312 Z M 541.441406 29.058594 " fill-opacity="1" fill-rule="nonzero"/><path fill="#9d7de6" d="M 558.71875 17.539062 L 570.238281 17.539062 L 570.238281 23.300781 L 558.71875 23.300781 Z M 558.71875 17.539062 " fill-opacity="1" fill-rule="nonzero"/><path fill="#9d7de6" d="M 558.71875 34.820312 L 570.238281 34.820312 L 570.238281 40.578125 L 558.71875 40.578125 Z M 558.71875 34.820312 " fill-opacity="1" fill-rule="nonzero"/><path fill="#9d7de6" d="M 495.359375 34.820312 L 506.878906 34.820312 L 506.878906 40.578125 L 495.359375 40.578125 Z M 495.359375 34.820312 " fill-opacity="1" fill-rule="nonzero"/><path fill="#9d7de6" d="M 109.441406 40.578125 L 115.199219 40.578125 L 115.199219 46.339844 L 109.441406 46.339844 Z M 109.441406 40.578125 " fill-opacity="1" fill-rule="nonzero"/><path fill="#9d7de6" d="M 155.519531 17.539062 L 167.039062 17.539062 L 167.039062 23.300781 L 155.519531 23.300781 Z M 155.519531 17.539062 " fill-opacity="1" fill-rule="nonzero"/></svg>