<svg xmlns="http://www.w3.org/2000/svg" xmlns:xlink="http://www.w3.org/1999/xlink" width="635" zoomAndPan="magnify" viewBox="0 0 476.25 162.75" height="217" preserveAspectRatio="xMidYMid meet" version="1.0"><defs><g/><clipPath id="52723faf2a"><path d="M 1 75.5 L 472 75.5 L 472 161 L 1 161 Z M 1 75.5 " clip-rule="nonzero"/></clipPath><clipPath id="5eafa340de"><path d="M 0 75.5 L 474.753906 75.5 L 474.753906 161.617188 L 0 161.617188 Z M 0 75.5 " clip-rule="nonzero"/></clipPath></defs><g clip-path="url(#52723faf2a)"><path fill="#bc3f1e" d="M 461.125 107.511719 L 461.125 97.003906 L 450.449219 97.003906 L 450.449219 86.414062 L 86.90625 86.414062 L 86.90625 75.847656 L 54.8125 75.847656 L 54.8125 86.414062 L 44.136719 86.414062 L 44.136719 75.847656 L 12.0625 75.847656 L 12.0625 86.414062 L 1.355469 86.414062 L 1.355469 118.070312 L 12.0625 118.070312 L 12.0625 128.621094 L 22.738281 128.621094 L 22.738281 139.191406 L 33.441406 139.191406 L 33.441406 149.75 L 44.136719 149.75 L 44.136719 160.296875 L 54.8125 160.296875 L 54.8125 149.75 L 450.449219 149.75 L 450.449219 139.191406 L 461.125 139.191406 L 461.125 128.621094 L 471.828125 128.621094 L 471.828125 107.511719 Z M 54.292969 118.882812 L 65.058594 118.882812 L 65.058594 97.582031 L 75.792969 97.582031 L 75.792969 118.882812 L 65.058594 118.882812 L 65.058594 129.523438 L 54.292969 129.523438 Z M 54.292969 118.882812 " fill-opacity="1" fill-rule="nonzero"/></g><path fill="#a492aa" d="M 452.878906 107.359375 L 452.878906 96.640625 L 333.648438 96.640625 L 333.648438 108.375 L 344.394531 108.375 L 344.394531 128.804688 L 333.648438 128.804688 L 333.648438 140.550781 L 452.878906 140.550781 L 452.878906 129.816406 L 463.613281 129.816406 L 463.613281 107.359375 Z M 452.878906 107.359375 " fill-opacity="1" fill-rule="nonzero"/><path fill="#bc3f1e" d="M 76.242188 85.929688 L 54.230469 85.929688 L 54.230469 96.640625 L 44.511719 96.640625 L 44.511719 85.929688 L 21.996094 85.929688 L 21.996094 108.375 L 32.75 108.375 L 32.75 119.105469 L 43.496094 119.105469 L 43.496094 129.816406 L 54.230469 129.816406 L 54.230469 140.550781 L 66.003906 140.550781 L 66.003906 129.816406 L 76.75 129.816406 L 76.75 119.105469 L 87.503906 119.105469 L 87.503906 85.929688 Z M 64.988281 128.804688 L 55.25 128.804688 L 55.25 119.105469 L 64.988281 119.105469 Z M 75.734375 118.09375 L 66.003906 118.09375 L 66.003906 97.652344 L 75.734375 97.652344 Z M 75.734375 118.09375 " fill-opacity="1" fill-rule="nonzero"/><path fill="#4e8b39" d="M 323.910156 107.359375 L 323.910156 96.640625 L 97.226562 96.640625 L 97.226562 118.09375 L 86.488281 118.09375 L 86.488281 128.804688 L 75.734375 128.804688 L 75.734375 140.550781 L 323.910156 140.550781 L 323.910156 129.816406 L 334.667969 129.816406 L 334.667969 107.359375 Z M 323.910156 107.359375 " fill-opacity="1" fill-rule="nonzero"/><g clip-path="url(#5eafa340de)"><path fill="#440e6b" d="M 463.257812 107.714844 L 463.257812 97.003906 L 452.523438 97.003906 L 452.523438 86.285156 L 87.148438 86.285156 L 87.148438 75.550781 L 54.617188 75.550781 L 54.617188 86.285156 L 44.15625 86.285156 L 44.15625 75.550781 L 11.625 75.550781 L 11.625 86.285156 L 0.859375 86.285156 L 0.859375 118.742188 L 11.613281 118.742188 L 11.613281 129.460938 L 22.359375 129.460938 L 22.359375 140.195312 L 33.105469 140.195312 L 33.105469 150.914062 L 43.851562 150.914062 L 43.851562 161.625 L 54.894531 161.625 L 54.894531 150.914062 L 452.523438 150.914062 L 452.523438 140.195312 L 463.257812 140.195312 L 463.257812 129.460938 L 474.015625 129.460938 L 474.015625 107.714844 Z M 76.089844 118.449219 L 76.089844 129.160156 L 65.34375 129.160156 L 65.34375 139.890625 L 54.585938 139.890625 L 54.585938 150.609375 L 44.15625 150.609375 L 44.15625 139.890625 L 33.410156 139.890625 L 33.410156 129.160156 L 22.65625 129.160156 L 22.65625 118.449219 L 11.921875 118.449219 L 11.921875 86.589844 L 43.851562 86.589844 L 43.851562 97.300781 L 54.894531 97.300781 L 54.894531 86.589844 L 86.84375 86.589844 L 86.84375 118.449219 Z M 334.007812 118.597656 L 334.007812 129.160156 L 323.28125 129.160156 L 323.28125 139.890625 L 76.394531 139.890625 L 76.394531 129.460938 L 87.148438 129.460938 L 87.148438 118.75 L 97.886719 118.75 L 97.886719 97.300781 L 323.28125 97.300781 L 323.28125 108.019531 L 334.035156 108.019531 Z M 462.953125 118.597656 L 462.953125 129.160156 L 452.21875 129.160156 L 452.21875 139.890625 L 334.289062 139.890625 L 334.289062 129.460938 L 345.035156 129.460938 L 345.035156 107.714844 L 334.3125 107.714844 L 334.3125 97.300781 L 452.238281 97.300781 L 452.238281 108.019531 L 462.976562 108.019531 Z M 462.953125 118.597656 " fill-opacity="1" fill-rule="nonzero"/></g><g fill="#74a050" fill-opacity="1"><g transform="translate(151.794978, 83.307396)"><g><path d="M 7.285156 -7.285156 L 7.285156 -14.570312 L 0 -14.570312 L 0 -21.855469 L 14.570312 -21.855469 L 14.570312 -14.570312 L 36.425781 -14.570312 L 36.425781 -29.140625 L 7.285156 -29.140625 L 7.285156 -36.425781 L 0 -36.425781 L 0 -50.996094 L 7.285156 -50.996094 L 7.285156 -58.28125 L 43.710938 -58.28125 L 43.710938 -50.996094 L 50.996094 -50.996094 L 50.996094 -43.710938 L 36.425781 -43.710938 L 36.425781 -50.996094 L 14.570312 -50.996094 L 14.570312 -36.425781 L 43.710938 -36.425781 L 43.710938 -29.140625 L 50.996094 -29.140625 L 50.996094 -14.570312 L 43.710938 -14.570312 L 43.710938 -7.285156 Z M 7.285156 -7.285156 "/></g></g></g><g fill="#74a050" fill-opacity="1"><g transform="translate(210.077147, 83.307396)"><g><path d="M 0 -7.285156 L 0 -43.710938 L 7.285156 -43.710938 L 7.285156 -50.996094 L 14.570312 -50.996094 L 14.570312 -58.28125 L 36.425781 -58.28125 L 36.425781 -50.996094 L 43.710938 -50.996094 L 43.710938 -43.710938 L 50.996094 -43.710938 L 50.996094 -7.285156 L 36.425781 -7.285156 L 36.425781 -21.855469 L 14.570312 -21.855469 L 14.570312 -7.285156 Z M 14.570312 -29.140625 L 36.425781 -29.140625 L 36.425781 -43.710938 L 29.140625 -43.710938 L 29.140625 -50.996094 L 21.855469 -50.996094 L 21.855469 -43.710938 L 14.570312 -43.710938 Z M 14.570312 -29.140625 "/></g></g></g><g fill="#74a050" fill-opacity="1"><g transform="translate(268.359316, 83.307396)"><g><path d="M 0 -7.285156 L 0 -58.28125 L 14.570312 -58.28125 L 14.570312 -50.996094 L 21.855469 -50.996094 L 21.855469 -43.710938 L 29.140625 -43.710938 L 29.140625 -36.425781 L 36.425781 -36.425781 L 36.425781 -58.28125 L 50.996094 -58.28125 L 50.996094 -7.285156 L 36.425781 -7.285156 L 36.425781 -21.855469 L 29.140625 -21.855469 L 29.140625 -29.140625 L 21.855469 -29.140625 L 21.855469 -36.425781 L 14.570312 -36.425781 L 14.570312 -7.285156 Z M 0 -7.285156 "/></g></g></g><g fill="#74a050" fill-opacity="1"><g transform="translate(326.64148, 83.307396)"><g><path d="M 0 -7.285156 L 0 -58.28125 L 50.996094 -58.28125 L 50.996094 -50.996094 L 14.570312 -50.996094 L 14.570312 -36.425781 L 43.710938 -36.425781 L 43.710938 -29.140625 L 14.570312 -29.140625 L 14.570312 -14.570312 L 50.996094 -14.570312 L 50.996094 -7.285156 Z M 0 -7.285156 "/></g></g></g><g fill="#420e6b" fill-opacity="1"><g transform="translate(149.21918, 80.731606)"><g><path d="M 7.285156 -7.285156 L 7.285156 -14.570312 L 0 -14.570312 L 0 -21.855469 L 14.570312 -21.855469 L 14.570312 -14.570312 L 36.425781 -14.570312 L 36.425781 -29.140625 L 7.285156 -29.140625 L 7.285156 -36.425781 L 0 -36.425781 L 0 -50.996094 L 7.285156 -50.996094 L 7.285156 -58.28125 L 43.710938 -58.28125 L 43.710938 -50.996094 L 50.996094 -50.996094 L 50.996094 -43.710938 L 36.425781 -43.710938 L 36.425781 -50.996094 L 14.570312 -50.996094 L 14.570312 -36.425781 L 43.710938 -36.425781 L 43.710938 -29.140625 L 50.996094 -29.140625 L 50.996094 -14.570312 L 43.710938 -14.570312 L 43.710938 -7.285156 Z M 7.285156 -7.285156 "/></g></g></g><g fill="#420e6b" fill-opacity="1"><g transform="translate(207.50135, 80.731606)"><g><path d="M 0 -7.285156 L 0 -43.710938 L 7.285156 -43.710938 L 7.285156 -50.996094 L 14.570312 -50.996094 L 14.570312 -58.28125 L 36.425781 -58.28125 L 36.425781 -50.996094 L 43.710938 -50.996094 L 43.710938 -43.710938 L 50.996094 -43.710938 L 50.996094 -7.285156 L 36.425781 -7.285156 L 36.425781 -21.855469 L 14.570312 -21.855469 L 14.570312 -7.285156 Z M 14.570312 -29.140625 L 36.425781 -29.140625 L 36.425781 -43.710938 L 29.140625 -43.710938 L 29.140625 -50.996094 L 21.855469 -50.996094 L 21.855469 -43.710938 L 14.570312 -43.710938 Z M 14.570312 -29.140625 "/></g></g></g><g fill="#420e6b" fill-opacity="1"><g transform="translate(265.783519, 80.731606)"><g><path d="M 0 -7.285156 L 0 -58.28125 L 14.570312 -58.28125 L 14.570312 -50.996094 L 21.855469 -50.996094 L 21.855469 -43.710938 L 29.140625 -43.710938 L 29.140625 -36.425781 L 36.425781 -36.425781 L 36.425781 -58.28125 L 50.996094 -58.28125 L 50.996094 -7.285156 L 36.425781 -7.285156 L 36.425781 -21.855469 L 29.140625 -21.855469 L 29.140625 -29.140625 L 21.855469 -29.140625 L 21.855469 -36.425781 L 14.570312 -36.425781 L 14.570312 -7.285156 Z M 0 -7.285156 "/></g></g></g><g fill="#420e6b" fill-opacity="1"><g transform="translate(324.065683, 80.731606)"><g><path d="M 0 -7.285156 L 0 -58.28125 L 50.996094 -58.28125 L 50.996094 -50.996094 L 14.570312 -50.996094 L 14.570312 -36.425781 L 43.710938 -36.425781 L 43.710938 -29.140625 L 14.570312 -29.140625 L 14.570312 -14.570312 L 50.996094 -14.570312 L 50.996094 -7.285156 Z M 0 -7.285156 "/></g></g></g><g fill="#74a050" fill-opacity="1"><g transform="translate(86.308922, 50.055682)"><g><path d="M 0 -3.167969 L 0 -25.332031 L 19 -25.332031 L 19 -22.167969 L 22.167969 -22.167969 L 22.167969 -15.832031 L 19 -15.832031 L 19 -12.667969 L 22.167969 -12.667969 L 22.167969 -6.332031 L 19 -6.332031 L 19 -3.167969 Z M 6.332031 -15.832031 L 15.832031 -15.832031 L 15.832031 -22.167969 L 6.332031 -22.167969 Z M 6.332031 -6.332031 L 15.832031 -6.332031 L 15.832031 -12.667969 L 6.332031 -12.667969 Z M 6.332031 -6.332031 "/></g></g></g><g fill="#74a050" fill-opacity="1"><g transform="translate(111.640043, 50.055682)"><g><path d="M 9.5 -3.167969 L 9.5 -12.667969 L 6.332031 -12.667969 L 6.332031 -15.832031 L 3.167969 -15.832031 L 3.167969 -25.332031 L 9.5 -25.332031 L 9.5 -15.832031 L 15.832031 -15.832031 L 15.832031 -25.332031 L 22.167969 -25.332031 L 22.167969 -15.832031 L 19 -15.832031 L 19 -12.667969 L 15.832031 -12.667969 L 15.832031 -3.167969 Z M 9.5 -3.167969 "/></g></g></g><g fill="#420e6b" fill-opacity="1"><g transform="translate(85.189216, 48.935974)"><g><path d="M 0 -3.167969 L 0 -25.332031 L 19 -25.332031 L 19 -22.167969 L 22.167969 -22.167969 L 22.167969 -15.832031 L 19 -15.832031 L 19 -12.667969 L 22.167969 -12.667969 L 22.167969 -6.332031 L 19 -6.332031 L 19 -3.167969 Z M 6.332031 -15.832031 L 15.832031 -15.832031 L 15.832031 -22.167969 L 6.332031 -22.167969 Z M 6.332031 -6.332031 L 15.832031 -6.332031 L 15.832031 -12.667969 L 6.332031 -12.667969 Z M 6.332031 -6.332031 "/></g></g></g><g fill="#420e6b" fill-opacity="1"><g transform="translate(110.520337, 48.935974)"><g><path d="M 9.5 -3.167969 L 9.5 -12.667969 L 6.332031 -12.667969 L 6.332031 -15.832031 L 3.167969 -15.832031 L 3.167969 -25.332031 L 9.5 -25.332031 L 9.5 -15.832031 L 15.832031 -15.832031 L 15.832031 -25.332031 L 22.167969 -25.332031 L 22.167969 -15.832031 L 19 -15.832031 L 19 -12.667969 L 15.832031 -12.667969 L 15.832031 -3.167969 Z M 9.5 -3.167969 "/></g></g></g></svg>