<svg xmlns="http://www.w3.org/2000/svg" xmlns:xlink="http://www.w3.org/1999/xlink" width="317" zoomAndPan="magnify" viewBox="0 0 237.75 214.499994" height="286" preserveAspectRatio="xMidYMid meet" version="1.0"><defs><clipPath id="76deba9b43"><path d="M 183 45 L 237.289062 45 L 237.289062 77 L 183 77 Z M 183 45 " clip-rule="nonzero"/></clipPath><clipPath id="0edf56d284"><path d="M 0.324219 114.351562 L 69.578125 114.351562 L 69.578125 153 L 0.324219 153 Z M 0.324219 114.351562 " clip-rule="nonzero"/></clipPath><clipPath id="e7965ebca8"><path d="M 145.101562 175.515625 L 199 175.515625 L 199 213.875 L 145.101562 213.875 Z M 145.101562 175.515625 " clip-rule="nonzero"/></clipPath><clipPath id="2c62d93ca3"><path d="M 168 206 L 183.925781 206 L 183.925781 213.875 L 168 213.875 Z M 168 206 " clip-rule="nonzero"/></clipPath><clipPath id="962f0c18a3"><path d="M 99.363281 129.773438 L 161 129.773438 L 161 213.875 L 99.363281 213.875 Z M 99.363281 129.773438 " clip-rule="nonzero"/></clipPath><clipPath id="e17cf6501b"><path d="M 183 45 L 237.328125 45 L 237.328125 77 L 183 77 Z M 183 45 " clip-rule="nonzero"/></clipPath><clipPath id="fe1bb0f615"><path d="M 0.359375 114.351562 L 69.613281 114.351562 L 69.613281 153 L 0.359375 153 Z M 0.359375 114.351562 " clip-rule="nonzero"/></clipPath><clipPath id="6beff6dc0d"><path d="M 145.140625 175.515625 L 199 175.515625 L 199 213.875 L 145.140625 213.875 Z M 145.140625 175.515625 " clip-rule="nonzero"/></clipPath><clipPath id="d1e5b54a92"><path d="M 168.007812 206 L 183.964844 206 L 183.964844 213.875 L 168.007812 213.875 Z M 168.007812 206 " clip-rule="nonzero"/></clipPath><clipPath id="60ee17ccc9"><path d="M 99.398438 129.773438 L 161 129.773438 L 161 213.875 L 99.398438 213.875 Z M 99.398438 129.773438 " clip-rule="nonzero"/></clipPath></defs><g clip-path="url(#76deba9b43)"><path fill="#4e8b39" d="M 237.105469 76.390625 L 237.113281 68.746094 L 229.46875 68.742188 L 229.472656 61.113281 L 214.1875 61.105469 L 214.191406 53.476562 L 206.554688 53.472656 L 206.558594 45.832031 L 183.640625 45.824219 L 183.636719 53.476562 L 191.277344 53.484375 L 191.269531 68.746094 L 214.1875 68.75 L 214.183594 76.390625 L 237.105469 76.390625 " fill-opacity="1" fill-rule="nonzero"/><path fill="#4e8b39" d="M 214.1875 68.746094 L 214.1875 76.382812 L 237.105469 76.382812 L 237.105469 68.746094 L 229.46875 68.746094 L 229.46875 61.113281 L 214.1875 61.113281 L 214.1875 53.476562 L 206.554688 53.476562 L 206.554688 45.832031 L 183.640625 45.832031 L 183.640625 53.476562 L 191.277344 53.476562 L 191.277344 68.746094 L 214.1875 68.746094 " fill-opacity="1" fill-rule="nonzero"/></g><path fill="#4e8b39" d="M 107.261719 160.402344 L 107.265625 152.765625 L 91.988281 152.761719 L 91.992188 145.125 L 84.347656 145.121094 L 84.34375 152.765625 L 76.707031 152.761719 L 76.703125 160.402344 L 107.261719 160.402344 " fill-opacity="1" fill-rule="nonzero"/><path fill="#4e8b39" d="M 84.347656 152.765625 L 76.707031 152.765625 L 76.707031 160.398438 L 107.261719 160.398438 L 107.261719 152.765625 L 91.988281 152.765625 L 91.988281 145.125 L 84.347656 145.125 L 84.347656 152.765625 " fill-opacity="1" fill-rule="nonzero"/><path fill="#4e8b39" d="M 206.554688 137.496094 L 206.558594 129.851562 L 198.921875 129.847656 L 198.925781 122.210938 L 191.277344 122.207031 L 191.28125 114.578125 L 168.367188 114.570312 L 168.363281 122.210938 L 176 122.21875 L 175.996094 129.851562 L 191.277344 129.855469 L 191.269531 137.496094 L 206.554688 137.496094 " fill-opacity="1" fill-rule="nonzero"/><path fill="#4e8b39" d="M 168.367188 114.578125 L 168.367188 122.210938 L 176 122.210938 L 176 129.851562 L 191.277344 129.851562 L 191.277344 137.492188 L 206.554688 137.492188 L 206.554688 129.851562 L 198.921875 129.851562 L 198.921875 122.210938 L 191.277344 122.210938 L 191.277344 114.578125 L 168.367188 114.578125 " fill-opacity="1" fill-rule="nonzero"/><path fill="#4e8b39" d="M 183.640625 38.203125 L 183.648438 22.917969 L 176 22.914062 L 176.007812 15.285156 L 168.367188 15.277344 L 168.371094 7.644531 L 153.085938 7.640625 L 153.09375 0.00390625 L 114.894531 0 L 114.890625 7.644531 L 122.539062 7.648438 L 122.535156 15.285156 L 130.175781 15.289062 L 130.167969 22.917969 L 168.367188 22.925781 L 168.363281 30.554688 L 176 30.558594 L 175.996094 38.203125 L 183.640625 38.203125 " fill-opacity="1" fill-rule="nonzero"/><path fill="#4e8b39" d="M 122.539062 15.285156 L 130.175781 15.285156 L 130.175781 22.917969 L 168.367188 22.917969 L 168.367188 30.554688 L 176 30.554688 L 176 38.199219 L 183.640625 38.199219 L 183.640625 22.917969 L 176 22.917969 L 176 15.285156 L 168.367188 15.285156 L 168.367188 7.644531 L 153.085938 7.644531 L 153.085938 0.00390625 L 114.894531 0.00390625 L 114.894531 7.644531 L 122.539062 7.644531 L 122.539062 15.285156 " fill-opacity="1" fill-rule="nonzero"/><path fill="#4e8b39" d="M 122.539062 91.667969 L 122.546875 84.023438 L 107.261719 84.019531 L 107.265625 76.382812 L 99.628906 76.378906 L 99.632812 68.746094 L 84.347656 68.742188 L 84.351562 61.113281 L 61.4375 61.105469 L 61.433594 84.023438 L 84.347656 84.03125 L 84.34375 91.667969 L 122.539062 91.667969 " fill-opacity="1" fill-rule="nonzero"/><path fill="#4e8b39" d="M 122.539062 91.664062 L 122.539062 84.023438 L 107.261719 84.023438 L 107.261719 76.382812 L 99.628906 76.382812 L 99.628906 68.746094 L 84.347656 68.746094 L 84.347656 61.113281 L 61.4375 61.113281 L 61.4375 84.023438 L 84.347656 84.023438 L 84.347656 91.664062 L 122.539062 91.664062 " fill-opacity="1" fill-rule="nonzero"/><path fill="#4e8b39" d="M 84.347656 129.855469 L 84.351562 122.210938 L 76.707031 122.207031 L 76.714844 114.578125 L 61.4375 114.570312 L 61.445312 106.933594 L 46.160156 106.925781 L 46.164062 99.296875 L 30.878906 99.292969 L 30.875 106.933594 L 38.515625 106.9375 L 38.507812 114.578125 L 53.792969 114.582031 L 53.789062 122.210938 L 69.074219 122.21875 L 69.066406 129.855469 L 84.347656 129.855469 " fill-opacity="1" fill-rule="nonzero"/><path fill="#4e8b39" d="M 30.878906 99.296875 L 30.878906 106.933594 L 38.515625 106.933594 L 38.515625 114.578125 L 53.792969 114.578125 L 53.792969 122.210938 L 69.074219 122.210938 L 69.074219 129.851562 L 84.347656 129.851562 L 84.347656 122.210938 L 76.707031 122.210938 L 76.707031 114.578125 L 61.4375 114.578125 L 61.4375 106.933594 L 46.160156 106.933594 L 46.160156 99.296875 L 30.878906 99.296875 " fill-opacity="1" fill-rule="nonzero"/><path fill="#356939" d="M 214.1875 145.132812 L 214.191406 137.492188 L 221.835938 137.496094 L 221.839844 129.851562 L 214.1875 129.847656 L 214.191406 122.210938 L 198.921875 122.207031 L 198.914062 129.851562 L 206.554688 129.855469 L 206.550781 137.492188 L 191.277344 137.484375 L 191.28125 129.851562 L 176 129.847656 L 176.007812 122.210938 L 153.085938 122.207031 L 153.082031 129.851562 L 168.367188 129.855469 L 168.363281 137.492188 L 176 137.496094 L 175.996094 145.132812 L 214.1875 145.132812 " fill-opacity="1" fill-rule="nonzero"/><path fill="#356939" d="M 153.085938 122.210938 L 153.085938 129.851562 L 168.367188 129.851562 L 168.367188 137.492188 L 176 137.492188 L 176 145.125 L 214.1875 145.125 L 214.1875 137.492188 L 221.835938 137.492188 L 221.835938 129.851562 L 214.1875 129.851562 L 214.1875 122.210938 L 198.921875 122.210938 L 198.921875 129.851562 L 206.554688 129.851562 L 206.554688 137.492188 L 191.277344 137.492188 L 191.277344 129.851562 L 176 129.851562 L 176 122.210938 L 153.085938 122.210938 " fill-opacity="1" fill-rule="nonzero"/><path fill="#356939" d="M 229.46875 84.03125 L 229.472656 76.382812 L 214.1875 76.378906 L 214.191406 68.746094 L 191.277344 68.742188 L 191.28125 53.476562 L 183.640625 53.472656 L 183.648438 45.832031 L 176 45.824219 L 175.996094 53.476562 L 160.730469 53.472656 L 160.722656 61.113281 L 145.453125 61.105469 L 145.457031 53.476562 L 153.085938 53.484375 L 153.09375 45.832031 L 168.367188 45.835938 L 168.371094 38.199219 L 176 38.203125 L 176.007812 30.554688 L 168.367188 30.546875 L 168.371094 22.917969 L 130.175781 22.914062 L 130.179688 15.285156 L 91.988281 15.277344 L 91.980469 22.917969 L 84.347656 22.914062 L 84.34375 30.554688 L 76.707031 30.546875 L 76.703125 38.199219 L 84.347656 38.203125 L 84.34375 45.832031 L 107.261719 45.835938 L 107.257812 53.476562 L 114.894531 53.484375 L 114.890625 61.113281 L 137.820312 61.117188 L 137.816406 68.746094 L 153.085938 68.75 L 153.082031 76.382812 L 191.277344 76.390625 L 191.269531 84.03125 L 229.46875 84.03125 " fill-opacity="1" fill-rule="nonzero"/><path fill="#356939" d="M 137.820312 68.746094 L 153.085938 68.746094 L 153.085938 76.382812 L 191.277344 76.382812 L 191.277344 84.023438 L 229.46875 84.023438 L 229.46875 76.382812 L 214.1875 76.382812 L 214.1875 68.746094 L 191.277344 68.746094 L 191.277344 53.476562 L 183.640625 53.476562 L 183.640625 45.832031 L 176 45.832031 L 176 53.476562 L 160.730469 53.476562 L 160.730469 61.113281 L 145.453125 61.113281 L 145.453125 53.476562 L 153.085938 53.476562 L 153.085938 45.832031 L 168.367188 45.832031 L 168.367188 38.199219 L 176 38.199219 L 176 30.554688 L 168.367188 30.554688 L 168.367188 22.917969 L 130.175781 22.917969 L 130.175781 15.285156 L 91.988281 15.285156 L 91.988281 22.917969 L 84.347656 22.917969 L 84.347656 30.554688 L 76.707031 30.554688 L 76.707031 38.199219 L 84.347656 38.199219 L 84.347656 45.832031 L 107.261719 45.832031 L 107.261719 53.476562 L 114.894531 53.476562 L 114.894531 61.113281 L 137.820312 61.113281 L 137.820312 68.746094 " fill-opacity="1" fill-rule="nonzero"/><path fill="#356939" d="M 137.820312 168.042969 L 137.824219 160.398438 L 130.175781 160.394531 L 130.179688 152.765625 L 107.261719 152.761719 L 107.257812 160.398438 L 114.894531 160.402344 L 114.890625 168.042969 L 137.820312 168.042969 " fill-opacity="1" fill-rule="nonzero"/><path fill="#356939" d="M 107.261719 152.765625 L 107.261719 160.398438 L 114.894531 160.398438 L 114.894531 168.039062 L 137.820312 168.039062 L 137.820312 160.398438 L 130.175781 160.398438 L 130.175781 152.765625 L 107.261719 152.765625 " fill-opacity="1" fill-rule="nonzero"/><path fill="#356939" d="M 61.4375 84.03125 L 61.445312 68.746094 L 53.792969 68.742188 L 53.789062 84.03125 L 61.4375 84.03125 " fill-opacity="1" fill-rule="nonzero"/><path fill="#356939" d="M 53.792969 84.023438 L 61.4375 84.023438 L 61.4375 68.746094 L 53.792969 68.746094 L 53.792969 84.023438 " fill-opacity="1" fill-rule="nonzero"/><path fill="#356939" d="M 99.628906 168.042969 L 99.632812 160.398438 L 76.707031 160.394531 L 76.714844 152.765625 L 84.347656 152.769531 L 84.351562 137.492188 L 69.074219 137.484375 L 69.066406 145.125 L 61.4375 145.121094 L 61.433594 160.398438 L 46.160156 160.394531 L 46.15625 168.042969 L 99.628906 168.042969 " fill-opacity="1" fill-rule="nonzero"/><path fill="#356939" d="M 69.074219 137.492188 L 69.074219 145.125 L 61.4375 145.125 L 61.4375 160.398438 L 46.160156 160.398438 L 46.160156 168.039062 L 99.628906 168.039062 L 99.628906 160.398438 L 76.707031 160.398438 L 76.707031 152.765625 L 84.347656 152.765625 L 84.347656 137.492188 L 69.074219 137.492188 " fill-opacity="1" fill-rule="nonzero"/><path fill="#356939" d="M 122.539062 99.304688 L 122.546875 91.664062 L 84.347656 91.660156 L 84.351562 84.023438 L 61.4375 84.019531 L 61.433594 91.664062 L 76.707031 91.667969 L 76.703125 99.304688 L 122.539062 99.304688 " fill-opacity="1" fill-rule="nonzero"/><path fill="#356939" d="M 61.4375 84.023438 L 61.4375 91.664062 L 76.707031 91.664062 L 76.707031 99.296875 L 122.539062 99.296875 L 122.539062 91.664062 L 84.347656 91.664062 L 84.347656 84.023438 L 61.4375 84.023438 " fill-opacity="1" fill-rule="nonzero"/><path fill="#356939" d="M 107.261719 152.769531 L 107.265625 145.125 L 91.988281 145.121094 L 91.980469 152.769531 L 107.261719 152.769531 " fill-opacity="1" fill-rule="nonzero"/><path fill="#356939" d="M 107.261719 152.765625 L 107.261719 145.125 L 91.988281 145.125 L 91.988281 152.765625 L 107.261719 152.765625 " fill-opacity="1" fill-rule="nonzero"/><path fill="#356939" d="M 46.160156 145.132812 L 46.164062 137.492188 L 69.074219 137.496094 L 69.078125 122.210938 L 53.792969 122.207031 L 53.800781 114.578125 L 38.515625 114.570312 L 38.519531 106.933594 L 23.246094 106.925781 L 23.242188 129.851562 L 15.605469 129.847656 L 15.601562 137.492188 L 30.878906 137.496094 L 30.875 145.132812 L 46.160156 145.132812 " fill-opacity="1" fill-rule="nonzero"/><path fill="#356939" d="M 15.605469 129.851562 L 15.605469 137.492188 L 30.878906 137.492188 L 30.878906 145.125 L 46.160156 145.125 L 46.160156 137.492188 L 69.074219 137.492188 L 69.074219 122.210938 L 53.792969 122.210938 L 53.792969 114.578125 L 38.515625 114.578125 L 38.515625 106.933594 L 23.246094 106.933594 L 23.246094 129.851562 L 15.605469 129.851562 " fill-opacity="1" fill-rule="nonzero"/><path fill="#1f373a" d="M 107.261719 145.132812 L 107.265625 137.492188 L 84.347656 137.484375 L 84.34375 145.132812 L 107.261719 145.132812 " fill-opacity="1" fill-rule="nonzero"/><path fill="#1f373a" d="M 107.261719 145.125 L 107.261719 137.492188 L 84.347656 137.492188 L 84.347656 145.125 L 107.261719 145.125 " fill-opacity="1" fill-rule="nonzero"/><path fill="#1f373a" d="M 114.894531 175.683594 L 114.898438 160.398438 L 99.628906 160.394531 L 99.621094 168.039062 L 69.074219 168.035156 L 69.066406 175.683594 L 114.894531 175.683594 " fill-opacity="1" fill-rule="nonzero"/><path fill="#1f373a" d="M 69.074219 168.039062 L 69.074219 175.679688 L 114.894531 175.679688 L 114.894531 160.398438 L 99.628906 160.398438 L 99.628906 168.039062 L 69.074219 168.039062 " fill-opacity="1" fill-rule="nonzero"/><path fill="#1f373a" d="M 76.707031 137.496094 L 76.714844 129.851562 L 69.074219 129.847656 L 69.066406 137.496094 L 76.707031 137.496094 " fill-opacity="1" fill-rule="nonzero"/><path fill="#1f373a" d="M 69.074219 129.851562 L 69.074219 137.492188 L 76.707031 137.492188 L 76.707031 129.851562 L 69.074219 129.851562 " fill-opacity="1" fill-rule="nonzero"/><path fill="#1f373a" d="M 99.628906 106.9375 L 99.632812 99.296875 L 76.707031 99.292969 L 76.714844 91.664062 L 61.4375 91.660156 L 61.445312 84.023438 L 53.792969 84.019531 L 53.800781 76.382812 L 46.160156 76.378906 L 46.15625 91.664062 L 53.792969 91.667969 L 53.789062 99.296875 L 69.074219 99.304688 L 69.066406 106.9375 L 99.628906 106.9375 " fill-opacity="1" fill-rule="nonzero"/><path fill="#1f373a" d="M 61.4375 91.664062 L 61.4375 84.023438 L 53.792969 84.023438 L 53.792969 76.382812 L 46.160156 76.382812 L 46.160156 91.664062 L 53.792969 91.664062 L 53.792969 99.296875 L 69.074219 99.296875 L 69.074219 106.933594 L 99.628906 106.933594 L 99.628906 99.296875 L 76.707031 99.296875 L 76.707031 91.664062 L 61.4375 91.664062 " fill-opacity="1" fill-rule="nonzero"/><g clip-path="url(#0edf56d284)"><path fill="#1f373a" d="M 53.792969 152.769531 L 53.800781 145.125 L 69.074219 145.132812 L 69.078125 137.492188 L 46.160156 137.484375 L 46.15625 145.125 L 30.878906 145.121094 L 30.886719 137.492188 L 15.605469 137.484375 L 15.613281 129.851562 L 23.246094 129.855469 L 23.25 114.578125 L 15.605469 114.570312 L 15.601562 122.210938 L 7.964844 122.207031 L 7.960938 129.851562 L 0.328125 129.847656 L 0.324219 137.492188 L 7.964844 137.496094 L 7.960938 145.125 L 23.246094 145.132812 L 23.242188 152.769531 L 53.792969 152.769531 " fill-opacity="1" fill-rule="nonzero"/><path fill="#1f373a" d="M 0.328125 129.851562 L 0.328125 137.492188 L 7.964844 137.492188 L 7.964844 145.125 L 23.246094 145.125 L 23.246094 152.765625 L 53.792969 152.765625 L 53.792969 145.125 L 69.074219 145.125 L 69.074219 137.492188 L 46.160156 137.492188 L 46.160156 145.125 L 30.878906 145.125 L 30.878906 137.492188 L 15.605469 137.492188 L 15.605469 129.851562 L 23.246094 129.851562 L 23.246094 114.578125 L 15.605469 114.578125 L 15.605469 122.210938 L 7.964844 122.210938 L 7.964844 129.851562 L 0.328125 129.851562 " fill-opacity="1" fill-rule="nonzero"/></g><path fill="#1f373a" d="M 160.730469 61.117188 L 160.734375 53.476562 L 176 53.484375 L 176.007812 45.832031 L 183.640625 45.835938 L 183.648438 38.199219 L 168.367188 38.191406 L 168.363281 45.832031 L 153.085938 45.824219 L 153.082031 53.476562 L 145.453125 53.472656 L 145.449219 61.117188 L 160.730469 61.117188 " fill-opacity="1" fill-rule="nonzero"/><path fill="#1f373a" d="M 176 45.832031 L 183.640625 45.832031 L 183.640625 38.199219 L 168.367188 38.199219 L 168.367188 45.832031 L 153.085938 45.832031 L 153.085938 53.476562 L 145.453125 53.476562 L 145.453125 61.113281 L 160.730469 61.113281 L 160.730469 53.476562 L 176 53.476562 L 176 45.832031 " fill-opacity="1" fill-rule="nonzero"/><path fill="#1f373a" d="M 198.921875 99.304688 L 198.925781 91.664062 L 206.554688 91.667969 L 206.558594 84.023438 L 191.277344 84.019531 L 191.28125 76.382812 L 153.085938 76.378906 L 153.09375 68.746094 L 137.820312 68.742188 L 137.824219 61.113281 L 114.894531 61.105469 L 114.898438 53.476562 L 107.261719 53.472656 L 107.265625 45.832031 L 84.347656 45.824219 L 84.351562 38.199219 L 69.074219 38.191406 L 69.066406 45.832031 L 76.707031 45.835938 L 76.703125 53.476562 L 99.628906 53.484375 L 99.621094 61.113281 L 107.261719 61.117188 L 107.257812 68.746094 L 130.175781 68.75 L 130.167969 76.382812 L 145.453125 76.390625 L 145.449219 84.023438 L 176 84.03125 L 175.996094 91.664062 L 183.640625 91.667969 L 183.636719 99.304688 L 198.921875 99.304688 " fill-opacity="1" fill-rule="nonzero"/><path fill="#1f373a" d="M 130.175781 68.746094 L 130.175781 76.382812 L 145.453125 76.382812 L 145.453125 84.023438 L 176 84.023438 L 176 91.664062 L 183.640625 91.664062 L 183.640625 99.296875 L 198.921875 99.296875 L 198.921875 91.664062 L 206.554688 91.664062 L 206.554688 84.023438 L 191.277344 84.023438 L 191.277344 76.382812 L 153.085938 76.382812 L 153.085938 68.746094 L 137.820312 68.746094 L 137.820312 61.113281 L 114.894531 61.113281 L 114.894531 53.476562 L 107.261719 53.476562 L 107.261719 45.832031 L 84.347656 45.832031 L 84.347656 38.199219 L 69.074219 38.199219 L 69.074219 45.832031 L 76.707031 45.832031 L 76.707031 53.476562 L 99.628906 53.476562 L 99.628906 61.113281 L 107.261719 61.113281 L 107.261719 68.746094 L 130.175781 68.746094 " fill-opacity="1" fill-rule="nonzero"/><path fill="#1f373a" d="M 168.367188 122.21875 L 168.371094 114.578125 L 160.730469 114.570312 L 160.722656 122.21875 L 168.367188 122.21875 " fill-opacity="1" fill-rule="nonzero"/><path fill="#1f373a" d="M 160.730469 122.210938 L 168.367188 122.210938 L 168.367188 114.578125 L 160.730469 114.578125 L 160.730469 122.210938 " fill-opacity="1" fill-rule="nonzero"/><path fill="#1f373a" d="M 198.921875 152.769531 L 198.925781 145.125 L 176 145.121094 L 176.007812 137.492188 L 168.367188 137.484375 L 168.371094 129.851562 L 145.453125 129.847656 L 145.449219 137.492188 L 160.730469 137.496094 L 160.722656 145.125 L 168.367188 145.132812 L 168.363281 152.769531 L 198.921875 152.769531 " fill-opacity="1" fill-rule="nonzero"/><path fill="#1f373a" d="M 145.453125 129.851562 L 145.453125 137.492188 L 160.730469 137.492188 L 160.730469 145.125 L 168.367188 145.125 L 168.367188 152.765625 L 198.921875 152.765625 L 198.921875 145.125 L 176 145.125 L 176 137.492188 L 168.367188 137.492188 L 168.367188 129.851562 L 145.453125 129.851562 " fill-opacity="1" fill-rule="nonzero"/><path fill="#1f373a" d="M 122.539062 152.769531 L 122.546875 145.125 L 107.261719 145.121094 L 107.257812 152.769531 L 122.539062 152.769531 " fill-opacity="1" fill-rule="nonzero"/><path fill="#1f373a" d="M 122.539062 152.765625 L 122.539062 145.125 L 107.261719 145.125 L 107.261719 152.765625 L 122.539062 152.765625 " fill-opacity="1" fill-rule="nonzero"/><path fill="#5c4f2f" d="M 145.453125 129.855469 L 145.457031 122.210938 L 137.820312 122.207031 L 137.816406 129.855469 L 145.453125 129.855469 " fill-opacity="1" fill-rule="nonzero"/><path fill="#5c4f2f" d="M 137.820312 122.210938 L 137.820312 129.851562 L 145.453125 129.851562 L 145.453125 122.210938 L 137.820312 122.210938 " fill-opacity="1" fill-rule="nonzero"/><path fill="#5c4f2f" d="M 191.277344 114.582031 L 191.28125 106.933594 L 183.640625 106.925781 L 183.636719 114.582031 L 191.277344 114.582031 " fill-opacity="1" fill-rule="nonzero"/><path fill="#5c4f2f" d="M 183.640625 114.578125 L 191.277344 114.578125 L 191.277344 106.933594 L 183.640625 106.933594 L 183.640625 114.578125 " fill-opacity="1" fill-rule="nonzero"/><path fill="#5c4f2f" d="M 183.640625 106.9375 L 183.648438 99.296875 L 176 99.292969 L 175.996094 106.9375 L 183.640625 106.9375 " fill-opacity="1" fill-rule="nonzero"/><path fill="#5c4f2f" d="M 176 106.933594 L 183.640625 106.933594 L 183.640625 99.296875 L 176 99.296875 L 176 106.933594 " fill-opacity="1" fill-rule="nonzero"/><path fill="#5c4f2f" d="M 198.921875 122.21875 L 198.925781 114.578125 L 191.277344 114.570312 L 191.269531 122.21875 L 198.921875 122.21875 " fill-opacity="1" fill-rule="nonzero"/><path fill="#5c4f2f" d="M 191.277344 122.210938 L 198.921875 122.210938 L 198.921875 114.578125 L 191.277344 114.578125 L 191.277344 122.210938 " fill-opacity="1" fill-rule="nonzero"/><path fill="#5c4f2f" d="M 176 91.667969 L 176.007812 84.023438 L 168.367188 84.019531 L 168.363281 91.667969 L 176 91.667969 " fill-opacity="1" fill-rule="nonzero"/><path fill="#5c4f2f" d="M 168.367188 91.664062 L 176 91.664062 L 176 84.023438 L 168.367188 84.023438 L 168.367188 91.664062 " fill-opacity="1" fill-rule="nonzero"/><g clip-path="url(#e7965ebca8)"><path fill="#5c4f2f" d="M 168.367188 213.875 L 168.371094 206.226562 L 183.640625 206.230469 L 183.636719 213.871094 L 198.921875 213.875 L 198.925781 206.226562 L 191.277344 206.21875 L 191.28125 190.957031 L 183.640625 190.953125 L 183.648438 183.3125 L 168.367188 183.308594 L 168.371094 175.679688 L 153.085938 175.671875 L 153.082031 183.3125 L 145.453125 183.308594 L 145.449219 190.957031 L 153.085938 190.960938 L 153.082031 213.875 L 168.367188 213.875 " fill-opacity="1" fill-rule="nonzero"/><path fill="#5c4f2f" d="M 153.085938 183.3125 L 145.453125 183.3125 L 145.453125 190.957031 L 153.085938 190.957031 L 153.085938 213.871094 L 168.367188 213.871094 L 168.367188 206.226562 L 183.640625 206.226562 L 183.640625 213.871094 L 198.921875 213.871094 L 198.921875 206.226562 L 191.277344 206.226562 L 191.277344 190.957031 L 183.640625 190.957031 L 183.640625 183.3125 L 168.367188 183.3125 L 168.367188 175.679688 L 153.085938 175.679688 L 153.085938 183.3125 " fill-opacity="1" fill-rule="nonzero"/></g><path fill="#5c4f2f" d="M 137.820312 152.769531 L 137.824219 145.125 L 145.453125 145.132812 L 145.457031 137.492188 L 137.820312 137.484375 L 137.824219 129.851562 L 130.175781 129.847656 L 130.167969 137.492188 L 122.539062 137.484375 L 122.535156 145.125 L 130.175781 145.132812 L 130.167969 152.769531 L 137.820312 152.769531 " fill-opacity="1" fill-rule="nonzero"/><path fill="#5c4f2f" d="M 122.539062 137.492188 L 122.539062 145.125 L 130.175781 145.125 L 130.175781 152.765625 L 137.820312 152.765625 L 137.820312 145.125 L 145.453125 145.125 L 145.453125 137.492188 L 137.820312 137.492188 L 137.820312 129.851562 L 130.175781 129.851562 L 130.175781 137.492188 L 122.539062 137.492188 " fill-opacity="1" fill-rule="nonzero"/><path fill="#3a301e" d="M 153.085938 129.855469 L 153.09375 122.210938 L 145.453125 122.207031 L 145.449219 129.855469 L 153.085938 129.855469 " fill-opacity="1" fill-rule="nonzero"/><path fill="#3a301e" d="M 145.453125 122.210938 L 145.453125 129.851562 L 153.085938 129.851562 L 153.085938 122.210938 L 145.453125 122.210938 " fill-opacity="1" fill-rule="nonzero"/><path fill="#3a301e" d="M 168.367188 198.597656 L 168.371094 190.957031 L 160.730469 190.953125 L 160.722656 198.597656 L 168.367188 198.597656 " fill-opacity="1" fill-rule="nonzero"/><path fill="#3a301e" d="M 168.367188 190.957031 L 160.730469 190.957031 L 160.730469 198.589844 L 168.367188 198.589844 L 168.367188 190.957031 " fill-opacity="1" fill-rule="nonzero"/><path fill="#3a301e" d="M 183.640625 114.582031 L 183.648438 106.933594 L 176 106.925781 L 176.007812 91.664062 L 168.367188 91.660156 L 168.371094 84.023438 L 130.175781 84.019531 L 130.167969 91.664062 L 122.539062 91.660156 L 122.535156 99.296875 L 153.085938 99.304688 L 153.082031 106.933594 L 168.367188 106.9375 L 168.363281 114.582031 L 183.640625 114.582031 " fill-opacity="1" fill-rule="nonzero"/><path fill="#3a301e" d="M 183.640625 114.578125 L 183.640625 106.933594 L 176 106.933594 L 176 91.664062 L 168.367188 91.664062 L 168.367188 84.023438 L 130.175781 84.023438 L 130.175781 91.664062 L 122.539062 91.664062 L 122.539062 99.296875 L 153.085938 99.296875 L 153.085938 106.933594 L 168.367188 106.933594 L 168.367188 114.578125 L 183.640625 114.578125 " fill-opacity="1" fill-rule="nonzero"/><g clip-path="url(#2c62d93ca3)"><path fill="#3a301e" d="M 183.640625 213.875 L 183.648438 206.226562 L 168.367188 206.21875 L 168.363281 213.875 L 183.640625 213.875 " fill-opacity="1" fill-rule="nonzero"/><path fill="#3a301e" d="M 168.367188 206.226562 L 168.367188 213.871094 L 183.640625 213.871094 L 183.640625 206.226562 L 168.367188 206.226562 " fill-opacity="1" fill-rule="nonzero"/></g><g clip-path="url(#962f0c18a3)"><path fill="#3a301e" d="M 153.085938 213.875 L 153.09375 190.957031 L 145.453125 190.953125 L 145.457031 183.3125 L 153.085938 183.316406 L 153.09375 168.039062 L 145.453125 168.035156 L 145.457031 152.765625 L 153.085938 152.769531 L 153.09375 145.125 L 160.730469 145.132812 L 160.734375 137.492188 L 145.453125 137.484375 L 145.457031 129.851562 L 137.820312 129.847656 L 137.816406 137.492188 L 130.175781 137.484375 L 130.179688 129.851562 L 122.539062 129.847656 L 122.535156 137.492188 L 107.261719 137.484375 L 107.257812 145.125 L 122.539062 145.132812 L 122.535156 152.765625 L 130.175781 152.769531 L 130.167969 160.398438 L 137.820312 160.402344 L 137.816406 168.039062 L 114.894531 168.035156 L 114.890625 175.679688 L 130.175781 175.683594 L 130.167969 183.3125 L 122.539062 183.308594 L 122.535156 190.957031 L 114.894531 190.953125 L 114.890625 198.589844 L 107.261719 198.585938 L 107.257812 206.226562 L 99.628906 206.21875 L 99.621094 213.875 L 153.085938 213.875 " fill-opacity="1" fill-rule="nonzero"/><path fill="#3a301e" d="M 99.628906 206.226562 L 99.628906 213.871094 L 153.085938 213.871094 L 153.085938 190.957031 L 145.453125 190.957031 L 145.453125 183.3125 L 153.085938 183.3125 L 153.085938 168.039062 L 145.453125 168.039062 L 145.453125 152.765625 L 153.085938 152.765625 L 153.085938 145.125 L 160.730469 145.125 L 160.730469 137.492188 L 145.453125 137.492188 L 145.453125 129.851562 L 137.820312 129.851562 L 137.820312 137.492188 L 130.175781 137.492188 L 130.175781 129.851562 L 122.539062 129.851562 L 122.539062 137.492188 L 107.261719 137.492188 L 107.261719 145.125 L 122.539062 145.125 L 122.539062 152.765625 L 130.175781 152.765625 L 130.175781 160.398438 L 137.820312 160.398438 L 137.820312 168.039062 L 114.894531 168.039062 L 114.894531 175.679688 L 130.175781 175.679688 L 130.175781 183.3125 L 122.539062 183.3125 L 122.539062 190.957031 L 114.894531 190.957031 L 114.894531 198.589844 L 107.261719 198.589844 L 107.261719 206.226562 L 99.628906 206.226562 " fill-opacity="1" fill-rule="nonzero"/></g><g clip-path="url(#e17cf6501b)"><path fill="#4e8b39" d="M 237.144531 76.390625 L 237.152344 68.746094 L 229.503906 68.742188 L 229.511719 61.113281 L 214.226562 61.105469 L 214.230469 53.476562 L 206.589844 53.472656 L 206.597656 45.832031 L 183.679688 45.824219 L 183.671875 53.476562 L 191.3125 53.484375 L 191.308594 68.746094 L 214.226562 68.75 L 214.21875 76.390625 L 237.144531 76.390625 " fill-opacity="1" fill-rule="nonzero"/><path fill="#4e8b39" d="M 214.226562 68.746094 L 214.226562 76.382812 L 237.144531 76.382812 L 237.144531 68.746094 L 229.503906 68.746094 L 229.503906 61.113281 L 214.226562 61.113281 L 214.226562 53.476562 L 206.589844 53.476562 L 206.589844 45.832031 L 183.679688 45.832031 L 183.679688 53.476562 L 191.3125 53.476562 L 191.3125 68.746094 L 214.226562 68.746094 " fill-opacity="1" fill-rule="nonzero"/></g><path fill="#4e8b39" d="M 107.300781 160.402344 L 107.304688 152.765625 L 92.027344 152.761719 L 92.03125 145.125 L 84.382812 145.121094 L 84.378906 152.765625 L 76.746094 152.761719 L 76.742188 160.402344 L 107.300781 160.402344 " fill-opacity="1" fill-rule="nonzero"/><path fill="#4e8b39" d="M 84.382812 152.765625 L 76.746094 152.765625 L 76.746094 160.398438 L 107.300781 160.398438 L 107.300781 152.765625 L 92.027344 152.765625 L 92.027344 145.125 L 84.382812 145.125 L 84.382812 152.765625 " fill-opacity="1" fill-rule="nonzero"/><path fill="#4e8b39" d="M 206.589844 137.496094 L 206.597656 129.851562 L 198.957031 129.847656 L 198.960938 122.210938 L 191.3125 122.207031 L 191.316406 114.578125 L 168.40625 114.570312 L 168.398438 122.210938 L 176.039062 122.21875 L 176.035156 129.851562 L 191.3125 129.855469 L 191.308594 137.496094 L 206.589844 137.496094 " fill-opacity="1" fill-rule="nonzero"/><path fill="#4e8b39" d="M 168.40625 114.578125 L 168.40625 122.210938 L 176.039062 122.210938 L 176.039062 129.851562 L 191.3125 129.851562 L 191.3125 137.492188 L 206.589844 137.492188 L 206.589844 129.851562 L 198.957031 129.851562 L 198.957031 122.210938 L 191.3125 122.210938 L 191.3125 114.578125 L 168.40625 114.578125 " fill-opacity="1" fill-rule="nonzero"/><path fill="#4e8b39" d="M 183.679688 38.203125 L 183.683594 22.917969 L 176.039062 22.914062 L 176.042969 15.285156 L 168.40625 15.277344 L 168.410156 7.644531 L 153.125 7.640625 L 153.132812 0.00390625 L 114.933594 0 L 114.925781 7.644531 L 122.578125 7.648438 L 122.570312 15.285156 L 130.210938 15.289062 L 130.207031 22.917969 L 168.40625 22.925781 L 168.398438 30.554688 L 176.039062 30.558594 L 176.035156 38.203125 L 183.679688 38.203125 " fill-opacity="1" fill-rule="nonzero"/><path fill="#4e8b39" d="M 122.578125 15.285156 L 130.210938 15.285156 L 130.210938 22.917969 L 168.40625 22.917969 L 168.40625 30.554688 L 176.039062 30.554688 L 176.039062 38.199219 L 183.679688 38.199219 L 183.679688 22.917969 L 176.039062 22.917969 L 176.039062 15.285156 L 168.40625 15.285156 L 168.40625 7.644531 L 153.125 7.644531 L 153.125 0.00390625 L 114.933594 0.00390625 L 114.933594 7.644531 L 122.578125 7.644531 L 122.578125 15.285156 " fill-opacity="1" fill-rule="nonzero"/><path fill="#4e8b39" d="M 122.578125 91.667969 L 122.582031 84.023438 L 107.300781 84.019531 L 107.304688 76.382812 L 99.664062 76.378906 L 99.671875 68.746094 L 84.382812 68.742188 L 84.390625 61.113281 L 61.476562 61.105469 L 61.472656 84.023438 L 84.382812 84.03125 L 84.378906 91.667969 L 122.578125 91.667969 " fill-opacity="1" fill-rule="nonzero"/><path fill="#4e8b39" d="M 122.578125 91.664062 L 122.578125 84.023438 L 107.300781 84.023438 L 107.300781 76.382812 L 99.664062 76.382812 L 99.664062 68.746094 L 84.382812 68.746094 L 84.382812 61.113281 L 61.476562 61.113281 L 61.476562 84.023438 L 84.382812 84.023438 L 84.382812 91.664062 L 122.578125 91.664062 " fill-opacity="1" fill-rule="nonzero"/><path fill="#4e8b39" d="M 84.382812 129.855469 L 84.390625 122.210938 L 76.746094 122.207031 L 76.75 114.578125 L 61.476562 114.570312 L 61.484375 106.933594 L 46.199219 106.925781 L 46.203125 99.296875 L 30.917969 99.292969 L 30.914062 106.933594 L 38.554688 106.9375 L 38.546875 114.578125 L 53.832031 114.582031 L 53.828125 122.210938 L 69.113281 122.21875 L 69.105469 129.855469 L 84.382812 129.855469 " fill-opacity="1" fill-rule="nonzero"/><path fill="#4e8b39" d="M 30.917969 99.296875 L 30.917969 106.933594 L 38.554688 106.933594 L 38.554688 114.578125 L 53.832031 114.578125 L 53.832031 122.210938 L 69.113281 122.210938 L 69.113281 129.851562 L 84.382812 129.851562 L 84.382812 122.210938 L 76.746094 122.210938 L 76.746094 114.578125 L 61.476562 114.578125 L 61.476562 106.933594 L 46.199219 106.933594 L 46.199219 99.296875 L 30.917969 99.296875 " fill-opacity="1" fill-rule="nonzero"/><path fill="#356939" d="M 214.226562 145.132812 L 214.230469 137.492188 L 221.871094 137.496094 L 221.875 129.851562 L 214.226562 129.847656 L 214.230469 122.210938 L 198.957031 122.207031 L 198.953125 129.851562 L 206.589844 129.855469 L 206.585938 137.492188 L 191.3125 137.484375 L 191.316406 129.851562 L 176.039062 129.847656 L 176.042969 122.210938 L 153.125 122.207031 L 153.121094 129.851562 L 168.40625 129.855469 L 168.398438 137.492188 L 176.039062 137.496094 L 176.035156 145.132812 L 214.226562 145.132812 " fill-opacity="1" fill-rule="nonzero"/><path fill="#356939" d="M 153.125 122.210938 L 153.125 129.851562 L 168.40625 129.851562 L 168.40625 137.492188 L 176.039062 137.492188 L 176.039062 145.125 L 214.226562 145.125 L 214.226562 137.492188 L 221.871094 137.492188 L 221.871094 129.851562 L 214.226562 129.851562 L 214.226562 122.210938 L 198.957031 122.210938 L 198.957031 129.851562 L 206.589844 129.851562 L 206.589844 137.492188 L 191.3125 137.492188 L 191.3125 129.851562 L 176.039062 129.851562 L 176.039062 122.210938 L 153.125 122.210938 " fill-opacity="1" fill-rule="nonzero"/><path fill="#356939" d="M 229.503906 84.03125 L 229.511719 76.382812 L 214.226562 76.378906 L 214.230469 68.746094 L 191.3125 68.742188 L 191.316406 53.476562 L 183.679688 53.472656 L 183.683594 45.832031 L 176.039062 45.824219 L 176.035156 53.476562 L 160.765625 53.472656 L 160.761719 61.113281 L 145.492188 61.105469 L 145.496094 53.476562 L 153.125 53.484375 L 153.132812 45.832031 L 168.40625 45.835938 L 168.410156 38.199219 L 176.039062 38.203125 L 176.042969 30.554688 L 168.40625 30.546875 L 168.410156 22.917969 L 130.210938 22.914062 L 130.21875 15.285156 L 92.027344 15.277344 L 92.019531 22.917969 L 84.382812 22.914062 L 84.378906 30.554688 L 76.746094 30.546875 L 76.742188 38.199219 L 84.382812 38.203125 L 84.378906 45.832031 L 107.300781 45.835938 L 107.292969 53.476562 L 114.933594 53.484375 L 114.925781 61.113281 L 137.855469 61.117188 L 137.851562 68.746094 L 153.125 68.75 L 153.121094 76.382812 L 191.3125 76.390625 L 191.308594 84.03125 L 229.503906 84.03125 " fill-opacity="1" fill-rule="nonzero"/><path fill="#356939" d="M 137.855469 68.746094 L 153.125 68.746094 L 153.125 76.382812 L 191.3125 76.382812 L 191.3125 84.023438 L 229.503906 84.023438 L 229.503906 76.382812 L 214.226562 76.382812 L 214.226562 68.746094 L 191.3125 68.746094 L 191.3125 53.476562 L 183.679688 53.476562 L 183.679688 45.832031 L 176.039062 45.832031 L 176.039062 53.476562 L 160.765625 53.476562 L 160.765625 61.113281 L 145.492188 61.113281 L 145.492188 53.476562 L 153.125 53.476562 L 153.125 45.832031 L 168.40625 45.832031 L 168.40625 38.199219 L 176.039062 38.199219 L 176.039062 30.554688 L 168.40625 30.554688 L 168.40625 22.917969 L 130.210938 22.917969 L 130.210938 15.285156 L 92.027344 15.285156 L 92.027344 22.917969 L 84.382812 22.917969 L 84.382812 30.554688 L 76.746094 30.554688 L 76.746094 38.199219 L 84.382812 38.199219 L 84.382812 45.832031 L 107.300781 45.832031 L 107.300781 53.476562 L 114.933594 53.476562 L 114.933594 61.113281 L 137.855469 61.113281 L 137.855469 68.746094 " fill-opacity="1" fill-rule="nonzero"/><path fill="#356939" d="M 137.855469 168.042969 L 137.863281 160.398438 L 130.210938 160.394531 L 130.21875 152.765625 L 107.300781 152.761719 L 107.292969 160.398438 L 114.933594 160.402344 L 114.925781 168.042969 L 137.855469 168.042969 " fill-opacity="1" fill-rule="nonzero"/><path fill="#356939" d="M 107.300781 152.765625 L 107.300781 160.398438 L 114.933594 160.398438 L 114.933594 168.039062 L 137.855469 168.039062 L 137.855469 160.398438 L 130.210938 160.398438 L 130.210938 152.765625 L 107.300781 152.765625 " fill-opacity="1" fill-rule="nonzero"/><path fill="#356939" d="M 61.476562 84.03125 L 61.484375 68.746094 L 53.832031 68.742188 L 53.828125 84.03125 L 61.476562 84.03125 " fill-opacity="1" fill-rule="nonzero"/><path fill="#356939" d="M 53.832031 84.023438 L 61.476562 84.023438 L 61.476562 68.746094 L 53.832031 68.746094 L 53.832031 84.023438 " fill-opacity="1" fill-rule="nonzero"/><path fill="#356939" d="M 99.664062 168.042969 L 99.671875 160.398438 L 76.746094 160.394531 L 76.75 152.765625 L 84.382812 152.769531 L 84.390625 137.492188 L 69.113281 137.484375 L 69.105469 145.125 L 61.476562 145.121094 L 61.472656 160.398438 L 46.199219 160.394531 L 46.191406 168.042969 L 99.664062 168.042969 " fill-opacity="1" fill-rule="nonzero"/><path fill="#356939" d="M 69.113281 137.492188 L 69.113281 145.125 L 61.476562 145.125 L 61.476562 160.398438 L 46.199219 160.398438 L 46.199219 168.039062 L 99.664062 168.039062 L 99.664062 160.398438 L 76.746094 160.398438 L 76.746094 152.765625 L 84.382812 152.765625 L 84.382812 137.492188 L 69.113281 137.492188 " fill-opacity="1" fill-rule="nonzero"/><path fill="#356939" d="M 122.578125 99.304688 L 122.582031 91.664062 L 84.382812 91.660156 L 84.390625 84.023438 L 61.476562 84.019531 L 61.472656 91.664062 L 76.746094 91.667969 L 76.742188 99.304688 L 122.578125 99.304688 " fill-opacity="1" fill-rule="nonzero"/><path fill="#356939" d="M 61.476562 84.023438 L 61.476562 91.664062 L 76.746094 91.664062 L 76.746094 99.296875 L 122.578125 99.296875 L 122.578125 91.664062 L 84.382812 91.664062 L 84.382812 84.023438 L 61.476562 84.023438 " fill-opacity="1" fill-rule="nonzero"/><path fill="#356939" d="M 107.300781 152.769531 L 107.304688 145.125 L 92.027344 145.121094 L 92.019531 152.769531 L 107.300781 152.769531 " fill-opacity="1" fill-rule="nonzero"/><path fill="#356939" d="M 107.300781 152.765625 L 107.300781 145.125 L 92.027344 145.125 L 92.027344 152.765625 L 107.300781 152.765625 " fill-opacity="1" fill-rule="nonzero"/><path fill="#356939" d="M 46.199219 145.132812 L 46.203125 137.492188 L 69.113281 137.496094 L 69.117188 122.210938 L 53.832031 122.207031 L 53.835938 114.578125 L 38.554688 114.570312 L 38.558594 106.933594 L 23.285156 106.925781 L 23.277344 129.851562 L 15.644531 129.847656 L 15.640625 137.492188 L 30.917969 137.496094 L 30.914062 145.132812 L 46.199219 145.132812 " fill-opacity="1" fill-rule="nonzero"/><path fill="#356939" d="M 15.644531 129.851562 L 15.644531 137.492188 L 30.917969 137.492188 L 30.917969 145.125 L 46.199219 145.125 L 46.199219 137.492188 L 69.113281 137.492188 L 69.113281 122.210938 L 53.832031 122.210938 L 53.832031 114.578125 L 38.554688 114.578125 L 38.554688 106.933594 L 23.285156 106.933594 L 23.285156 129.851562 L 15.644531 129.851562 " fill-opacity="1" fill-rule="nonzero"/><path fill="#1f373a" d="M 107.300781 145.132812 L 107.304688 137.492188 L 84.382812 137.484375 L 84.378906 145.132812 L 107.300781 145.132812 " fill-opacity="1" fill-rule="nonzero"/><path fill="#1f373a" d="M 107.300781 145.125 L 107.300781 137.492188 L 84.382812 137.492188 L 84.382812 145.125 L 107.300781 145.125 " fill-opacity="1" fill-rule="nonzero"/><path fill="#1f373a" d="M 114.933594 175.683594 L 114.9375 160.398438 L 99.664062 160.394531 L 99.660156 168.039062 L 69.113281 168.035156 L 69.105469 175.683594 L 114.933594 175.683594 " fill-opacity="1" fill-rule="nonzero"/><path fill="#1f373a" d="M 69.113281 168.039062 L 69.113281 175.679688 L 114.933594 175.679688 L 114.933594 160.398438 L 99.664062 160.398438 L 99.664062 168.039062 L 69.113281 168.039062 " fill-opacity="1" fill-rule="nonzero"/><path fill="#1f373a" d="M 76.746094 137.496094 L 76.75 129.851562 L 69.113281 129.847656 L 69.105469 137.496094 L 76.746094 137.496094 " fill-opacity="1" fill-rule="nonzero"/><path fill="#1f373a" d="M 69.113281 129.851562 L 69.113281 137.492188 L 76.746094 137.492188 L 76.746094 129.851562 L 69.113281 129.851562 " fill-opacity="1" fill-rule="nonzero"/><path fill="#1f373a" d="M 99.664062 106.9375 L 99.671875 99.296875 L 76.746094 99.292969 L 76.75 91.664062 L 61.476562 91.660156 L 61.484375 84.023438 L 53.832031 84.019531 L 53.835938 76.382812 L 46.199219 76.378906 L 46.191406 91.664062 L 53.832031 91.667969 L 53.828125 99.296875 L 69.113281 99.304688 L 69.105469 106.9375 L 99.664062 106.9375 " fill-opacity="1" fill-rule="nonzero"/><path fill="#1f373a" d="M 61.476562 91.664062 L 61.476562 84.023438 L 53.832031 84.023438 L 53.832031 76.382812 L 46.199219 76.382812 L 46.199219 91.664062 L 53.832031 91.664062 L 53.832031 99.296875 L 69.113281 99.296875 L 69.113281 106.933594 L 99.664062 106.933594 L 99.664062 99.296875 L 76.746094 99.296875 L 76.746094 91.664062 L 61.476562 91.664062 " fill-opacity="1" fill-rule="nonzero"/><g clip-path="url(#fe1bb0f615)"><path fill="#1f373a" d="M 53.832031 152.769531 L 53.835938 145.125 L 69.113281 145.132812 L 69.117188 137.492188 L 46.199219 137.484375 L 46.191406 145.125 L 30.917969 145.121094 L 30.925781 137.492188 L 15.644531 137.484375 L 15.648438 129.851562 L 23.285156 129.855469 L 23.289062 114.578125 L 15.644531 114.570312 L 15.640625 122.210938 L 8.003906 122.207031 L 8 129.851562 L 0.363281 129.847656 L 0.359375 137.492188 L 8.003906 137.496094 L 8 145.125 L 23.285156 145.132812 L 23.277344 152.769531 L 53.832031 152.769531 " fill-opacity="1" fill-rule="nonzero"/><path fill="#1f373a" d="M 0.363281 129.851562 L 0.363281 137.492188 L 8.003906 137.492188 L 8.003906 145.125 L 23.285156 145.125 L 23.285156 152.765625 L 53.832031 152.765625 L 53.832031 145.125 L 69.113281 145.125 L 69.113281 137.492188 L 46.199219 137.492188 L 46.199219 145.125 L 30.917969 145.125 L 30.917969 137.492188 L 15.644531 137.492188 L 15.644531 129.851562 L 23.285156 129.851562 L 23.285156 114.578125 L 15.644531 114.578125 L 15.644531 122.210938 L 8.003906 122.210938 L 8.003906 129.851562 L 0.363281 129.851562 " fill-opacity="1" fill-rule="nonzero"/></g><path fill="#1f373a" d="M 160.765625 61.117188 L 160.769531 53.476562 L 176.039062 53.484375 L 176.042969 45.832031 L 183.679688 45.835938 L 183.683594 38.199219 L 168.40625 38.191406 L 168.398438 45.832031 L 153.125 45.824219 L 153.121094 53.476562 L 145.492188 53.472656 L 145.484375 61.117188 L 160.765625 61.117188 " fill-opacity="1" fill-rule="nonzero"/><path fill="#1f373a" d="M 176.039062 45.832031 L 183.679688 45.832031 L 183.679688 38.199219 L 168.40625 38.199219 L 168.40625 45.832031 L 153.125 45.832031 L 153.125 53.476562 L 145.492188 53.476562 L 145.492188 61.113281 L 160.765625 61.113281 L 160.765625 53.476562 L 176.039062 53.476562 L 176.039062 45.832031 " fill-opacity="1" fill-rule="nonzero"/><path fill="#1f373a" d="M 198.957031 99.304688 L 198.960938 91.664062 L 206.589844 91.667969 L 206.597656 84.023438 L 191.3125 84.019531 L 191.316406 76.382812 L 153.125 76.378906 L 153.132812 68.746094 L 137.855469 68.742188 L 137.863281 61.113281 L 114.933594 61.105469 L 114.9375 53.476562 L 107.300781 53.472656 L 107.304688 45.832031 L 84.382812 45.824219 L 84.390625 38.199219 L 69.113281 38.191406 L 69.105469 45.832031 L 76.746094 45.835938 L 76.742188 53.476562 L 99.664062 53.484375 L 99.660156 61.113281 L 107.300781 61.117188 L 107.292969 68.746094 L 130.210938 68.75 L 130.207031 76.382812 L 145.492188 76.390625 L 145.484375 84.023438 L 176.039062 84.03125 L 176.035156 91.664062 L 183.679688 91.667969 L 183.671875 99.304688 L 198.957031 99.304688 " fill-opacity="1" fill-rule="nonzero"/><path fill="#1f373a" d="M 130.210938 68.746094 L 130.210938 76.382812 L 145.492188 76.382812 L 145.492188 84.023438 L 176.039062 84.023438 L 176.039062 91.664062 L 183.679688 91.664062 L 183.679688 99.296875 L 198.957031 99.296875 L 198.957031 91.664062 L 206.589844 91.664062 L 206.589844 84.023438 L 191.3125 84.023438 L 191.3125 76.382812 L 153.125 76.382812 L 153.125 68.746094 L 137.855469 68.746094 L 137.855469 61.113281 L 114.933594 61.113281 L 114.933594 53.476562 L 107.300781 53.476562 L 107.300781 45.832031 L 84.382812 45.832031 L 84.382812 38.199219 L 69.113281 38.199219 L 69.113281 45.832031 L 76.746094 45.832031 L 76.746094 53.476562 L 99.664062 53.476562 L 99.664062 61.113281 L 107.300781 61.113281 L 107.300781 68.746094 L 130.210938 68.746094 " fill-opacity="1" fill-rule="nonzero"/><path fill="#1f373a" d="M 168.40625 122.21875 L 168.410156 114.578125 L 160.765625 114.570312 L 160.761719 122.21875 L 168.40625 122.21875 " fill-opacity="1" fill-rule="nonzero"/><path fill="#1f373a" d="M 160.765625 122.210938 L 168.40625 122.210938 L 168.40625 114.578125 L 160.765625 114.578125 L 160.765625 122.210938 " fill-opacity="1" fill-rule="nonzero"/><path fill="#1f373a" d="M 198.957031 152.769531 L 198.960938 145.125 L 176.039062 145.121094 L 176.042969 137.492188 L 168.40625 137.484375 L 168.410156 129.851562 L 145.492188 129.847656 L 145.484375 137.492188 L 160.765625 137.496094 L 160.761719 145.125 L 168.40625 145.132812 L 168.398438 152.769531 L 198.957031 152.769531 " fill-opacity="1" fill-rule="nonzero"/><path fill="#1f373a" d="M 145.492188 129.851562 L 145.492188 137.492188 L 160.765625 137.492188 L 160.765625 145.125 L 168.40625 145.125 L 168.40625 152.765625 L 198.957031 152.765625 L 198.957031 145.125 L 176.039062 145.125 L 176.039062 137.492188 L 168.40625 137.492188 L 168.40625 129.851562 L 145.492188 129.851562 " fill-opacity="1" fill-rule="nonzero"/><path fill="#1f373a" d="M 122.578125 152.769531 L 122.582031 145.125 L 107.300781 145.121094 L 107.292969 152.769531 L 122.578125 152.769531 " fill-opacity="1" fill-rule="nonzero"/><path fill="#1f373a" d="M 122.578125 152.765625 L 122.578125 145.125 L 107.300781 145.125 L 107.300781 152.765625 L 122.578125 152.765625 " fill-opacity="1" fill-rule="nonzero"/><path fill="#5c4f2f" d="M 145.492188 129.855469 L 145.496094 122.210938 L 137.855469 122.207031 L 137.851562 129.855469 L 145.492188 129.855469 " fill-opacity="1" fill-rule="nonzero"/><path fill="#5c4f2f" d="M 137.855469 122.210938 L 137.855469 129.851562 L 145.492188 129.851562 L 145.492188 122.210938 L 137.855469 122.210938 " fill-opacity="1" fill-rule="nonzero"/><path fill="#5c4f2f" d="M 191.3125 114.582031 L 191.316406 106.933594 L 183.679688 106.925781 L 183.671875 114.582031 L 191.3125 114.582031 " fill-opacity="1" fill-rule="nonzero"/><path fill="#5c4f2f" d="M 183.679688 114.578125 L 191.3125 114.578125 L 191.3125 106.933594 L 183.679688 106.933594 L 183.679688 114.578125 " fill-opacity="1" fill-rule="nonzero"/><path fill="#5c4f2f" d="M 183.679688 106.9375 L 183.683594 99.296875 L 176.039062 99.292969 L 176.035156 106.9375 L 183.679688 106.9375 " fill-opacity="1" fill-rule="nonzero"/><path fill="#5c4f2f" d="M 176.039062 106.933594 L 183.679688 106.933594 L 183.679688 99.296875 L 176.039062 99.296875 L 176.039062 106.933594 " fill-opacity="1" fill-rule="nonzero"/><path fill="#5c4f2f" d="M 198.957031 122.21875 L 198.960938 114.578125 L 191.3125 114.570312 L 191.308594 122.21875 L 198.957031 122.21875 " fill-opacity="1" fill-rule="nonzero"/><path fill="#5c4f2f" d="M 191.3125 122.210938 L 198.957031 122.210938 L 198.957031 114.578125 L 191.3125 114.578125 L 191.3125 122.210938 " fill-opacity="1" fill-rule="nonzero"/><path fill="#5c4f2f" d="M 176.039062 91.667969 L 176.042969 84.023438 L 168.40625 84.019531 L 168.398438 91.667969 L 176.039062 91.667969 " fill-opacity="1" fill-rule="nonzero"/><path fill="#5c4f2f" d="M 168.40625 91.664062 L 176.039062 91.664062 L 176.039062 84.023438 L 168.40625 84.023438 L 168.40625 91.664062 " fill-opacity="1" fill-rule="nonzero"/><g clip-path="url(#6beff6dc0d)"><path fill="#5c4f2f" d="M 168.40625 213.875 L 168.410156 206.226562 L 183.679688 206.230469 L 183.671875 213.871094 L 198.957031 213.875 L 198.960938 206.226562 L 191.3125 206.21875 L 191.316406 190.957031 L 183.679688 190.953125 L 183.683594 183.3125 L 168.40625 183.308594 L 168.410156 175.679688 L 153.125 175.671875 L 153.121094 183.3125 L 145.492188 183.308594 L 145.484375 190.957031 L 153.125 190.960938 L 153.121094 213.875 L 168.40625 213.875 " fill-opacity="1" fill-rule="nonzero"/><path fill="#5c4f2f" d="M 153.125 183.3125 L 145.492188 183.3125 L 145.492188 190.957031 L 153.125 190.957031 L 153.125 213.871094 L 168.40625 213.871094 L 168.40625 206.226562 L 183.679688 206.226562 L 183.679688 213.871094 L 198.957031 213.871094 L 198.957031 206.226562 L 191.3125 206.226562 L 191.3125 190.957031 L 183.679688 190.957031 L 183.679688 183.3125 L 168.40625 183.3125 L 168.40625 175.679688 L 153.125 175.679688 L 153.125 183.3125 " fill-opacity="1" fill-rule="nonzero"/></g><path fill="#5c4f2f" d="M 137.855469 152.769531 L 137.863281 145.125 L 145.492188 145.132812 L 145.496094 137.492188 L 137.855469 137.484375 L 137.863281 129.851562 L 130.210938 129.847656 L 130.207031 137.492188 L 122.578125 137.484375 L 122.570312 145.125 L 130.210938 145.132812 L 130.207031 152.769531 L 137.855469 152.769531 " fill-opacity="1" fill-rule="nonzero"/><path fill="#5c4f2f" d="M 122.578125 137.492188 L 122.578125 145.125 L 130.210938 145.125 L 130.210938 152.765625 L 137.855469 152.765625 L 137.855469 145.125 L 145.492188 145.125 L 145.492188 137.492188 L 137.855469 137.492188 L 137.855469 129.851562 L 130.210938 129.851562 L 130.210938 137.492188 L 122.578125 137.492188 " fill-opacity="1" fill-rule="nonzero"/><path fill="#3a301e" d="M 153.125 129.855469 L 153.132812 122.210938 L 145.492188 122.207031 L 145.484375 129.855469 L 153.125 129.855469 " fill-opacity="1" fill-rule="nonzero"/><path fill="#3a301e" d="M 145.492188 122.210938 L 145.492188 129.851562 L 153.125 129.851562 L 153.125 122.210938 L 145.492188 122.210938 " fill-opacity="1" fill-rule="nonzero"/><path fill="#3a301e" d="M 168.40625 198.597656 L 168.410156 190.957031 L 160.765625 190.953125 L 160.761719 198.597656 L 168.40625 198.597656 " fill-opacity="1" fill-rule="nonzero"/><path fill="#3a301e" d="M 168.40625 190.957031 L 160.765625 190.957031 L 160.765625 198.589844 L 168.40625 198.589844 L 168.40625 190.957031 " fill-opacity="1" fill-rule="nonzero"/><path fill="#3a301e" d="M 183.679688 114.582031 L 183.683594 106.933594 L 176.039062 106.925781 L 176.042969 91.664062 L 168.40625 91.660156 L 168.410156 84.023438 L 130.210938 84.019531 L 130.207031 91.664062 L 122.578125 91.660156 L 122.570312 99.296875 L 153.125 99.304688 L 153.121094 106.933594 L 168.40625 106.9375 L 168.398438 114.582031 L 183.679688 114.582031 " fill-opacity="1" fill-rule="nonzero"/><path fill="#3a301e" d="M 183.679688 114.578125 L 183.679688 106.933594 L 176.039062 106.933594 L 176.039062 91.664062 L 168.40625 91.664062 L 168.40625 84.023438 L 130.210938 84.023438 L 130.210938 91.664062 L 122.578125 91.664062 L 122.578125 99.296875 L 153.125 99.296875 L 153.125 106.933594 L 168.40625 106.933594 L 168.40625 114.578125 L 183.679688 114.578125 " fill-opacity="1" fill-rule="nonzero"/><g clip-path="url(#d1e5b54a92)"><path fill="#3a301e" d="M 183.679688 213.875 L 183.683594 206.226562 L 168.40625 206.21875 L 168.398438 213.875 L 183.679688 213.875 " fill-opacity="1" fill-rule="nonzero"/><path fill="#3a301e" d="M 168.40625 206.226562 L 168.40625 213.871094 L 183.679688 213.871094 L 183.679688 206.226562 L 168.40625 206.226562 " fill-opacity="1" fill-rule="nonzero"/></g><g clip-path="url(#60ee17ccc9)"><path fill="#3a301e" d="M 153.125 213.875 L 153.132812 190.957031 L 145.492188 190.953125 L 145.496094 183.3125 L 153.125 183.316406 L 153.132812 168.039062 L 145.492188 168.035156 L 145.496094 152.765625 L 153.125 152.769531 L 153.132812 145.125 L 160.765625 145.132812 L 160.769531 137.492188 L 145.492188 137.484375 L 145.496094 129.851562 L 137.855469 129.847656 L 137.851562 137.492188 L 130.210938 137.484375 L 130.21875 129.851562 L 122.578125 129.847656 L 122.570312 137.492188 L 107.300781 137.484375 L 107.292969 145.125 L 122.578125 145.132812 L 122.570312 152.765625 L 130.210938 152.769531 L 130.207031 160.398438 L 137.855469 160.402344 L 137.851562 168.039062 L 114.933594 168.035156 L 114.925781 175.679688 L 130.210938 175.683594 L 130.207031 183.3125 L 122.578125 183.308594 L 122.570312 190.957031 L 114.933594 190.953125 L 114.925781 198.589844 L 107.300781 198.585938 L 107.292969 206.226562 L 99.664062 206.21875 L 99.660156 213.875 L 153.125 213.875 " fill-opacity="1" fill-rule="nonzero"/><path fill="#3a301e" d="M 99.664062 206.226562 L 99.664062 213.871094 L 153.125 213.871094 L 153.125 190.957031 L 145.492188 190.957031 L 145.492188 183.3125 L 153.125 183.3125 L 153.125 168.039062 L 145.492188 168.039062 L 145.492188 152.765625 L 153.125 152.765625 L 153.125 145.125 L 160.765625 145.125 L 160.765625 137.492188 L 145.492188 137.492188 L 145.492188 129.851562 L 137.855469 129.851562 L 137.855469 137.492188 L 130.210938 137.492188 L 130.210938 129.851562 L 122.578125 129.851562 L 122.578125 137.492188 L 107.300781 137.492188 L 107.300781 145.125 L 122.578125 145.125 L 122.578125 152.765625 L 130.210938 152.765625 L 130.210938 160.398438 L 137.855469 160.398438 L 137.855469 168.039062 L 114.933594 168.039062 L 114.933594 175.679688 L 130.210938 175.679688 L 130.210938 183.3125 L 122.578125 183.3125 L 122.578125 190.957031 L 114.933594 190.957031 L 114.933594 198.589844 L 107.300781 198.589844 L 107.300781 206.226562 L 99.664062 206.226562 " fill-opacity="1" fill-rule="nonzero"/></g></svg>